/* XPM */
static char *result[] = {
/* columns rows colors chars-per-pixel */
"64 64 246 2 ",
"   c #13161B",
".  c #17191D",
"X  c #0F171D",
"o  c #241C1E",
"O  c #28251D",
"+  c #33261D",
"@  c #161C21",
"#  c #1A1E22",
"$  c #171720",
"%  c #281B23",
"&  c #391E27",
"*  c #1E2221",
"=  c #232222",
"-  c #2B2324",
";  c #2A2A26",
":  c #352326",
">  c #3A2327",
",  c #352A23",
"<  c #392C22",
"1  c #3F2528",
"2  c #3D3224",
"3  c #393827",
"4  c #3B3B38",
"5  c #2B312A",
"6  c #1F251E",
"7  c #5A341E",
"8  c #49381E",
"9  c #421F29",
"0  c #442B24",
"q  c #49222A",
"w  c #472728",
"e  c #5A232D",
"r  c #532929",
"t  c #55272B",
"y  c #4D3425",
"u  c #453826",
"i  c #5C3522",
"p  c #5C3A24",
"a  c #583627",
"s  c #403E3B",
"d  c #66252F",
"f  c #69272E",
"g  c #6F2B2D",
"h  c #652B2D",
"j  c #732D2D",
"k  c #7D2C20",
"l  c #613A23",
"z  c #68352B",
"x  c #74332C",
"c  c #7C342B",
"v  c #7C3A2C",
"b  c #713A28",
"n  c #763A31",
"m  c #7A3B30",
"M  c #783630",
"N  c #6D3230",
"B  c #7D2C1F",
"V  c #364923",
"C  c #5C4226",
"Z  c #4C4B33",
"A  c #644326",
"S  c #6C4A26",
"D  c #694528",
"F  c #784727",
"G  c #67562A",
"H  c #78572A",
"J  c #734932",
"K  c #546D33",
"L  c #73642D",
"P  c #706335",
"I  c #6F3846",
"U  c #52504F",
"Y  c #764B48",
"T  c #706A53",
"R  c #706D6A",
"E  c #5D6D48",
"W  c #853527",
"Q  c #81352B",
"!  c #843B2C",
"~  c #893C2A",
"^  c #833D30",
"/  c #86451E",
"(  c #8C4A23",
")  c #8E4129",
"_  c #854628",
"`  c #9E4424",
"'  c #924229",
"]  c #9D4628",
"[  c #9C4B2A",
"{  c #944A28",
"}  c #895729",
"|  c #97572A",
" . c #874C31",
".. c #8C5433",
"X. c #985832",
"o. c #954B34",
"O. c #A24523",
"+. c #A24C28",
"@. c #A54B27",
"#. c #AE5725",
"$. c #AC552A",
"%. c #A85629",
"&. c #B65726",
"*. c #B45926",
"=. c #B95927",
"-. c #B55C2A",
";. c #A75C31",
":. c #9A6429",
">. c #996434",
",. c #8E6F31",
"<. c #A2672A",
"1. c #A46829",
"2. c #AC602D",
"3. c #B4632C",
"4. c #BB672D",
"5. c #B8752C",
"6. c #B76C34",
"7. c #AE7B35",
"8. c #B97836",
"9. c #AA6C30",
"0. c #C46A2C",
"q. c #CD6C29",
"w. c #C96627",
"e. c #C9772D",
"r. c #D4742A",
"t. c #DA7329",
"y. c #D17E2C",
"u. c #DB7D2D",
"i. c #C96C35",
"p. c #CB723C",
"a. c #C67733",
"s. c #D26E28",
"d. c #E27E2B",
"f. c #884E4D",
"g. c #8E6B50",
"h. c #AE6848",
"j. c #8C7272",
"k. c #A5766E",
"l. c #CA7A4B",
"z. c #6C9635",
"x. c #768D57",
"c. c #A58332",
"v. c #BB8536",
"b. c #B29635",
"n. c #AE9034",
"m. c #968032",
"M. c #DD8A2D",
"N. c #D9842E",
"B. c #C68634",
"V. c #D78833",
"C. c #C79837",
"Z. c #D59534",
"A. c #E4852D",
"S. c #E28C2F",
"D. c #EA8B2E",
"F. c #E8822B",
"G. c #EC9C33",
"H. c #E69835",
"J. c #F29632",
"K. c #EB912F",
"L. c #D8A439",
"P. c #DEB53A",
"I. c #CEA338",
"U. c #EDAA36",
"Y. c #E7A637",
"T. c #F6A635",
"R. c #E8B73B",
"E. c #F3BB3A",
"W. c #F7B439",
"Q. c #EBA42E",
"!. c #B0D33B",
"~. c #D3CA3A",
"^. c #FBC43B",
"/. c #F7C53C",
"(. c #FFD23D",
"). c #ECC73C",
"_. c #B08D50",
"`. c #A98D62",
"'. c #B68F72",
"]. c #929C6B",
"[. c #DB8C52",
"{. c #E29755",
"}. c #D6A84D",
"|. c #FDB952",
" X c #ECB04B",
".X c #D4936C",
"XX c #E19A69",
"oX c #D0B96E",
"OX c #EBB56D",
"+X c #96D448",
"@X c #A8DB50",
"#X c #ACD572",
"$X c #B4EB73",
"%X c #A0E451",
"&X c #D2D649",
"*X c #FAC748",
"=X c #FAC954",
"-X c #F2D14F",
";X c #D4CB72",
":X c #F9CA78",
">X c #F8D377",
",X c #F6CF6A",
"<X c #CEE675",
"1X c #FBE275",
"2X c #A67F81",
"3X c #7BC6B9",
"4X c #75DAD5",
"5X c #999693",
"6X c #94AB8D",
"7X c #B0AA98",
"8X c #B7ADA9",
"9X c #B19981",
"0X c #D6B195",
"qX c #EDBA93",
"wX c #C8ACA9",
"eX c #C2998E",
"rX c #AAC992",
"tX c #90D0B8",
"yX c #A0D3B2",
"uX c #D0D09C",
"iX c #FCDA86",
"pX c #F2CE96",
"aX c #F7E588",
"sX c #D3CBB0",
"dX c #F7D9A7",
"fX c #EAD6BB",
"gX c #EFD4B2",
"hX c #D0ECA3",
"jX c #E5E6A6",
"kX c #FBEAB2",
"lX c #C3F38D",
"zX c #86DAD0",
"xX c #AFE2CC",
"cX c #8DE3E1",
"vX c #B2EAE5",
"bX c #A3DDCE",
"nX c #E5DBD5",
"mX c #E7D8C4",
"MX c #D1E8CE",
"NX c #E9E6D6",
"BX c #F8EDD1",
"VX c #D4F3EC",
"CX c #FAFCF5",
"ZX c #EDF7EF",
"AX c #D7DCCF",
"SX c None",
/* pixels */
"SXSXSXSXSXSXSXSX@ @ @ * * * * * SXSXSXSXSXSXSXSXSXSXSXSXSXSXSXSXSXSXSXSXSXSXSXSXSXSXSXSXSXSXSXSX= * * @ . * @ @ SXSXSXSXSXSXSXSX",
"SXSXSXSXSXSXSXSX= - = = * = = = SXSXSXSXSXSXSXSXSXSXSXSXSXSXSXSXSXSXSXSXSXSXSXSXSXSXSXSXSXSXSXSX= = = - - = * = SXSXSXSXSXSXSXSX",
"SXSXSXSXSXSXSXSX2 2 < < , - - = SXSXSXSXSXSXSXSXSXSXSXSXSXSXSXSXSXSXSXSXSXSXSXSXSXSXSXSXSXSXSXSX= - - , , < u + SXSXSXSXSXSXSXSX",
"SXSXSXSXSXSXSXu C A A a y w > % % SXSXSXSXSXSXSXSXSXSXSXSXSXSXSXSXSXSXSXSXSXSXSXSXSXSXSXSXSXSX= & : > y p A A A u SXSXSXSXSXSXSX",
"= = * @ @ @ + C } | | _ z r q & % % @ * @ @ @ @ @ @ * @ @ @ * @ @ * @ . @ @ @ @ @ @ @ . @ @ % % & 1 t z  .| :.H C , # X @ * = = ",
"= = 6 # * - 2 G :.5.5.;. .g t & : - = * = = = O = = = = = = * - * = = - = = = - = = = = = = - : & e N ) 2.5.5.:.S 2 - # = = = = ",
"* = - - ; 2 p } 5.V.A.a.;.c d r 0 0 2 2 2 2 2 < 2 2 2 0 3 2 0 2 2 2 2 2 2 2 2 2 2 2 < 2 3 2 0 0 t d c X.a.V.N.5.} C 2 ; - - = * ",
"# = ; < y C H 1.B.Q.H.a.;.^ x z b D D S S S S S S S S S S S S S S S S S S S S S S S S S S S D b N x _ ;.y.H.H.B.1.H A u , - = * ",
"@ O + 8 S } 1.V.L.U.Y.V.9.{ ! _ { :.<.:.<.<.:.<.1.:.1.1.1.1.1.1.1.<.<.1.<.<.<.<.<.<.<.<.<.:.:.{ _ ! { 9.V.Y.U.H.C.1.| S 8 + O * ",
"@ O 2 C } 5.M.Q.W.E.U.C.9.[ ' +.3.0.N.y.N.N.N.y.y.N.y.y.y.y.y.y.N.y.y.y.y.y.y.y.y.y.y.N.N.y.e.3.[ { [ 6.Z.R.E.W.Q.M.5.} A 2 * @ ",
"@ - < S <.y.K.Q.W.W.U.Z.6.X.[ $.w.u.F.D.A.A.A.A.A.A.A.u.u.u.u.u.u.u.u.N.N.A.A.A.A.A.A.D.D.F.u.w.$.[ %.9.Z.Y.E.W.T.K.e.:.A 2 = @ ",
"@ = < A | q.F.J.T.W.Q.Z.3.%.[ $.w.d.d.d.F.d.d.d.u.r.e.q.i.0.4.4.4.4.0.0.i.r.r.u.d.d.d.F.F.d.r.w.$.[ [ 5.B.Y.W.T.J.A.q.| A < * * ",
"* = < l | 4.t.D.J.G.K.B.3.[ [ %.*.q.s.t.t.t.s.q.0.4.-.$.+.o.o.o.o.' [ +.$.-.4.0.q.s.s.t.t.s.q.=.$.[ +.3.y.H.H.J.D.t.0.( l < = @ ",
"@ * < p / 3.s.d.D.K.S.e.2.[ ] +.*.w.w.s.s.w.w.=.$.+.o.) ! m c j j M m ^ ' o.%.$.=.w.q.q.w.s.4.*.+.' [ 3.y.S.K.D.N.s.*.( p < = * ",
"@ = < p / 3.r.A.K.K.M.e.$.[ ' [ $.0.q.r.s.q.0.-.+.' ~ Q m m n n n n n m ^ ! ' +.-.0.q.r.s.q.w.#.[ ' [ $.e.M.K.D.A.r.4.} p < = @ ",
"@ = 3 D :.B.M.J.G.T.H.a.;. .) [ 4.y.S.S.S.M.y.4.X.~ m _  ...>.X.X.>... .^ c ) [ 4.y.M.S.D.S.N.3.[  .) ;.e.K.Q.T.G.M.5.:.A 2 - @ ",
"@ - 2 G 1.I.U.W.W.W.Y.8.X.) ^ X.a.Z.Y.W.W.Y.Z.a.X.^ c  .>.v.v.C.C.v.8.>. .m ^ X.a.Z.U.W.W.U.Z.8.X.! _ X.a.Y.W.W.W.W.I.1.G 3 O # ",
"@ = 2 G c.L.E.(.^.E.R.B.X.J J X.v.Y.E././.E.L.v.X.n n ..8.Z.R.R. XR.L.7.X.m m ..v.L.E./.^.E.Y.B.X.m m X.v.P./.^.^.E.L.c.G 3 = . ",
"@ = 3 G m.I.P./././.Y.B.X.m m ..7.I.P.R.P.P.I.7.o.n M X.v. X/.(.(./.R.C.X.M M ..7.I.P.P.R.P.C.c...M  .X.B.Y././.).R.C.,.G 3 = @ ",
"@ = < Z L ,.b.I.R.R.Y.B.;.) m  .>.c.n.b.b.n.7.,.J N M X.B.Y.^.(.(.(. XC.X.n N J ..c.n.b.b.n.c.>. .M  .;.B.Q.E.Y.I.b.m.L Z < = * ",
". = ; 3 V G L n.C.Q.H.N.3.{ v v H H L L L L G S z h M X.e.G.W.^.(.(.).C.>.m f z G G P L L L L H F ^ ' 2.V.H.Y.C.c.L G Z 3 ; 6 . ",
"= * O - + u C } 5.V.M.y.-.{ ! z a u u 3 3 3 u y t e N o.4.S.J.W.^./.R.B.>.n e t w u u 3 3 2 u a z v { 3.r.M.V.5.} C 2 , O O = = ",
"= = O = O < C S :.0.e.5.%.) x i 1 ; = # * = - & 9 e N _ ;.e.V.H.Y. XI.v.X.z e 9 % - = * # O - 0 i x ) %.4.e.5.<.H 8 + - = = = = ",
"* = ; , 0 y 7 S } :.| | F b l w : % $ $   $ $ $ % & t n ) %.3.a.v.8.7.>.J t & % % . .   X   o + w l b _ | :.| } F l y 0 , ; = * ",
"* = ; 0 7 F / F F S D l a y 0 + O o .   $ $ . $ % % q r x _ o.o.| ....J a 1 - % $ $ . X     . o , 0 y a A A F F F / F 7 0 , = * ",
"@ - + i F | O.( S y 0 + , , ; ; = = * % * * = = = - : w t z x M m n N a w : - - - # % * = = % = - - , , + 2 y D / | | / 7 + * * ",
"* - < p ( #.#.{ l < O * 6 * 6 6 5 5 3 4 4 s 4 4 s 3 y a z N x M m c N A a u 3 4 4 Z 4 U 4 U 4 5 ; - * @ * = < l ( #.#.( p , = @ ",
"@ = < l ( *.*.( p , * X X 6 6 5 V Z K E T R R T T J H H  .{ X.X.X.X...} L H L T T R R R R R R U 4 ; * @ . . , l | *.*./ l < = * ",
"* * < l ( *.*.( l , # $ X @ 6 V K z.z.].6X5X7X9X_.h.7.5.5.8.0.a.e.v.B.b.n.c.n.`.'.7X8X8X8X8X5XR U 5 @ X X # , l ( #.*.( l < = @ ",
"@ * < l ( #.*.( l < = @ # = 5 Z z.z.+X#XrXAXfXpXOX XH.K.H.G. XG.Y.R.R.R.R.P. X;XuXfXAXNXVXnXsX5XR 4 * X . * + l ( *.#.( l < = # ",
"* = , p ( *.#.( l + - = 5 4 U z.z.+X+X$XhXBXkXjX:X|. XW.|.|.|.=X=X-X-X*X*X^.-XiXdXNXZXCXCXZXNX8X].Z 3 - O - + l { #.#.( l < = # ",
"* * < l ( #.#./ 7 + ; 4 U R R x.+X+X+X$XlXhXhXaX,X*X*X|.,X:X>XiXaXaX1X,X-X*X-X>XjXAXVXZXCXCXNXwX'.g.D y + O + 7 ( #.#.( l < = * ",
"@ O < l ( #.#./ r - 5 U R 5X7XrX%X%X%X%X$X<X<X;X-X*X*X,XiXdXkXkXkXkXaXiX,X|.*X;XuXxXvXVXVXCXBXgX0X_.1.H u + + 7 / #.#.( p < O @ ",
"* % < l ( #.#._ i : 4 R 5XsXfXhX$X%X+X+X%X@X@X@X&X*X=X>XpXBXBXCXCXBXBXpX,X|.|.oXrXbXbXvXVXZXBXdX:X{.C.:.D y < i ( %.#.( l < = * ",
"@ * < l ( #.$.| J Z U j.8XMXjXhX<X@X!.+X+X!.!.~.~.(.=X,XpXmXnXnXNXnXmXdX:X XOX;XrX3XzXcXvXVXNXdX:X|.Y.v.P Z U n | $.#.( p < = @ ",
"* = < 7 / #.-.h.g.j.].5XsXjXkXaX<X&X~.!.!.!.~.~.)./.*XOX0X0X8XwXwXwXwX0XqXpXpXuXyXzX4XcXcXVXMXjX>X*X X}._.j.j.g.h.-.#.( l , * * ",
"@ = , i / #.6.l.'.7X8XwXpXaX>X1X-X&X~.~.~.P.).R.E.E. X}.'.k.k.j.j.2X2XeX0XdXgXMXbXzX4X4XcXcXxXuX;X=X*XOX0X7XeX9Xk.i.#./ 7 < = @ ",
"* * , i / *.p..X0XmXfXdXiX,X-X-X-X).(.).E.W.R.W.W.W. XV.h.f.I I I f.f.k.wXmXNXMXbXzX4X4X4XzXtXrX;X-X-X,XaXfXsX0X{.p.#./ 7 < = @ ",
"* = < 7 / #.l..XqXgXfXdX,X=XE.E.E.E.).W. XT.T.J. XJ.D.a.%.^ j d d d f.k.eXmXnXAXxXtX3X4X3X3XyX#X;X}.*X,XdXfXfXqXXXp.#./ i < = * ",
"@ = , i ) &.i.[.XXqXpXpXOXY.Q.Q.Q.U.Q.G.J.J.J.J.J.J.N.0.#.~ W k W Q o.h.eX0X0XuX7X6X6X6X6X6X6X'.}.}. XOX:XpXqX0X[.i.#./ i < = # ",
"@ - , i / *.0.l.[.XXXX{.[.D.M.M.M.M.M.A.u.d.d.d.d.d.t.0.&.@.O.` W O.@.i.l.l.eX.X.X'.`.`.`.`._._.[.V.S.{.{.XXXX[.l.s.*./ 7 < = @ ",
"* = , i _ *.w.s.i.l.p.p.i.s.q.q.q.q.q.q.q.q.q.w.q.w.w.0.=.=.&.&.&.&.=.=.i.l.l.l.i.6.h.6.h.6.p.8.5.q.q.i.p.p.p.p.i.w.#._ p < = * ",
"@ = , a F @.&.=.=.=.=.&.=.&.&.&.&.=.*.&.&.&.&.&.&.&.&.&.=.&.&.&.=.=.=.=.&.&.&.&.*.=.=.=.&.&.&.&.*.&.&.&.=.=.=.=.=.=.@._ a , = * ",
"* * , y b ' O.@.O.` ` ` O.+.O.] O.` ] +.+.] ] +.] ] +.+.@.@.@.+.@.@.] ] ] O.O.O.O.O.O.O.O.O.O.O.` ` ] ] O.@.` O.O.@.~ x y , = @ ",
"* = + w h x W ~ W W W W Q Q Q Q Q Q Q Q Q Q Q Q ~ W Q ! ~ ~ ~ W Q ^ Q Q Q W W W W W W W W W W W W W W Q W W W W W W x i w , % # ",
"* = - > r h g j j g j g j g j g j g g j g g g g f j g g f f j j j j j j j j g j j j g j j j g j f j g g g j g g j g f r > - O # ",
"* = - > r e f f g d f d d f f f f f f f f f f f f f f f f f d f d d d d d d d d f f f f f f f f f f f f f f f f f f e r > - * * ",
"* = O 1 r h j j g g g g g j g g j g g g g g g j f j j f j j g j j j j j j j j g g g g g j g g g g g g j j f g j j j h r 1 ; = * ",
"* = - 0 r x v Q Q c W c c c c c Q c c c c c c c c c c c v c c c c c c v c c W W c c v Q c c c c c c c c W Q c Q Q c j r 0 - - * ",
"* = : 0 i v ~ ~ ~ ~ ~ ~ ~ ~ ~ ~ ~ ~ ~ ~ ~ ~ ~ ~ ~ ~ ~ ~ ~ ~ ~ ~ ~ ~ ~ ~ ~ ~ ~ ~ ~ ~ ~ ~ ~ ~ ~ ~ ~ ~ ~ ~ ~ ~ ~ ~ ~ ~ c l w + * * ",
"* * - 0 h c ~ ~ ~ ~ ~ ~ ' ~ ) ) ~ ' ~ ' ~ ' ~ ' ' ~ ~ ' ~ ' ' ~ ~ ~ ~ ' ) ) ' ~ ~ ~ ' ~ ' ~ ~ ' ~ ) ) ) ' ~ ' ' ~ ~ v h 0 , = * ",
"* % , 0 i x ~ ~ ~ ] ] ' ' ' ' ' ' ' ] ' ' ' ' ' ' ' ' ' ' ' ' ' ' ' ' ' ' ' ' ' ' ' ' ' ' ' ' ' ' ' ' ' ' ' ~ ~ ~ ! x i 0 - = * ",
"# = - w r h j Q ~ ~ ' ' ' ' ' ' ' ' ' ' ' ] ' ' ' ' ' ' ' ' ' ' ' ] ' ' ' ' ' ' ' ] ' ' ] ' ' ' ' ' ' ' ' ' ~ ~ W x g r > - = . ",
"* = - > q e j j W ~ ' ' ' ~ ~ ' ~ ~ ' ~ ~ ~ ' ~ ' ~ ' ~ ' ~ ' ~ ' ~ ' ~ ~ ~ ' ~ ' ~ ' ~ ~ ~ ~ ' ) ' ) ) ) ' ~ Q c g e q > ; - = ",
"6 = - : q e f j c ! ~ ~ ~ ~ ~ ~ ~ ~ ~ ~ ~ ~ ~ ~ ~ ~ ~ ~ ~ ~ ~ ~ ~ ~ ~ ~ ~ ~ ~ ~ ~ ~ ~ ~ ~ ~ ~ ~ ~ ~ ~ ~ ~ ~ ! Q j d e q & - = # ",
"* = - : q e f j j c Q c W v W W m Q Q Q Q Q c Q W W v Q W Q c W Q Q v W m Q Q Q c c W W Q Q Q Q W c Q Q W c c j g d e q : ; = 6 ",
"* = - & q e d d j j j j j j j c M j j j j j M j j j j j j M j j j j j j j j c j N M j j M j j j j j j j j j j g f d e q : - = # ",
"* * - > q e d d d f f d f f f f d d d f f f d f f f f d f f f d f f d d f f f f d d f f d d f d g f f f f d d d d d e q : - = * ",
"* = - : 9 e e e e e e e e e e e e e e e e e e e e e e e e e e e e e e e e e e e e e e e e e e e e e e e e e e e e e e q : - = = ",
"* = - - > 9 q q q q q q q q q q q q q q q q q q q q q q q q q q q q q q q q q q q q q 9 q q q q q q q q q q q q q q 9 & : = = * ",
"= = = - - : : > > > : : & : : : : : : > : : : : : : : > : : : & > : : : : & : : > > : & > : : > > > > : : : : > > : : - - = * = ",
"= = * - - - - - - - - - - - - % - - % - - - - - - - - - - - - - - % - - - - - - % ; - - - - % - - % - - - - - - % - - - = % = = ",
"= = = = = = = * % * = = = = = = = = = = = = = = * = % * = * = = = = = = = = * = = = = = * * = = = = * = = = = = = = = = = = = * ",
"% = = * = * * * * * * * * * * * * * * * * * * * * * * * * * * * * * * * * * * * * * * * * * * * * * * * * * * * * * * = * = = = "
};
