/* XPM */
static char *result[] = {
/* columns rows colors chars-per-pixel */
"64 64 70 1 ",
"  c #1D1F1F",
". c #1F211F",
"X c #1E1F20",
"o c #1F2020",
"O c #222222",
"+ c #292626",
"@ c #2B2827",
"# c #2A2429",
"$ c #2D2A29",
"% c #30242E",
"& c #332D2D",
"* c #36302E",
"= c #38312F",
"- c #362533",
"; c #392636",
": c #362932",
"> c #3B2C35",
", c #3D2639",
"< c #3E2C39",
"1 c #373030",
"2 c #3C3332",
"3 c #43273F",
"4 c #432B3C",
"5 c #413735",
"6 c #433936",
"7 c #46363A",
"8 c #4B353F",
"9 c #463A38",
"0 c #4A3D3B",
"q c #4F403E",
"w c #51423E",
"e c #472742",
"r c #482743",
"t c #462940",
"y c #4A2A44",
"u c #4F2A49",
"i c #552C4D",
"p c #4C3342",
"a c #513246",
"s c #533D43",
"d c #533149",
"f c #5A314F",
"g c #5C3A4D",
"h c #572B50",
"j c #592C51",
"k c #5F3552",
"l c #623456",
"z c #613C51",
"x c #6A3F57",
"c c #6C3F59",
"v c #554541",
"b c #584743",
"n c #5B4944",
"m c #5F4849",
"M c #604C47",
"N c #65464F",
"B c #624E49",
"V c #694F4E",
"C c #66504B",
"Z c #6B544E",
"A c #674452",
"S c #694454",
"D c #6C4059",
"F c #714D56",
"G c #734D58",
"H c #6F5650",
"J c #725653",
"K c #755B54",
"L c #795E56",
"P c None",
/* pixels */
"PPPPPPPPPPPPPPPP.....       ..... oo.   ...   ..PPPPPPPPPPPPPPPP",
"PPPPPPPPPPPPPPPPooOOOOOOOOOOOOoOOoOOOOOOOOOOOOOOPPPPPPPPPPPPPPPP",
"PPPPPPPPPPPPPPPP###@#$$$$$&$@$$$$$$$$$$$$$$$$$@$PPPPPPPPPPPPPPPP",
"PPPPPPPPPPPPPPP#--><225655555666656=55555569565=*PPPPPPPPPPPPPPP",
"PPPPPPPPPPPPPO#-,3ypsvbnbbwnnwwnwwwwwwwwwwnwnww02&OPPPPPPPPPPPPP",
"PPPPPPPPPPPPOO#-tufgACZZZZZHHHZZKHHCHZHKZZZHHZBw2@O PPPPPPPPPPPP",
"PPPPPPPPPPPPXO#-rhlcFJKKJHHHHHHKLLLLLLLLLKKKLHVw5$o PPPPPPPPPPPP",
"PPPPPPPPPPPPoo#-rjlDGJLKHHZZZZHHHLLLLLLLLLLLKZB0=$O.PPPPPPPPPPPP",
"PPPPPPPPPPPPoO#-rhlDGKKHCnnbbbMCHKLLLLLKLLLHZBw6*@O.PPPPPPPPPPPP",
"PPPPPPPPPPPPoO#-thlDGJJCnvvvqvvnCKLLLLLKLKKZBw05&+o.PPPPPPPPPPPP",
"PPPPPPPPPPPPoO#-rhlDGJJVvs2626qvCHLLLKLLLLHBw05&#+OOPPPPPPPPPPPP",
"PPPPPPPPPPPPoO#-rhlDGJHBv211112qMZKLLKLLLLHBw5&$+OOOPPPPPPPPPPPP",
"PPPPPPPPPPPPoO#-thkDFJHnq1$@@$1qwKKLLLLLLKHMq*$+OOOOPPPPPPPPPPPP",
"PPPPPPPPPPPPoO#-rhlDFKHn2&+oo+:6wHLLLKKKLKHB6$+OOOOOPPPPPPPPPPPP",
"PPPPPPPPPPPP.O#-rhlDGJZn2$oooo$6wHLLLKKKLLZw6@O.oOOOPPPPPPPPPPPP",
"PPPPPPPPPPPP.O#-rjlDGJHn2$o.oo@6MHLLLLLLLLCw5@..oOOOPPPPPPPPPPPP",
"PPPPPPPPPPPP.O#-rhlDGJHb6$o. o$2wZLLLLLLKLHw6@oXoOOOPPPPPPPPPPPP",
"PPPPPPPPPPPP.O#-rilcGJHb2$Oooo$2wZLLLKLLLLZb2@OoOOoOPPPPPPPPPPPP",
"PPPPPPPPPPPP.O#-rilcGJHb6&+Oo+$6MHKLLKKLLKHn9&+OOOOOPPPPPPPPPPPP",
"PPPPPPPPPPPP.O#-ehlcGJZmq2$$@$20MHLLLLKLLLJm01@+OOOoPPPPPPPPPPPP",
"PPPPPPPPPPPP.O#-rhlcGJJBv62:116qMHLLLLKLLLKMq6*@+OooPPPPPPPPPPPP",
"PPPPPPPPPPPP.O#-ehlxGJJCv062260vCHLLLKLLLLHCb02*#+OOPPPPPPPPPPPP",
"PPPPPPPPPPPP.O#-3ilSFKJCv06600wnCZHHKLLKHZZMnwq2&@+OPPPPPPPPPPPP",
"PPPPPPPPPPPPoO+-4agAFJHBv926vnnnnwnCZKHZCnnnnnwq6*&$PPPPPPPPPPPP",
"PPPPPPPPPPPPoO+%<8sAHJJmq2=6wCCnqqqwMKHCwq6qnMMn0622PPPPPPPPPPPP",
"PPPPPPPPPPPPoO+$>6vmCHHv2*&6bCCb6*$qwHKwq=*9wCZmv062PPPPPPPPPPPP",
"PPPPPPPPPPPP OO$:29vCZCv2$+2qMMw=$$qwZZw6$$2wCZCv095PPPPPPPPPPPP",
"PPPPPPPPPPPPOO++&*60nmnq=@+*9ww6*O$2MHKw2$+*wMMn0621PPPPPPPPPPPP",
"PPPPPPPPPPPPOOO++$*6qwv9=@O$*22*@+@2wHZw6++*6vvq61&$PPPPPPPPPPPP",
"PPPPPPPPPPPPOOOOO+$=6002*+O++$@+..$qMHKw6$+&2996:$++PPPPPPPPPPPP",
"PPPPPPPPPPPPOOOX.O+$*221$+.oOOOo.O$5wCZw2$+$1222$+ooPPPPPPPPPPPP",
"PPPPPPPPPPPPOOOOOoO+$*1&++O....o.O$5wMMw2+++$1:$+OOoPPPPPPPPPPPP",
"PPPPPPPPPPPPOOOOOoO+@$@@@OOooooo.O+=qqqq1+OO$$$@OOOoPPPPPPPPPPPP",
"PPPPPPPPPPPPoOOOOOOOOO++OOOOOOOO.O+*2q92:+OOOO@OOOOOPPPPPPPPPPPP",
"PPPPPPPPPPPPOOOOOOOOOOOOOOOOOOOo.O+$122=$+OOOOOOOOOOPPPPPPPPPPPP",
"PPPPPPPPPPPPPOOOOOOOoOoOoOOOOOOoOOO@**=$$OOoOOoOOOOPPPPPPPPPPPPP",
"PPPPPPPPPPPPPPPOoOOOoOOoOOOOOOOOOOO@+$$@@OOOOoOooPPPPPPPPPPPPPPP",
"PPPPPPPPPPPPPPPPOOOOOOOOOOOOOOOOOOOOO++OOOOoOOOOPPPPPPPPPPPPPPPP",
"PPPPPPPPPPPPPPPPOOOOOOOOOOOOOoOOOOOOOOoOOOoOOOOOPPPPPPPPPPPPPPPP",
"PPPPPPPPPPPPPPPPOOoOOoOOOOOoOOOOOOOoOoOoOOOOOOOOPPPPPPPPPPPPPPPP",
"PPPPPPPPPPPPPPPPOOOOOOOOoOOOOOOOOOOOoOoOOOoOOOOoPPPPPPPPPPPPPPPP",
"PPPPPPPPPPPPPPPPOOOoOOOoOOOOOOOOOoOOOOOOOOOOOOOOPPPPPPPPPPPPPPPP",
"PPPPPPPPPPPPPPPPOOOOOOOOOOOOoOOOOOOOOOOooOOOOOOOPPPPPPPPPPPPPPPP",
"PPPPPPPPPPPPPPPOoOOOOOOOOOOOOoOoOoOOOOOOOOOOoOOOOPPPPPPPPPPPPPPP",
"PPPPPPPPPPPPPOoooOOOoOOOOOOoOoOooOOoOOOOOOOOOOOOOOOPPPPPPPPPPPPP",
"PPPPPPPPPPPPOOOoOOOOOOOOoOOOOOOOOOOOOOOOOOOOoOOOOOOOPPPPPPPPPPPP",
"PPPPPPPPPPPP++O+OOOOOOOOOOOOO++OOOOOOOOOOOoOOOOOOOOOPPPPPPPPPPPP",
"PPPPPPPPPPP$$$$#++OoOoOoOo+++$$@@OOOoOoOOOOOOoOooOoOOPPPPPPPPPPP",
"PPPPPPPPPO+@&11&+OOO.OOOOOO+***$+OO.OXOOOOOOOOooooOooOOPPPPPPPPP",
"PPPPPPPPOO+&1221&OOOOOOOOOO&=22*$+OOOOOOOOOOOOOOOOOOOOOOPPPPPPPP",
"PPPPPPPPoO+$2592$+OOO+OOOO+*2qq2&+OOO++OOOOOO+O#++@++OOOPPPPPPPP",
"PPPPPPPooO+$2662&+OO+$$++O+*9wq9*+OO+#$+OOOO+@&&---%#OOOOPPPPPPP",
"PPPPPOOXoO+&2661$+O+&:&&+O$2qnmq1+O+$&&&+OOO&&>4ttt;%OOoOOOPPPPP",
"PPPPOOOOOo+$2662&@+$*521@+$2bCZw6$+$=251&++$&56paiut-#OooOOOPPPP",
"PPPPOOOOoO+&2775:#$:2971$@&6nZHn0*&*5006=&&=600ggkkp,#OooOOOPPPP",
"PPPPOOOooO+:4ppy4<<<79952*2qBHJZnq90wbnwq090wnMNSSkp<#OooOOOPPPP",
"PPPPOOOooO#:4afiiyyy8005256wCJKKCmMMCCZCMnMMCCZJGGSs5@OoOOoOPPPP",
"PPPPOOOOOO#-tihkjiiap006660bCHKJHHZHZHHZHZZZHHHKKKCv2$OooOOOPPPP",
"PPPPOOOooO+-4uijjhiap755660wnCZZHHZZHHZZHZZHZZZHHZMq2$OooOOOPPPP",
"PPPPoOOOOO##-erryyt4<2211126qwbbwnwMnwMwnwnwwMwMnbw9*#OoOOOOPPPP",
"PPPPOOOooO##------;:&&&$&&&*15556666662q66666656662*@+OooOOOPPPP",
"PPPPOOOOOOoO#########+O++O++@$$$$$+$@$@@$$$$$$$$$$+++OOOOOOOPPPP",
"PPPPOOOOOOOOOOoOOOOOOOOOOOOOOOoOoOOOO..OOOOOoOOOOOOOOOOOOOOOPPPP",
"PPPPoOOOOOOOo..X..... Oooooo. . ........     .   ...ooOOOOOOPPPP"
};
