/* XPM */
static char *result[] = {
/* columns rows colors chars-per-pixel */
"64 64 168 2 ",
"   c #121919",
".  c #1D1D1D",
"X  c #16211E",
"o  c #1A221F",
"O  c #2E211D",
"+  c #30221E",
"@  c #1F1F20",
"#  c #231D21",
"$  c #2C1E23",
"%  c #331E26",
"&  c #1E2121",
"*  c #222222",
"=  c #2B2325",
"-  c #2C2C2C",
";  c #232728",
":  c #312326",
">  c #382725",
",  c #3C2925",
"<  c #332329",
"1  c #3C232B",
"2  c #2D3232",
"3  c #353939",
"4  c #3C3D3C",
"5  c #303130",
"6  c #5B1E33",
"7  c #601D34",
"8  c #472B27",
"9  c #4D2C26",
"0  c #43252D",
"q  c #4A252F",
"w  c #4C2C28",
"e  c #452626",
"r  c #512C26",
"t  c #4C2431",
"y  c #442531",
"u  c #522533",
"i  c #5C2535",
"p  c #5E2439",
"a  c #5E2B30",
"s  c #62272E",
"d  c #642B2D",
"f  c #663228",
"g  c #6C312E",
"h  c #653227",
"j  c #713227",
"k  c #72332A",
"l  c #7A332F",
"z  c #7D392B",
"x  c #692532",
"c  c #632B33",
"v  c #64253A",
"b  c #6B253D",
"n  c #6D2B36",
"m  c #73273F",
"M  c #7B2D3A",
"N  c #752F35",
"B  c #603F38",
"V  c #3D403F",
"C  c #7D2743",
"Z  c #743349",
"A  c #3E4443",
"S  c #434442",
"D  c #4D4647",
"F  c #5C4D4F",
"G  c #4D514F",
"H  c #51504E",
"J  c #5F4E54",
"K  c #575654",
"L  c #555856",
"P  c #63514C",
"I  c #6C564F",
"U  c #635155",
"Y  c #6E5852",
"T  c #685551",
"R  c #705952",
"E  c #716F6B",
"W  c #72706C",
"Q  c #843A2D",
"!  c #883B2E",
"~  c #842C3F",
"^  c #8B2D3E",
"/  c #93313F",
"(  c #963E30",
")  c #A53D35",
"_  c #AD3C3B",
"`  c #B03C3A",
"'  c #96493B",
"]  c #984A3C",
"[  c #AD432F",
"{  c #AC4332",
"}  c #A64034",
"|  c #B14433",
" . c #BD4634",
".. c #BC433A",
"X. c #B14938",
"o. c #BA4537",
"O. c #C14735",
"+. c #C34834",
"@. c #C5413F",
"#. c #CC463C",
"$. c #CD483A",
"%. c #CA4A36",
"&. c #D84731",
"*. c #D44C37",
"=. c #DC4D36",
"-. c #D1473D",
";. c #D44A3A",
":. c #DB4E38",
">. c #DE5037",
",. c #DF5038",
"<. c #E24D36",
"1. c #E15137",
"2. c #E15038",
"3. c #822744",
"4. c #852844",
"5. c #8D2B44",
"6. c #8E2848",
"7. c #882746",
"8. c #922A47",
"9. c #9B2F43",
"0. c #93274B",
"q. c #9C274F",
"w. c #95284A",
"e. c #9E294E",
"r. c #9C3141",
"t. c #923040",
"y. c #9F2850",
"u. c #863951",
"i. c #A22A4E",
"p. c #A92F4B",
"a. c #AF3447",
"s. c #AC3149",
"d. c #AB3445",
"f. c #B33547",
"g. c #B13941",
"h. c #BD3C44",
"j. c #B1314B",
"k. c #A42950",
"l. c #A63F61",
"z. c #C33E42",
"x. c #B44356",
"c. c #C34040",
"v. c #CB4241",
"b. c #CD4A41",
"n. c #D46654",
"m. c #DF6758",
"M. c #D66956",
"N. c #E2695A",
"B. c #E47865",
"V. c #E77C68",
"C. c #8C8985",
"Z. c #8C8F8B",
"A. c #BE998E",
"S. c #B19196",
"D. c #B5ADA6",
"F. c #B4AFA9",
"G. c #B2B4AE",
"H. c #B9B0A9",
"J. c #C29C91",
"K. c #E29B9B",
"L. c #E1B6BE",
"P. c #C6C2BA",
"I. c #CACCC4",
"U. c #D5D1C9",
"Y. c #F8D3C6",
"T. c #FED8CA",
"R. c #FFFFFA",
"E. c None",
/* pixels */
"E.E.E.E.E.E.E.E.E.E.E.E.E.E.E.E.E.E.E.E.E.E.E.E.E.E.E.E.E.E.E.E.E.E.E.E.E.E.E.E.E.E.E.E.E.E.E.E.E.E.E.E.E.E.E.E.E.E.E.E.E.E.E.E.",
"E.E.E.E.E.E.E.E.E.E.E.E.E.E.E.E.E.E.E.E.E.E.E.E.E.E.E.E.E.E.E.E.E.E.E.E.E.E.E.E.E.E.E.E.E.E.E.E.E.E.E.E.E.E.E.E.E.E.E.E.E.E.E.E.",
"E.E.E.E.E.E.E.E.E.E.E.E.E.E.E.E.E.E.E.E.E.E.E.E.E.E.E.E.E.E.E.E.E.E.E.E.E.E.E.E.E.E.E.E.E.E.E.E.E.E.E.E.E.E.E.E.E.E.E.E.E.E.E.E.",
"E.E.E.E.E.E.E.E.E.E.E.E.E.E.E.E.E.E.E.E.E.E.E.E.E.E.E.E.E.E.E.E.E.E.E.E.E.E.E.E.E.E.E.E.E.E.E.E.E.E.E.E.E.E.E.E.E.E.E.E.E.E.E.E.",
"E.E.E.E.E.E.E.E.E.E.E.E.E.E.E.E.E.E.E.E.E.E.E.E.E.E.E.E.E.E.E.E.E.E.E.E.E.E.E.E.E.E.E.E.E.E.E.E.E.E.E.E.E.E.E.E.E.E.E.E.E.E.E.E.",
"E.E.E.E.E.E.E.E.E.E.E.E.E.E.E.E.E.E.E.E.E.E.E.E.E.E.E.E.E.E.E.E.E.E.E.E.E.E.E.E.E.E.E.E.E.E.E.E.E.E.E.E.E.E.E.E.E.E.E.E.E.E.E.E.",
"E.E.E.E.E.E.E.E.E.E.E.E.E.E.E.E.E.E.E.E.E.E.E.E.E.E.E.E.* * E.E.E.E.E.E.E.E.E.E.E.E.E.E.E.E.E.E.E.E.E.E.E.E.E.E.E.E.E.E.E.E.E.E.",
"E.E.E.E.E.E.E.E.E.E.E.E.E.E.E.E.E.E.E.E.* * E.E.E.E.E.E.E.E.* * E.E.* * E.E.E.E.E.E.E.E.E.E.E.E.E.E.E.E.E.E.E.E.E.E.E.E.E.E.E.E.",
"E.E.E.E.E.E.E.E.E.E.E.E.E.E.E.E.E.E.E.E.* * E.E.E.E.E.E.E.E.* * E.E.* * E.E.E.E.E.E.E.E.E.E.E.E.E.E.E.E.E.E.E.E.E.E.E.E.E.E.E.E.",
"E.E.E.E.E.E.E.E.E.E.E.E.E.E.E.E.E.E.E.E.E.E.* & E.E.* * E.E.* * E.E.* * * * E.E.E.E.E.E.E.E.E.E.E.E.E.E.E.E.E.E.E.E.E.E.E.E.E.E.",
"E.E.E.E.E.E.E.E.E.E.E.E.E.E.E.E.E.E.E.E.E.E.* & & @ . & & & @ & . o & & * * * E.E.E.E.E.E.E.E.E.E.E.E.E.E.E.E.E.E.E.E.E.E.E.E.E.",
"E.E.E.E.E.E.E.E.E.E.E.E.E.E.E.E.E.E.* * E.E.= = * ; ; = * = ; = = = = ; * * * * * * * * * * * * E.E.E.E.E.E.E.E.E.E.E.E.E.E.E.E.",
"E.E.E.E.E.E.E.E.E.E.E.E.E.E.E.E.E.& & & & 1 6 x l Q Q l s 6 7 n l Q Q g , & & & * * * & * * * E.E.E.E.E.E.E.E.E.E.E.E.E.E.E.E.E.",
"E.E.E.E.E.E.E.E.E.E.E.E.E.E.E.E.* = = = * y u.x.b.=.=.b.x.l.l.f.b.=.=.{ 9 * = = * = = = = * E.E.E.E.E.E.E.E.E.E.E.E.E.E.E.E.E.E.",
"E.E.E.E.E.E.E.E.E.E.E.E.E.E.E.& o < v 6 : D S.K.N.=.=.m.K.L.L.K.m.<.1.| 9 < v p : : p v < & & & & * * E.E.E.E.E.E.E.E.E.E.E.E.E.",
"E.E.E.E.E.E.E.E.E.E.E.E.E.E.& = < i 8.^ e L I.T.B.&.&.B.Y.R.R.Y.B.*.=.[ 9 1 3.6.a a 8.t.0 * < < = * * * E.E.E.E.E.E.E.E.E.E.E.E.",
"E.E.E.E.E.E.E.E.E.E.E.E.* * * < b 9.z.) e K I.T.V.&.&.B.Y.R.R.Y.B.=.=.{ w 1 C p.`  .#.) 8 < b b 1 * * * * * E.E.E.E.E.E.E.E.E.E.",
"E.E.E.E.E.E.E.E.E.E.E.E.* & & q t.z.:.{ 9 V Z.J.M.<.<.n.A.G.G.A.n.<.2.{ 8 1 ^ z.;.1.1. .z n 9.7.0 & & * * * * E.E.E.E.E.E.E.E.E.",
"E.E.E.E.E.E.E.E.E.E.E.E.* & & w { :.2.{ r ; 2 B X.=.<.X.B 3 3 B | :.,.{ 8 9 } :.:.:.:.*.%...p.C 0 o & * * * * * E.E.E.E.E.E.E.E.",
"E.E.E.E.E.E.E.E.E.E.E.E.* * & 9 { 2.2...M y # + h Q Q f +     + f Q z l c M o.,.:.;.z.z.z.g.M u = * * E.* * * * E.E.E.E.E.E.E.E.",
"E.E.E.E.E.E.E.E.E.E.E.E.* & & 9 | <.<.#.a.3.q = : : : : = = = = < < = t 4.a.#.=.,.#.f.p.i.4.q ; = * E.E.E.E.* * E.E.E.E.E.E.E.E.",
"E.E.E.E.E.E.E.E.E.E.E.E.E.& & r | 2.<.=.v.g.~ b v v b b b b m b b v b ~ g.b.:.2.:.;.v.h.p.w.C i < & * E.E.E.E.E.E.E.E.E.E.E.E.E.",
"E.E.E.E.E.E.E.E.E.E.E.E.E.E.& 8 ( O. .+.*.@.9.8.i.p.8.8.p.i.8.8.p.i.6.r.$.*.+.+.*.*.+...p.e.w.b 1 * & * E.E.E.E.E.E.E.E.E.E.E.E.",
"E.E.E.E.E.E.E.E.E.E.E.E.E.E.* = w r 9 j +. .d s ` ` s s ` ` s s ` _ s d X. .z l  . .l c 8.6.p 1 = & * * E.E.E.E.E.E.E.E.E.E.E.E.",
"E.E.E.E.E.E.E.E.E.E.E.E.E.E.* & & 2 G Y ] ] Y I ' ] R R ' ' R I ' ' Y Y ] ! , , ! ! , : v v < & * * * * E.E.E.E.E.E.E.E.E.E.E.E.",
"E.E.E.E.E.E.E.E.E.E.E.E.E.E.* * @ G F.D.P F F.D.P P D.D.P P D.D.P P F.H.T + O = > > = = < < = * * * * * * * E.E.E.E.E.E.E.E.E.E.",
"E.E.E.E.E.E.E.E.E.E.E.E.E.E.E.. # S C.C.3 L U.U.K 4 C.C.4 L U.U.K V C.C.A o & & & & & * & & & * * * * * * * * E.E.E.E.E.E.E.E.E.",
"E.E.E.E.E.E.E.E.E.E.E.E.E.E.E.E.* ; - - O K P.P.K o - - * K P.P.K O ; 2 ; * * & * * * * * * E.E.E.E.E.E.* * * * E.E.E.E.E.E.E.E.",
"E.E.E.E.E.E.E.E.E.E.E.E.E.E.E.E.E.. . . . 4 E W 4 . . . . 4 W W 4 . . . O * * * * * * * * * E.E.E.E.E.E.E.E.* E.E.E.E.E.E.E.E.E.",
"E.E.E.E.E.E.E.E.E.E.E.E.E.E.E.E.E.E.* * * * = ; & O * * * & * ; * * & * & & * * * * E.E.* * E.E.E.E.E.E.E.E.E.E.E.E.E.E.E.E.E.E.",
"E.E.E.E.E.E.E.E.E.E.E.E.E.E.E.E.E.E.* * E.E.. . & * * * * O . @ * * * * * * * * E.E.E.E.E.E.E.E.E.E.E.E.E.E.E.E.E.E.E.E.E.E.E.E.",
"E.E.E.E.E.E.E.E.E.E.E.E.E.E.E.E.E.E.* * E.E.* * * * * * * * & & * * * * * * * * E.E.E.E.E.E.E.E.E.E.E.E.E.E.E.E.E.E.E.E.E.E.E.E.",
"E.E.E.E.E.E.E.E.E.E.E.E.E.E.E.E.E.E.E.E.* * * * * * * * * * * * * * * * * * * * * * E.E.* * E.E.E.E.E.E.E.E.E.E.E.E.E.E.E.E.E.E.",
"E.E.E.E.E.E.E.E.E.E.E.E.E.E.E.E.E.E.E.E.. . * * * * * * * * * * . . * * * * * * * * E.* * * E.E.E.E.E.E.E.E.E.E.E.E.E.E.E.E.E.E.",
"E.E.E.E.E.E.E.E.E.E.E.E.E.E.E.E.* * * * ; ; * * * * * * * * * * ; = * * * * * * * * * * * * E.E.* * * * * * E.E.E.E.E.E.E.E.E.E.",
"E.E.E.E.E.E.E.E.E.E.E.E.E.E.E.# . . . 4 E E 4 . . . o . . . . 4 E E 4 . . . o * * * * * * * * * * * * * * E.E.E.E.E.E.E.E.E.E.E.",
"E.E.E.E.E.E.E.E.E.E.E.E.* * * ; - - * K P.P.K & = - ; = - - & K P.P.K * = 5 ; * * * * * * * * * * * E.E.E.E.E.E.E.E.E.E.E.E.E.E.",
"E.E.E.E.E.E.E.E.E.E.E.E.* * . S C.C.y K U.U.L 4 C.C.V V C.C.4 L U.U.L 4 C.C.S . & & & & * * * * * * * E.E.E.E.E.E.E.E.E.E.E.E.E.",
"E.E.E.E.E.E.E.E.E.E.E.E.* . # H F.F.K K D.D.P P D.F.P P D.D.P P D.D.P P D.F.U $ # = : : ; * * & * * * * E.E.E.E.E.E.E.E.E.E.E.E.",
"E.E.E.E.E.E.E.E.E.E.E.E.E.E.# 5 G Y Z Z J I ' ' Y Y ] ] Y Y ' ' I I ' ] Y U Z v < < v v 1 * & & * * * * * * * * E.E.E.E.E.E.E.E.",
"E.E.E.E.E.E.E.E.E.E.E.E.E.E.; * % i 9./ d j +. .g j  . .j j  . .j j  . .k d r.r.g g r.t.0 * 1 1 = * * * * * * * E.E.E.E.E.E.E.E.",
"E.E.E.E.E.E.E.E.E.E.E.E.E.E.& < m 9.@.#.+.+.*.*.+.+.*.*.+.+.*.*.O.O.*.*.O. .#.$.O.+.-.} w 1 m m 1 & E.E.E.E.E.E.E.E.E.E.E.E.E.E.",
"E.E.E.E.E.E.E.E.E.E.E.E.E.E.& q / z.;.=.2.2.=.*.,.,.=.:.=.:.:.=.,.,.=.:.>.,.1.;.v.v.v._ n b w.4.0 & E.E.E.E.E.E.E.E.E.E.E.E.E.E.",
"E.E.E.E.E.E.E.E.E.E.E.E.E.E.& w ) =.2.:.;.:.:.=.>.;.:.>.=.:.:.:.;.>.;.=.>.>.>.#.a.i.k.e.w.w.e.C 1 & E.E.E.E.E.E.E.E.E.E.E.E.E.E.",
"E.E.E.E.E.E.E.E.E.E.E.E.E.E.& 9 { ,.,.;.=.=.>.=.>.>.;.>.>.>.>.;.c.c.;.>.>.>.>.;.@.f.p.y.k.6.b t : & E.E.E.E.E.E.E.E.E.E.E.E.E.E.",
"E.E.E.E.E.E.E.E.E.E.E.E.E.E.& 9 { ,.,.:.;.;.;.;.;.:.>.;.;.;.;.@.s.s.@.;.;.;.;.;.;.@.s.y.k.4.t = = & E.E.E.E.E.E.E.E.E.E.E.E.E.E.",
"E.E.E.E.E.E.E.E.E.E.E.E.E.& & r { 1.2.;.h.f.f.h.;.,.,.-.h.f.f.s.i.i.s.f.f.f.f.f.f.a.p.e.e.0.C p < * * E.E.E.E.E.E.E.E.E.E.E.E.E.",
"E.E.E.E.E.E.E.E.E.E.E.E.* * & 9 ) -.#.c.p.q.q.s.c.-.#.c.s.e.y.e.e.i.k.e.e.e.y.e.i.e.e.e.e.k.k.3.0 & & * E.E.E.E.E.E.E.E.E.E.E.E.",
"E.E.E.E.E.E.E.E.E.E.E.E.* * & 0 5.s.s.s.e.e.e.i.p.s.s.p.p.q.y.k.e.e.i.e.k.e.e.e.e.e.e.e.e.i.k.C 1 o * * * * * * E.E.E.E.E.E.E.E.",
"E.E.E.E.E.E.E.E.E.E.E.E.E.* * < p C w.y.i.e.e.i.k.0.C C m m C b m C m C m C e.i.i.k.i.e.e.e.k.6.v 0 = * & = * * E.E.E.E.E.E.E.E.",
"E.E.E.E.E.E.E.E.E.E.E.E.E.E.* * = t 4.i.k.e.e.e.e.3.q = = < < : = : : = = t 3.i.i.e.e.e.i.e.y.e.w.m 1 o E.E.E.E.E.E.E.E.E.E.E.E.",
"E.E.E.E.E.E.E.E.E.E.E.E.E.* o = q b w.k.k.k.k.w.m u < X X o o o & & o X X < u v v v v m w.k.k.k.k.3.0 & E.E.E.E.E.E.E.E.E.E.E.E.",
"E.E.E.E.E.E.E.E.E.E.E.E.* = * q C e.w.w.w.w.w.C 0 = E.E.E.E.E.E.E.E.E.E.E.E.= = * * = q C e.w.w.i.3.1 & E.E.E.E.E.E.E.E.E.E.E.E.",
"E.E.E.E.E.E.E.E.E.E.E.E.* : i C e.w.v u u u u t < E.E.E.E.E.E.E.E.E.E.E.E.E.E.E.E.E.E.: t u u n w.4.0 & E.E.E.E.E.E.E.E.E.E.E.E.",
"E.E.E.E.E.E.E.E.E.E.E.E.& 1 C 7.6.m 1 & * * * * E.E.E.E.E.E.E.E.E.E.E.E.E.E.E.E.E.E.E.E.* & & 1 C m 1 & E.E.E.E.E.E.E.E.E.E.E.E.",
"E.E.E.E.E.E.E.E.E.E.E.E.E.E.0 0 q 0 E.E.E.E.E.E.E.E.E.E.E.E.E.E.E.E.E.E.E.E.E.E.E.E.E.E.E.E.& = < 1 = * E.E.E.E.E.E.E.E.E.E.E.E.",
"E.E.E.E.E.E.E.E.E.E.E.E.E.E.& & & & E.E.E.E.E.E.E.E.E.E.E.E.E.E.E.E.E.E.E.E.E.E.E.E.E.E.E.E.* * & & * * E.E.E.E.E.E.E.E.E.E.E.E.",
"E.E.E.E.E.E.E.E.E.E.E.E.E.E.E.E.E.E.E.E.E.E.E.E.E.E.E.E.E.E.E.E.E.E.E.E.E.E.E.E.E.E.E.E.E.E.E.E.E.E.E.E.E.E.E.E.E.E.E.E.E.E.E.E.",
"E.E.E.E.E.E.E.E.E.E.E.E.E.E.E.E.E.E.E.E.E.E.E.E.E.E.E.E.E.E.E.E.E.E.E.E.E.E.E.E.E.E.E.E.E.E.E.E.E.E.E.E.E.E.E.E.E.E.E.E.E.E.E.E.",
"E.E.E.E.E.E.E.E.E.E.E.E.E.E.E.E.E.E.E.E.E.E.E.E.E.E.E.E.E.E.E.E.E.E.E.E.E.E.E.E.E.E.E.E.E.E.E.E.E.E.E.E.E.E.E.E.E.E.E.E.E.E.E.E.",
"E.E.E.E.E.E.E.E.E.E.E.E.E.E.E.E.E.E.E.E.E.E.E.E.E.E.E.E.E.E.E.E.E.E.E.E.E.E.E.E.E.E.E.E.E.E.E.E.E.E.E.E.E.E.E.E.E.E.E.E.E.E.E.E.",
"E.E.E.E.E.E.E.E.E.E.E.E.E.E.E.E.E.E.E.E.E.E.E.E.E.E.E.E.E.E.E.E.E.E.E.E.E.E.E.E.E.E.E.E.E.E.E.E.E.E.E.E.E.E.E.E.E.E.E.E.E.E.E.E.",
"E.E.E.E.E.E.E.E.E.E.E.E.E.E.E.E.E.E.E.E.E.E.E.E.E.E.E.E.E.E.E.E.E.E.E.E.E.E.E.E.E.E.E.E.E.E.E.E.E.E.E.E.E.E.E.E.E.E.E.E.E.E.E.E.",
"E.E.E.E.E.E.E.E.E.E.E.E.E.E.E.E.E.E.E.E.E.E.E.E.E.E.E.E.E.E.E.E.E.E.E.E.E.E.E.E.E.E.E.E.E.E.E.E.E.E.E.E.E.E.E.E.E.E.E.E.E.E.E.E."
};
