/* XPM */
static char *result[] = {
/* columns rows colors chars-per-pixel */
"64 64 108 2 ",
"   c #2A132C",
".  c #2F1730",
"X  c #341D34",
"o  c #382037",
"O  c #3E263C",
"+  c #40263B",
"@  c #43293E",
"#  c #462D41",
"$  c #482F43",
"%  c #4B3245",
"&  c #4E3648",
"*  c #4F384B",
"=  c #503344",
"-  c #513749",
";  c #543B4D",
":  c #5A3E4D",
">  c #5A3F50",
",  c #5E404E",
"<  c #5D4353",
"1  c #61414E",
"2  c #614655",
"3  c #644857",
"4  c #664B59",
"5  c #6A4D5B",
"6  c #6D515E",
"7  c #72525C",
"8  c #6D5461",
"9  c #725662",
"0  c #755A65",
"q  c #795C66",
"w  c #775E69",
"e  c #7B5F6A",
"r  c #7C626C",
"t  c #836067",
"y  c #83656D",
"u  c #89666A",
"i  c #846770",
"p  c #856971",
"a  c #8B6D74",
"s  c #8F7076",
"d  c #8B7279",
"f  c #907177",
"g  c #9C7577",
"h  c #94747A",
"j  c #9A7679",
"k  c #97787D",
"l  c #9B7A7D",
"z  c #A47D7C",
"x  c #A7807E",
"c  c #9C7D81",
"v  c #A17F80",
"b  c #9E8184",
"n  c #9F8689",
"m  c #A48486",
"M  c #AB8482",
"N  c #AF8986",
"B  c #A48689",
"V  c #A68C8E",
"C  c #AA898A",
"Z  c #B08987",
"A  c #B38D8A",
"S  c #B7918E",
"D  c #B9928F",
"F  c #A78E90",
"G  c #A88F90",
"H  c #AB9192",
"J  c #B49493",
"K  c #BA9592",
"L  c #B69896",
"P  c #BB9996",
"I  c #B59B9A",
"U  c #BC9C99",
"Y  c #BFA19F",
"T  c #BEA3A0",
"R  c #C19C96",
"E  c #C29D99",
"W  c #C5A29C",
"Q  c #C8A49F",
"!  c #C5A5A1",
"~  c #CAA6A1",
"^  c #C4A9A5",
"/  c #CDABA5",
"(  c #C5ACA8",
")  c #CDAEA8",
"_  c #D0ADA7",
"`  c #D1AEA8",
"'  c #CEB2AC",
"]  c #D3B3AC",
"[  c #D8B7AF",
"{  c #D7B8AF",
"}  c #D3B7B1",
"|  c #D8B7B0",
" . c #D4B9B3",
".. c #DBBBB4",
"X. c #DEC0B7",
"o. c #DEC2B9",
"O. c #E2C0B7",
"+. c #E2C4BB",
"@. c #E4C9BF",
"#. c #E8C9BF",
"$. c #E6CAC0",
"%. c #E9CDC3",
"&. c #ECD1C6",
"*. c #EFD4C8",
"=. c #F0D3C7",
"-. c #F1D6CA",
";. c #F5DACD",
":. c None",
/* pixels */
":.:.:.:.:.:.:.:.:.:.:.:.:.:.:.:.:.:.:.:.:.:.:.:.:.:.:.:.:.:.:.:.:.:.:.:.:.:.:.:.:.:.:.:.:.:.:.:.:.:.:.:.:.:.:.:.:.:.:.:.:.:.:.:.",
":.:.:.:.:.:.:.:.:.:.:.:.:.:.:.:.:.:.:.:.:.:.:.:.:.:.:.:.:.:.:.:.:.:.:.:.:.:.:.:.:.:.:.:.:.:.:.:.:.:.:.:.:.:.:.:.:.:.:.:.:.:.:.:.",
":.:.:.:.:.:.:.:.:.:.:.:.:.:.:.:.:.:.:.:.:.:.:.:.:.:.:.:.:.:.:.:.:.:.:.:.:.:.:.:.:.:.:.:.:.:.:.:.:.:.:.:.:.:.:.:.:.:.:.:.:.:.:.:.",
":.:.:.:.:.:.:.:.:.:.:.:.:.:.:.:.:.:.:.:.:.:.:.:.:.:.:.:.:.:.:.:.:.:.:.:.:.:.:.:.:.:.:.:.:.:.:.:.:.:.:.:.:.:.:.:.:.:.:.:.:.:.:.:.",
":.:.:.:.:.:.:.:.:.:.:.:.:.:.:.:.:.:.:.:.:.X X X X X X X X . X X X X X X X X X X X X X :.:.:.:.:.:.:.:.:.:.:.:.:.:.:.:.:.:.:.:.:.",
":.:.:.:.:.:.:.:.:.:.:.:.:.:.:.:.:.:.:.:.# X # O O # O O O O O O O O O O O O O O # O O O :.:.:.:.:.:.:.:.:.:.:.:.:.:.:.:.:.:.:.:.",
":.:.:.:.:.:.:.:.:.:.:.:.:.:.:.:.:.:.:.:.& & - * - ; ; ; > ; ; ; ; ; ; ; > ; ; ; - - * & :.:.:.:.:.:.:.:.:.:.:.:.:.:.:.:.:.:.:.:.",
":.:.:.:.:.:.:.:.:.:.:.:.:.:.:.:.:.:.:.; 3 5 9 9 w w r r r r r r r r r r r w w w 0 8 5 3 > :.:.:.:.:.:.:.:.:.:.:.:.:.:.:.:.:.:.:.",
":.:.:.:.:.:.:.:.:.:.:.:.:.:.:.:.:.X $ 2 q a c c n n F F F F F F F F G G F F V B c c a 0 2 $ X :.:.:.:.:.:.:.:.:.:.:.:.:.:.:.:.:.",
":.:.:.:.:.:.:.:.:.:.:.:.:.:.:.:.X # - 6 a C U ! '  . . . . . . . . . . . . .} ) ! U C a 6 * # X :.:.:.:.:.:.:.:.:.:.:.:.:.:.:.:.",
":.:.:.:.:.:.:.:.:.:.:.:.:.:.:.:.$ * 2 e v U ] O.@.$.&.&.&.&.&.&.$.&.$.&.&.&.$.$.O.` U c q 2 - $ :.:.:.:.:.:.:.:.:.:.:.:.:.:.:.:.",
":.:.:.:.:.:.:.:.:.:.:.:.:.:.:.: 2 6 e c J ) ..$.&.&.-.-.*.*.-.-.;.-.-.;.-.-.&.&.$...) L c t 6 3 > :.:.:.:.:.:.:.:.:.:.:.:.:.:.:.",
":.:.:.:.:.:.:.:.:.:.:.:.:.O & 3 q a v J ^  .$.&.&.&.*.-.&.*.*.-.*.*.*.*.*.*.&.&.%.$...^ J v a q 3 & O :.:.:.:.:.:.:.:.:.:.:.:.:.",
":.:.:.:.:.:.:.:.:.:.:.:.X O - 6 a C U ) ..+.$.&.&.&.&.&.&.&.&.&.&.&.&.&.&.&.&.&.%.$.O...) E C a 5 - O X :.:.:.:.:.:.:.:.:.:.:.:.",
":.:.:.:.:.:.:.:.:.:.:.:.X O - 6 f K ` ..+.$.&.&.&.&.&.&.&.&.&.&.&.&.&.&.&.&.&.&.=.%.$.+..._ J f 8 * O X :.:.:.:.:.:.:.:.:.:.:.:.",
":.:.:.:.:.:.:.:.:.:.:.:.X O - 8 c E ` O.$.&.-.-.-.-.-.&.&.&.&.&.&.&.&.&.*.*.*.;.-.-.=.$.O.] P c 9 * @ X :.:.:.:.:.:.:.:.:.:.:.:.",
":.:.:.:.:.:.:.:.:.:.:.:.X O & 8 k P ` O.%.=.-.-.-.-.-.&.&.&.&.&.&.&.&.&.-.&.-.-.;.-.=.%.O.` J c 6 - + X :.:.:.:.:.:.:.:.:.:.:.:.",
":.:.:.:.:.:.:.:.:.:.:.:.o O * 7 k K _ ..O.%.%.&.&.&.&.&.&.&.&.&.&.&.&.&.&.&.&.&.&.%.$.+..._ K h 5 - + X :.:.:.:.:.:.:.:.:.:.:.:.",
":.:.:.:.:.:.:.:.:.:.:.:.X O - 8 k K / ] } }  . . . . .o.@.$.&.&.&.%.&.@.o. . . .}  .} } ] / J h 8 & O o :.:.:.:.:.:.:.:.:.:.:.:.",
":.:.:.:.:.:.:.:.:.:.:.:.X O - 9 k J ! ! U J H G H H I T  .@.&.*.&.&.@. .T I H F F H J U Q ~ K h 9 ; O X :.:.:.:.:.:.:.:.:.:.:.:.",
":.:.:.:.:.:.:.:.:.:.:.:.X O - 9 k L E J b a r r w r c n T o.&.-.-.&.o.T c c w w w r a c J Y P c 9 - O X :.:.:.:.:.:.:.:.:.:.:.:.",
":.:.:.:.:.:.:.:.:.:.:.:.X O - 0 c K U B p 3 ; % & * 4 d I  .&.;.;.&. .I c 8 * % & ; 4 p v P J c 9 - O o :.:.:.:.:.:.:.:.:.:.:.:.",
":.:.:.:.:.:.:.:.:.:.:.:.X + - 9 c L K c 0 * O X X O ; r H  .&.;.;.&. .H r ; o X X O ; 0 c K J c 9 - + X :.:.:.:.:.:.:.:.:.:.:.:.",
":.:.:.:.:.:.:.:.:.:.:.:.o O - 9 c K K c 8 $ X     X * w F  .&.;.;.&. .F w % X     X $ 8 c P P c 9 - O X :.:.:.:.:.:.:.:.:.:.:.:.",
":.:.:.:.:.:.:.:.:.:.:.:.X + ; 0 c K P c 9 $ X     X % w F  .&.;.;.&. .H w * X     X $ 9 c K P c 0 - O o :.:.:.:.:.:.:.:.:.:.:.:.",
":.:.:.:.:.:.:.:.:.:.:.:.X O - 9 c J K c 0 * O X . O ; r H  .&.;.;.&. .H r ; O X X O & 0 c L J c 9 * O X :.:.:.:.:.:.:.:.:.:.:.:.",
":.:.:.:.:.:.:.:.:.:.:.:.X O - 7 f C C h q > * % $ * 6 c I  .&.;.;.&. .I d 2 * * % - < q h C C f 8 - + o :.:.:.:.:.:.:.:.:.:.:.:.",
":.:.:.:.:.:.:.:.:.:.:.:.:.O & 5 r a f a y 0 0 9 w w c n ( o.&.-.;.&.o.T F c r w 9 9 q y a f a y 5 - O :.:.:.:.:.:.:.:.:.:.:.:.:.",
":.:.:.:.:.:.:.:.:.:.:.:.:.:.:.< 3 6 9 t a f c v V F T (  .$.&.-.-.&.$. .T I H F m c f p e 9 5 3 : :.:.:.:.:.:.:.:.:.:.:.:.:.:.:.",
":.:.:.:.:.:.:.:.:.:.:.:.:.:.:.:.% - 2 9 s C P ~ ( ' ....@.%.&.&.&.&.$.$.o. . .T ! P C f 0 2 - % :.:.:.:.:.:.:.:.:.:.:.:.:.:.:.:.",
":.:.:.:.:.:.:.:.:.:.:.:.:.:.:.:.# $ , q c P / | ..O.+.+.$.%.%.$.$.$.%.$.@.@.o.o.[ / P l 0 1 % @ :.:.:.:.:.:.:.:.:.:.:.:.:.:.:.:.",
":.:.:.:.:.:.:.:.:.:.:.:.:.:.:.@ $ : 5 u v Y ` ] } } } |  ...+.+.+.+..... .' }  .[ ` E m u 5 : % @ :.:.:.:.:.:.:.:.:.:.:.:.:.:.:.",
":.:.:.:.:.:.:.:.:.:.:.:.:.X + = 1 7 t z A W / Q W W W Q _ [ .... . .] ` Q E E E / / E A z t 7 1 = + X :.:.:.:.:.:.:.:.:.:.:.:.:.",
":.:.:.:.:.:.:.:.:.:.:.:.X # $ > 7 u g x D W Q R S Z Z D W Q _ ` ] ` ~ E D A A D E E E R v g u 7 1 $ @ X :.:.:.:.:.:.:.:.:.:.:.:.",
":.:.:.:.:.:.:.:.:.:.:.:.- > < 8 u g x A R R W R A x Z A D R Q Q Q Y E K A Z Z A R R R R S z z t 9 < : - :.:.:.:.:.:.:.:.:.:.:.:.",
":.:.:.:.:.:.:.:.:.:.:.< 8 w i d z Z D D R D K K K R K K D D D K K K D D K K K K K D D R R A N z f i e 8 < :.:.:.:.:.:.:.:.:.:.:.",
":.:.:.:.:.:.:.:.:.X * 8 c c F I P R R D S Z A K W Q Q W K Z x x x x A D E ~ ~ E K A A A K R R U L G n d 8 % X :.:.:.:.:.:.:.:.:.",
":.:.:.:.:.:.:.:.X O > w n T '  ._ Q R D A Z Z P Q X.X._ P Z x x x x N P _ ..| _ K Z M Z D E ~ ) } } ^ B w ; O X :.:.:.:.:.:.:.:.",
":.:.:.:.:.:.:.:.$ - 4 d J  .o...) W K Z x x x Y ] +.+.{ W A M x x x S W { +.+.] E Z v M Z S E ) ..+. .H d 5 * $ :.:.:.:.:.:.:.:.",
":.:.:.:.:.:.:.> 3 8 i c T ....] U B l l x x D W X.@.@.X.) W P K K P W ) X.$.#...Q D N z l c B I ` ....Y c r 9 4 > :.:.:.:.:.:.:.",
":.:.:.:.:.O - 3 e h m K ) } ` U c y e u l Z E _ ..%.%.#...{ ' / ` _ { X.#.%.$...] R Z l u r y c U ` | ) P m h e 4 * O :.:.:.:.:.",
":.:.:.:.X O - 6 a C P ~ ` ~ U c r < 2 0 k J ~ [ +.#.%.%.$.o.+.o.+.+.o.@.%.%.$.+.] / J k 0 3 3 e c E ~ / ! P C a 5 & O X :.:.:.:.",
":.:.:.:.X O - 6 a C K E E K m a 3 - - 8 l U ` ..+.+.#.#.$.$.$.$.@.#.@.@.$.$.@.+...] P k 8 - & 3 a B K U U K C a 8 - O X :.:.:.:.",
":.:.:.:.:.O - 3 r s l c c h a 6 ; # & 9 c ! | O.+.X.X.+.+.+.o.+.+.+.+.+.o.O.O.O.O.| ! c 8 & # ; 6 p h c c c s y 5 & O :.:.:.:.:.",
":.:.:.:.:.:.:.< 5 8 9 0 9 8 4 : # # * 0 B ( o.+.O.[ ] [ [ ....{ { { ..[ [ [ [ ..O.o.( B w & # # > 4 6 9 9 9 9 5 < :.:.:.:.:.:.:.",
":.:.:.:.:.:.:.:.& ; - - - * % # O O ; r F } +.@...] _ _ / ` ` ` _ _ _ _ / _ ] ..+.@.] G r ; O O # % - ; - - - & :.:.:.:.:.:.:.:.",
":.:.:.:.:.:.:.:.O O O + O O O o X O ; r H } $.#.O.] ] ` / ` ` ` ] ` ` _ _ _ ] O.#.#. .H r ; O X X O O O # O O O :.:.:.:.:.:.:.:.",
":.:.:.:.:.:.:.:.:.X o X X X X . . O ; r H  .%.%.+.....| | | { ..{ X.{ ..[ [ ..#.%.%. .H r ; o X X X X X X X X :.:.:.:.:.:.:.:.:.",
":.:.:.:.:.:.:.:.:.:.:.:.:.:.:.. . o ; w F  .%.*.%.+.+.+.o.@.@.@.@.@.@.+.+.+.+.&.&.&. .F w - X . . :.:.:.:.:.:.:.:.:.:.:.:.:.:.:.",
":.:.:.:.:.:.:.:.:.:.:.:.:.:.:.:.X O : r F  .%.*.&.%.$.$.$.$.#.@.#.$.@.o.#.#.#.&.&.&. .F r ; # X :.:.:.:.:.:.:.:.:.:.:.:.:.:.:.:.",
":.:.:.:.:.:.:.:.:.:.:.:.:.:.:.:.# - 4 p I  .&.&.%.+.o... . . . .{  . .X.o.o.+.#.&.&. .I a 4 - $ :.:.:.:.:.:.:.:.:.:.:.:.:.:.:.:.",
":.:.:.:.:.:.:.:.:.:.:.:.:.:.:.> 2 8 i b T  .$.%.+.| ) ^ Y H F n F F H Y ! ) [ O.$.$...T b i 6 3 > :.:.:.:.:.:.:.:.:.:.:.:.:.:.:.",
":.:.:.:.:.:.:.:.:.:.:.:.:.O - 3 q f m U ' o.#.+.[ W D m h p r r r r p h m S W [ o.$.+.' U B a q 3 - O :.:.:.:.:.:.:.:.:.:.:.:.:.",
":.:.:.:.:.:.:.:.:.:.:.:.X O - 6 a C U ] o.@.+.{ W A z u 7 < , * * * < 6 u z A Q  .+.$.o.` E C a 5 - O X :.:.:.:.:.:.:.:.:.:.:.:.",
":.:.:.:.:.:.:.:.:.:.:.:.X O - 9 k U ` +.$.$.o.) D l u 7 , @ @ o o O & , 7 u l J ) +.$.$.O.} P c 9 - O X :.:.:.:.:.:.:.:.:.:.:.:.",
":.:.:.:.:.:.:.:.:.:.:.:.X O ; 9 b ! O.%.&.%.o.! m u 7 1 - @ o     o O = 1 7 u m ^ ..$.&.$...^ c 0 - O X :.:.:.:.:.:.:.:.:.:.:.:.",
":.:.:.:.:.:.:.:.:.:.:.:.X O ; w B ' +.-.-.%...I f 7 , = @ :.:.:.:.:.:.@ - 1 7 h I ..&.-.*.+.) B w - O X :.:.:.:.:.:.:.:.:.:.:.:.",
":.:.:.:.:.:.:.:.:.:.:.:.X O ; e V ' %.-.;.%. .H p 2 % + :.:.:.:.:.:.:.:.@ @ 2 p H  .%.;.;.$.' F w ; O X :.:.:.:.:.:.:.:.:.:.:.:.",
":.:.:.:.:.:.:.:.:.:.:.:.X O ; r F } &.;.;.&. .G r : O X :.:.:.:.:.:.:.:.X O , r F  .*.;.;.&. .G r ; # X :.:.:.:.:.:.:.:.:.:.:.:.",
":.:.:.:.:.:.:.:.:.:.:.:.:.O ; r H  .*.;.;.&.} V r * O :.:.:.:.:.:.:.:.:.:.o * r F  .&.;.;.*. .G r ; O :.:.:.:.:.:.:.:.:.:.:.:.:.",
":.:.:.:.:.:.:.:.:.:.:.:.:.:.:.:.:.:.:.:.:.:.:.:.:.:.:.:.:.:.:.:.:.:.:.:.:.:.:.:.:.:.:.:.:.:.:.:.:.:.:.:.:.:.:.:.:.:.:.:.:.:.:.:.",
":.:.:.:.:.:.:.:.:.:.:.:.:.:.:.:.:.:.:.:.:.:.:.:.:.:.:.:.:.:.:.:.:.:.:.:.:.:.:.:.:.:.:.:.:.:.:.:.:.:.:.:.:.:.:.:.:.:.:.:.:.:.:.:.",
":.:.:.:.:.:.:.:.:.:.:.:.:.:.:.:.:.:.:.:.:.:.:.:.:.:.:.:.:.:.:.:.:.:.:.:.:.:.:.:.:.:.:.:.:.:.:.:.:.:.:.:.:.:.:.:.:.:.:.:.:.:.:.:.",
":.:.:.:.:.:.:.:.:.:.:.:.:.:.:.:.:.:.:.:.:.:.:.:.:.:.:.:.:.:.:.:.:.:.:.:.:.:.:.:.:.:.:.:.:.:.:.:.:.:.:.:.:.:.:.:.:.:.:.:.:.:.:.:."
};
