/* XPM */
static char *result[] = {
/* columns rows colors chars-per-pixel */
"64 64 102 2 ",
"   c #2A132D",
".  c #2E1730",
"X  c #341D34",
"o  c #392137",
"O  c #3E263C",
"+  c #41263B",
"@  c #432A3E",
"#  c #462D41",
"$  c #482F43",
"%  c #4B3245",
"&  c #4E3548",
"*  c #4F384B",
"=  c #513344",
"-  c #513749",
";  c #543B4D",
":  c #5A3E4E",
">  c #5A3F50",
",  c #5E404E",
"<  c #5E4352",
"1  c #61414E",
"2  c #614655",
"3  c #644857",
"4  c #654B59",
"5  c #6B4E5B",
"6  c #6D515E",
"7  c #73535D",
"8  c #6F5662",
"9  c #725562",
"0  c #755965",
"q  c #7B5C66",
"w  c #775E69",
"e  c #795F6A",
"r  c #7C626C",
"t  c #846167",
"y  c #82646D",
"u  c #89666B",
"i  c #846770",
"p  c #856A72",
"a  c #8B6D74",
"s  c #8F7076",
"d  c #8C737A",
"f  c #947277",
"g  c #9B7576",
"h  c #94757A",
"j  c #97787D",
"k  c #9B7A7D",
"l  c #A57D7B",
"z  c #9C7D81",
"x  c #9E8184",
"c  c #A48385",
"v  c #AD8583",
"b  c #AF8986",
"n  c #A48689",
"m  c #A58B8D",
"M  c #AB8A8A",
"N  c #B18A87",
"B  c #B38D8B",
"V  c #B7928F",
"C  c #B9928F",
"Z  c #A78E90",
"A  c #A88F90",
"S  c #AB9192",
"D  c #B59493",
"F  c #BA9693",
"G  c #BC9996",
"H  c #B59B9A",
"J  c #BC9C9A",
"K  c #BFA19D",
"L  c #BEA3A0",
"P  c #C19C96",
"I  c #C29D99",
"U  c #C5A29D",
"Y  c #C8A39E",
"T  c #C4A5A1",
"R  c #CAA7A2",
"E  c #C4A9A5",
"W  c #CDAAA4",
"Q  c #C5ACA8",
"!  c #CCAEA8",
"~  c #D0ADA7",
"^  c #D1AEA8",
"/  c #CEB2AC",
"(  c #D4B3AC",
")  c #D9B6AE",
"_  c #D7B8AF",
"`  c #D3B7B1",
"'  c #D4B9B3",
"]  c #DBBCB4",
"[  c #DEC0B7",
"{  c #DEC2B9",
"}  c #E2C0B7",
"|  c #E2C4BB",
" . c #E5C9BF",
".. c #E8C9BF",
"X. c #E6CAC0",
"o. c #EACEC3",
"O. c #ECD1C6",
"+. c #EFD4C8",
"@. c #F0D3C7",
"#. c #F1D6CA",
"$. c #F5DACD",
"%. c None",
/* pixels */
"%.%.%.%.%.%.%.%.%.%.%.%.%.%.%.%.%.%.%.%.%.%.%.%.%.%.%.%.%.%.%.%.%.%.%.%.%.%.%.%.%.%.%.%.%.%.%.%.%.%.%.%.%.%.%.%.%.%.%.%.%.%.%.%.",
"%.%.%.%.%.%.%.%.%.%.%.%.%.%.%.%.%.%.%.%.%.%.%.%.%.%.%.%.%.%.%.%.%.%.%.%.%.%.%.%.%.%.%.%.%.%.%.%.%.%.%.%.%.%.%.%.%.%.%.%.%.%.%.%.",
"%.%.%.%.%.%.%.%.%.%.%.%.%.%.%.%.%.%.%.%.%.%.%.%.%.%.%.%.%.%.%.%.%.%.%.%.%.%.%.%.%.%.%.%.%.%.%.%.%.%.%.%.%.%.%.%.%.%.%.%.%.%.%.%.",
"%.%.%.%.%.%.%.%.%.%.%.%.%.%.%.%.%.%.%.%.%.%.%.%.%.%.%.%.%.%.%.%.%.%.%.%.%.%.%.%.%.%.%.%.%.%.%.%.%.%.%.%.%.%.%.%.%.%.%.%.%.%.%.%.",
"%.%.%.%.%.%.%.%.%.%.%.%.%.%.%.%.%.%.%.%.%.%.%.%.%.%.%.%.%.%.%.%.%.%.%.%.%.%.%.%.%.%.%.%.%.%.%.%.%.%.%.%.%.%.%.%.%.%.%.%.%.%.%.%.",
"%.%.%.%.%.%.%.%.%.%.%.%.%.%.%.%.%.%.%.%.%.%.%.%.%.%.%.%.%.%.%.%.%.%.%.%.%.%.%.%.%.%.%.%.%.%.%.%.%.%.%.%.%.%.%.%.%.%.%.%.%.%.%.%.",
"%.%.%.%.%.%.%.%.%.%.%.%.%.%.%.%.%.%.%.%.%.%.%.%.%.%.%.%.%.%.%.%.%.%.%.%.%.%.%.%.%.%.%.%.%.%.%.%.%.%.%.%.%.%.%.%.%.%.%.%.%.%.%.%.",
"%.%.%.%.%.%.%.%.%.%.%.%.%.%.%.%.%.%.%.%.%.%.%.%.%.%.%.%.%.%.%.%.%.%.%.%.%.%.%.%.%.%.%.%.%.%.%.%.%.%.%.%.%.%.%.%.%.%.%.%.%.%.%.%.",
"%.%.%.%.%.%.%.%.%.%.%.%.%.%.%.%.%.%.%.%.%.X X X X X X X X X X X X X X X X X X X X X X %.%.%.%.%.%.%.%.%.%.%.%.%.%.%.%.%.%.%.%.%.",
"%.%.%.%.%.%.%.%.%.%.%.%.%.%.%.%.%.%.%.%.O # O O O O O O O O O O O O O O O O O O O O O O %.%.%.%.%.%.%.%.%.%.%.%.%.%.%.%.%.%.%.%.",
"%.%.%.%.%.%.%.%.%.%.%.%.%.%.%.%.%.%.%.%.& - - - * ; ; ; * ; * ; ; ; ; ; ; ; ; * * - - & %.%.%.%.%.%.%.%.%.%.%.%.%.%.%.%.%.%.%.%.",
"%.%.%.%.%.%.%.%.%.%.%.%.%.%.%.%.%.%.%.; 3 5 9 0 w r r r r r r r r r r r r r e w 0 9 5 4 > %.%.%.%.%.%.%.%.%.%.%.%.%.%.%.%.%.%.%.",
"%.%.%.%.%.%.%.%.%.%.%.%.%.%.%.%.%.o % 2 0 a z z m m Z Z Z Z Z Z Z Z A S Z Z Z n z z a q 2 $ X %.%.%.%.%.%.%.%.%.%.%.%.%.%.%.%.%.",
"%.%.%.%.%.%.%.%.%.%.%.%.%.%.%.%.X O * 6 s n G E Q ` ' ' ' ' ' ' ' ' ' ' ' ' / ! E G M a 6 - # X %.%.%.%.%.%.%.%.%.%.%.%.%.%.%.%.",
"%.%.%.%.%.%.%.%.%.%.%.%.%.%.%.%.$ - 2 w z K / ]  .X.O.O.O.O.O.O.o.o.o.O.O.o.o.X.] ^ I z e 2 - $ %.%.%.%.%.%.%.%.%.%.%.%.%.%.%.%.",
"%.%.%.%.%.%.%.%.%.%.%.%.%.%.%.: 2 6 r z D ~ { X.O.O.#.#.#.+.+.#.#.#.#.#.#.#.+.o.X.[ ! D z e 6 2 > %.%.%.%.%.%.%.%.%.%.%.%.%.%.%.",
"%.%.%.%.%.%.%.%.%.%.%.%.%.O & 3 q a z D E ] | o.O.+.+.#.+.#.+.+.#.#.+.+.+.+.+.O.O.| ] R D z s q 3 & O %.%.%.%.%.%.%.%.%.%.%.%.%.",
"%.%.%.%.%.%.%.%.%.%.%.%.o O - 6 a M I W ] | o.o.O.O.O.O.O.O.O.O.O.O.O.O.O.O.O.O.O.X.| ] ~ I n a 5 * O X %.%.%.%.%.%.%.%.%.%.%.%.",
"%.%.%.%.%.%.%.%.%.%.%.%.X O * 6 h G ! ] | o.o.@.O.O.O.O.O.O.O.O.O.O.O.O.O.O.O.+.O.O.X.| ] ~ D f 9 - O X %.%.%.%.%.%.%.%.%.%.%.%.",
"%.%.%.%.%.%.%.%.%.%.%.%.X O - 6 h G ( } o.O.#.#.#.+.+.O.O.O.O.O.O.O.O.+.O.+.#.#.#.#.O.X.} ( D z 8 - O X %.%.%.%.%.%.%.%.%.%.%.%.",
"%.%.%.%.%.%.%.%.%.%.%.%.X O - 9 h G ^ } o.o.$.$.#.#.#.+.O.O.O.O.o.O.O.O.+.+.#.#.$.#.O.X.} ( G f 8 - O o %.%.%.%.%.%.%.%.%.%.%.%.",
"%.%.%.%.%.%.%.%.%.%.%.%.o O & 6 h G ^ ] | X.o.o.O.O.O.O.O.O.O.O.O.O.O.O.O.O.o.O.O.o.X.| ] ^ F z 5 - O X %.%.%.%.%.%.%.%.%.%.%.%.",
"%.%.%.%.%.%.%.%.%.%.%.%.X O - 6 h G W ( ` ` ' ' ' ' ' { { O.O.O.O.O.X. .{ ' ' ' ' ` ' ` ( W F h 9 & O X %.%.%.%.%.%.%.%.%.%.%.%.",
"%.%.%.%.%.%.%.%.%.%.%.%.X O - 9 j F T T J D S A Z S H L '  .O.+.O.O. .' E H S Z Z S D K Y Y D h 7 - O X %.%.%.%.%.%.%.%.%.%.%.%.",
"%.%.%.%.%.%.%.%.%.%.%.%.o O - 9 z F I D z a r w w r z n L  .O.#.#.O.{ L Z z w 8 w e a z D K D z 9 - O X %.%.%.%.%.%.%.%.%.%.%.%.",
"%.%.%.%.%.%.%.%.%.%.%.%.X O - 9 j D G c i 4 ; & & ; 2 z H ' O.$.#.O.' H z 4 * * % ; 4 i c J D z 0 - O o %.%.%.%.%.%.%.%.%.%.%.%.",
"%.%.%.%.%.%.%.%.%.%.%.%.X + - 0 z D D z 0 - O . X O * r Z ' O.$.$.O.' S r * O X X O ; 9 z D G z 0 & O X %.%.%.%.%.%.%.%.%.%.%.%.",
"%.%.%.%.%.%.%.%.%.%.%.%.X O - 0 z G G z 9 $ X     . % w Z ' O.$.$.O.' Z w * .     X $ 9 z G G z 0 - O X %.%.%.%.%.%.%.%.%.%.%.%.",
"%.%.%.%.%.%.%.%.%.%.%.%.X O - 0 z J F z 9 $ X     . * w Z ' O.$.$.O.' Z w * .     . $ 9 z G G z 0 - + X %.%.%.%.%.%.%.%.%.%.%.%.",
"%.%.%.%.%.%.%.%.%.%.%.%.X O - 9 z D D z 0 - O X X O * r Z ' O.$.$.O.' S r ; O X X O - 0 z F G k 9 - O X %.%.%.%.%.%.%.%.%.%.%.%.",
"%.%.%.%.%.%.%.%.%.%.%.%.X O & 5 a z B z 0 2 - % % * 8 p H ' O.$.#.O.' H z 4 * * & - 2 0 h M n a 5 & O X %.%.%.%.%.%.%.%.%.%.%.%.",
"%.%.%.%.%.%.%.%.%.%.%.%.X o # > 9 a f a y 0 9 9 w r z m L  .O.$.#.+.{ L x z r w 9 9 0 y a s p 0 > # o X %.%.%.%.%.%.%.%.%.%.%.%.",
"%.%.%.%.%.%.%.%.%.%.%.%.X X O $ : 3 0 r a f k c m S H Q ]  .O.#.+.+.X.' L H S Z c z d a e 9 4 : $ O X X %.%.%.%.%.%.%.%.%.%.%.%.",
"%.%.%.%.%.%.%.%.%.%.%.%.O O @ @ # & 2 0 f M J Y / ( ' {  .X.O.O.O.O.X.X.X.' ' Q T G M h 9 2 - $ # O O O %.%.%.%.%.%.%.%.%.%.%.%.",
"%.%.%.%.%.%.%.%.%.%.%.%.* ; * * % % , q z F ~ ( ] [ {  .X.X...o.X.O.X.X.X.| { ' ) W G z q > = $ * - ; - %.%.%.%.%.%.%.%.%.%.%.%.",
"%.%.%.%.%.%.%.%.%.%.%.< 8 r w 8 3 1 5 y c K ^ ( ( ( _ ' ] { } | { { { ' ` ` ` ` ( ^ I v u 5 2 3 8 w r 0 4 %.%.%.%.%.%.%.%.%.%.%.",
"%.%.%.%.%.%.%.%.%.o & 8 z x m z a r t g B U W W U P U U ^ ( _ ] ] ) ( ~ Y I I I ~ W I B f t q a z m x d 8 * o %.%.%.%.%.%.%.%.%.",
"%.%.%.%.%.%.%.%.o @ ; w x E Q L b g g l C U U P V N B C U Y ~ ( ^ ~ R P V M N F P Y I C l g l b K Q E m r ; O X %.%.%.%.%.%.%.%.",
"%.%.%.%.%.%.%.%.$ ; 4 d D ' ] ) I N v N C P U F C b b B G I U Y R I I P B b N C P I I C N v N P _ [ ` S d 4 - $ %.%.%.%.%.%.%.%.",
"%.%.%.%.%.%.%.> 4 8 r x J ] | ) W F C C C C C F V F F C C C C C P F C F F F F F C F C C B C P Y ) } ] K x r 9 4 : %.%.%.%.%.%.%.",
"%.%.%.%.%.O - 4 e f c D W ` ] ) ~ Y P C B N N C U Y W U F B v v z N B P T E W U F B N B C P Y ~ ) ] ) T D c f e 4 & O %.%.%.%.%.",
"%.%.%.%.X O & 6 a M G U E W W W Y Y P V N v N G ! ] _ ! G b l l l l z P ! ] ) W G N v N C I U W ~ ! W R U G M a 5 - O X %.%.%.%.",
"%.%.%.%.X O - 8 a M G J G G F G G F D V b b B U ( ] ] ( P b l l l l N P ^ ] | ^ I B v b B D D F F F G G J D M a 6 & O X %.%.%.%.",
"%.%.%.%.%.O - 4 r f j k k h h h g k z c M V P W _ ] ] ~ U B b v l l P Y ^ ] ] ) W P D b c z z j h h h j z k f r 5 & O %.%.%.%.%.",
"%.%.%.%.%.%.%.< 5 6 9 9 9 6 6 6 8 9 r f M U / _ ) _ ( W U G F C P P P I ~ ) ) ) _ ~ U M j r 9 6 6 6 6 9 9 9 9 5 < %.%.%.%.%.%.%.",
"%.%.%.%.%.%.%.%.- - - - - * & % % - 4 p S / [ } ] ( W W Y Y U U P P Y R R ~ ( ) } [ / S p 4 * % & - - - - - - * %.%.%.%.%.%.%.%.",
"%.%.%.%.%.%.%.%.O O O O O O O o o O : r S '  . .} ( ~ ~ ~ ^ ~ ^ ~ ~ ~ ~ ~ ^ ) }  . .' S r ; O o X O O O O O O O %.%.%.%.%.%.%.%.",
"%.%.%.%.%.%.%.%.%.X X o X X X . . X & w S ' O.O...] _ ] ] ] [ [ } ] ] ] ) ) ] | O.o.' S r * o   . X X X X X o %.%.%.%.%.%.%.%.%.",
"%.%.%.%.%.%.%.%.%.%.%.%.%.%.%.    X & w A ' X.+.o.X.| |  . . . . .X. . . .}  .o.O.O.' Z e & X   . %.%.%.%.%.%.%.%.%.%.%.%.%.%.%.",
"%.%.%.%.%.%.%.%.%.%.%.%.%.%.%.%.X O ; r A ' O.+.O.X.X.X.X.{ X.X.X.X.X.X. . .o.O.+.O.' Z w ; + X %.%.%.%.%.%.%.%.%.%.%.%.%.%.%.%.",
"%.%.%.%.%.%.%.%.%.%.%.%.%.%.%.%.# - 4 a D ' O.+.o.| { { [ ' ' ` ` ' ] ] ] | | o.O.O.] H a 4 ; # %.%.%.%.%.%.%.%.%.%.%.%.%.%.%.%.",
"%.%.%.%.%.%.%.%.%.%.%.%.%.%.%.: 2 8 i x L ] X.X.} _ ! T K S Z m m S S H U / _ } X.X.] L z i 6 2 : %.%.%.%.%.%.%.%.%.%.%.%.%.%.%.",
"%.%.%.%.%.%.%.%.%.%.%.%.%.O - 3 q s c H / {  .} ( U V c h p r r r r p h c V U ( { X.{ / H c s e 4 - O %.%.%.%.%.%.%.%.%.%.%.%.%.",
"%.%.%.%.%.%.%.%.%.%.%.%.X O - 6 a M J ( {  . ._ U V l u 7 < ; * * - < 9 u l B U ' | X.{ ^ K M a 5 - @ X %.%.%.%.%.%.%.%.%.%.%.%.",
"%.%.%.%.%.%.%.%.%.%.%.%.X O - 8 j J ( } X.X.{ ! V k u 7 , % O o o O % , 7 u l D ! { X.o.| ^ G z 9 - + X %.%.%.%.%.%.%.%.%.%.%.%.",
"%.%.%.%.%.%.%.%.%.%.%.%.X @ - 9 x R ] o.O.o.[ T c u 7 1 = O o   . X O = 1 7 y c T ] o.O.o.] T z 9 - O X %.%.%.%.%.%.%.%.%.%.%.%.",
"%.%.%.%.%.%.%.%.%.%.%.%.X O - w n /  .@.#.O.] H f 7 : = @ %.%.%.%.%.%.@ = : 7 f H ] o.#.@.X.! n w - O X %.%.%.%.%.%.%.%.%.%.%.%.",
"%.%.%.%.%.%.%.%.%.%.%.%.X O > w m / X.#.$.o.' S p 2 % + %.%.%.%.%.%.%.%.@ % 2 p S ' O.$.#.X.` Z w ; O X %.%.%.%.%.%.%.%.%.%.%.%.",
"%.%.%.%.%.%.%.%.%.%.%.%.X O ; r Z ' O.$.$.O.' S r ; @ X %.%.%.%.%.%.%.%.X O : r A ' O.$.$.O.' A r > O X %.%.%.%.%.%.%.%.%.%.%.%.",
"%.%.%.%.%.%.%.%.%.%.%.%.%.O ; r S ' +.$.$.O.` m w * o %.%.%.%.%.%.%.%.%.%.o * w Z ' O.$.$.O.' A r ; O %.%.%.%.%.%.%.%.%.%.%.%.%.",
"%.%.%.%.%.%.%.%.%.%.%.%.%.%.%.%.%.%.%.%.%.%.%.%.%.%.%.%.%.%.%.%.%.%.%.%.%.%.%.%.%.%.%.%.%.%.%.%.%.%.%.%.%.%.%.%.%.%.%.%.%.%.%.%.",
"%.%.%.%.%.%.%.%.%.%.%.%.%.%.%.%.%.%.%.%.%.%.%.%.%.%.%.%.%.%.%.%.%.%.%.%.%.%.%.%.%.%.%.%.%.%.%.%.%.%.%.%.%.%.%.%.%.%.%.%.%.%.%.%.",
"%.%.%.%.%.%.%.%.%.%.%.%.%.%.%.%.%.%.%.%.%.%.%.%.%.%.%.%.%.%.%.%.%.%.%.%.%.%.%.%.%.%.%.%.%.%.%.%.%.%.%.%.%.%.%.%.%.%.%.%.%.%.%.%.",
"%.%.%.%.%.%.%.%.%.%.%.%.%.%.%.%.%.%.%.%.%.%.%.%.%.%.%.%.%.%.%.%.%.%.%.%.%.%.%.%.%.%.%.%.%.%.%.%.%.%.%.%.%.%.%.%.%.%.%.%.%.%.%.%."
};
