/* XPM */
static char *result[] = {
/* columns rows colors chars-per-pixel */
"64 64 105 2 ",
"   c #29122C",
".  c #2F1831",
"X  c #341D34",
"o  c #382037",
"O  c #372038",
"+  c #3E263C",
"@  c #40263C",
"#  c #432A3E",
"$  c #452C40",
"%  c #492F42",
"&  c #4B3245",
"*  c #4E3548",
"=  c #4F384B",
"-  c #513344",
";  c #513749",
":  c #543B4D",
">  c #5B3E4E",
",  c #5A3F50",
"<  c #5E404E",
"1  c #5D4353",
"2  c #61414E",
"3  c #624654",
"4  c #644957",
"5  c #654B5A",
"6  c #6A4D5B",
"7  c #6D515E",
"8  c #73525C",
"9  c #6C5461",
"0  c #725561",
"q  c #755965",
"w  c #7A5B65",
"e  c #765E69",
"r  c #7A5F69",
"t  c #7C626C",
"y  c #836067",
"u  c #82646D",
"i  c #89666A",
"p  c #846770",
"a  c #856972",
"s  c #8B6C74",
"d  c #8A7077",
"f  c #8C7279",
"g  c #907177",
"h  c #9A7375",
"j  c #94757A",
"k  c #997679",
"l  c #97797E",
"z  c #9B7A7E",
"x  c #A47D7C",
"c  c #A7807E",
"v  c #9D7D81",
"b  c #9E8184",
"n  c #A38385",
"m  c #AC8483",
"M  c #AF8986",
"N  c #A38689",
"B  c #A88789",
"V  c #A58B8D",
"C  c #AA898A",
"Z  c #B18A87",
"A  c #B48D8A",
"S  c #B7928E",
"D  c #B9928E",
"F  c #A78E90",
"G  c #A88F90",
"H  c #AB9192",
"J  c #B49493",
"K  c #BA9592",
"L  c #B59897",
"P  c #BC9896",
"I  c #B59B9A",
"U  c #BD9C9A",
"Y  c #BEA19F",
"T  c #C19C97",
"R  c #C19D99",
"E  c #C5A29D",
"W  c #C8A39F",
"Q  c #C5A5A2",
"!  c #CCA7A2",
"~  c #C4A9A5",
"^  c #CDABA5",
"/  c #C5ACA8",
"(  c #CDAEA9",
")  c #D0ADA7",
"_  c #D1AEA8",
"`  c #D4B3AC",
"'  c #D7B8AF",
"]  c #D3B6B0",
"[  c #D8B7B0",
"{  c #D4B9B3",
"}  c #DBBBB4",
"|  c #DEC0B7",
" . c #DEC2B9",
".. c #E2C0B7",
"X. c #E2C4BB",
"o. c #E4C9BF",
"O. c #E8C9BF",
"+. c #E6CAC0",
"@. c #E9CDC3",
"#. c #ECD1C6",
"$. c #EFD4C8",
"%. c #F0D3C7",
"&. c #F1D6CA",
"*. c #F5DACD",
"=. c None",
/* pixels */
"=.=.=.=.=.=.=.=.=.=.=.=.=.=.=.=.=.=.=.=.=.=.=.=.=.=.=.=.=.=.=.=.=.=.=.=.=.=.=.=.=.=.=.=.=.=.=.=.=.=.=.=.=.=.=.=.=.=.=.=.=.=.=.=.",
"=.=.=.=.=.=.=.=.=.=.=.=.=.=.=.=.=.=.=.=.=.=.=.=.=.=.=.=.=.=.=.=.=.=.=.=.=.=.=.=.=.=.=.=.=.=.=.=.=.=.=.=.=.=.=.=.=.=.=.=.=.=.=.=.",
"=.=.=.=.=.=.=.=.=.=.=.=.=.=.=.=.=.=.=.=.=.=.=.=.=.=.=.=.=.=.=.=.=.=.=.=.=.=.=.=.=.=.=.=.=.=.=.=.=.=.=.=.=.=.=.=.=.=.=.=.=.=.=.=.",
"=.=.=.=.=.=.=.=.=.=.=.=.=.=.=.=.=.=.=.=.=.=.=.=.=.=.=.=.=.=.=.=.=.=.=.=.=.=.=.=.=.=.=.=.=.=.=.=.=.=.=.=.=.=.=.=.=.=.=.=.=.=.=.=.",
"=.=.=.=.=.=.=.=.=.=.=.=.=.=.=.=.=.=.=.=.=.X X . X X X X X . X X . X X X X X X X X X X =.=.=.=.=.=.=.=.=.=.=.=.=.=.=.=.=.=.=.=.=.",
"=.=.=.=.=.=.=.=.=.=.=.=.=.=.=.=.=.=.=.=.$ X $ $ + + + + + + + + + + + + + + + + + + $ + =.=.=.=.=.=.=.=.=.=.=.=.=.=.=.=.=.=.=.=.",
"=.=.=.=.=.=.=.=.=.=.=.=.=.=.=.=.=.=.=.=.* ; ; = : : : : : : : : : : : : : : : : ; ; ; * =.=.=.=.=.=.=.=.=.=.=.=.=.=.=.=.=.=.=.=.",
"=.=.=.=.=.=.=.=.=.=.=.=.=.=.=.=.=.=.=.: 3 7 9 0 e r t t t t t t t t t t t t e e q 9 7 4 , =.=.=.=.=.=.=.=.=.=.=.=.=.=.=.=.=.=.=.",
"=.=.=.=.=.=.=.=.=.=.=.=.=.=.=.=.=.X & 3 e s v v N V F F F F F F F F F F F G F N v v s q 1 % X =.=.=.=.=.=.=.=.=.=.=.=.=.=.=.=.=.",
"=.=.=.=.=.=.=.=.=.=.=.=.=.=.=.=.X + ; 7 s C U Q / ] { { { { { { { { { { { { ` ( ~ U B s 7 ; $ X =.=.=.=.=.=.=.=.=.=.=.=.=.=.=.=.",
"=.=.=.=.=.=.=.=.=.=.=.=.=.=.=.=.% ; 3 e v U _ ..o.+.#.#.#.#.#.@.#.#.#.#.#.@.+.+.} _ U v r 1 ; % =.=.=.=.=.=.=.=.=.=.=.=.=.=.=.=.",
"=.=.=.=.=.=.=.=.=.=.=.=.=.=.=.: 3 7 u v J _ ..+.#.$.&.&.&.&.&.&.&.&.&.&.&.&.#.#.+...( J v u 7 1 , =.=.=.=.=.=.=.=.=.=.=.=.=.=.=.",
"=.=.=.=.=.=.=.=.=.=.=.=.=.+ * 4 w s v J ~ { +.@.#.#.$.$.$.$.&.&.&.$.&.$.&.$.$.#.@.+.} ! J v g w 4 * + =.=.=.=.=.=.=.=.=.=.=.=.=.",
"=.=.=.=.=.=.=.=.=.=.=.=.X @ ; 7 s B R ( } X.+.#.#.#.#.#.#.#.#.#.#.#.#.#.#.#.#.#.@.+.X.} ( U B s 6 ; + X =.=.=.=.=.=.=.=.=.=.=.=.",
"=.=.=.=.=.=.=.=.=.=.=.=.X + ; 7 l K ^ } +.+.#.$.#.#.#.#.#.#.#.#.#.@.#.#.#.#.#.#.%.#.+.X.} _ K j 9 = + X =.=.=.=.=.=.=.=.=.=.=.=.",
"=.=.=.=.=.=.=.=.=.=.=.=.X @ ; 9 l U _ ..+.#.&.&.&.$.$.$.#.#.@.@.#.#.#.#.$.$.$.&.&.&.%.+..._ U l 0 = # X =.=.=.=.=.=.=.=.=.=.=.=.",
"=.=.=.=.=.=.=.=.=.=.=.=.O + ; 7 k P _ ..O.%.*.*.&.&.&.$.#.#.#.#.#.#.#.#.$.$.&.&.*.&.%.+..._ K j 7 ; + X =.=.=.=.=.=.=.=.=.=.=.=.",
"=.=.=.=.=.=.=.=.=.=.=.=.X + = 0 k L ) } X.O.@.@.#.#.#.#.#.#.#.#.#.#.#.#.#.#.#.#.#.@.+.X.} _ J j 8 * + X =.=.=.=.=.=.=.=.=.=.=.=.",
"=.=.=.=.=.=.=.=.=.=.=.=.O + ; 9 k L ^ ` ] ] { { { { { } o.+.#.#.#.#.+.o. .{ { { { { ] ] ` ^ K v 9 ; + X =.=.=.=.=.=.=.=.=.=.=.=.",
"=.=.=.=.=.=.=.=.=.=.=.=.X + ; 8 j L Q Q U J H G F H I ~ { o.#.$.$.@.o.{ ~ I H F F F J U ~ W J j 0 * $ X =.=.=.=.=.=.=.=.=.=.=.=.",
"=.=.=.=.=.=.=.=.=.=.=.=.X + ; 0 l K R J b s t e e t f V /  .#.&.&.#. ./ N d t e r t d v J R K v 0 ; @ X =.=.=.=.=.=.=.=.=.=.=.=.",
"=.=.=.=.=.=.=.=.=.=.=.=.X + ; 0 v L P n p 5 : * = : 9 f I } #.*.&.#.{ I v 9 = * * : 5 a n U J v q ; + X =.=.=.=.=.=.=.=.=.=.=.=.",
"=.=.=.=.=.=.=.=.=.=.=.=.X @ ; q v J L x q = + X . + : t F { #.*.*.#.{ F t : X X X + = q v K J v 0 ; + X =.=.=.=.=.=.=.=.=.=.=.=.",
"=.=.=.=.=.=.=.=.=.=.=.=.X + ; 0 x L L v 9 % X     X & e F { #.*.*.#.{ F e & X     X % 0 v K P v q - + X =.=.=.=.=.=.=.=.=.=.=.=.",
"=.=.=.=.=.=.=.=.=.=.=.=.X @ ; q v K P v 0 % X     X & e F { @.*.*.#.{ F e = .     X % 0 v P K v q ; + O =.=.=.=.=.=.=.=.=.=.=.=.",
"=.=.=.=.=.=.=.=.=.=.=.=.X + ; q v J J v q ; + X . + : t H { #.*.*.#.{ H t = + . X + ; q v J J v 0 : + X =.=.=.=.=.=.=.=.=.=.=.=.",
"=.=.=.=.=.=.=.=.=.=.=.=.X + ; 0 g B C l e 1 ; & & = 7 f I { #.*.*.#.{ I v 5 : = % ; 3 w j C C l 0 ; + X =.=.=.=.=.=.=.=.=.=.=.=.",
"=.=.=.=.=.=.=.=.=.=.=.=.=.+ * 6 u s g s u q 0 q e e v F ~  .#.*.&.$. ./ N v t e 0 q q u s g s r 4 * + =.=.=.=.=.=.=.=.=.=.=.=.=.",
"=.=.=.=.=.=.=.=.=.=.=.=.=.=.=., 4 7 0 u p g v v V F I / } +.#.$.$.#.+.{ / I H F n v g a w q 7 4 , =.=.=.=.=.=.=.=.=.=.=.=.=.=.=.",
"=.=.=.=.=.=.=.=.=.=.=.=.=.=.=.=.% ; 1 q g C P ! / ] {  .+.@.#.#.#.#.@.+.{ { ] / Q P C g q 3 ; & =.=.=.=.=.=.=.=.=.=.=.=.=.=.=.=.",
"=.=.=.=.=.=.=.=.=.=.=.=.=.=.=.=.$ % , w v T ) ` } } +.X.+.+.+.+.+.+.+.+.+.X. .{ [ ) P z w , & # =.=.=.=.=.=.=.=.=.=.=.=.=.=.=.=.",
"=.=.=.=.=.=.=.=.=.=.=.=.=.=.=.& - > 6 i v R _ [ [ _ [ [ {  .+. . .+.} } { ] ( { ` _ R n i 6 > - % =.=.=.=.=.=.=.=.=.=.=.=.=.=.=.",
"=.=.=.=.=.=.=.=.=.=.=.=.=.@ % ; 2 8 y k A E ) W E E E W ) ` ' } } { ` _ W R R R W ! R Z h y 8 2 - % @ =.=.=.=.=.=.=.=.=.=.=.=.=.",
"=.=.=.=.=.=.=.=.=.=.=.=.X @ % , 8 y x m D E W E S Z m S E ^ _ _ _ ) ! R D Z Z K T T W T m h y 8 2 - @ X =.=.=.=.=.=.=.=.=.=.=.=.",
"=.=.=.=.=.=.=.=.=.=.=.=.X @ % 3 y h c D T T E D A m M S D E W W Q E R K A Z Z A T T T D D v h y 3 % @ X =.=.=.=.=.=.=.=.=.=.=.=.",
"=.=.=.=.=.=.=.=.=.=.=.=.X + % 4 y x A K D D D T P D D D D D D D D K D K D K K K D T D T T Z x i 4 % X X =.=.=.=.=.=.=.=.=.=.=.=.",
"=.=.=.=.=.=.=.=.=.=.=.=.. O & 4 i m K K D A A D E W ^ E D A m c m c Z S R ! ! E K A Z T K K m s 4 % O X =.=.=.=.=.=.=.=.=.=.=.=.",
"=.=.=.=.=.=.=.=.=.=.=.=.X + = 0 j S T T D c c E ^ ' | ^ P m c c c c M P ) } ' ^ T Z v D T T J k 0 ; @ X =.=.=.=.=.=.=.=.=.=.=.=.",
"=.=.=.=.=.=.=.=.=.=.=.=.& : 5 t n P E T D c c Y '  . .' E A m c c c S E ' X.X.` R A m A T R P v u 6 : = =.=.=.=.=.=.=.=.=.=.=.=.",
"=.=.=.=.=.=.=.=.=.=.=.1 9 t f v J W ! R D A D Y | o.O.| ^ E P S D P E _  .O.o.{ R D A T R ! Q J v s r 9 1 =.=.=.=.=.=.=.=.=.=.=.",
"=.=.=.=.=.=.=.=.=.X = 9 d V H ~ ! ^ ) Q T T T ! } @.#.o.| ` ` ( _ ( ' | o.#.@.} ( R P T Q ) ! ! Y H F f 9 * X =.=.=.=.=.=.=.=.=.",
"=.=.=.=.=.=.=.=.X + : t N Y { { ` ^ ! Q R ! ! ` } +.@.@.@.X.X. .X.X. .o.@.@.o.} ` ! W W Q ! ) _ ] ] ~ b e , @ X =.=.=.=.=.=.=.=.",
"=.=.=.=.=.=.=.=.% = 5 d H {  .} ^ R P U Q ^ _ }  .X.o.+.+.o.+.o.O.o.o.O.@.o.X...[ ` ! W R P U ^ }  .] J s 5 ; % =.=.=.=.=.=.=.=.",
"=.=.=.=.=.=.=.> 4 0 p v Y } } ( L n n C R _ [ ..| | .... .X.X.X.X.X.X.X. ...| ..} [ ` U C n N L (  .{ Y b p 0 4 > =.=.=.=.=.=.=.",
"=.=.=.=.=.+ ; 4 r j n K ^ } ( P v t t v L ` ......[ [ [ [ ' ' ' ' ' ' ' ' [ [ } X...` J v t t v I ` ] ^ L m g r 4 * + =.=.=.=.=.",
"=.=.=.=.X + ; 7 s B U W ^ ^ U v e 4 5 a G { X.+.} ` ) ) ) _ _ _ _ _ _ _ ) ) ` } X.X.] H a 5 4 e v U ^ ^ Q P C s 7 : + X =.=.=.=.",
"=.=.=.=.X + * 7 s B J U U K n s 4 * : r F { +.+...` ` _ ) ) ( ) _ _ _ _ ) _ [ ..+.+.{ H t : * 4 p B P U R L C s 7 ; + X =.=.=.=.",
"=.=.=.=.=.+ * 6 y g v v v v s 7 ; $ = e F { +.+.X.} ' [ [ [ } } | ' ' ' ' [ } X.@.@.{ F e * # = 7 s l v v z g u 5 * + =.=.=.=.=.",
"=.=.=.=.=.=.=.1 6 0 0 q q 8 4 : $ + * e F { @.#.@.+. .X. .o.o.o.o.X.o. .X.X.X.@.$.@.{ F e * @ $ : 5 0 w q 0 0 6 1 =.=.=.=.=.=.=.",
"=.=.=.=.=.=.=.=.* ; ; : ; ; * $ + + , t G ] @.$.#.@.+.+.+. .+.@.o.@.o.+.o.O.@.#.$.#.{ F r : $ X % % ; - ; ; ; * =.=.=.=.=.=.=.=.",
"=.=.=.=.=.=.=.=.+ + + + + + @ @ $ * 5 f I { @.#.@.X. .} | ] { ] { { { } |  .X.@.#.@.{ I d 5 * $ @ @ + + + + + $ =.=.=.=.=.=.=.=.",
"=.=.=.=.=.=.=.=.=.X X X X O + & : 7 t b ~ } +.@...{ ( ~ Y H F V V G H Y W ( ' ..+.+.} ~ b p 6 > % $ X X X X X =.=.=.=.=.=.=.=.=.",
"=.=.=.=.=.=.=.=.=.=.=.X X O $ 1 0 s n U `  .o.X.` W S n j a t t t t a j n K E `  .+.X.] I n s 0 , $ X X X =.=.=.=.=.=.=.=.=.=.=.",
"=.=.=.=.=.=.=.=.=.=.=.=.X + * 5 s C P `  .+.X.{ W A x i 8 1 < = = : 1 8 i x A E { X.+.} ] R C a 5 * + X =.=.=.=.=.=.=.=.=.=.=.=.",
"=.=.=.=.=.=.=.=.=.=.=.=.X + ; 0 j P ` ..+.@. .( S z i 8 < # # o o + * < 8 i z J ^ +.+.+.X._ U j 0 ; + X =.=.=.=.=.=.=.=.=.=.=.=.",
"=.=.=.=.=.=.=.=.=.=.=.=.X + ; q n Q } @.#.@.} Q n i 8 2 ; # o   . X + * 2 8 i n Q } +.#.@.} ! b e ; + X =.=.=.=.=.=.=.=.=.=.=.=.",
"=.=.=.=.=.=.=.=.=.=.=.=.X + : r N ( X.$.$.@.} I j 8 > - # =.=.=.=.=.=.# ; > 8 j I } @.&.$.X.( N e : + X =.=.=.=.=.=.=.=.=.=.=.=.",
"=.=.=.=.=.=.=.=.=.=.=.=.X + : r V ` @.*.*.@.{ H p 3 & @ =.=.=.=.=.=.=.=.@ & 3 p H { #.*.*.+.] V r : + X =.=.=.=.=.=.=.=.=.=.=.=.",
"=.=.=.=.=.=.=.=.=.=.=.=.X + : t F { #.*.*.@.{ F t : + X =.=.=.=.=.=.=.=.X + : t H { #.*.*.@.{ G t : + X =.=.=.=.=.=.=.=.=.=.=.=.",
"=.=.=.=.=.=.=.=.=.=.=.=.=.+ : t H { $.*.*.$.{ F t = + =.=.=.=.=.=.=.=.=.=.o * t V { #.*.*.$.{ H t , + =.=.=.=.=.=.=.=.=.=.=.=.=.",
"=.=.=.=.=.=.=.=.=.=.=.=.=.=.=.=.=.=.=.=.=.=.=.=.=.=.=.=.=.=.=.=.=.=.=.=.=.=.=.=.=.=.=.=.=.=.=.=.=.=.=.=.=.=.=.=.=.=.=.=.=.=.=.=.",
"=.=.=.=.=.=.=.=.=.=.=.=.=.=.=.=.=.=.=.=.=.=.=.=.=.=.=.=.=.=.=.=.=.=.=.=.=.=.=.=.=.=.=.=.=.=.=.=.=.=.=.=.=.=.=.=.=.=.=.=.=.=.=.=.",
"=.=.=.=.=.=.=.=.=.=.=.=.=.=.=.=.=.=.=.=.=.=.=.=.=.=.=.=.=.=.=.=.=.=.=.=.=.=.=.=.=.=.=.=.=.=.=.=.=.=.=.=.=.=.=.=.=.=.=.=.=.=.=.=.",
"=.=.=.=.=.=.=.=.=.=.=.=.=.=.=.=.=.=.=.=.=.=.=.=.=.=.=.=.=.=.=.=.=.=.=.=.=.=.=.=.=.=.=.=.=.=.=.=.=.=.=.=.=.=.=.=.=.=.=.=.=.=.=.=."
};
