/* XPM */
static char *result[] = {
/* columns rows colors chars-per-pixel */
"64 64 104 2 ",
"   c #29122C",
".  c #341D34",
"X  c #382037",
"o  c #3E263C",
"O  c #40263C",
"+  c #432A3E",
"@  c #452C40",
"#  c #482F43",
"$  c #4B3245",
"%  c #4E3648",
"&  c #4F384B",
"*  c #503344",
"=  c #513749",
"-  c #543B4D",
";  c #5A3E4D",
":  c #5A3F50",
">  c #5E404E",
",  c #5D4353",
"<  c #61414E",
"1  c #614655",
"2  c #644857",
"3  c #664B5A",
"4  c #6A4D5B",
"5  c #6D515E",
"6  c #72525C",
"7  c #6C5461",
"8  c #725561",
"9  c #755965",
"0  c #795B66",
"q  c #765E69",
"w  c #7A5F69",
"e  c #7C626C",
"r  c #836067",
"t  c #83646D",
"y  c #89666A",
"u  c #836770",
"i  c #856971",
"p  c #8B6C74",
"a  c #8A7077",
"s  c #8B7279",
"d  c #907177",
"f  c #9C7577",
"g  c #93747A",
"h  c #9A7679",
"j  c #97787D",
"k  c #9B7A7D",
"l  c #A57D7B",
"z  c #9D7D81",
"x  c #A17F80",
"c  c #9F8184",
"v  c #9F8689",
"b  c #A38385",
"n  c #AC8583",
"m  c #AF8986",
"M  c #A58688",
"N  c #A88789",
"B  c #A68B8D",
"V  c #AA898A",
"C  c #B18987",
"Z  c #B38D8B",
"A  c #B6938F",
"S  c #B9928F",
"D  c #A78E90",
"F  c #A88F90",
"G  c #AB9193",
"H  c #B49493",
"J  c #BA9593",
"K  c #B69896",
"L  c #BB9996",
"P  c #B59B9A",
"I  c #BC9C99",
"U  c #BFA19F",
"Y  c #C19C97",
"T  c #C29E99",
"R  c #C5A29D",
"E  c #C8A39E",
"W  c #C4A5A1",
"Q  c #C9A6A1",
"!  c #C4A9A5",
"~  c #CDABA5",
"^  c #C5ACA8",
"/  c #CDAEA9",
"(  c #D0ADA7",
")  c #D1AEA8",
"_  c #CDB0AB",
"`  c #D3B3AC",
"'  c #D7B8AF",
"]  c #D3B7B1",
"[  c #D4B9B3",
"{  c #DBBCB4",
"}  c #DEC0B7",
"|  c #DEC2B9",
" . c #E2C0B7",
".. c #E2C4BB",
"X. c #E5C9BF",
"o. c #E8C9BF",
"O. c #E6CAC0",
"+. c #EACEC3",
"@. c #ECD1C6",
"#. c #EFD4C8",
"$. c #F0D3C7",
"%. c #F1D6CA",
"&. c #F5DACD",
"*. c None",
/* pixels */
"*.*.*.*.*.*.*.*.*.*.*.*.*.*.*.*.*.*.*.*.*.*.*.*.*.*.*.*.*.*.*.*.*.*.*.*.*.*.*.*.*.*.*.*.*.*.*.*.*.*.*.*.*.*.*.*.*.*.*.*.*.*.*.*.",
"*.*.*.*.*.*.*.*.*.*.*.*.*.*.*.*.*.*.*.*.*.*.*.*.*.*.*.*.*.*.*.*.*.*.*.*.*.*.*.*.*.*.*.*.*.*.*.*.*.*.*.*.*.*.*.*.*.*.*.*.*.*.*.*.",
"*.*.*.*.*.*.*.*.*.*.*.*.*.*.*.*.*.*.*.*.*.*.*.*.*.*.*.*.*.*.*.*.*.*.*.*.*.*.*.*.*.*.*.*.*.*.*.*.*.*.*.*.*.*.*.*.*.*.*.*.*.*.*.*.",
"*.*.*.*.*.*.*.*.*.*.*.*.*.*.*.*.*.*.*.*.*.*.*.*.*.*.*.*.*.*.*.*.*.*.*.*.*.*.*.*.*.*.*.*.*.*.*.*.*.*.*.*.*.*.*.*.*.*.*.*.*.*.*.*.",
"*.*.*.*.*.*.*.*.*.*.*.*.*.*.*.*.*.*.*.*.*.*.*.*.*.*.*.*.*.*.*.*.*.*.*.*.*.*.*.*.*.*.*.*.*.*.*.*.*.*.*.*.*.*.*.*.*.*.*.*.*.*.*.*.",
"*.*.*.*.*.*.*.*.*.*.*.*.*.*.*.*.*.*.*.*.*.*.*.*.*.*.*.*.*.*.*.*.*.*.*.*.*.*.*.*.*.*.*.*.*.*.*.*.*.*.*.*.*.*.*.*.*.*.*.*.*.*.*.*.",
"*.*.*.*.*.*.*.*.*.*.*.*.*.*.*.*.*.*.*.*.*.*.*.*.*.*.*.*.*.*.*.*.*.*.*.*.*.*.*.*.*.*.*.*.*.*.*.*.*.*.*.*.*.*.*.*.*.*.*.*.*.*.*.*.",
"*.*.*.*.*.*.*.*.*.*.*.*.*.*.*.*.*.*.*.*.*.*.*.*.*.*.*.*.*.*.*.*.*.*.*.*.*.*.*.*.*.*.*.*.*.*.*.*.*.*.*.*.*.*.*.*.*.*.*.*.*.*.*.*.",
"*.*.*.*.*.*.*.*.*.*.*.*.*.*.*.*.*.*.*.*.*.. . . . . . . . . . . . . . . . . . . . . . *.*.*.*.*.*.*.*.*.*.*.*.*.*.*.*.*.*.*.*.*.",
"*.*.*.*.*.*.*.*.*.*.*.*.*.*.*.*.*.*.*.*.o @ o o o o o o o o o o o o o o o o o o o o o o *.*.*.*.*.*.*.*.*.*.*.*.*.*.*.*.*.*.*.*.",
"*.*.*.*.*.*.*.*.*.*.*.*.*.*.*.*.*.*.*.*.% % & = & - - - & - & - - - - - - - - - - = = % *.*.*.*.*.*.*.*.*.*.*.*.*.*.*.*.*.*.*.*.",
"*.*.*.*.*.*.*.*.*.*.*.*.*.*.*.*.*.*.*.- 2 5 8 9 q e e e e e e q e e e e e e q 9 9 7 5 2 : *.*.*.*.*.*.*.*.*.*.*.*.*.*.*.*.*.*.*.",
"*.*.*.*.*.*.*.*.*.*.*.*.*.*.*.*.*.X # 1 8 z z z v D D D D D D D D D D D G D B M z z p 0 2 # . *.*.*.*.*.*.*.*.*.*.*.*.*.*.*.*.*.",
"*.*.*.*.*.*.*.*.*.*.*.*.*.*.*.*.X O & 5 p x P ! _ ] [ [ [ [ [ [ [ [ [ [ [ [ ] ^ W K V p 5 = @ . *.*.*.*.*.*.*.*.*.*.*.*.*.*.*.*.",
"*.*.*.*.*.*.*.*.*.*.*.*.*.*.*.*.# & 1 0 x I _ | X.O.+.@.@.@.@.@.+.+.+.#.+.@.+.O.{ ) T z w 2 = # *.*.*.*.*.*.*.*.*.*.*.*.*.*.*.*.",
"*.*.*.*.*.*.*.*.*.*.*.*.*.*.*.; 1 5 w z H _ { O.@.#.%.%.%.%.#.%.%.%.%.%.%.%.#.+.O. ./ H z w 5 1 : *.*.*.*.*.*.*.*.*.*.*.*.*.*.*.",
"*.*.*.*.*.*.*.*.*.*.*.*.*.o % 2 0 d x H ! { ..+.@.#.#.%.#.%.#.#.%.#.#.#.#.#.#.@.+.O.{ ! H x d 0 2 % o *.*.*.*.*.*.*.*.*.*.*.*.*.",
"*.*.*.*.*.*.*.*.*.*.*.*.X o = 5 p V I ~ { ..+.+.@.@.@.@.@.@.@.@.@.@.@.@.@.@.@.@.+.O. .{ / I N p 4 = o . *.*.*.*.*.*.*.*.*.*.*.*.",
"*.*.*.*.*.*.*.*.*.*.*.*.. o = 7 g J / { ..+.+.#.@.@.@.@.@.@.@.@.@.@.@.@.@.@.@.#.$.@.O...{ ( J g 7 % o . *.*.*.*.*.*.*.*.*.*.*.*.",
"*.*.*.*.*.*.*.*.*.*.*.*.. o = 5 h L `  .O.@.%.%.%.#.#.@.@.@.@.@.@.@.@.@.#.#.#.%.%.%.$.O. .) L d 8 - o . *.*.*.*.*.*.*.*.*.*.*.*.",
"*.*.*.*.*.*.*.*.*.*.*.*.X o = 7 j L )  .O.$.&.&.%.%.%.#.@.@.@.@.@.@.@.@.#.#.%.%.&.%.$.O. .) L z 6 % o . *.*.*.*.*.*.*.*.*.*.*.*.",
"*.*.*.*.*.*.*.*.*.*.*.*.. o = 6 g L ) { ..O.+.+.@.@.@.@.@.@.@.@.+.@.+.@.@.@.@.@.@.+.O...{ ( K h 7 = O . *.*.*.*.*.*.*.*.*.*.*.*.",
"*.*.*.*.*.*.*.*.*.*.*.*.. o = 5 g J ~ ` ] [ [ [ [ [ [ | | @.@.@.@.+.+.X.| [ [ [ [ [ ] ] ` ~ K g 8 % o . *.*.*.*.*.*.*.*.*.*.*.*.",
"*.*.*.*.*.*.*.*.*.*.*.*.X o = 8 z J W W I H F F D G P ^ [ | @.#.#.@.X.[ ! P G D D G H I W E J g 8 = o . *.*.*.*.*.*.*.*.*.*.*.*.",
"*.*.*.*.*.*.*.*.*.*.*.*.X o = 8 g J T H x p e q q e z z ^ | @.%.%.@.| ^ B a q q q e p z K T J z 8 = o . *.*.*.*.*.*.*.*.*.*.*.*.",
"*.*.*.*.*.*.*.*.*.*.*.*.. o = 8 z H L b u 3 - % % - 3 z P [ @.&.%.@.[ P z 3 & % $ - 3 u b I J j 9 = o X *.*.*.*.*.*.*.*.*.*.*.*.",
"*.*.*.*.*.*.*.*.*.*.*.*.. o = 8 z J K z 9 = o . . o & e D [ @.&.&.@.[ G e & o . . o = 9 z L J z 8 = O . *.*.*.*.*.*.*.*.*.*.*.*.",
"*.*.*.*.*.*.*.*.*.*.*.*.X o = 8 z L K z 5 # .     . $ q D [ @.&.&.@.[ D q $ .     . # 7 z K K z 9 = o . *.*.*.*.*.*.*.*.*.*.*.*.",
"*.*.*.*.*.*.*.*.*.*.*.*.. o = 9 z K J z 8 # .     . # q D [ @.&.&.@.[ D q & .     . # 8 z L I z 8 - o . *.*.*.*.*.*.*.*.*.*.*.*.",
"*.*.*.*.*.*.*.*.*.*.*.*.. o = 8 z J H z 9 = o . . X & q D [ @.&.&.@.[ G e - o . . o = 9 z H J k 8 = o . *.*.*.*.*.*.*.*.*.*.*.*.",
"*.*.*.*.*.*.*.*.*.*.*.*.X o = 8 d N V z 0 , = $ $ - 7 z P [ @.&.&.@.[ P a 3 & % # = , 0 j N V d 8 = o . *.*.*.*.*.*.*.*.*.*.*.*.",
"*.*.*.*.*.*.*.*.*.*.*.*.*.o % 4 w p d p t 9 8 8 q q z v ^ | @.%.&.@.[ ^ D z e q 8 9 9 t p d p e 4 = o *.*.*.*.*.*.*.*.*.*.*.*.*.",
"*.*.*.*.*.*.*.*.*.*.*.*.*.*.*.: 2 4 8 r p d k b M G P ^ [ X.@.%.#.@.X.[ ^ P G D x z z t 0 8 5 2 : *.*.*.*.*.*.*.*.*.*.*.*.*.*.*.",
"*.*.*.*.*.*.*.*.*.*.*.*.*.*.*.*.# = 1 9 d m I E _ [ [ | O.o.@.#.@.@.O.X.| [ ] _ E Y x z 9 : * # *.*.*.*.*.*.*.*.*.*.*.*.*.*.*.*.",
"*.*.*.*.*.*.*.*.*.*.*.*.*.*.*.*.@ # : 0 z J ( ` { } | X.X.O.+.o.O.+.O.X.O.| | [ ' ~ L x 0 , $ @ *.*.*.*.*.*.*.*.*.*.*.*.*.*.*.*.",
"*.*.*.*.*.*.*.*.*.*.*.*.*.*.*.@ * ; 4 u b T ( ' ` ` ' ' } |  . .| | | | ] ] ] ] ` ) T x u 4 ; * @ *.*.*.*.*.*.*.*.*.*.*.*.*.*.*.",
"*.*.*.*.*.*.*.*.*.*.*.*.*.. @ * < 6 r f A R ( Q R Y R R ( ` { { { ' ` ( E T T E ~ ~ T Z f r 6 < * O . *.*.*.*.*.*.*.*.*.*.*.*.*.",
"*.*.*.*.*.*.*.*.*.*.*.*.. o # > 6 y f n S R R Y S C C A R E ( ( ) ) Q Y S C C S T T T Y n f y 6 ; $ O X *.*.*.*.*.*.*.*.*.*.*.*.",
"*.*.*.*.*.*.*.*.*.*.*.*.& - 1 5 y f l S Y Y Y Y Z C m A Y Y R R Q T Y L Z C m Z Y Y Y Y Z n h y 6 1 - & *.*.*.*.*.*.*.*.*.*.*.*.",
"*.*.*.*.*.*.*.*.*.*.*., 7 w u g l C S S J S S S J L A A J S S S S Y J J J J J J J J S J S Z m l g u w 7 , *.*.*.*.*.*.*.*.*.*.*.",
"*.*.*.*.*.*.*.*.*.. % 7 a v F K I Y Y J Z Z Z Y R Q Q R J Z n n x C Z Y T ~ ~ T L Z C Z J Y Y I K G v s 7 % . *.*.*.*.*.*.*.*.*.",
"*.*.*.*.*.*.*.*.. @ - q v ! ] [ ~ Q Y H C x n Y ( [ { / L C l l l x x Y ~ { ' ~ L C n C S Y E ( ] _ ! v q : O . *.*.*.*.*.*.*.*.",
"*.*.*.*.*.*.*.*.# = 3 a G ] { { / I J Z n n C T ` {  .) Y m l l l l C T )  . .) T Z n C Z H T / { | ] G p 3 = # *.*.*.*.*.*.*.*.",
"*.*.*.*.*.*.*.: 2 8 u x U { { ] L M z b C S Y ~ ' { { ( R Z m n l l Y T ( { { ' ~ Y A n b z M P ` { { U c u 8 2 : *.*.*.*.*.*.*.",
"*.*.*.*.*.o = 3 r g b K ~ ] ` L z u t s m W / ' ' ' ` ~ R Y A S Y Y Y T ( ) { ' ' / W V d t t z I ` ] ~ K b g w 3 % + *.*.*.*.*.",
"*.*.*.*.. o % 5 p V K Q ~ ~ I x q 2 3 u F / ..{ ' ` ( ~ E E R R T T E E ( ( ) { ..{ / F u 3 2 q z I ~ ~ Q L N p 4 & o . *.*.*.*.",
"*.*.*.*.. o = 5 p V J T T K N i 2 % - w F ] O.O. .` ( ( ( ( / / ( ( ( ( ( ( `  .o.O.[ F e - % 2 p b K T I J N p 7 = o . *.*.*.*.",
"*.*.*.*.*.o = 3 w d z z z j p 4 = + & q F [ +.+...{ { { { { } }  . .{ { ' '  . .+.+.[ F q % + % 5 i z z x k d t 3 = o *.*.*.*.*.",
"*.*.*.*.*.*.*., 4 8 9 9 8 8 3 - @ o % q D [ +.#.+.......X.X.X.o.o.o.X.X.......+.#.+.[ D q % o + = 4 8 8 9 8 8 4 , *.*.*.*.*.*.*.",
"*.*.*.*.*.*.*.*.% = = = = = * + o o - e G [ @.#.@.+.O.O.O.O.X.o.O.X.X.X.o.o.+.$.#.@.[ G e - O o # $ = = = = = % *.*.*.*.*.*.*.*.",
"*.*.*.*.*.*.*.*.o o o o o o + + @ % 3 s P [ +.@.+...| { [ [ ] ] ] ] [ } } | ..+.#.+.[ P a 3 = @ @ O O o @ o o o *.*.*.*.*.*.*.*.",
"*.*.*.*.*.*.*.*.*.. . . . X o # : 4 e c ! { +.O...[ _ W U G D B D F H P W / '  .O.O.{ U b u 4 - @ @ . . . . . *.*.*.*.*.*.*.*.*.",
"*.*.*.*.*.*.*.*.*.*.*.. . X # : 8 p x I _ | o. .` R A b g i e e e e i j b H R ` | O.| ] I b p 7 : @ . . . *.*.*.*.*.*.*.*.*.*.*.",
"*.*.*.*.*.*.*.*.*.*.*.*.. o % 3 p M I ` | o...[ E Z l y 6 1 ; & & & , 8 y l Z R [ O.O.{ ` T M p 3 % o . *.*.*.*.*.*.*.*.*.*.*.*.",
"*.*.*.*.*.*.*.*.*.*.*.*.. o = 7 j L ` ..+.O.| _ A k y 6 < $ o o X o $ > 6 y l H / ..O.O. .) P z 5 = @ . *.*.*.*.*.*.*.*.*.*.*.*.",
"*.*.*.*.*.*.*.*.*.*.*.*.. o - 9 b Q { +.@.+.{ W b y 6 < * O .     X o * < 6 t b W { +.+.+.{ ! c 9 = o . *.*.*.*.*.*.*.*.*.*.*.*.",
"*.*.*.*.*.*.*.*.*.*.*.*.. o - q B / ..$.%.+.{ P g 6 > * + *.*.*.*.*.*.+ = > 6 g P { @.%.#.../ M q - o . *.*.*.*.*.*.*.*.*.*.*.*.",
"*.*.*.*.*.*.*.*.*.*.*.*.. o - q B _ +.%.&.+.[ G u 1 $ O *.*.*.*.*.*.*.*.O $ 1 i G [ +.&.%.+.` D q - o . *.*.*.*.*.*.*.*.*.*.*.*.",
"*.*.*.*.*.*.*.*.*.*.*.*.. o ; e D [ @.&.&.+.[ F e - + . *.*.*.*.*.*.*.*.X o > e G ] @.&.&.@.[ F e - o . *.*.*.*.*.*.*.*.*.*.*.*.",
"*.*.*.*.*.*.*.*.*.*.*.*.*.o - e G [ #.&.&.#.[ D e & X *.*.*.*.*.*.*.*.*.*.X % q B [ @.&.&.#.[ F e : o *.*.*.*.*.*.*.*.*.*.*.*.*.",
"*.*.*.*.*.*.*.*.*.*.*.*.*.*.*.*.*.*.*.*.*.*.*.*.*.*.*.*.*.*.*.*.*.*.*.*.*.*.*.*.*.*.*.*.*.*.*.*.*.*.*.*.*.*.*.*.*.*.*.*.*.*.*.*.",
"*.*.*.*.*.*.*.*.*.*.*.*.*.*.*.*.*.*.*.*.*.*.*.*.*.*.*.*.*.*.*.*.*.*.*.*.*.*.*.*.*.*.*.*.*.*.*.*.*.*.*.*.*.*.*.*.*.*.*.*.*.*.*.*.",
"*.*.*.*.*.*.*.*.*.*.*.*.*.*.*.*.*.*.*.*.*.*.*.*.*.*.*.*.*.*.*.*.*.*.*.*.*.*.*.*.*.*.*.*.*.*.*.*.*.*.*.*.*.*.*.*.*.*.*.*.*.*.*.*.",
"*.*.*.*.*.*.*.*.*.*.*.*.*.*.*.*.*.*.*.*.*.*.*.*.*.*.*.*.*.*.*.*.*.*.*.*.*.*.*.*.*.*.*.*.*.*.*.*.*.*.*.*.*.*.*.*.*.*.*.*.*.*.*.*."
};
