/* XPM */
static char *result[] = {
/* columns rows colors chars-per-pixel */
"64 64 171 2 ",
"   c #141B1B",
".  c #1C1D1D",
"X  c #1A221F",
"o  c #1F1F20",
"O  c #271F23",
"+  c #2F1D24",
"@  c #1E2121",
"#  c #222222",
"$  c #2B2225",
"%  c #2E2228",
"&  c #2A2B2A",
"*  c #332426",
"=  c #3C2521",
"-  c #3E2925",
";  c #342329",
":  c #3C232B",
">  c #2E302F",
",  c #333332",
"<  c #3D3D3B",
"1  c #491F2E",
"2  c #451F2C",
"3  c #402926",
"4  c #4D2C27",
"5  c #42242D",
"6  c #4E242C",
"7  c #462929",
"8  c #4B2A29",
"9  c #522B2B",
"0  c #5A2C2B",
"q  c #582B24",
"w  c #5F3129",
"e  c #4B2332",
"r  c #462330",
"t  c #522433",
"y  c #5A2536",
"u  c #4E3138",
"i  c #403F3E",
"p  c #4A3B3F",
"a  c #5C3933",
"s  c #503039",
"d  c #613129",
"f  c #793327",
"g  c #7D382D",
"h  c #783529",
"j  c #6C2F32",
"k  c #65263A",
"l  c #6C263C",
"z  c #692B36",
"x  c #74273E",
"c  c #7C2643",
"v  c #7E2841",
"b  c #772943",
"n  c #3F4241",
"m  c #444644",
"M  c #4C4C4A",
"N  c #484745",
"B  c #504F4D",
"V  c #52514F",
"C  c #555653",
"Z  c #585755",
"A  c #595957",
"S  c #585C59",
"D  c #654C47",
"F  c #674E49",
"G  c #694F49",
"H  c #66424D",
"J  c #794E46",
"K  c #69514C",
"L  c #694651",
"P  c #7D5952",
"I  c #7E7B77",
"U  c #8D352E",
"Y  c #83392C",
"T  c #8F3B2E",
"R  c #943A2C",
"E  c #852B3E",
"W  c #8C3A30",
"Q  c #953C32",
"!  c #9C373B",
"~  c #9E3C35",
"^  c #A43D37",
"/  c #A73C3A",
"(  c #B33B3E",
")  c #B93E3E",
"_  c #9B4739",
"`  c #9D483A",
"'  c #9E4031",
"]  c #AC4433",
"[  c #B34434",
"{  c #BA423B",
"}  c #B94436",
"|  c #C14733",
" . c #C34934",
".. c #C94936",
"X. c #C6423F",
"o. c #CC463D",
"O. c #D84731",
"+. c #D54D37",
"@. c #DC4D35",
"#. c #D54B3A",
"$. c #DB4E38",
"%. c #D2463F",
"&. c #DE5037",
"*. c #DF5038",
"=. c #E24E36",
"-. c #E35038",
";. c #822744",
":. c #842A44",
">. c #8A2945",
",. c #8E2848",
"<. c #8D2749",
"1. c #922D44",
"2. c #9C274F",
"3. c #95284B",
"4. c #9C294D",
"5. c #972B48",
"6. c #9F3345",
"7. c #A42B4D",
"8. c #A92E4C",
"9. c #A43245",
"0. c #A93049",
"q. c #AC3641",
"w. c #B43647",
"e. c #B53943",
"r. c #BC3A44",
"t. c #B53548",
"y. c #A32950",
"u. c #A52951",
"i. c #C43E44",
"p. c #C83E44",
"a. c #A3707E",
"s. c #C64140",
"d. c #CC4241",
"f. c #C05240",
"g. c #DD5E51",
"h. c #DB6F5C",
"j. c #DE715F",
"k. c #E27562",
"l. c #E57966",
"z. c #E87D6A",
"x. c #D37B82",
"c. c #D87E85",
"v. c #8C8784",
"b. c #948781",
"n. c #9A8D87",
"m. c #978B8A",
"M. c #948881",
"N. c #95938E",
"B. c #999691",
"V. c #9F9C96",
"C. c #AEA49D",
"Z. c #AEACA5",
"A. c #A9A7A2",
"S. c #B1A7A0",
"D. c #B1ABA4",
"F. c #B3AFA8",
"G. c #CF8B9D",
"H. c #DAB5A9",
"J. c #DFB9AD",
"K. c #CBC6BE",
"L. c #C6C1BB",
"P. c #F2C8BC",
"I. c #CCC8C0",
"U. c #D3CFC7",
"Y. c #D2D0C8",
"T. c #DADAD2",
"R. c #F7CDC1",
"E. c #FEDBCC",
"W. c #FAF5ED",
"Q. c white",
"!. c None",
/* pixels */
"!.!.!.!.!.!.!.!.!.!.!.!.!.!.!.!.!.!.!.!.!.!.!.!.!.!.!.!.!.!.!.!.!.!.!.!.!.!.!.!.!.!.!.!.!.!.!.!.!.!.!.!.!.!.!.!.!.!.!.!.!.!.!.!.",
"!.!.!.!.!.!.!.!.!.!.!.!.!.!.!.!.!.!.!.!.!.!.!.!.!.!.!.!.!.!.!.!.!.!.!.!.!.!.!.!.!.!.!.!.!.!.!.!.!.!.!.!.!.!.!.!.!.!.!.!.!.!.!.!.",
"!.!.!.!.!.!.!.!.!.!.!.!.!.!.!.!.!.!.!.!.!.!.!.!.!.!.!.!.!.!.!.!.!.!.!.!.!.!.!.!.!.!.!.!.!.!.!.!.!.!.!.!.!.!.!.!.!.!.!.!.!.!.!.!.",
"!.!.!.!.!.!.!.!.!.!.!.!.!.!.!.!.!.!.!.!.!.!.!.!.!.!.!.!.!.!.!.!.!.!.!.!.!.!.!.!.!.!.!.!.!.!.!.!.!.!.!.!.!.!.!.!.!.!.!.!.!.!.!.!.",
"!.!.!.!.!.!.!.!.!.!.!.!.!.!.!.!.!.!.!.!.!.!.!.!.!.!.!.!.!.!.!.!.!.!.!.!.!.!.!.!.!.!.!.!.!.!.!.!.!.!.!.!.!.!.!.!.!.!.!.!.!.!.!.!.",
"!.!.!.!.!.!.!.!.!.!.!.!.!.!.!.!.!.!.!.!.!.!.!.!.!.!.!.!.!.!.!.!.!.!.!.!.!.!.!.!.!.!.!.!.!.!.!.!.!.!.!.!.!.!.!.!.!.!.!.!.!.!.!.!.",
"!.!.!.!.!.!.!.!.!.!.!.!.!.!.!.!.!.!.!.!.!.!.!.!.!.!.!.!.!.!.!.!.!.!.!.!.!.!.!.!.!.!.!.!.!.!.!.!.!.!.!.!.!.!.!.!.!.!.!.!.!.!.!.!.",
"!.!.!.!.!.!.!.!.!.!.!.!.!.!.!.!.!.!.!.!.!.!.!.!.!.!.!.!.!.!.!.!.!.!.!.!.!.!.!.!.!.!.!.!.!.!.!.!.!.!.!.!.!.!.!.!.!.!.!.!.!.!.!.!.",
"!.!.!.!.!.!.!.!.!.!.!.!.!.!.!.!.!.!.!.!.!.!.!.!.!.!.!.!.!.!.!.!.!.!.!.!.!.!.!.!.!.!.!.!.!.!.!.!.!.!.!.!.!.!.!.!.!.!.!.!.!.!.!.!.",
"!.!.!.!.!.!.!.!.!.!.!.!.!.!.!.!.!.!.!.!.!.!.!.!.!.!.!.!.!.!.!.!.!.!.!.!.!.!.!.!.!.!.!.!.!.!.!.!.!.!.!.!.!.!.!.!.!.!.!.!.!.!.!.!.",
"!.!.!.!.!.!.!.!.!.!.!.!.!.!.!.!.!.!.!.!.!.!.!.!.!.!.!.!.!.!.!.!.!.!.!.!.!.!.!.!.!.!.!.!.!.!.!.!.!.!.!.!.!.!.!.!.!.!.!.!.!.!.!.!.",
"!.!.!.!.!.!.!.!.!.!.!.!.!.!.!.!.!.!.!.!.!.!.!.!.!.!.!.!.!.!.!.!.!.!.# # !.!.!.!.!.!.!.!.!.!.!.!.!.!.!.!.!.!.!.!.!.!.!.!.!.!.!.!.",
"!.!.!.!.!.!.!.!.!.!.!.!.!.!.!.!.!.!.!.!.!.!.!.!.!.!.!.!.!.!.!.!.!.# # !.!.!.!.!.!.!.!.!.!.!.!.!.!.!.!.!.!.!.!.!.!.!.!.!.!.!.!.!.",
"!.!.!.!.!.!.!.!.!.!.!.!.!.!.!.!.!.!.!.!.!.!.!.!.!.!.!.!.# # !.!.# # !.!.!.!.!.!.!.!.# # !.!.!.!.!.!.!.!.!.!.!.!.!.!.!.!.!.!.!.!.",
"!.!.!.!.!.!.!.!.!.!.!.!.!.!.!.!.!.!.!.!.!.!.!.!.!.!.!.# # # !.!.# # !.!.!.# !.!.!.# !.!.!.!.!.!.!.!.!.!.!.!.!.!.!.!.!.!.!.!.!.!.",
"!.!.!.!.!.!.!.!.!.!.!.!.!.!.!.!.!.!.!.!.!.!.!.!.!.!.# # # # !.!.# # !.!.# @ !.!.# # !.!.!.!.!.!.!.!.!.!.!.!.!.!.!.!.!.!.!.!.!.!.",
"!.!.!.!.!.!.!.!.!.!.!.!.!.!.!.!.# # # $ @ # !.!.!.!.# @ # @ @ @ @ # @ @ o o o o @ # !.!.!.!.!.!.!.!.!.!.!.!.!.!.!.!.!.!.!.!.!.!.",
"!.!.!.!.!.!.!.!.!.!.!.!.!.!.!.!.# # # # # # # !.!.!.# * 4 d d 0 6 r r e 0 d d q 6 2 ; !.!.!.!.!.!.!.!.!.!.!.!.!.!.!.!.!.!.!.!.!.",
"!.!.!.!.!.!.!.!.!.!.!.!.!.!.!.!.!.!.# # # # # # # @ X 8 ' ....{ 6.,.<.5.{ .. .) 9.b : @ !.!.!.!.!.!.!.!.!.!.!.!.!.!.!.!.!.!.!.!.",
"!.!.!.!.!.!.!.!.!.!.!.!.!.!.!.!.!.# # # @ @ # # @ @ @ 9 [ -.-.g.c.G.G.z.g.=.=.h.c.a.p X . !.!.!.!.!.!.!.!.!.!.!.!.!.!.!.!.!.!.!.",
"!.!.!.!.!.!.!.!.!.!.!.!.!.!.!.!.# # @ $ $ $ # $ $ # # 4 ] @.@.k.R.W.W.P.k.O.@.l.R.L.C @ O O O # !.!.!.!.!.!.!.!.!.!.!.!.!.!.!.!.",
"!.!.!.!.!.!.!.!.!.# # # # # # @ @ @ @ ; y y % $ y y * 4 ] @.@.z.E.Q.Q.E.l.O.O.l.E.Y.S + y y * @ @ !.!.!.!.!.!.!.!.!.!.!.!.!.!.!.",
"!.!.!.!.!.!.!.!.# # # # # # # $ ; & # 5 >.1.0 t >.;.: 4 ] =.&.j.H.T.T.H.k.@.+.j.J.Z.M : E 1.t % # # !.!.!.!.!.!.!.!.!.!.!.!.!.!.",
"!.!.!.!.!.!.!.!.!.!.# # # # @ : l k ; 7 ' s.[ ] 7.c ; 4 [ =.-. .P S S P } -.-.f.P M & 8 ^ ) 1.k : @ # # !.!.!.!.!.!.!.!.!.!.!.!.",
"!.!.!.!.!.!.!.!.!.!.# # # # @ 5 >.3.z h } -.-.d.i.1.y 0 W ] ] Y =     = Y ] ] Y = o ; z [ #.i.1.5 # @ # !.!.!.!.!.!.!.!.!.!.!.!.",
"!.!.!.!.!.!.!.!.!.!.!.!.!.!.@ : c 0.}  .+.&.&.$.+.{ 6.b 6 - - * # . # # = - 3 * # ; x 9.o.@.#.^ 4 @ @ # !.!.!.!.!.!.!.!.!.!.!.!.",
"!.!.!.!.!.!.!.!.!.!.!.!.!.# @ ; t E q.d.s.s.#.&.&.#.s.6.k e e e e t t t e e e e t l 9.s.#.-.$.[ 4 @ # # !.!.!.!.!.!.!.!.!.!.!.!.",
"!.!.!.!.!.!.!.!.!.!.!.!.# # # # $ e >.7.7.w.o.&.$.$.$.s.0.3.4.5.4.3.5.4.4.3.4.5.5.9.X.#.$.$.-.] 4 @ @ # !.!.!.!.!.!.!.!.!.!.!.!.",
"!.!.!.!.!.!.!.!.!.!.!.!.# # @ * t x 3.7.r.s.d.-.&.&.&.#.d.d.i.i.p.i.i.i.p.i.i.i.s.d.#.-.-.-.-.[ 9 @ @ !.!.!.!.!.!.!.!.!.!.!.!.!.",
"!.!.!.!.!.!.!.!.!.!.!.!.# # # : b 5.4.0.{ ..+.+.....#.#.....+.#.....+.+.....#.#.....#.+... ...~ 4 @ !.!.!.!.!.!.!.!.!.!.!.!.!.!.",
"!.!.!.!.!.!.!.!.!.!.# # # # # $ 5 k 3.1.j Y  . .g g  .| h f | | f f | | f f | | h h  .} f q w 4 * # !.!.!.!.!.!.!.!.!.!.!.!.!.!.",
"!.!.!.!.!.!.!.!.!.!.# # # # # @ @ ; l l : 3 T T 7 - T ` K F ` _ D D _ ` F G ` ` D D ` ] K m & @ @ # !.!.!.!.!.!.!.!.!.!.!.!.!.!.",
"!.!.!.!.!.!.!.!.!.!.!.!.!.!.# # @ $ * : # $ 3 3 $ # = K D.S.K F C.C.K K S.S.K F C.C.C G S.A.M X o # !.!.!.!.!.!.!.!.!.!.!.!.!.!.",
"!.!.!.!.!.!.!.!.!.!.!.!.!.!.!.# # # @ # # # @ X # @ . N B.N.i Z Y.Y.C m N.N.n C Y.Y.C n N.B.N X o !.!.!.!.!.!.!.!.!.!.!.!.!.!.!.",
"!.!.!.!.!.!.!.!.!.!.!.!.!.!.!.!.!.!.# # # # # $ # # # & , , # Z K.K.Z # , , # A L.K.A # , , # # !.!.!.!.!.!.!.!.!.!.!.!.!.!.!.!.",
"!.!.!.!.!.!.!.!.!.!.!.!.!.!.!.!.!.!.!.# # # # # # # # o . . o i I I i .   . . i I a.i . X X # !.!.!.!.!.!.!.!.!.!.!.!.!.!.!.!.!.",
"!.!.!.!.!.!.!.!.!.!.!.!.!.!.!.!.!.!.!.!.# # # # # # # # # # # # $ & # # # # # # & $ # o # # !.!.!.!.!.!.!.!.!.!.!.!.!.!.!.!.!.!.",
"!.!.!.!.!.!.!.!.!.!.!.!.!.# # !.!.!.!.# # # # # # # # # # o . . . o # # # # # # . . . . # # # !.!.!.!.!.!.!.!.!.!.!.!.!.!.!.!.!.",
"!.!.!.!.!.!.!.!.!.!.!.!.# # # # !.!.# # # # # # # # # o # & < < & o o o # # # O o & < < & # o o !.!.!.!.!.!.!.!.!.!.!.!.!.!.!.!.",
"!.!.!.!.!.!.!.!.!.!.$ # # # # # # # # # # # # # # o . . X N V.V.M . . . # # .   . M V.V.M . . . # # !.!.!.!.!.!.!.!.!.!.!.!.!.!.",
"!.!.!.!.!.!.!.!.!.!.# # # # # # # # # # @ # # @ O , V B & A Y.Y.A & B V > > C M & A U.U.A & V V , o !.!.!.!.!.!.!.!.!.!.!.!.!.!.",
"!.!.!.!.!.!.!.!.!.!.!.!.# # # # # # # # # # # @ o V F.D.M C I.I.C M D.D.M M Z.Z.M C I.I.C M Z.F.B o # # !.!.!.!.!.!.!.!.!.!.!.!.",
"!.!.!.!.!.!.!.!.!.!.!.# # # # # # @ @ * e 5 $ # 5 L m.n.J J M.M.J J n.n.J J n.n.J J b.v.H H n.v.m . o !.!.!.!.!.!.!.!.!.!.!.!.!.",
"!.!.!.!.!.!.!.!.!.!.# # # # # # # $ # : ;.;.5 5 x :.u a ] ] a a ] ] a a ] ] a a ] ] a s :.:.s & $ O !.!.!.!.!.!.!.!.!.!.!.!.!.!.",
"!.!.!.!.!.!.!.!.!.# # # # @ # * t t $ 7 ! ) Q Q ( ( U R .. .R R  ...R R ....R R ....R U ( q.x 1 $ o !.!.!.!.!.!.!.!.!.!.!.!.!.!.",
"!.!.!.!.!.!.!.!.# # # # !.!.@ 5 ;.>.5 9 ] #.#.#.#.$.$.#.$.$.#.&.#.&.$.#.&.#.+.$.+.$.$.$.$.o.w.;.5 X !.!.!.!.!.!.!.!.!.!.!.!.!.!.",
"!.!.!.!.!.!.!.!.!.!.!.!.!.!.@ 5 >.4.;.;.9.w.w.r.#.&.&.$.$.&.-.&.&.&.&.$.$.$.$.$.$.$.@.$.$.#.%.^ 8 @ !.!.!.!.!.!.!.!.!.!.!.!.!.!.",
"!.!.!.!.!.!.!.!.!.!.!.!.!.!.X : l ,.2.y.2.7.8.e.o.$.$.&.&.#.o.#.#.&.&.$.$.$.$.$.$.$.$.$.$.-.-.] 4 # !.!.!.!.!.!.!.!.!.!.!.!.!.!.",
"!.!.!.!.!.!.!.!.!.!.!.!.!.!.# $ * t >.y.2.0.s.#.#.&.&.&.&.o.e.e.o.&.&.&.&.#.#.&.$.&.&.$.$.$.-.] 4 @ @ # !.!.!.!.!.!.!.!.!.!.!.!.",
"!.!.!.!.!.!.!.!.!.!.!.!.!.# # # : y ,.7.2.0.r.o.X.s.X.s.X.r.0.7.r.s.s.o.#.&.&.+.o.s.s.o.#.-.$.] 4 # # # !.!.!.!.!.!.!.!.!.!.!.!.",
"!.!.!.!.!.!.!.!.!.!.!.!.# @ # : b 3.4.4.y.7.7.7.7.0.7.7.7.7.4.y.7.7.7.w.o.&.&.d.w.7.7.w.o.&.&.] 4 @ @ # !.!.!.!.!.!.!.!.!.!.!.!.",
"!.!.!.!.!.!.!.!.!.!.!.# # # @ 5 >.u.u.y.4.2.2.2.2.2.2.7.y.y.u.y.y.y.2.u.r.s.i.r.7.2.2.7.e.i.s.! 8 @ @ !.!.!.!.!.!.!.!.!.!.!.!.!.",
"!.!.!.!.!.!.!.!.!.!.# # # # @ : v 4.4.2.4.2.y.4.y.4.5.3.3.3.3.3.3.3.3.3.5.5.3.4.4.2.7.2.7.4.4.v : @ !.!.!.!.!.!.!.!.!.!.!.!.!.!.",
"!.!.!.!.!.!.!.!.!.!.# # # !.!.; e k 1.y.y.7.4.y.y.3.k t t t t t t t t t t t t k ,.u.u.u.y.,.k e ; !.!.!.!.!.!.!.!.!.!.!.!.!.!.!.",
"!.!.!.!.!.!.!.!.!.!.# # !.!.!.!.@ : l 3.4.y.4.4.3.b : @ # # # # # # # # # @ @ : x ,.,.,.,.x : @ !.!.!.!.!.!.!.!.!.!.!.!.!.!.!.!.",
"!.!.!.!.!.!.!.!.!.!.!.!.!.!.!.!.!.!.: y >.y.y.>.t : !.!.!.!.!.!.!.!.!.!.!.!.@ $ : 5 5 5 5 5 !.!.!.!.!.!.!.!.!.!.!.!.!.!.!.!.!.!.",
"!.!.!.!.!.!.!.!.!.!.!.!.!.!.!.!.!.!.X : ;.4.>.l ; @ !.!.!.!.!.!.!.!.!.!.!.!.# # @ @ @ @ @ @ !.!.!.!.!.!.!.!.!.!.!.!.!.!.!.!.!.!.",
"!.!.!.!.!.!.!.!.!.!.!.!.!.!.!.!.!.!.@ 5 :.:.t $ !.!.!.!.!.!.!.!.!.!.!.!.!.!.!.!.!.!.!.!.!.!.!.!.!.!.!.!.!.!.!.!.!.!.!.!.!.!.!.!.",
"!.!.!.!.!.!.!.!.!.!.!.!.!.!.!.!.!.!.@ ; y y $ @ !.!.!.!.!.!.!.!.!.!.!.!.!.!.!.!.!.!.!.!.!.!.!.!.!.!.!.!.!.!.!.!.!.!.!.!.!.!.!.!.",
"!.!.!.!.!.!.!.!.!.!.!.!.!.!.!.!.!.!.# $ $ $ $ # !.!.!.!.!.!.!.!.!.!.!.!.!.!.!.!.!.!.!.!.!.!.!.!.!.!.!.!.!.!.!.!.!.!.!.!.!.!.!.!.",
"!.!.!.!.!.!.!.!.!.!.!.!.!.!.!.!.!.!.!.!.!.!.!.!.!.!.!.!.!.!.!.!.!.!.!.!.!.!.!.!.!.!.!.!.!.!.!.!.!.!.!.!.!.!.!.!.!.!.!.!.!.!.!.!.",
"!.!.!.!.!.!.!.!.!.!.!.!.!.!.!.!.!.!.!.!.!.!.!.!.!.!.!.!.!.!.!.!.!.!.!.!.!.!.!.!.!.!.!.!.!.!.!.!.!.!.!.!.!.!.!.!.!.!.!.!.!.!.!.!.",
"!.!.!.!.!.!.!.!.!.!.!.!.!.!.!.!.!.!.!.!.!.!.!.!.!.!.!.!.!.!.!.!.!.!.!.!.!.!.!.!.!.!.!.!.!.!.!.!.!.!.!.!.!.!.!.!.!.!.!.!.!.!.!.!.",
"!.!.!.!.!.!.!.!.!.!.!.!.!.!.!.!.!.!.!.!.!.!.!.!.!.!.!.!.!.!.!.!.!.!.!.!.!.!.!.!.!.!.!.!.!.!.!.!.!.!.!.!.!.!.!.!.!.!.!.!.!.!.!.!."
};
