/* XPM */
static char *result[] = {
/* columns rows colors chars-per-pixel */
"64 64 172 2 ",
"   c #1E1E1E",
".  c #171D1D",
"X  c #231F1E",
"o  c #17211E",
"O  c #1A221F",
"+  c #1F1E21",
"@  c #241E21",
"#  c #291F22",
"$  c #3B1F28",
"%  c #1E2121",
"&  c #222222",
"*  c #2B2225",
"=  c #292928",
"-  c #2F2028",
";  c #312425",
":  c #3D2824",
">  c #352329",
",  c #3C232C",
"<  c #3E2227",
"1  c #2A3231",
"2  c #313331",
"3  c #393837",
"4  c #373A3A",
"5  c #3A3D3B",
"6  c #432624",
"7  c #462B26",
"8  c #4B2C26",
"9  c #43242C",
"0  c #4D2B29",
"q  c #512E27",
"w  c #532C2A",
"e  c #5D292C",
"r  c #5E302A",
"t  c #4D2431",
"y  c #472330",
"u  c #552534",
"i  c #5D2437",
"p  c #5F2439",
"a  c #48383C",
"s  c #622D2F",
"d  c #6A3128",
"f  c #62322D",
"g  c #63253A",
"h  c #6C263C",
"j  c #662B34",
"k  c #72263E",
"l  c #7B253E",
"z  c #793429",
"x  c #3F413E",
"c  c #41403F",
"v  c #752740",
"b  c #7C2742",
"n  c #7E2841",
"m  c #6F3449",
"M  c #73374B",
"N  c #713D4C",
"B  c #524F4D",
"V  c #594E4F",
"C  c #4D514F",
"Z  c #51504E",
"A  c #5E514D",
"S  c #5A4F50",
"D  c #565351",
"F  c #5B5351",
"G  c #565856",
"H  c #595A56",
"J  c #585C58",
"K  c #725E59",
"L  c #67585D",
"P  c #76625C",
"I  c #6C5D62",
"U  c #705D60",
"Y  c #676662",
"T  c #676A67",
"R  c #6A6966",
"E  c #6F7370",
"W  c #7F7D79",
"Q  c #8E3B2E",
"!  c #963E2F",
"~  c #8E2F3F",
"^  c #8E3636",
"/  c #94323D",
"(  c #983835",
")  c #A63D36",
"_  c #A33A3A",
"`  c #B03F39",
"'  c #BE3E3F",
"]  c #9C412F",
"[  c #914A3E",
"{  c #AC4333",
"}  c #A74034",
"|  c #B34434",
" . c #BA4533",
".. c #BE4834",
"X. c #C5423F",
"o. c #CB453D",
"O. c #C54A34",
"+. c #D84731",
"@. c #D24C37",
"#. c #DC4C35",
"$. c #D54A3A",
"%. c #DB4E38",
"&. c #DD5037",
"*. c #E44F37",
"=. c #E15137",
"-. c #E25038",
";. c #832744",
":. c #892647",
">. c #852845",
",. c #8B2A45",
"<. c #8E2848",
"1. c #8D2748",
"2. c #962E42",
"3. c #94284A",
"4. c #9D294E",
"5. c #982F43",
"6. c #9C3143",
"7. c #973042",
"8. c #9F2850",
"9. c #A22A4E",
"0. c #A92E4C",
"q. c #AC314A",
"w. c #A33046",
"e. c #B43646",
"r. c #B73845",
"t. c #BA3944",
"y. c #B33449",
"u. c #BB354B",
"i. c #A22950",
"p. c #AD2C50",
"a. c #C13D43",
"s. c #884D41",
"d. c #8C5144",
"f. c #87635B",
"g. c #89655D",
"h. c #88746D",
"j. c #816F70",
"k. c #9E6676",
"l. c #877576",
"z. c #807F7B",
"x. c #8B7972",
"c. c #907B74",
"v. c #C54140",
"b. c #CC4340",
"n. c #C45644",
"m. c #DC5B4E",
"M. c #DD715E",
"N. c #CF717A",
"B. c #D3737D",
"V. c #E27462",
"C. c #E57A67",
"Z. c #E87E6A",
"A. c #83817C",
"S. c #C87D92",
"D. c #B2AEA8",
"F. c #B5B4AD",
"G. c #BAB3AC",
"H. c #C1BCB5",
"J. c #C5BFB8",
"K. c #E2BCB0",
"L. c #C5C0B8",
"P. c #EFC3B9",
"I. c #E7C1B4",
"U. c #F4C8BD",
"Y. c #CFD2CA",
"T. c #D6D2CA",
"R. c #FDD9CB",
"E. c #FFDFD0",
"W. c #E5E5DC",
"Q. c #F7EEE8",
"!. c white",
"~. c None",
/* pixels */
"~.~.~.~.~.~.~.~.~.~.~.~.~.~.~.~.~.~.~.~.~.~.~.~.~.~.~.~.~.~.~.~.~.~.~.~.~.~.~.~.~.~.~.~.~.~.~.~.~.~.~.~.~.~.~.~.~.~.~.~.~.~.~.~.",
"~.~.~.~.~.~.~.~.~.~.~.~.~.~.~.~.~.~.~.~.~.~.~.~.~.~.~.~.~.~.~.~.~.~.~.~.~.~.~.~.~.~.~.~.~.~.~.~.~.~.~.~.~.~.~.~.~.~.~.~.~.~.~.~.",
"~.~.~.~.~.~.~.~.~.~.~.~.~.~.~.~.~.~.~.~.~.~.~.~.~.~.~.~.~.~.~.~.~.~.~.~.~.~.~.~.~.~.~.~.~.~.~.~.~.~.~.~.~.~.~.~.~.~.~.~.~.~.~.~.",
"~.~.~.~.~.~.~.~.~.~.~.~.~.~.~.~.~.~.~.~.~.~.~.~.~.~.~.~.~.~.~.~.~.~.~.~.~.~.~.~.~.~.~.~.~.~.~.~.~.~.~.~.~.~.~.~.~.~.~.~.~.~.~.~.",
"~.~.~.~.~.~.~.~.~.~.~.~.~.~.~.~.~.~.~.~.~.~.~.~.~.~.~.~.& & ~.~.~.~.~.~.~.~.~.~.~.~.~.~.~.~.~.~.~.~.~.~.~.~.~.~.~.~.~.~.~.~.~.~.",
"~.~.~.~.~.~.~.~.~.~.~.~.~.~.~.~.~.~.~.~.~.~.~.~.~.~.~.~.~.~.& ~.~.~.~.~.~.~.~.~.~.~.~.& & & & ~.~.~.~.~.~.~.~.~.~.~.~.~.~.~.~.~.",
"~.~.~.~.~.~.~.~.~.~.~.~.~.~.~.~.~.~.~.~.& & ~.~.~.~.~.~.~.~.& & ~.~.% & ~.~.~.~.~.~.& & & & & & ~.~.~.~.~.~.~.~.~.~.~.~.~.~.~.~.",
"~.~.~.~.~.~.~.~.~.~.~.~.~.~.~.~.~.~.& & ~.~.% X % % % % % % % % % % % % & & % % % % & & & & ~.~.~.~.~.~.~.~.~.~.~.~.~.~.~.~.~.~.",
"~.~.~.~.~.~.~.~.~.~.~.~.~.~.~.~.~.~.& % ~.~.$ y 8 q w 0 9 < 9 9 0 w w 7 * * , y 9 , * % & % ~.~.~.~.~.~.~.~.~.~.~.~.~.~.~.~.~.~.",
"~.~.~.~.~.~.~.~.~.~.~.~.~.~.~.~.& & & & & , k 2.` ' O.` / :.:.2.` ..O.! 7 > h <.<.k , % % & & & & & & & & & ~.~.~.~.~.~.~.~.~.~.",
"~.~.~.~.~.~.~.~.~.~.~.~.~.~.~.& & * y y * a k.N.m.*.*.m.N.S.S.N.m.*.-.| 8 , b p.u./ 9 * y t - & & & & & & ~.~.~.~.~.~.~.~.~.~.~.",
"~.~.~.~.~.~.~.~.~.~.~.~.~.~.& & + 9 n l $ D G.R.V.+.*.C.K.Q.Q.P.V.#.#.{ 0 , ;.y.o.{ 0 , b b , % & & ~.~.~.~.~.~.~.~.~.~.~.~.~.~.",
"~.~.~.~.~.~.~.~.~.~.~.~.~.~.& & % 0 ( ( 6 J Y.R.Z.+.+.C.R.!.!.R.C.#.#.{ 0 9 / b.&.O.] ^ 6.:.9 % % ~.~.~.~.~.~.~.~.~.~.~.~.~.~.~.",
"~.~.~.~.~.~.~.~.~.~.~.~.~.~.& % % w | ` 8 C F.I.V.+.+.M.K.W.W.K.M.#.#.{ 8 8 { %.%.$.$.X.w.v , % ~.~.~.~.~.~.~.~.~.~.~.~.~.~.~.~.",
"~.~.~.~.~.~.~.~.~.~.~.~.~.~.& % % w | | 8 1 G f.n.*.*.n.f.T T f.n.*.*.| 7 8 { $.t.y.r.6.j , * & & ~.~.~.~.~.~.~.~.~.~.~.~.~.~.~.",
"~.~.~.~.~.~.~.~.~.~.~.~.~.~.& % % q |  .s - X 6 Q  . .! : .   6 Q |  .! w s | $.u.q.i.:.u > & % & & ~.~.~.~.~.~.~.~.~.~.~.~.~.~.",
"~.~.~.~.~.~.~.~.~.~.~.~.~.~.~.~.% q | o.6.h $ & : 0 8 : *   + & : 7 7 e k 6.o.#.$.v.q.4.<.h > & & & ~.~.~.~.~.~.~.~.~.~.~.~.~.~.",
"~.~.~.~.~.~.~.~.~.~.~.~.~.~.~.~.% : z ) t./ 9 @ $ $ @ @ 9 9 * # , , + , / t.} ] ] _ 6.4.>.j > & & & & ~.~.~.~.~.~.~.~.~.~.~.~.~.",
"~.~.~.~.~.~.~.~.~.~.~.~.~.~.~.~.& & ; f { } 0 , ;.l , , v v , , v v , 0 { { r ; ; t >.>.t * & & & & & & & & ~.~.~.~.~.~.~.~.~.~.",
"~.~.~.~.~.~.~.~.~.~.~.~.~.~.~.&   5 E x.s.[ h.l.M A l.l.N N j.j.N N l.c.d.d ; % % - u u - % & & & & & & & ~.~.~.~.~.~.~.~.~.~.~.",
"~.~.~.~.~.~.~.~.~.~.~.~.~.~.& +   D G.G.Z D L.L.D B G.G.B D J.J.D Z G.G.F % % & & & & * & & & & ~.~.~.~.~.~.~.~.~.~.~.~.~.~.~.~.",
"~.~.~.~.~.~.~.~.~.~.~.~.~.~.~.& % 3 T Y 2 G T.T.H 2 Y Y 2 G T.T.H 2 R R 4 % X & & % % % & & & ~.~.~.~.~.~.~.~.~.~.~.~.~.~.~.~.~.",
"~.~.~.~.~.~.~.~.~.~.~.~.~.~.~.~.& & &     Z D.D.B   +     B D.D.Z   @ % & & & & & & & & & & ~.~.~.~.~.~.~.~.~.~.~.~.~.~.~.~.~.~.",
"~.~.~.~.~.~.~.~.~.~.~.~.~.~.~.~.~.~.    + 2 B B 2 %     X 2 B B 2 &   + & & & & & & & & & & ~.~.~.~.~.~.~.~.~.~.~.~.~.~.~.~.~.~.",
"~.~.~.~.~.~.~.~.~.~.~.~.~.~.~.~.~.~.& & & &     + & & & & &       & & & & & & & & & & & & & ~.~.~.~.~.~.~.~.~.~.~.~.~.~.~.~.~.~.",
"~.~.~.~.~.~.~.~.~.~.~.~.~.~.~.~.~.~.& & & & & & & & & & & & & & & & & & & & & & & & ~.~.& & ~.~.~.~.~.~.~.~.~.~.~.~.~.~.~.~.~.~.",
"~.~.~.~.~.~.~.~.~.~.~.~.~.~.~.~.~.~.& & & & & & & & & & & & & & & & & & & & & & & & ~.~.& & ~.~.~.~.~.~.~.~.~.~.~.~.~.~.~.~.~.~.",
"~.~.~.~.~.~.~.~.~.~.~.~.~.~.~.~.~.~.& & & & & & & & & & & & & & & & & & & & ~.~.& & ~.~.= & ~.~.~.~.~.~.~.~.~.~.~.~.~.~.~.~.~.~.",
"~.~.~.~.~.~.~.~.~.~.~.~.~.~.~.~.~.~.& & & & & & & & & & & & & & & & & & & & ~.~.& & ~.~.& & ~.~.~.~.~.~.~.~.~.~.~.~.~.~.~.~.~.~.",
"~.~.~.~.~.~.~.~.~.~.~.~.~.~.~.~.~.~.& & ~.~.& & & & & & & & & & & & & & & & ~.~.& & ~.~.& & ~.~.~.~.~.~.~.~.~.~.~.~.~.~.~.~.~.~.",
"~.~.~.~.~.~.~.~.~.~.~.~.~.~.~.~.~.~.~.~.~.~.& & & ~.& & & & & & & & & & & ~.~.~.& & ~.~.~.~.~.~.~.~.~.~.~.~.~.~.~.~.~.~.~.~.~.~.",
"~.~.~.~.~.~.~.~.~.~.~.~.~.~.~.~.~.~.~.~.~.~.& & ~.~.& & & & & & & & & & ~.~.~.~.& & ~.~.~.~.~.~.~.~.~.~.~.~.~.~.~.~.~.~.~.~.~.~.",
"~.~.~.~.~.~.~.~.~.~.~.~.~.~.~.~.~.~.~.~.~.~.~.~.~.~.~.~.& & & & & & ~.~.~.~.~.~.& & ~.~.& & ~.~.~.~.~.~.~.~.~.~.~.~.~.~.~.~.~.~.",
"~.~.~.~.~.~.~.~.~.~.~.~.~.~.~.~.~.~.~.~.~.~.~.~.~.~.~.~.~.& & & & ~.~.~.~.~.~.~.& & ~.~.& & ~.~.~.~.~.~.~.~.~.~.~.~.~.~.~.~.~.~.",
"~.~.~.~.~.~.~.~.~.~.~.~.~.~.~.~.~.~.& & ~.~.~.~.~.~.~.~.~.~.& & ~.~.~.~.~.~.~.~.& & ~.~.~.~.~.~.~.~.~.~.~.~.~.~.~.~.~.~.~.~.~.~.",
"~.~.~.~.~.~.~.~.~.~.~.~.~.~.~.~.~.~.& & ~.~.~.~.~.~.~.~.~.& & & & ~.~.~.~.~.~.~.& & ~.~.~.~.~.~.~.~.~.~.~.~.~.~.~.~.~.~.~.~.~.~.",
"~.~.~.~.~.~.~.~.~.~.~.~.~.~.~.~.~.~.& & ~.~.& & ~.~.~.~.& & & & & & ~.~.~.~.~.~.& & ~.~.& & ~.~.~.~.~.~.~.~.~.~.~.~.~.~.~.~.~.~.",
"~.~.~.~.~.~.~.~.~.~.~.~.~.~.~.~.~.~.& & ~.~.& & & & & & & & & & & & & & & ~.~.~.& & ~.~.& & ~.~.~.~.~.~.~.~.~.~.~.~.~.~.~.~.~.~.",
"~.~.~.~.~.~.~.~.~.~.~.~.~.~.~.~.~.~.& & ~.~.& & & & & & & & & & & & & & & & ~.~.& & ~.~.& & ~.~.~.~.~.~.& & ~.~.~.~.~.~.~.~.~.~.",
"~.~.~.~.~.~.~.~.~.~.~.~.~.~.~.~.~.~.& & & & & & & & & & & & & & & & & & & & & & & & & & & & ~.~.& & & & & & ~.~.~.~.~.~.~.~.~.~.",
"~.~.~.~.~.~.~.~.~.~.~.~.~.~.~.~.~.~.& &     & & & & & & & & & % &   & & & & & & & & & & & & ~.~.& & & & & & ~.~.~.~.~.~.~.~.~.~.",
"~.~.~.~.~.~.~.~.~.~.~.~.~.~.~.~.& & & & & & & & & % & & & & & & & & & & & % & & & & & & & & & & & & & & ~.~.~.~.~.~.~.~.~.~.~.~.",
"~.~.~.~.~.~.~.~.~.~.~.~.~.~.~.&     O 3 Y T 3       & % X .   3 Y Y 3       % & & & & & & & & & & & & ~.~.~.~.~.~.~.~.~.~.~.~.~.",
"~.~.~.~.~.~.~.~.~.~.~.~.& & & & = * & D J.G.D X = = & & * = % A H.H.D & = = & % & & & & & & & & & & ~.~.~.~.~.~.~.~.~.~.~.~.~.~.",
"~.~.~.~.~.~.~.~.~.~.~.~.& X % c z.W 3 G T.T.G 3 z.z.5 5 W W 5 G T.T.H 4 z.z.a % % & % & & & & & & & ~.~.~.& & ~.~.~.~.~.~.~.~.~.",
"~.~.~.~.~.~.~.~.~.~.~.~.&   X Z G.G.V V G.G.A F D.G.A A G.G.A A G.G.A A G.G.F # @ & ; * * & & & & & ~.~.& & & & ~.~.~.~.~.~.~.~.",
"~.~.~.~.~.~.~.~.~.~.~.~.~.& % 2 J U M M L P [ [ P P [ [ P P [ [ K K [ [ P U M i ; # g g > % % & & & & & & & & ~.~.~.~.~.~.~.~.~.",
"~.~.~.~.~.~.~.~.~.~.~.~.~.~.% & $ u 2./ e d  . .d d  . .d d  . .d d  . .d e 2.2.s s 5.,.9 & > > * & = & & & ~.~.~.~.~.~.~.~.~.~.",
"~.~.~.~.~.~.~.~.~.~.~.~.~.~.% , v ,.' O. . .@.$.|  .@.@. . .@.@. . .@.$. . .O.o. ...o.} 7 > h k > % & & ~.~.~.~.~.~.~.~.~.~.~.~.",
"~.~.~.~.~.~.~.~.~.~.~.~.~.~.O 9 2.a.$.%.-.%.%.%.&.-.%.%.&.-.%.%.&.&.%.%.&.&.%.%.b.b.b.} j p 3.>.9 & % ~.~.~.~.~.~.~.~.~.~.~.~.~.",
"~.~.~.~.~.~.~.~.~.~.~.~.~.~.% 0 } %.%.%.%.%.%.%.%.&.%.%.%.@.%.%.%.%.%.%.%.%.%.o.e.0.0.4.3.3.4.;., % ~.~.~.~.~.~.~.~.~.~.~.~.~.~.",
"~.~.~.~.~.~.~.~.~.~.~.~.~.% % 8 { &.%.%.%.%.&.%.%.$.%.%.%.&.%.$.v.v.$.&.&.&.&.$.v.y.0.i.i.3.k t ; & ~.~.~.~.~.~.~.~.~.~.~.~.~.~.",
"~.~.~.~.~.~.~.~.~.~.~.~.& % % 0 { &.&.%.%.$.$.%.@.%.%.%.$.$.$.o.q.q.o.$.%.$.$.$.$.v.q.4.i.>.t * & & ~.~.~.~.~.~.~.~.~.~.~.~.~.~.",
"~.~.~.~.~.~.~.~.~.~.~.~.& & & 8 { &.-.$.a.e.e.a.$.&.%.$.t.r.e.y.9.9.y.r.r.t.r.r.r.y.0.4.4.3.v u ; & & & & & & ~.~.~.~.~.~.~.~.~.",
"~.~.~.~.~.~.~.~.~.~.~.~.& & % 0 } $.$.v.q.4.4.q.X.$.$.v.q.8.4.9.9.4.4.9.4.4.9.4.9.4.4.4.4.i.i.;.9 % & & & & & & ~.~.~.~.~.~.~.~.",
"~.~.~.~.~.~.~.~.~.~.~.~.~.~.% 9 2.e.q.q.4.4.8.9.q.y.y.q.0.9.i.i.i.9.i.i.i.i.i.i.i.i.4.9.9.9.i.;., % % & & & ~.~.~.~.~.~.~.~.~.~.",
"~.~.~.~.~.~.~.~.~.~.~.~.~.~.% , v n 3.8.8.8.i.3.;.b b b b n b b b b b b b ;.b b b ;.4.i.9.i.i.,.i , = & & & ~.~.~.~.~.~.~.~.~.~.",
"~.~.~.~.~.~.~.~.~.~.~.~.~.~.~.~.; t ;.8.8.i.i.>.t ; ; > > > > > > > > > > > > > ; u ;.9.9.4.4.4.3.k , % ~.~.~.~.~.~.~.~.~.~.~.~.",
"~.~.~.~.~.~.~.~.~.~.~.~.~.~.~.~.% , b i.i.3.b i > % O O % O O O O O O O O O O O o > i h h h h h h i > & ~.~.~.~.~.~.~.~.~.~.~.~.",
"~.~.~.~.~.~.~.~.~.~.~.~.~.~.~.~.% , ;.i.9.b y * ~.~.~.~.~.~.~.~.~.~.~.~.~.~.~.~.~.~.* * * * * * * * & & ~.~.~.~.~.~.~.~.~.~.~.~.",
"~.~.~.~.~.~.~.~.~.~.~.~.~.~.~.~.% 9 n 3.v u ; ~.~.~.~.~.~.~.~.~.~.~.~.~.~.~.~.~.~.~.~.~.~.~.~.~.~.~.~.~.~.~.~.~.~.~.~.~.~.~.~.~.",
"~.~.~.~.~.~.~.~.~.~.~.~.~.~.~.~.% 9 ;.;., & ~.~.~.~.~.~.~.~.~.~.~.~.~.~.~.~.~.~.~.~.~.~.~.~.~.~.~.~.~.~.~.~.~.~.~.~.~.~.~.~.~.~.",
"~.~.~.~.~.~.~.~.~.~.~.~.~.~.~.~.% 9 ;.;., % ~.~.~.~.~.~.~.~.~.~.~.~.~.~.~.~.~.~.~.~.~.~.~.~.~.~.~.~.~.~.~.~.~.~.~.~.~.~.~.~.~.~.",
"~.~.~.~.~.~.~.~.~.~.~.~.~.~.~.~.% , ;.;., % ~.~.~.~.~.~.~.~.~.~.~.~.~.~.~.~.~.~.~.~.~.~.~.~.~.~.~.~.~.~.~.~.~.~.~.~.~.~.~.~.~.~."
};
