/* XPM */
static char *result[] = {
/* columns rows colors chars-per-pixel */
"64 64 172 2 ",
"   c #1E1E1E",
".  c #171D1D",
"X  c #231F1E",
"o  c #17211E",
"O  c #1A221F",
"+  c #1F1E21",
"@  c #241E21",
"#  c #291F22",
"$  c #3B1F28",
"%  c #1E2121",
"&  c #222222",
"*  c #2B2225",
"=  c #292928",
"-  c #2F2028",
";  c #312425",
":  c #3D2824",
">  c #352329",
",  c #3C232C",
"<  c #3E2227",
"1  c #2A3231",
"2  c #313331",
"3  c #393837",
"4  c #373A3A",
"5  c #3A3D3B",
"6  c #432624",
"7  c #462B26",
"8  c #4B2C26",
"9  c #43242C",
"0  c #4D2B29",
"q  c #512E27",
"w  c #532C2A",
"e  c #5D292C",
"r  c #5E302A",
"t  c #4D2431",
"y  c #472330",
"u  c #552534",
"i  c #5D2437",
"p  c #5F2439",
"a  c #48383C",
"s  c #622D2F",
"d  c #6A3128",
"f  c #62322D",
"g  c #63253A",
"h  c #6C263C",
"j  c #662B34",
"k  c #72263E",
"l  c #7B253E",
"z  c #793429",
"x  c #3F413E",
"c  c #41403F",
"v  c #752740",
"b  c #7C2742",
"n  c #7E2841",
"m  c #6F3449",
"M  c #73374B",
"N  c #713D4C",
"B  c #524F4D",
"V  c #594E4F",
"C  c #4D514F",
"Z  c #51504E",
"A  c #5E514D",
"S  c #5A4F50",
"D  c #565351",
"F  c #5B5351",
"G  c #565856",
"H  c #595A56",
"J  c #585C58",
"K  c #725E59",
"L  c #67585D",
"P  c #76625C",
"I  c #6C5D62",
"U  c #705D60",
"Y  c #676662",
"T  c #676A67",
"R  c #6A6966",
"E  c #6F7370",
"W  c #7F7D79",
"Q  c #8E3B2E",
"!  c #963E2F",
"~  c #8E2F3F",
"^  c #8E3636",
"/  c #94323D",
"(  c #983835",
")  c #A63D36",
"_  c #A33A3A",
"`  c #B03F39",
"'  c #BE3E3F",
"]  c #9C412F",
"[  c #914A3E",
"{  c #AC4333",
"}  c #A74034",
"|  c #B34434",
" . c #BA4533",
".. c #BE4834",
"X. c #C5423F",
"o. c #CB453D",
"O. c #C54A34",
"+. c #D84731",
"@. c #D24C37",
"#. c #DC4C35",
"$. c #D54A3A",
"%. c #DB4E38",
"&. c #DD5037",
"*. c #E44F37",
"=. c #E15137",
"-. c #E25038",
";. c #832744",
":. c #892647",
">. c #852845",
",. c #8B2A45",
"<. c #8E2848",
"1. c #8D2748",
"2. c #962E42",
"3. c #94284A",
"4. c #9D294E",
"5. c #982F43",
"6. c #9C3143",
"7. c #973042",
"8. c #9F2850",
"9. c #A22A4E",
"0. c #A92E4C",
"q. c #AC314A",
"w. c #A33046",
"e. c #B43646",
"r. c #B73845",
"t. c #BA3944",
"y. c #B33449",
"u. c #BB354B",
"i. c #A22950",
"p. c #AD2C50",
"a. c #C13D43",
"s. c #884D41",
"d. c #8C5144",
"f. c #87635B",
"g. c #89655D",
"h. c #88746D",
"j. c #816F70",
"k. c #9E6676",
"l. c #877576",
"z. c #807F7B",
"x. c #8B7972",
"c. c #907B74",
"v. c #C54140",
"b. c #CC4340",
"n. c #C45644",
"m. c #DC5B4E",
"M. c #DD715E",
"N. c #CF717A",
"B. c #D3737D",
"V. c #E27462",
"C. c #E57A67",
"Z. c #E87E6A",
"A. c #83817C",
"S. c #C87D92",
"D. c #B2AEA8",
"F. c #B5B4AD",
"G. c #BAB3AC",
"H. c #C1BCB5",
"J. c #C5BFB8",
"K. c #E2BCB0",
"L. c #C5C0B8",
"P. c #EFC3B9",
"I. c #E7C1B4",
"U. c #F4C8BD",
"Y. c #CFD2CA",
"T. c #D6D2CA",
"R. c #FDD9CB",
"E. c #FFDFD0",
"W. c #E5E5DC",
"Q. c #F7EEE8",
"!. c white",
"~. c None",
/* pixels */
"~.~.~.~.~.~.~.~.~.~.~.~.~.~.~.~.~.~.~.~.~.~.~.~.~.~.~.~.~.~.~.~.~.~.~.~.~.~.~.~.~.~.~.~.~.~.~.~.~.~.~.~.~.~.~.~.~.~.~.~.~.~.~.~.",
"~.~.~.~.~.~.~.~.~.~.~.~.~.~.~.~.~.~.~.~.~.~.~.~.~.~.~.~.~.~.~.~.~.~.~.~.~.~.~.~.~.~.~.~.~.~.~.~.~.~.~.~.~.~.~.~.~.~.~.~.~.~.~.~.",
"~.~.~.~.~.~.~.~.~.~.~.~.~.~.~.~.~.~.~.~.~.~.~.~.~.~.~.~.~.~.~.~.~.~.~.~.~.~.~.~.~.~.~.~.~.~.~.~.~.~.~.~.~.~.~.~.~.~.~.~.~.~.~.~.",
"~.~.~.~.~.~.~.~.~.~.~.~.~.~.~.~.~.~.~.~.~.~.~.~.~.~.~.~.~.~.~.~.~.~.~.~.~.~.~.~.~.~.~.~.~.~.~.~.~.~.~.~.~.~.~.~.~.~.~.~.~.~.~.~.",
"~.~.~.~.~.~.~.~.~.~.~.~.~.~.~.~.~.~.~.~.~.~.~.~.~.~.~.~.~.~.~.~.~.~.& & ~.~.~.~.~.~.~.~.~.~.~.~.~.~.~.~.~.~.~.~.~.~.~.~.~.~.~.~.",
"~.~.~.~.~.~.~.~.~.~.~.~.~.~.~.~.~.& & & & ~.~.~.~.~.~.~.~.~.~.~.~.& ~.~.~.~.~.~.~.~.~.~.~.~.~.~.~.~.~.~.~.~.~.~.~.~.~.~.~.~.~.~.",
"~.~.~.~.~.~.~.~.~.~.~.~.~.~.~.~.& & & & & & ~.~.~.~.~.~.& % ~.~.& & ~.~.~.~.~.~.~.~.& & ~.~.~.~.~.~.~.~.~.~.~.~.~.~.~.~.~.~.~.~.",
"~.~.~.~.~.~.~.~.~.~.~.~.~.~.~.~.~.~.& & & & % O % % & & % % % % % % % % % % % % % % ~.~.& & ~.~.~.~.~.~.~.~.~.~.~.~.~.~.~.~.~.~.",
"~.~.~.~.~.~.~.~.~.~.~.~.~.~.~.~.~.~.& % & * , 9 9 , * * 7 w w w 7 9 $ 9 0 q w 0 9 < ~.~.% % ~.~.~.~.~.~.~.~.~.~.~.~.~.~.~.~.~.~.",
"~.~.~.~.~.~.~.~.~.~.& & & & & & & & & & % , k 3.1.k > 7 ! O...` 5.:.:.5.` ....` 5.k 9 & & & & & ~.~.~.~.~.~.~.~.~.~.~.~.~.~.~.~.",
"~.~.~.~.~.~.~.~.~.~.~.& & & & & & * t 9 & 9 / u.p.;., 8 | *.*.m.N.S.S.N.m.*.*.m.B.k.a # 9 y - & & ~.~.~.~.~.~.~.~.~.~.~.~.~.~.~.",
"~.~.~.~.~.~.~.~.~.~.~.~.~.~.& & & , b n 9 q { b.y.b < 8 { #.#.V.P.Q.Q.P.V.+.+.C.U.H.D $ l n 9 % & & ~.~.~.~.~.~.~.~.~.~.~.~.~.~.",
"~.~.~.~.~.~.~.~.~.~.~.~.~.~.~.% % 9 >.4.^ ] O.%.b./ 7 0 { %.#.C.R.!.!.R.C.+.+.Z.E.Y.H 6 ( _ 8 + % & ~.~.~.~.~.~.~.~.~.~.~.~.~.~.",
"~.~.~.~.~.~.~.~.~.~.~.~.~.~.~.~.% , v w.X.$.$.%.%.} 8 8 { &.#.M.K.W.W.K.M.+.+.V.I.F.C 8 ` ` q % % & ~.~.~.~.~.~.~.~.~.~.~.~.~.~.",
"~.~.~.~.~.~.~.~.~.~.~.~.~.~.~.& & * , j 6.y.y.t.$.{ 7 7 { -.-.n.f.T T f.n.*.*.n.g.G 1 8 | | q @ & & ~.~.~.~.~.~.~.~.~.~.~.~.~.~.",
"~.~.~.~.~.~.~.~.~.~.~.~.~.~.& & & & > u :.9.p.a.b.| s w (  . .Q 6   . : Q  . .Q : + - s  .| q O % & ~.~.~.~.~.~.~.~.~.~.~.~.~.~.",
"~.~.~.~.~.~.~.~.~.~.~.~.~.~.& & & , h 1.4.0.a.$.%.o.6.k w 8 7 : *     # 6 7 7 : X > h 6.o.{ w % ~.~.~.~.~.~.~.~.~.~.~.~.~.~.~.~.",
"~.~.~.~.~.~.~.~.~.~.~.~.~.& & & % > g >.4.6.( } ] ) r./ < + , , @ # 9 9 @ @ , , @ 9 2.t.) z : & ~.~.~.~.~.~.~.~.~.~.~.~.~.~.~.~.",
"~.~.~.~.~.~.~.~.~.~.& & & & & & & & * t >.>.w ; ; r | } 0 , v v , , ;.b , , l v , w } | f ; & & ~.~.~.~.~.~.~.~.~.~.~.~.~.~.~.~.",
"~.~.~.~.~.~.~.~.~.~.~.& & & & & & & O ; u u - % % ; d d.c.l.N N j.l.M A l.l.N N l.h.s.s.x.E 5   & ~.~.~.~.~.~.~.~.~.~.~.~.~.~.~.",
"~.~.~.~.~.~.~.~.~.~.~.~.~.~.~.~.& & & & & & & & & X X D G.G.B D J.J.Z B G.G.B Z H.L.Z Z G.F.D   + & ~.~.~.~.~.~.~.~.~.~.~.~.~.~.",
"~.~.~.~.~.~.~.~.~.~.~.~.~.~.~.~.~.& & & & % & & & %   4 R Y 2 H T.T.H 2 Y Y 2 H T.T.H 2 Y R 3 % & ~.~.~.~.~.~.~.~.~.~.~.~.~.~.~.",
"~.~.~.~.~.~.~.~.~.~.~.~.~.~.~.~.~.~.& & & & & & & & & & & & O Z D.D.Z X   &   B D.D.Z   X & & & ~.~.~.~.~.~.~.~.~.~.~.~.~.~.~.~.",
"~.~.~.~.~.~.~.~.~.~.~.~.~.~.~.~.~.~.& & & & & & & & & & @   & 2 B B 2 X       2 B B 2 &     ~.~.~.~.~.~.~.~.~.~.~.~.~.~.~.~.~.~.",
"~.~.~.~.~.~.~.~.~.~.~.~.~.~.~.~.~.~.& & & & & & & & & & & & & &     % & & & & &     + & & & ~.~.~.~.~.~.~.~.~.~.~.~.~.~.~.~.~.~.",
"~.~.~.~.~.~.~.~.~.~.~.~.~.~.~.~.~.~.& & ~.~.& & & & & & & & & & % + & & & & & & & & & & & & ~.~.~.~.~.~.~.~.~.~.~.~.~.~.~.~.~.~.",
"~.~.~.~.~.~.~.~.~.~.~.~.~.~.~.~.~.~.& & ~.~.& & & & & & & & & & & & & & & & & & & & & & & & ~.~.~.~.~.~.~.~.~.~.~.~.~.~.~.~.~.~.",
"~.~.~.~.~.~.~.~.~.~.~.~.~.~.~.~.~.~.& & ~.~.& & ~.~.& & & & & & & & & & & & & & & & & & & & ~.~.~.~.~.~.~.~.~.~.~.~.~.~.~.~.~.~.",
"~.~.~.~.~.~.~.~.~.~.~.~.~.~.~.~.~.~.& & ~.~.& & ~.~.& & & & & & & & & & & & & & & & & & & & ~.~.~.~.~.~.~.~.~.~.~.~.~.~.~.~.~.~.",
"~.~.~.~.~.~.~.~.~.~.~.~.~.~.~.~.~.~.& & ~.~.& & ~.~.& & & & & * & & & & & & & & & & ~.~.& & ~.~.~.~.~.~.~.~.~.~.~.~.~.~.~.~.~.~.",
"~.~.~.~.~.~.~.~.~.~.~.~.~.~.~.~.~.~.~.~.~.~.& & ~.~.~.& & & & & & & & & & & ~.& & & ~.~.~.~.~.~.~.~.~.~.~.~.~.~.~.~.~.~.~.~.~.~.",
"~.~.~.~.~.~.~.~.~.~.~.~.~.~.~.~.~.~.~.~.~.~.& & ~.~.~.~.& & & & & & & & & & ~.~.& & ~.~.~.~.~.~.~.~.~.~.~.~.~.~.~.~.~.~.~.~.~.~.",
"~.~.~.~.~.~.~.~.~.~.~.~.~.~.~.~.~.~.& & ~.~.& & ~.~.~.~.~.~.& & & & & & ~.~.~.~.~.~.~.~.~.~.~.~.~.~.~.~.~.~.~.~.~.~.~.~.~.~.~.~.",
"~.~.~.~.~.~.~.~.~.~.~.~.~.~.~.~.~.~.& & ~.~.& & ~.~.~.~.~.~.~.& & & & ~.~.~.~.~.~.~.~.~.~.~.~.~.~.~.~.~.~.~.~.~.~.~.~.~.~.~.~.~.",
"~.~.~.~.~.~.~.~.~.~.~.~.~.~.~.~.~.~.~.~.~.~.& & ~.~.~.~.~.~.~.~.& & ~.~.~.~.~.~.~.~.~.~.& & ~.~.~.~.~.~.~.~.~.~.~.~.~.~.~.~.~.~.",
"~.~.~.~.~.~.~.~.~.~.~.~.~.~.~.~.~.~.~.~.~.~.& & ~.~.~.~.~.~.~.& & & & ~.~.~.~.~.~.~.~.~.& & ~.~.~.~.~.~.~.~.~.~.~.~.~.~.~.~.~.~.",
"~.~.~.~.~.~.~.~.~.~.~.~.~.~.~.~.~.~.& & ~.~.& & ~.~.~.~.~.~.& & & & & & ~.~.~.~.& & ~.~.& & ~.~.~.~.~.~.~.~.~.~.~.~.~.~.~.~.~.~.",
"~.~.~.~.~.~.~.~.~.~.~.~.~.~.~.~.~.~.& & ~.~.& & ~.~.~.& & & & & & & & & & & & & & & ~.~.& & ~.~.~.~.~.~.~.~.~.~.~.~.~.~.~.~.~.~.",
"~.~.~.~.~.~.~.~.~.~.& & ~.~.~.~.~.~.& & ~.~.& & ~.~.& & & & & & & & & & & & & & & & ~.~.& & ~.~.~.~.~.~.~.~.~.~.~.~.~.~.~.~.~.~.",
"~.~.~.~.~.~.~.~.~.~.& & & & & & ~.~.& & & & & & & & & & & & & & & & & & & & & & & & & & & & ~.~.~.~.~.~.~.~.~.~.~.~.~.~.~.~.~.~.",
"~.~.~.~.~.~.~.~.~.~.& & & & & & ~.~.& & & & & & & & & & & &     & & & & & & & & & & O & & & ~.~.~.~.~.~.~.~.~.~.~.~.~.~.~.~.~.~.",
"~.~.~.~.~.~.~.~.~.~.~.~.& & & & & & & & & & & & & & & & & & & & & & & & & & & & & & & & & & & & ~.~.~.~.~.~.~.~.~.~.~.~.~.~.~.~.",
"~.~.~.~.~.~.~.~.~.~.~.~.~.& & & & & & & & & & & & &     % 3 Y Y 3       & &       3 Y Y 3       & ~.~.~.~.~.~.~.~.~.~.~.~.~.~.~.",
"~.~.~.~.~.~.~.~.~.~.~.~.~.~.& & & & & & & & & & & & & = & D H.H.D % * = & & = & & Z H.H.D & & = & & & & ~.~.~.~.~.~.~.~.~.~.~.~.",
"~.~.~.~.~.~.~.~.~.& & ~.~.~.& & & & & & & % & %   a z.W 4 G T.T.G 5 W W 5 5 W W 3 G T.T.H 3 W z.B     X ~.~.~.~.~.~.~.~.~.~.~.~.",
"~.~.~.~.~.~.~.~.& & & & ~.~.& & & & & & ; - & & # S F.G.A A G.G.A A G.G.A A G.G.A A G.G.A V G.G.B .   & ~.~.~.~.~.~.~.~.~.~.~.~.",
"~.~.~.~.~.~.~.~.~.& & & & & & & & % & > g i > - p M Y P [ [ P K [ [ P P [ [ P P [ [ P L m M U J 2 &   ~.~.~.~.~.~.~.~.~.~.~.~.~.",
"~.~.~.~.~.~.~.~.~.~.& & & & & & , > & 7 ,.2.s s 2./ s d  . .d d  . .d d  . .d d  . .d e 2.2.u # & & ~.~.~.~.~.~.~.~.~.~.~.~.~.~.",
"~.~.~.~.~.~.~.~.~.~.~.~.& & & , v h > 7 ) o.....o.o.|  .@.@. . .@.@. . .@.@. . .@.@. . .o.t.2.g , % ~.~.~.~.~.~.~.~.~.~.~.~.~.~.",
"~.~.~.~.~.~.~.~.~.~.~.~.~.& % 9 :.3.p j ` b.b.b.$.&.-.&.%.%.&.=.%.%.%.&.%.%.%.&.%.%.%.&.=.$.a.2.9 % ~.~.~.~.~.~.~.~.~.~.~.~.~.~.",
"~.~.~.~.~.~.~.~.~.~.~.~.~.~.% , b 4.3.3.4.0.9.e.o.%.%.%.%.%.%.&.%.%.%.%.%.%.%.%.%.%.%.%.&.%.$.} 8 % ~.~.~.~.~.~.~.~.~.~.~.~.~.~.",
"~.~.~.~.~.~.~.~.~.~.~.~.~.~.% > w k 3.i.4.9.e.v.$.&.&.%.&.$.v.X.$.&.&.%.%.%.%.%.&.%.&.%.%.&.-.{ 0 % % ~.~.~.~.~.~.~.~.~.~.~.~.~.",
"~.~.~.~.~.~.~.~.~.~.~.~.~.~.& & * t >.i.4.q.v.$.$.$.%.$.%.X.q.q.X.$.$.$.%.%.%.$.$.$.$.$.$.&.&.{ 8 % % & ~.~.~.~.~.~.~.~.~.~.~.~.",
"~.~.~.~.~.~.~.~.~.& & & & & % > u v 3.4.4.0.e.r.r.t.r.r.r.q.9.9.y.r.r.X.$.%.%.$.a.r.r.' $.&.-.| 8 & & & ~.~.~.~.~.~.~.~.~.~.~.~.",
"~.~.~.~.~.~.~.~.& & & & & & % 9 ;.9.i.4.4.4.4.9.4.9.4.4.9.4.9.9.9.8.4.q.v.$.$.v.q.4.4.q.v.$.$.} 0 % % & ~.~.~.~.~.~.~.~.~.~.~.~.",
"~.~.~.~.~.~.~.~.~.~.& & & % % , ;.i.9.9.4.9.9.i.i.i.i.i.i.i.9.9.i.i.9.9.q.y.y.q.9.4.4.9.q.y.y.~ 9 & ~.~.~.~.~.~.~.~.~.~.~.~.~.~.",
"~.~.~.~.~.~.~.~.~.~.& & & = , u <.i.9.i.9.4.;.b b n b n b b b b b b b b b v b ;.3.i.9.4.i.3.;.h , % ~.~.~.~.~.~.~.~.~.~.~.~.~.~.",
"~.~.~.~.~.~.~.~.~.~.~.~.% , k 3.3.4.9.9.9.>.t > > > > > > , > > > > , > > > > t >.9.i.9.i.>.t > ~.~.~.~.~.~.~.~.~.~.~.~.~.~.~.~.",
"~.~.~.~.~.~.~.~.~.~.~.~.& > i k k h h h h i > O o % O O O O O O O O O O O O o > p b 3.i.i.n , O ~.~.~.~.~.~.~.~.~.~.~.~.~.~.~.~.",
"~.~.~.~.~.~.~.~.~.~.~.~.& & * * * * * * * * ~.~.~.~.~.~.~.~.~.~.~.~.~.~.~.~.~.~.& y ;.4.i.;., % ~.~.~.~.~.~.~.~.~.~.~.~.~.~.~.~.",
"~.~.~.~.~.~.~.~.~.~.~.~.~.~.~.~.~.~.~.~.~.~.~.~.~.~.~.~.~.~.~.~.~.~.~.~.~.~.~.~.~.> t k 3.;., % ~.~.~.~.~.~.~.~.~.~.~.~.~.~.~.~.",
"~.~.~.~.~.~.~.~.~.~.~.~.~.~.~.~.~.~.~.~.~.~.~.~.~.~.~.~.~.~.~.~.~.~.~.~.~.~.~.~.~.~.& 9 ;.;.9 % ~.~.~.~.~.~.~.~.~.~.~.~.~.~.~.~.",
"~.~.~.~.~.~.~.~.~.~.~.~.~.~.~.~.~.~.~.~.~.~.~.~.~.~.~.~.~.~.~.~.~.~.~.~.~.~.~.~.~.~.% 9 n ;.9 % ~.~.~.~.~.~.~.~.~.~.~.~.~.~.~.~.",
"~.~.~.~.~.~.~.~.~.~.~.~.~.~.~.~.~.~.~.~.~.~.~.~.~.~.~.~.~.~.~.~.~.~.~.~.~.~.~.~.~.~.% , ;.;.9 % ~.~.~.~.~.~.~.~.~.~.~.~.~.~.~.~."
};
