/* XPM */
static char *result[] = {
/* columns rows colors chars-per-pixel */
"64 64 168 2 ",
"   c #121919",
".  c #1D1D1D",
"X  c #16211E",
"o  c #1A221F",
"O  c #2E211D",
"+  c #30221E",
"@  c #1F1F20",
"#  c #231D21",
"$  c #2C1E23",
"%  c #331E26",
"&  c #1E2121",
"*  c #222222",
"=  c #2B2325",
"-  c #2C2C2C",
";  c #232728",
":  c #312326",
">  c #382725",
",  c #3C2925",
"<  c #332329",
"1  c #3C232B",
"2  c #2D3232",
"3  c #353939",
"4  c #3C3D3C",
"5  c #303130",
"6  c #5B1E33",
"7  c #601D34",
"8  c #472B27",
"9  c #4D2C26",
"0  c #43252D",
"q  c #4A252F",
"w  c #4C2C28",
"e  c #452626",
"r  c #512C26",
"t  c #4C2431",
"y  c #442531",
"u  c #522533",
"i  c #5C2535",
"p  c #5E2439",
"a  c #5E2B30",
"s  c #62272E",
"d  c #642B2D",
"f  c #663228",
"g  c #6C312E",
"h  c #653227",
"j  c #713227",
"k  c #72332A",
"l  c #7A332F",
"z  c #7D392B",
"x  c #692532",
"c  c #632B33",
"v  c #64253A",
"b  c #6B253D",
"n  c #6D2B36",
"m  c #73273F",
"M  c #7B2D3A",
"N  c #752F35",
"B  c #603F38",
"V  c #3D403F",
"C  c #7D2743",
"Z  c #743349",
"A  c #3E4443",
"S  c #434442",
"D  c #4D4647",
"F  c #5C4D4F",
"G  c #4D514F",
"H  c #51504E",
"J  c #5F4E54",
"K  c #575654",
"L  c #555856",
"P  c #63514C",
"I  c #6C564F",
"U  c #635155",
"Y  c #6E5852",
"T  c #685551",
"R  c #705952",
"E  c #716F6B",
"W  c #72706C",
"Q  c #843A2D",
"!  c #883B2E",
"~  c #842C3F",
"^  c #8B2D3E",
"/  c #93313F",
"(  c #963E30",
")  c #A53D35",
"_  c #AD3C3B",
"`  c #B03C3A",
"'  c #96493B",
"]  c #984A3C",
"[  c #AD432F",
"{  c #AC4332",
"}  c #A64034",
"|  c #B14433",
" . c #BD4634",
".. c #BC433A",
"X. c #B14938",
"o. c #BA4537",
"O. c #C14735",
"+. c #C34834",
"@. c #C5413F",
"#. c #CC463C",
"$. c #CD483A",
"%. c #CA4A36",
"&. c #D84731",
"*. c #D44C37",
"=. c #DC4D36",
"-. c #D1473D",
";. c #D44A3A",
":. c #DB4E38",
">. c #DE5037",
",. c #DF5038",
"<. c #E24D36",
"1. c #E15137",
"2. c #E15038",
"3. c #822744",
"4. c #852844",
"5. c #8D2B44",
"6. c #8E2848",
"7. c #882746",
"8. c #922A47",
"9. c #9B2F43",
"0. c #93274B",
"q. c #9C274F",
"w. c #95284A",
"e. c #9E294E",
"r. c #9C3141",
"t. c #923040",
"y. c #9F2850",
"u. c #863951",
"i. c #A22A4E",
"p. c #A92F4B",
"a. c #AF3447",
"s. c #AC3149",
"d. c #AB3445",
"f. c #B33547",
"g. c #B13941",
"h. c #BD3C44",
"j. c #B1314B",
"k. c #A42950",
"l. c #A63F61",
"z. c #C33E42",
"x. c #B44356",
"c. c #C34040",
"v. c #CB4241",
"b. c #CD4A41",
"n. c #D46654",
"m. c #DF6758",
"M. c #D66956",
"N. c #E2695A",
"B. c #E47865",
"V. c #E77C68",
"C. c #8C8985",
"Z. c #8C8F8B",
"A. c #BE998E",
"S. c #B19196",
"D. c #B5ADA6",
"F. c #B4AFA9",
"G. c #B2B4AE",
"H. c #B9B0A9",
"J. c #C29C91",
"K. c #E29B9B",
"L. c #E1B6BE",
"P. c #C6C2BA",
"I. c #CACCC4",
"U. c #D5D1C9",
"Y. c #F8D3C6",
"T. c #FED8CA",
"R. c #FFFFFA",
"E. c None",
/* pixels */
"E.E.E.E.E.E.E.E.E.E.E.E.E.E.E.E.E.E.E.E.E.E.E.E.E.E.E.E.E.E.E.E.E.E.E.E.E.E.E.E.E.E.E.E.E.E.E.E.E.E.E.E.E.E.E.E.E.E.E.E.E.E.E.E.",
"E.E.E.E.E.E.E.E.E.E.E.E.E.E.E.E.E.E.E.E.E.E.E.E.E.E.E.E.E.E.E.E.E.E.E.E.E.E.E.E.E.E.E.E.E.E.E.E.E.E.E.E.E.E.E.E.E.E.E.E.E.E.E.E.",
"E.E.E.E.E.E.E.E.E.E.E.E.E.E.E.E.E.E.E.E.E.E.E.E.E.E.E.E.E.E.E.E.E.E.E.E.E.E.E.E.E.E.E.E.E.E.E.E.E.E.E.E.E.E.E.E.E.E.E.E.E.E.E.E.",
"E.E.E.E.E.E.E.E.E.E.E.E.E.E.E.E.E.E.E.E.E.E.E.E.E.E.E.E.E.E.E.E.E.E.E.E.E.E.E.E.E.E.E.E.E.E.E.E.E.E.E.E.E.E.E.E.E.E.E.E.E.E.E.E.",
"E.E.E.E.E.E.E.E.E.E.E.E.E.E.E.E.E.E.E.E.E.E.E.E.E.E.E.E.E.E.E.E.E.E.E.E.E.E.E.E.E.E.E.E.E.E.E.E.E.E.E.E.E.E.E.E.E.E.E.E.E.E.E.E.",
"E.E.E.E.E.E.E.E.E.E.E.E.E.E.E.E.E.E.E.E.E.E.E.E.E.E.E.E.E.E.E.E.E.E.E.E.E.E.E.E.E.E.E.E.E.E.E.E.E.E.E.E.E.E.E.E.E.E.E.E.E.E.E.E.",
"E.E.E.E.E.E.E.E.E.E.E.E.E.E.E.E.E.E.E.E.E.E.E.E.E.E.E.E.E.E.E.E.E.E.* * E.E.E.E.E.E.E.E.E.E.E.E.E.E.E.E.E.E.E.E.E.E.E.E.E.E.E.E.",
"E.E.E.E.E.E.E.E.E.E.E.E.E.E.E.E.E.E.E.E.E.E.E.E.E.E.E.E.* * E.E.* * E.E.E.E.E.E.E.E.* * E.E.E.E.E.E.E.E.E.E.E.E.E.E.E.E.E.E.E.E.",
"E.E.E.E.E.E.E.E.E.E.E.E.E.E.E.E.E.E.E.E.E.E.E.E.E.E.E.E.* * E.E.* * E.E.E.E.E.E.E.E.* * E.E.E.E.E.E.E.E.E.E.E.E.E.E.E.E.E.E.E.E.",
"E.E.E.E.E.E.E.E.E.E.E.E.E.E.E.E.E.E.E.E.E.E.E.E.E.E.* * * * E.E.* * E.E.* & E.E.* * E.E.E.E.E.E.E.E.E.E.E.E.E.E.E.E.E.E.E.E.E.E.",
"E.E.E.E.E.E.E.E.E.E.E.E.E.E.E.E.E.E.E.E.E.E.E.E.E.* * * & & & & & & & & & & @ & & * E.E.E.E.E.E.E.E.E.E.E.E.E.E.E.E.E.E.E.E.E.E.",
"E.E.E.E.E.E.E.E.E.E.E.E.E.E.E.E.* * * * * * * * * * * * * = = = = = * * = = * * = * E.E.* * E.E.E.E.E.E.E.E.E.E.E.E.E.E.E.E.E.E.",
"E.E.E.E.E.E.E.E.E.E.E.E.E.E.E.E.E.* * * & & * * * & & > g Q Q l x p 6 s l ! Q l x 6 1 o o & * E.E.E.E.E.E.E.E.E.E.E.E.E.E.E.E.E.",
"E.E.E.E.E.E.E.E.E.E.E.E.E.E.E.E.E.E.* * : : * * = = * 9 { :.:.$.x.l.l.x.v.=.=.-.x.u.y * = = * * E.E.E.E.E.E.E.E.E.E.E.E.E.E.E.E.",
"E.E.E.E.E.E.E.E.E.E.E.E.E.* * * & & & < p p : : v v < 9 | <.<.m.K.L.L.K.m.=.=.N.K.S.D : v p : o & E.E.E.E.E.E.E.E.E.E.E.E.E.E.E.",
"E.E.E.E.E.E.E.E.E.E.E.E.* * & = 1 < * 0 5.r.a a 6.3.1 9 { =.=.B.Y.R.R.Y.B.&.&.V.T.I.L 0 ^ 9.i < * * E.E.E.E.E.E.E.E.E.E.E.E.E.E.",
"E.E.E.E.E.E.E.E.E.E.* * * * & 1 b b < 8 ) $. .` p.C 1 9 { =.=.B.Y.R.R.Y.B.&.&.V.T.I.K e ) z.9.b 1 * o * E.E.E.E.E.E.E.E.E.E.E.E.",
"E.E.E.E.E.E.E.E.E.* * * * & & 0 5.w.N z  .1.2.;.z.^ 1 9 { <.<.n.A.G.G.A.n.<.<.n.J.Z.S e [ ;.z./ 0 * * * E.E.E.E.E.E.E.E.E.E.E.E.",
"E.E.E.E.E.E.E.E.* * * * * * & 0 3.s...%.;.:.:.:.:.) w 8 { ,.:.X.B 3 3 B X.=.:.X.B 5 ; r { 2.:._ 9 & * * E.E.E.E.E.E.E.E.E.E.E.E.",
"E.E.E.E.E.E.E.E.* * * * E.* * = t M d.z.z.c.;.,.>.o.M c k Q Q f +     + h Q Q h O # 0 M ..2.2.| r & & * E.E.E.E.E.E.E.E.E.E.E.E.",
"E.E.E.E.E.E.E.E.* * E.E.E.E.* * = q 4.i.i.f.#.,.:.#.f.4.q : : : = = $ = : : : : = q 4.d.#.2.2.| 9 & & * E.E.E.E.E.E.E.E.E.E.E.E.",
"E.E.E.E.E.E.E.E.E.E.E.E.E.& * < i C 0.p.h.v.;.,.2.:.v.g.~ b v v m b b b b b b v b 4.g.#.:.2.2.| r & & E.E.E.E.E.E.E.E.E.E.E.E.E.",
"E.E.E.E.E.E.E.E.E.E.E.E.* * & 1 m 0.q.p.X.+.;.*.+.%.*.#./ w.i.p.8.8.p.i.8.8.p.i.8.9.#.*.+. .O.( 8 & E.E.E.E.E.E.E.E.E.E.E.E.E.E.",
"E.E.E.E.E.E.E.E.E.E.E.E.* * * = 1 i 6.8.c z +. .k k O. .d s _ ` s s ` ` s s ` _ s d  .O.j 9 r 8 = * E.E.E.E.E.E.E.E.E.E.E.E.E.E.",
"E.E.E.E.E.E.E.E.E.E.E.E.* * * & & 1 v v < , ! ! , , Q ] R R ] ] I I ] ] R R ] ] I I ' ] R G 2 @ * * E.E.E.E.E.E.E.E.E.E.E.E.E.E.",
"E.E.E.E.E.E.E.E.E.E.* * * * * * & * : < * = > > = * > T H.D.P P D.D.P P D.D.P P D.D.P P D.F.H . @ * E.E.E.E.E.E.E.E.E.E.E.E.E.E.",
"E.E.E.E.E.E.E.E.E.* * * * * * * * * & * * & & & * & . A Z.C.4 L U.U.L 4 C.C.4 L U.U.L 4 C.C.S o @ E.E.E.E.E.E.E.E.E.E.E.E.E.E.E.",
"E.E.E.E.E.E.E.E.* * * * E.E.E.E.E.E.* * * * * * * * * * - - & K P.P.K * - ; O K P.P.K * - - = * E.E.E.E.E.E.E.E.E.E.E.E.E.E.E.E.",
"E.E.E.E.E.E.E.E.E.* E.E.E.E.E.E.E.E.* * * * * * * * * o . . @ 4 W W 4 .   . . 4 W W 4 * . . @ E.E.E.E.E.E.E.E.E.E.E.E.E.E.E.E.E.",
"E.E.E.E.E.E.E.E.E.E.E.E.E.E.E.E.E.E.* * E.E.* * * * * * * * & & * * * * * * * * * * * * * * E.E.E.E.E.E.E.E.E.E.E.E.E.E.E.E.E.E.",
"E.E.E.E.E.E.E.E.E.E.E.E.E.E.E.E.E.E.E.E.E.E.E.E.* * * * * * * O O . * * * * * * . . E.E.* * E.E.E.E.E.E.E.E.E.E.E.E.E.E.E.E.E.E.",
"E.E.E.E.E.E.E.E.E.E.E.E.E.E.E.E.E.E.E.E.E.E.E.E.* * * * * # * * * & * * * * * * * * E.E.* * E.E.E.E.E.E.E.E.E.E.E.E.E.E.E.E.E.E.",
"E.E.E.E.E.E.E.E.E.E.E.E.E.E.E.E.E.E.* * E.E.* * * * * & * * * * * * * * * * * * * * * * E.E.E.E.E.E.E.E.E.E.E.E.E.E.E.E.E.E.E.E.",
"E.E.E.E.E.E.E.E.E.E.E.E.E.E.E.E.E.E.* * * E.* * * * * & * * . o & * * * * * * * * * . . E.E.E.E.E.E.E.E.E.E.E.E.E.E.E.E.E.E.E.E.",
"E.E.E.E.E.E.E.E.E.E.* * * * * * E.E.* * * * * * * * @ O * * & ; * * * * * * * * * * ; * * * * @ E.E.E.E.E.E.E.E.E.E.E.E.E.E.E.E.",
"E.E.E.E.E.E.E.E.E.E.E.* * * * * * * * * * * * * * & . . @ 4 E E 4 . . . o . . . @ 4 W E 4 @ . . @ E.E.E.E.E.E.E.E.E.E.E.E.E.E.E.",
"E.E.E.E.E.E.E.E.E.E.E.E.E.E.* * * * * * * * * * * * 2 - O L P.P.K & - - = * 5 - & K P.P.K # - 5 = * & & E.E.E.E.E.E.E.E.E.E.E.E.",
"E.E.E.E.E.E.E.E.E.E.E.E.E.* * * * * * * & & * & . S C.C.4 L U.U.L 4 C.C.V V C.C.4 K U.U.L 4 C.C.S o O * E.E.E.E.E.E.E.E.E.E.E.E.",
"E.E.E.E.E.E.E.E.E.E.E.E.* * * * * * * * < < * # $ U F.D.P P D.D.P P D.D.P P D.D.P P D.D.F F D.D.H @ @ * E.E.E.E.E.E.E.E.E.E.E.E.",
"E.E.E.E.E.E.E.E.* * * * * * * & & & & 1 b v < < v Z U R ' ' I I ' ' Y Y ' ' Y Y ' ' I J Z Z U G 5 * E.E.E.E.E.E.E.E.E.E.E.E.E.E.",
"E.E.E.E.E.E.E.E.* * * * * * * = 1 1 * 0 t.r.g g r.r.d j  . .g j  . .j j  . .j j  . .j d r.9.i % * * E.E.E.E.E.E.E.E.E.E.E.E.E.E.",
"E.E.E.E.E.E.E.E.E.E.E.E.E.E.& 1 m m 1 9 } ;.+.+.$.$. .+.*.*.+.+.;.*.O.+.*.*.O.O.*.*.O.O.$.c.9.m 1 & E.E.E.E.E.E.E.E.E.E.E.E.E.E.",
"E.E.E.E.E.E.E.E.E.E.E.E.E.E.& q 4.w.v n _ c.v.v.;.,.,.,.=.>.1.1.=.:.:.1.:.:.,.,.:.>.1.1.:.;.v.t.q & E.E.E.E.E.E.E.E.E.E.E.E.E.E.",
"E.E.E.E.E.E.E.E.E.E.E.E.E.E.& 1 C q.q.w.e.i.k.f.#.>.:.=.:.;.:.;.:.:.:.:.:.:.:.*.=.;.:.=.:.:.:.} w & E.E.E.E.E.E.E.E.E.E.E.E.E.E.",
"E.E.E.E.E.E.E.E.E.E.E.E.E.E.* = q v 0.k.q.i.f.#.;.>.>.>.:.&.x.c.;.>.,.>.>.>.:.:.>.>.>.:.;.>.1.{ 9 & E.E.E.E.E.E.E.E.E.E.E.E.E.E.",
"E.E.E.E.E.E.E.E.E.E.E.E.E.E.* * = u 3.k.k.s.c.;.;.;.;.;.;.@._ s.@.;.;.;.>.;.:.:.;.;.;.;.:.>.1.{ 9 & E.E.E.E.E.E.E.E.E.E.E.E.E.E.",
"E.E.E.E.E.E.E.E.E.E.E.E.E.* & > i C w.e.q.p.f.f.f.f.f.f.f.j.i.i.s.f.f.h.;.,.>.-.h.d.f.h.;.1.1.{ 9 & & E.E.E.E.E.E.E.E.E.E.E.E.E.",
"E.E.E.E.E.E.E.E.E.E.E.E.* & & y 3.k.k.e.e.i.q.q.q.q.k.i.q.i.k.e.q.q.q.s.c.#.-.c.p.q.q.s.c.#.-.) w & * * E.E.E.E.E.E.E.E.E.E.E.E.",
"E.E.E.E.E.E.E.E.* * * * * & & 1 3.i.k.q.i.e.q.i.q.q.k.k.i.k.e.i.k.i.q.i.s.s.s.p.i.q.q.i.p.s.f.5.q & & * E.E.E.E.E.E.E.E.E.E.E.E.",
"E.E.E.E.E.E.E.E.* * * * * = 0 v 6.i.q.i.i.i.i.i.p.w.C b m m C b m m m C C C 0.k.i.i.q.i.q.0.C p < & * E.E.E.E.E.E.E.E.E.E.E.E.E.",
"E.E.E.E.E.E.E.E.E.E.E.E.& 1 m w.q.q.e.e.q.e.e.q.q.3.t = = < < : : : = = * t 3.e.i.q.q.i.i.4.q = * * E.E.E.E.E.E.E.E.E.E.E.E.E.E.",
"E.E.E.E.E.E.E.E.E.E.E.E.& 0 4.k.k.k.p.w.m v c v v i < & X o o o & & & X X < i m 0.p.k.k.k.0.b q = & & E.E.E.E.E.E.E.E.E.E.E.E.E.",
"E.E.E.E.E.E.E.E.E.E.E.E.& 1 4.q.w.w.e.C q * = * * = E.E.E.E.E.E.E.E.E.E.E.E.* 0 C w.q.w.w.w.e.C q * * * E.E.E.E.E.E.E.E.E.E.E.E.",
"E.E.E.E.E.E.E.E.E.E.E.E.& q 4.0.b u u t < E.E.E.E.E.E.E.E.E.E.E.E.E.E.E.E.E.E.< t u u u u b w.e.3.p : * E.E.E.E.E.E.E.E.E.E.E.E.",
"E.E.E.E.E.E.E.E.E.E.E.E.o 1 m m 1 & & * E.E.E.E.E.E.E.E.E.E.E.E.E.E.E.E.E.E.E.E.* * & & & 1 m 6.6.C 1 & E.E.E.E.E.E.E.E.E.E.E.E.",
"E.E.E.E.E.E.E.E.E.E.E.E.* = 1 1 = & E.E.E.E.E.E.E.E.E.E.E.E.E.E.E.E.E.E.E.E.E.E.E.E.E.E.E.E.0 0 q 1 E.E.E.E.E.E.E.E.E.E.E.E.E.E.",
"E.E.E.E.E.E.E.E.E.E.E.E.* * & & * * E.E.E.E.E.E.E.E.E.E.E.E.E.E.E.E.E.E.E.E.E.E.E.E.E.E.E.E.& & & & E.E.E.E.E.E.E.E.E.E.E.E.E.E.",
"E.E.E.E.E.E.E.E.E.E.E.E.E.E.E.E.E.E.E.E.E.E.E.E.E.E.E.E.E.E.E.E.E.E.E.E.E.E.E.E.E.E.E.E.E.E.E.E.E.E.E.E.E.E.E.E.E.E.E.E.E.E.E.E.",
"E.E.E.E.E.E.E.E.E.E.E.E.E.E.E.E.E.E.E.E.E.E.E.E.E.E.E.E.E.E.E.E.E.E.E.E.E.E.E.E.E.E.E.E.E.E.E.E.E.E.E.E.E.E.E.E.E.E.E.E.E.E.E.E.",
"E.E.E.E.E.E.E.E.E.E.E.E.E.E.E.E.E.E.E.E.E.E.E.E.E.E.E.E.E.E.E.E.E.E.E.E.E.E.E.E.E.E.E.E.E.E.E.E.E.E.E.E.E.E.E.E.E.E.E.E.E.E.E.E.",
"E.E.E.E.E.E.E.E.E.E.E.E.E.E.E.E.E.E.E.E.E.E.E.E.E.E.E.E.E.E.E.E.E.E.E.E.E.E.E.E.E.E.E.E.E.E.E.E.E.E.E.E.E.E.E.E.E.E.E.E.E.E.E.E.",
"E.E.E.E.E.E.E.E.E.E.E.E.E.E.E.E.E.E.E.E.E.E.E.E.E.E.E.E.E.E.E.E.E.E.E.E.E.E.E.E.E.E.E.E.E.E.E.E.E.E.E.E.E.E.E.E.E.E.E.E.E.E.E.E.",
"E.E.E.E.E.E.E.E.E.E.E.E.E.E.E.E.E.E.E.E.E.E.E.E.E.E.E.E.E.E.E.E.E.E.E.E.E.E.E.E.E.E.E.E.E.E.E.E.E.E.E.E.E.E.E.E.E.E.E.E.E.E.E.E.",
"E.E.E.E.E.E.E.E.E.E.E.E.E.E.E.E.E.E.E.E.E.E.E.E.E.E.E.E.E.E.E.E.E.E.E.E.E.E.E.E.E.E.E.E.E.E.E.E.E.E.E.E.E.E.E.E.E.E.E.E.E.E.E.E."
};
