/* XPM */
static char *result[] = {
/* columns rows colors chars-per-pixel */
"64 64 177 2 ",
"   c #131919",
".  c #1C1C1C",
"X  c #201D1E",
"o  c #1B221F",
"O  c #37231F",
"+  c #1A1F21",
"@  c #171F21",
"#  c #281F23",
"$  c #361F27",
"%  c #1D2121",
"&  c #222222",
"*  c #2B2325",
"=  c #2B2B2B",
"-  c #2A272A",
";  c #312425",
":  c #392725",
">  c #3C2825",
",  c #342329",
"<  c #3C232B",
"1  c #2B3030",
"2  c #363635",
"3  c #3B3D3C",
"4  c #581F33",
"5  c #681E37",
"6  c #452A26",
"7  c #4D2C27",
"8  c #42242D",
"9  c #4A2A29",
"0  c #4D272E",
"q  c #512D26",
"w  c #532D28",
"e  c #5F2D2E",
"r  c #4D2432",
"t  c #422B33",
"y  c #542336",
"u  c #5A2536",
"i  c #5D2B30",
"p  c #5E2538",
"a  c #51363E",
"s  c #5E3E39",
"d  c #613228",
"f  c #713227",
"g  c #74352B",
"h  c #7A362B",
"j  c #7D392B",
"k  c #632539",
"l  c #6C263D",
"z  c #6A2935",
"x  c #722635",
"c  c #71263E",
"v  c #772B3B",
"b  c #762641",
"n  c #7C2742",
"m  c #7E2B43",
"M  c #3F4443",
"N  c #454443",
"B  c #484745",
"V  c #474847",
"C  c #4B4D4B",
"Z  c #484B48",
"A  c #504849",
"S  c #4B504F",
"D  c #50504E",
"F  c #565654",
"G  c #565856",
"H  c #595956",
"J  c #63454E",
"K  c #724E47",
"L  c #734F48",
"P  c #63514D",
"I  c #6B554F",
"U  c #745049",
"Y  c #6E5852",
"T  c #685551",
"R  c #715953",
"E  c #674952",
"W  c #706E6A",
"Q  c #72706C",
"!  c #8A362A",
"~  c #85362D",
"^  c #913D2F",
"/  c #863531",
"(  c #8B3932",
")  c #853830",
"_  c #9D383A",
"`  c #943738",
"'  c #892B3E",
"]  c #AE3B3D",
"[  c #A63B39",
"{  c #B23B3F",
"}  c #9E4130",
"|  c #96483B",
" . c #994A3D",
".. c #A64536",
"X. c #AD4333",
"o. c #BD4734",
"O. c #BE4834",
"+. c #B8473A",
"@. c #BC503E",
"#. c #C44834",
"$. c #CB453D",
"%. c #CA473A",
"&. c #D94731",
"*. c #D44D37",
"=. c #DC4C35",
"-. c #D3473E",
";. c #D44A3A",
":. c #DB4E38",
">. c #DE5037",
",. c #DF5038",
"<. c #E14E36",
"1. c #E24F38",
"2. c #E05137",
"3. c #E15038",
"4. c #822745",
"5. c #842A44",
"6. c #8B2946",
"7. c #8F2849",
"8. c #9C274F",
"9. c #94294A",
"0. c #9D294D",
"q. c #942C46",
"w. c #963042",
"e. c #9F2751",
"r. c #A32B4D",
"t. c #A92F4B",
"y. c #A53343",
"u. c #AB3345",
"i. c #AA314A",
"p. c #AB3445",
"a. c #B43646",
"s. c #BC3B44",
"d. c #B3324C",
"f. c #B93746",
"g. c #A22950",
"h. c #C23D43",
"j. c #8A4057",
"k. c #BA4B5D",
"l. c #AD4A69",
"z. c #C64042",
"x. c #C94042",
"c. c #D04440",
"v. c #D14D44",
"b. c #DC6C5A",
"n. c #E26C5C",
"m. c #E27764",
"M. c #E57966",
"N. c #E77C68",
"B. c #8C8985",
"V. c #978E8D",
"C. c #94918C",
"Z. c #9D918B",
"A. c #9B9692",
"S. c #A39790",
"D. c #B49A9D",
"F. c #A8A59F",
"G. c #A2A49E",
"H. c #ABA8A2",
"J. c #B6ADA6",
"K. c #B1AEA8",
"L. c #B9B0A9",
"P. c #D2ACA1",
"I. c #D6B0A4",
"U. c #E5A5A2",
"Y. c #C6C3BC",
"T. c #C8C6BF",
"R. c #CDCBC4",
"E. c #D1CDC5",
"W. c #D5D1C9",
"Q. c #E6C4C8",
"!. c #F5CEC1",
"~. c #F7D3C5",
"^. c #FAD4C6",
"/. c #FED9CB",
"(. c #FEFEF4",
"). c #FFFFFA",
"_. c None",
/* pixels */
"_._._._._._._._._._._._._._._._._._._._._._._._._._._._._._._._._._._._._._._._._._._._._._._._._._._._._._._._._._._._._._._._.",
"_._._._._._._._._._._._._._._._._._._._._._._._._._._._._._._._._._._._._._._._._._._._._._._._._._._._._._._._._._._._._._._._.",
"_._._._._._._._._._._._._._._._._._._._._._._._._._._._._._._._._._._._._._._._._._._._._._._._._._._._._._._._._._._._._._._._.",
"_._._._._._._._._._._._._._._._._._._._._._._._._._._._._._._._._._._._._._._._._._._._._._._._._._._._._._._._._._._._._._._._.",
"_._._._._._._._._._._._._._._._._._._._._._._._._._._._._._._._._._._._._._._._._._._._._._._._._._._._._._._._._._._._._._._._.",
"_._._._._._._._._._._._._._._._._._._._._._._._._._._._._._._._._._._._._._._._._._._._._._._._._._._._._._._._._._._._._._._._.",
"_._._._._._._._._._._._._._._._._._._._._._._._._._._._._._._._._._._._._._._._._._._._._._._._._._._._._._._._._._._._._._._._.",
"_._._._._._._._._._._._._._._._._._._._._._._._._._._._._._._._._._._._._._._._._._._._._._._._._._._._._._._._._._._._._._._._.",
"_._._._._._._._._._._._._._._._._._._._._._._._._._._._._._._._._._._._._._._._._._._._._._._._._._._._._._._._._._._._._._._._.",
"_._._._._._._._._._._._._._._._._._._._._._._._._._._._._._._._._._._._._._._._._._._._._._._._._._._._._._._._._._._._._._._._.",
"_._._._._._._._._._._._._._._._._._._._._._._._._._._._._._._._._._._._._._._._._._._._._._._._._._._._._._._._._._._._._._._._.",
"_._._._._._._._._._._._._._._._._._._._._._._._._._._._._._._._._._._._._._._._._._._._._._._._._._._._._._._._._._._._._._._._.",
"_._._._._._._._._._._._._._._._._._._._._._._._._._._._._._._._._._._._._._._._._._._._._._._._._._._._._._._._._._._._._._._._.",
"_._._._._._._._._._._._._._._._._._._._._._._._._._._._._._._._._._._._._._._._._._._._._._._._._._._._._._._._._._._._._._._._.",
"_._._._._._._._._._._._._._._._._._._._._._._._._._._._._._.& & _._._._._._._._._._._._._._._._._._._._._._._._._._._._._._._._.",
"_._._._._._._._._._._._._._._._._._._._._._._._._._._._._._.& & _._._._._._._._._._._._._._._._._._._._._._._._._._._._._._._._.",
"_._._._._._._._._._._._._._._._._._._._._._.& & _._._._._._.& & _._.& & _._._._._._._._._._._._._._._._._._._._._._._._._._._._.",
"_._._._._._._._._._._._._._._._._._._._._._.& & _._._._._._.& & _._.& & & _._._._._._._._._._._._._._._._._._._._._._._._._._._.",
"_._._._._._._._._._._._._._._._._._._._._._.& & _._.& & _._.& & _._.& & & & _._._._._._._._._._._._._._._._._._._._._._._._._._.",
"_._._._._._._._._._._._._._._._._._._._._._.% % % % % % % o % % @ % % & & & _._._._._._._._._._._._._._._._._._._._._._._._._._.",
"_._._._._._._._._._._._._._._._._._._._._._.* * * ; ; * * * * * * * ; * & & _._._._._._._._._._._._._._._._._._._._._._._._._._.",
"_._._._._._._._._._._._._._._._._._._._._.< 4 x / ^ ^ / x 5 5 x / ^ } g > % _._._._._._._._._._._._._._._._._._._._._._._._._._.",
"_._._._._._._._._._._._._._._._._._._._.+ t q.k.v.=.=.v.k.l.l.k.v.=.>...7 % _._._._._._._._.& & _._._._._._._._._._._._._._._._.",
"_._._._._._._._._._._._._._._._._._._._.+ D J.U.n.=.&.b.U.Q.Q.U.n.<.<.X.7 % _._._._._._.& & & & _._._._._._._._._._._._._._._._.",
"_._._._._._._._._._._._._._._._._._._._.. G T./.N.&.&.M.~.).(.~.M.&.=.X.7 % _._._._._._.& & & & _._._._._._._._._._._._._._._._.",
"_._._._._._._._._._._._._._._._.& & _._.. G T.^.M.&.&.m.!.(.(.!.m.=.=.X.7 % _._._._.& & & & _._._._._._._._.& & _._._._._._._._.",
"_._._._._._._._._._._._._._._.& & & _._.. F Y.^.N.&.&.m.!.(.(.!.m.=.=.X.7 % % _._.& & & & & & _._._._._._.& & & _._._._._._._._.",
"_._._._._._._._._._._._._._.& & & & _._.. G Y.^.N.&.&.m.!.(.(.!.m.=.<.X.q % % & & & & & & & & & _._._._.& & & & _._._._._._._._.",
"_._._._._._._._._._._._._._.& & & % o . . F T.~.M.&.&.m.!.(.(.!.m.=.=.X.7 % % % & & & % o & & & & & & & & & & & _._._._._._._._.",
"_._._._._._._._._._._._._._.& & * ; , # . G R.^.N.&.&.m.!.(.(.~.m.=.1.X.7 & * * & & * , ; * & & & & & & & & & & _._._._._._._._.",
"_._._._._._._._._._._._._.& % ; p b b u $ G R./.N.&.&.m.^.).).^.M.=.=.X.7 , k k , * p b b k , & % % & & & & & _._._._._._._._._.",
"_._._._._._._._._._._._.& & , u q.d.d.' < Z G.I.b.=.=.b.P.E.R.P.b.=.1.X.9 < n 7.i e w.d.a.6.8 & , , * & & & _._._._._._._._._._.",
"_._._._._._._._._._.& % % , l 0.{ ;.;.[ 6 = N U #.1.<.@.K S C K @.<.3.X.7 < n t.] o.%.-.-.[ 6 , l l < & _._._._._._._._._._._._.",
"_._._._._._._._._._.& & & 8 w.h.:.>.>.+.z < . O j ^ ..h O     O h _ } ) i k w.s.;.>.>.>.>.O.~ f q.6.8 o _._._._._._._._._._._._.",
"_._._._._._._._._._.& % % 7 X.:.=.:.>.$.y.b < & ; : : ; * & & * O : : 0 v t.$.;.;.>.:.>.>.&.#.{ i.n 8 % _._._._._._._._._._._._.",
"_._._._._._._._._._.& & % 7 X.3.:.:.>.;.x.y.c u y y y y u u u u y y r z y.x.;.>.>.;.z.s.s.k.z.] v y * & & _._._._._._._._._._._.",
"_._._._._._._._._._.& & % 7 X.3.1.:.:.:.>.%.p.0.0.0.0.0.0.q.r.r.0.0.0.p.$.>.:.>.:.$.a.r.r.t.r.5.0 * & & & & & & _._._._._._._._.",
"_._._._._._._._._._._.% % q X.1.3.3.3.,.>.:.x.x.z.z.x.x.z.$.x.x.x.x.x.x.;.>.>.:.>.;.x.x.h.s.t.7.n u , % & & & _._._._._._._._._.",
"_._._._._._._._._._._._.% 6 ^ #.o.o.+.#.*.*.#.#.*.*.#.#.*.*.#.#.*.*.#.#.*.;.#.#.*.*.#.o.#.+.t.0.7.c < % & & _._._._._._._._._._.",
"_._._._._._._._._._._._.& * 6 w w q 7 f O.o.f f O.O.f f o.o.f f O.O.f f O.O.g g O.#.h q q z q.7.u < * # _._._._._._._._._._._._.",
"_._._._._._._._._._._._.& & % % . 1 C R  .| I I |  .Y Y | | I I | | Y Y  .) > > ! | O o % , k k , % % & _._._._._._._._._._._._.",
"_._._._._._._._._._._._._._.& & . D J.L.P P J.J.P P J.J.P P J.J.P P J.L.T O & * : : & o & & , , & & _._._._._._._._._._._._._._.",
"_._._._._._._._._._._._._._._.. & B B.B.3 F W.W.F 3 B.B.3 F W.W.F 3 B.B.N o & & o o & & & & % % & _._._._._._._._._._._._._._._.",
"_._._._._._._._._._._._._._._._.& & 1 = & F Y.Y.F X = = & F Y.Y.H & = 1 & & & & & & & & & & _._._._._._.& & _._._._._._._._._._.",
"_._._._._._._._._._._._._._._._.& X .     2 W W 3 X . . X 3 Q W 2     X X & & & & & & & & & _._._.& & & & & _._._._._._._._._._.",
"_._._._._._._._._._._._._._._._.& & & = 2 2 = & & & X & & & & = 2 2 = & & & & & & & & & & & _._.& & & & & & _._._._._._._._._._.",
"_._._._._._._._._._._._._._._.& . . . B C.C.N . . . & & .     N C.C.B .   X X & & & & & & & & & & & & & _._._._._._._._._._._._.",
"_._._._._._._._._._._._._._.& = B N - H E.E.H - N B = = B N = H E.E.H = N B = & & & & & & & & & & & & & _._._._._._._._._._._._.",
"_._._._._._._._._._._._.& & . D F.F.Z F R.T.F V F.F.B Z F.F.B F E.E.F B F.H.D . + & % # & & & & & & & & & & & & _._._._._._._._.",
"_._._._._._._._._._._._.& % . B A.S.J J Z.Z.K U S.S.U U S.S.U U Z.Z.L L S.A.E < # * < 8 * % & & & & & & & & & & _._._._._._._._.",
"_._._._._._._._._._._._.& & & = 2 a 5.m a s ....s s ....s s ....s s ....s a m b < 8 n v < & & & & & & & & & _._._._._._._._._._.",
"_._._._._._._._._._._._.o , 0 y y z y.p.~ ! #.#.! ! #.#.! ! #.#.! ! #.#.! ~ ] p.( ( { { ( d ; # r r ; & & _._._._._._._._._._._.",
"_._._._._._._._._._._._.% < 4.r.0.u.x.>.*.*.*.;.:.*.:.:.*.*.;.*.*.:.:.:.*.*.*.*.;.;.;.;.-...7 r 4.m 8 % _._._._._._._._._._._._.",
"_._._._._._._._._._._._.% 9 _ x.z.z.*.,.,.,.,.>.>.>.:.:.>.:.:.>.=.<.:.:.:.>.>.;.s.f.a.f.s.p.v n 0.6.8 % _._._._._._._._._._._._.",
"_._._._._._._._._._._._.% 7 X.=.,.>.>.;.>.;.>.*.:.:.:.:.;.:.:.;.;.;.*.:.:.:.:.;.a.t.0.r.0.0.0.8.7.l < % _._._._._._._._._._._._.",
"_._._._._._._._._._._._.% 7 X.>.>.>.;.>.>.>.>.>.:.:.;.>.>.>.>.;.f.s.$.>.>.:.>.;.;.s.t.0.e.r.g.6.u , * % _._._._._._._._._._._._.",
"_._._._._._._._._._._._.% 7 ..2.>.>.>.*.-.x.z.%.;.:.=.:.$.$.$.s.r.t.s.$.$.$.$.$.$.s.i.0.0.r.8.6.u < & & _._._._._._._._._._._._.",
"_._._._._._._._._._._._.% 7 X.<.>.>.*.$.a.i.t.a.$.>.>.$.a.t.i.r.r.0.t.t.t.t.t.t.t.t.r.0.r.0.0.0.9.c < % & & & & _._._._._._._._.",
"_._._._._._._._._._._.% o 6 _ x.x.x.z.s.t.e.e.t.s.x.x.s.r.0.e.0.0.r.8.e.0.8.e.8.e.e.r.r.g.r.g.0.m p , & & & & _._._._._._._._._.",
"_._._._._._._._._._.& & & 8 4.r.0.0.0.0.0.9.0.0.0.0.0.0.0.r.0.0.0.0.0.0.0.0.0.0.0.9.0.0.8.0.8.n 0 & & & & & _._._._._._._._._._.",
"_._._._._._._._._._._._._.< y y u u u u u p u u u u y z 9.g.g.e.r.0.0.e.g.7.l u u p u p u p p r * % & & & _._._._._._._._._._._.",
"_._._._._._._._._._._._._._.& & * & & & & & & & & & & 8 n 9.0.0.0.e.0.0.9.n 8 & & & & & & & & & & & & & _._._._._._._._._._._._.",
"_._._._._._._._._._._._._._._._._._._._._._._._._._._._.8 k 6.0.e.r.r.6.p 8 _._._._._._._._._._._._._._._._._._._._._._._._._._.",
"_._._._._._._._._._._._._._._._._._._._._._._._._._._._.% < n g.r.e.r.4.< % _._._._._._._._._._._._._._._._._._._._._._._._._._."
};
