/* XPM */
static char *result[] = {
/* columns rows colors chars-per-pixel */
"64 64 177 2 ",
"   c #131919",
".  c #1C1C1C",
"X  c #201D1E",
"o  c #1B221F",
"O  c #37231F",
"+  c #1A1F21",
"@  c #171F21",
"#  c #281F23",
"$  c #361F27",
"%  c #1D2121",
"&  c #222222",
"*  c #2B2325",
"=  c #2B2B2B",
"-  c #2A272A",
";  c #312425",
":  c #392725",
">  c #3C2825",
",  c #342329",
"<  c #3C232B",
"1  c #2B3030",
"2  c #363635",
"3  c #3B3D3C",
"4  c #581F33",
"5  c #681E37",
"6  c #452A26",
"7  c #4D2C27",
"8  c #42242D",
"9  c #4A2A29",
"0  c #4D272E",
"q  c #512D26",
"w  c #532D28",
"e  c #5F2D2E",
"r  c #4D2432",
"t  c #422B33",
"y  c #542336",
"u  c #5A2536",
"i  c #5D2B30",
"p  c #5E2538",
"a  c #51363E",
"s  c #5E3E39",
"d  c #613228",
"f  c #713227",
"g  c #74352B",
"h  c #7A362B",
"j  c #7D392B",
"k  c #632539",
"l  c #6C263D",
"z  c #6A2935",
"x  c #722635",
"c  c #71263E",
"v  c #772B3B",
"b  c #762641",
"n  c #7C2742",
"m  c #7E2B43",
"M  c #3F4443",
"N  c #454443",
"B  c #484745",
"V  c #474847",
"C  c #4B4D4B",
"Z  c #484B48",
"A  c #504849",
"S  c #4B504F",
"D  c #50504E",
"F  c #565654",
"G  c #565856",
"H  c #595956",
"J  c #63454E",
"K  c #724E47",
"L  c #734F48",
"P  c #63514D",
"I  c #6B554F",
"U  c #745049",
"Y  c #6E5852",
"T  c #685551",
"R  c #715953",
"E  c #674952",
"W  c #706E6A",
"Q  c #72706C",
"!  c #8A362A",
"~  c #85362D",
"^  c #913D2F",
"/  c #863531",
"(  c #8B3932",
")  c #853830",
"_  c #9D383A",
"`  c #943738",
"'  c #892B3E",
"]  c #AE3B3D",
"[  c #A63B39",
"{  c #B23B3F",
"}  c #9E4130",
"|  c #96483B",
" . c #994A3D",
".. c #A64536",
"X. c #AD4333",
"o. c #BD4734",
"O. c #BE4834",
"+. c #B8473A",
"@. c #BC503E",
"#. c #C44834",
"$. c #CB453D",
"%. c #CA473A",
"&. c #D94731",
"*. c #D44D37",
"=. c #DC4C35",
"-. c #D3473E",
";. c #D44A3A",
":. c #DB4E38",
">. c #DE5037",
",. c #DF5038",
"<. c #E14E36",
"1. c #E24F38",
"2. c #E05137",
"3. c #E15038",
"4. c #822745",
"5. c #842A44",
"6. c #8B2946",
"7. c #8F2849",
"8. c #9C274F",
"9. c #94294A",
"0. c #9D294D",
"q. c #942C46",
"w. c #963042",
"e. c #9F2751",
"r. c #A32B4D",
"t. c #A92F4B",
"y. c #A53343",
"u. c #AB3345",
"i. c #AA314A",
"p. c #AB3445",
"a. c #B43646",
"s. c #BC3B44",
"d. c #B3324C",
"f. c #B93746",
"g. c #A22950",
"h. c #C23D43",
"j. c #8A4057",
"k. c #BA4B5D",
"l. c #AD4A69",
"z. c #C64042",
"x. c #C94042",
"c. c #D04440",
"v. c #D14D44",
"b. c #DC6C5A",
"n. c #E26C5C",
"m. c #E27764",
"M. c #E57966",
"N. c #E77C68",
"B. c #8C8985",
"V. c #978E8D",
"C. c #94918C",
"Z. c #9D918B",
"A. c #9B9692",
"S. c #A39790",
"D. c #B49A9D",
"F. c #A8A59F",
"G. c #A2A49E",
"H. c #ABA8A2",
"J. c #B6ADA6",
"K. c #B1AEA8",
"L. c #B9B0A9",
"P. c #D2ACA1",
"I. c #D6B0A4",
"U. c #E5A5A2",
"Y. c #C6C3BC",
"T. c #C8C6BF",
"R. c #CDCBC4",
"E. c #D1CDC5",
"W. c #D5D1C9",
"Q. c #E6C4C8",
"!. c #F5CEC1",
"~. c #F7D3C5",
"^. c #FAD4C6",
"/. c #FED9CB",
"(. c #FEFEF4",
"). c #FFFFFA",
"_. c None",
/* pixels */
"_._._._._._._._._._._._._._._._._._._._._._._._._._._._._._._._._._._._._._._._._._._._._._._._._._._._._._._._._._._._._._._._.",
"_._._._._._._._._._._._._._._._._._._._._._._._._._._._._._._._._._._._._._._._._._._._._._._._._._._._._._._._._._._._._._._._.",
"_._._._._._._._._._._._._._._._._._._._._._._._._._._._._._._._._._._._._._._._._._._._._._._._._._._._._._._._._._._._._._._._.",
"_._._._._._._._._._._._._._._._._._._._._._._._._._._._._._._._._._._._._._._._._._._._._._._._._._._._._._._._._._._._._._._._.",
"_._._._._._._._._._._._._._._._._._._._._._._._._._._._._._._._._._._._._._._._._._._._._._._._._._._._._._._._._._._._._._._._.",
"_._._._._._._._._._._._._._._._._._._._._._._._._._._._._._._._._._._._._._._._._._._._._._._._._._._._._._._._._._._._._._._._.",
"_._._._._._._._._._._._._._._._._._._._._._._._._._._._._._._._._._._._._._._._._._._._._._._._._._._._._._._._._._._._._._._._.",
"_._._._._._._._._._._._._._._._._._._._._._._._._._._._._._._._._._._._._._._._._._._._._._._._._._._._._._._._._._._._._._._._.",
"_._._._._._._._._._._._._._._._._._._._._._._._._._._._._._._._._._._._._._._._._._._._._._._._._._._._._._._._._._._._._._._._.",
"_._._._._._._._._._._._._._._._._._._._._._._._._._._._._._._._._._._._._._._._._._._._._._._._._._._._._._._._._._._._._._._._.",
"_._._._._._._._._._._._._._._._._._._._._._._._._._._._._._._._._._._._._._._._._._._._._._._._._._._._._._._._._._._._._._._._.",
"_._._._._._._._._._._._._._._._._._._._._._._._._._._._._._._._._._._._._._._._._._._._._._._._._._._._._._._._._._._._._._._._.",
"_._._._._._._._._._._._._._._._._._._._._._._._._._._._._._._._._._._._._._._._._._._._._._._._._._._._._._._._._._._._._._._._.",
"_._._._._._._._._._._._._._._._._._._._._._._._._._._._._._._._._._._._._._._._._._._._._._._._._._._._._._._._._._._._._._._._.",
"_._._._._._._._._._._._._._._._._._._._._._._._._._._._._._._._.& & _._._._._._._._._._._._._._._._._._._._._._._._._._._._._._.",
"_._._._._._._._._._._._._._._._._._._._._._._._._._._._._._._._.& & _._._._._._._._._._._._._._._._._._._._._._._._._._._._._._.",
"_._._._._._._._._._._._._._._._._._._._._._._._._._._._.& & _._.& & _._._._._._.& & _._._._._._._._._._._._._._._._._._._._._._.",
"_._._._._._._._._._._._._._._._._._._._._._._._._._._.& & & _._.& & _._._._._._.& & _._._._._._._._._._._._._._._._._._._._._._.",
"_._._._._._._._._._._._._._._._._._._._._._._._._._.& & & & _._.& & _._.& & _._.& & _._._._._._._._._._._._._._._._._._._._._._.",
"_._._._._._._._._._._._._._._._._._._._._._._._._._.& & & % @ % % % o % % % @ o % % _._._._._._._._._._._._._._._._._._._._._._.",
"_._._._._._._._._._._._._._._._._._._._._._._._._._.& & * ; ; ; * * * * ; ; * ; * * _._._._._._._._._._._._._._._._._._._._._._.",
"_._._._._._._._._._._._._._._._._._._._._._._._._._.% > g ^ ^ / x 5 5 x / ^ ^ ) x p < _._._._._._._._._._._._._._._._._._._._._.",
"_._._._._._._._._._._._._._._._.& & _._._._._._._._.% 7 X.<.=.v.k.l.l.k.v.=.3.v.k.j.t . _._._._._._._._._._._._._._._._._._._._.",
"_._._._._._._._._._._._._._._._.& & & & _._._._._._.% 7 X.<.<.n.U.Q.Q.U.n.=.=.n.U.D.A . _._._._._._._._._._._._._._._._._._._._.",
"_._._._._._._._._._._._._._._._.& & & & _._._._._._.% 7 X.=.=.m.~.(.).~.m.&.&.M./.R.F . _._._._._._._._._._._._._._._._._._._._.",
"_._._._._._._._.& & _._._._._._._._.& & & & _._._._.% 7 X.=.=.m.!.(.(.!.m.&.&.M.!.R.F . _._.& & _._._._._._._._._._._._._._._._.",
"_._._._._._._._.& & & _._._._._._.& & & & & & _._.% % 7 X.<.=.m.!.(.(.!.m.&.&.M.~.T.F . _._.& & & _._._._._._._._._._._._._._._.",
"_._._._._._._._.& & & & _._._._.& & & & & & & & & % % 7 X.=.=.m.!.(.(.!.m.&.=.M.~.T.F . _._.& & & & _._._._._._._._._._._._._._.",
"_._._._._._._._.& & & & & & & & & & & o % & & & & % % 7 X.:.=.m.!.(.(.!.m.&.&.N.~.T.F . . % % & & & _._._._._._._._._._._._._._.",
"_._._._._._._._.& & & & & & & & & & - ; ; * & & * * & 7 X.<.=.m.!.(.(.~.m.&.&.N.~.R.H X & ; ; * & & _._._._._._._._._._._._._._.",
"_._._._._._._._._.& & & & & % % & , k b b p * , p p , 7 X.:.=.m.~.).).~.N.&.&.N./.R.F $ u b b p , % & _._._._._._._._._._._._._.",
"_._._._._._._._._._.& & & * , , & 8 ' d.d.w.d p 7.4.< 9 X.<.<.b.P.R.R.P.b.=.=.b.I.G.Z < ' d.i.w.u , & & _._._._._._._._._._._._.",
"_._._._._._._._._._._._.& < c l ; 6 [ -.-.$.+...i.n < 9 X.1.2.@.L S C U @.1.1.@.K N - 9 [ ;.-.k.` x $ # & & _._._._._._._._._._.",
"_._._._._._._._._._._._.% 8 5.9.g j O.>.,.<.1.;.h.w.p i ~ } } h :     O g } } h : X , z o.>.,.-.h.' 8 X % & _._._._._._._._._._.",
"_._._._._._._._._._._._.% < m i.k.#.*.>.:.:.:.:.:.$.y.n 0 : : ; * X & * ; > > ; & < b u.$.>.:.:.:.[ 7 % & & _._._._._._._._._._.",
"_._._._._._._._._._._.& % , r v ] z.s.s.s.z.-.>.>.-.x.y.z y y y y p p u y y y y y v y.h.;.:.:.>.2.X.7 & % & _._._._._._._._._._.",
"_._._._._._._._.& & & & & & * 0 ' g.t.r.t.u.c.>.:.:.:.$.u.0.0.0.0.0.0.0.0.r.r.0.r.u.$.:.:.:.:.=.<.X.q % % & _._._._._._._._._._.",
"_._._._._._._._._.& & & & ; p n 7.t.s.x.x.x.;.>.:.,.:.:.-.x.z.z.$.x.z.$.$.h.h.$.h.$.:.=.,.3.3.2.1.X.q % % _._._._._._._._._._._.",
"_._._._._._._._._._.& & % < c 9.8.u.{ #.O.#.*.*.#.#.*.*.#.#.*.*.#.#.*.*.#.#.*.*.#.#.*.*.#.o.o.#.#.} 6 % _._._._._._._._._._._._.",
"_._._._._._._._._._._._.& * < p 7.' z q q h O.O.g g o.o.f f o.o.f f o.o.f f o.o.f f o.#.f 6 q w w 9 * % _._._._._._._._._._._._.",
"_._._._._._._._._._._._.& & % , z 5 < % @ > ( ) > > ~  .Y Y  .| I I | | Y Y  .| I I |  .R S 1 o % % & & _._._._._._._._._._._._.",
"_._._._._._._._._._._._._._.& & , , & % % * : : * & O T L.J.P P J.J.P P J.J.P P J.J.P P J.J.D o % & _._._._._._._._._._._._._._.",
"_._._._._._._._._._._._._._._.& o % & & & & o o % % o N B.B.3 G W.W.F 3 B.B.3 F W.W.F 3 B.B.N o % _._._._._._._._._._._._._._._.",
"_._._._._._._._._._.& & _._._._._._.& & & & & & & & & & 1 = & F Y.Y.F & = = X F Y.Y.G X = 1 * & _._._._._._._._._._._._._._._._.",
"_._._._._._._._._._.& & & & & _._._.& & & & & & & & & & X   . 2 W W 3 X . . X 3 Q W 2   . . & & _._._._._._._._._._._._._._._._.",
"_._._._._._._._._._.& & & & & & _._.& & & & & & & & & X & & 2 2 = & & & & X & & & = 2 2 * X & X _._._._._._._._._._._._._._._._.",
"_._._._._._._._._._._._.& & & & & & & & & & & & & # . . . Z C.C.N     X X X o . . N C.C.B . . . & _._._._._._._._._._._._._._._.",
"_._._._._._._._._._._._.& & & & & & & & & & & & & = N N = H E.E.H - N B = 1 N N = F E.E.H = N N = & _._._._._._._._._._._._._._.",
"_._._._._._._._.& & & & & & & & & & & % & % & + . D H.F.V F R.R.F B H.H.Z Z F.F.B F R.R.F Z H.H.D . o & _._._._._._._._._._._._.",
"_._._._._._._._.& & & & & & & % & & % * 8 8 * & < E S.S.U U Z.Z.K L S.S.L U S.S.K K Z.V.J J S.C.B . & & _._._._._._._._._._._._.",
"_._._._._._._._._._.& & & & & & & & & 8 n v < < b m a s ....s s ....s s ....s s ....s a m 5.a 2 - & & & _._._._._._._._._._._._.",
"_._._._._._._._._._._.& & * y r * ; d ( a.] ( ( ] ] / ! #.#.! ! #.#.! ! #.#.! ! #.#.! / ] y.z y u r * & _._._._._._._._._._._._.",
"_._._._._._._._._._._._.% < n m 8 w [ *.;.;.;.%.;.;.:.*.:.*.*.*.:.:.*.*.*.:.*.*.:.:.*.*.*.$.p.0.r.v < % _._._._._._._._._._._._.",
"_._._._._._._._._._._._.% 0 5.0.n v p.s.f.f.f.h.;.=.,.=.:.>.,.,.:.:.:.:.:.:.>.,.:.:.,.=.>.;.x.z.h.[ 0 % _._._._._._._._._._._._.",
"_._._._._._._._._._._._.& < c 9.0.e.0.0.0.0.t.a.-.:.:.:.:.:.-.*.:.:.:.:.:.:.:.*.:.:.:.:.:.:.:.>.<.X.7 % _._._._._._._._._._._._.",
"_._._._._._._._._._._._.& & , u 6.r.e.e.0.u.s.;.:.:.:.>.>.%.f.f.%.,.=.:.:.:.:.:.:.:.>.:.:.:.:.>.<.X.7 % _._._._._._._._._._._._.",
"_._._._._._._._._._._._.& * , u 6.g.0.0.0.t.s.$.x.$.$.$.$.s.t.t.h.x.$.$.;.=.,.:.%.x.$.%.:.>.>.>.,.X.7 % _._._._._._._._._._._._.",
"_._._._._._._._.& & & & % < c 9.0.g.e.0.r.r.t.t.t.t.t.t.t.t.0.r.t.i.t.a.$.>.>.$.a.r.t.a.$.>.>.>.,.X.9 % _._._._._._._._._._._._.",
"_._._._._._._._._.& & & & , p n 9.g.r.r.g.0.g.g.0.e.e.0.e.0.g.0.0.0.e.t.s.z.z.s.t.e.e.t.s.z.z.x.x._ 9 % % _._._._._._._._._._._.",
"_._._._._._._._._._.& & & & * 8 m 0.0.0.0.8.0.9.0.0.0.e.0.0.0.0.0.e.0.0.0.0.0.0.0.0.8.0.0.0.0.0.0.5.8 % & & _._._._._._._._._._.",
"_._._._._._._._._._._.& & % % * r p p p u p u u y l 7.r.0.0.g.g.0.g.g.9.l u y u p u u p u u u u u y < _._._._._._._._._._._._._.",
"_._._._._._._._._._._._.& & & & & & & & & & & & & 8 n 9.0.e.0.0.g.0.9.v < & & & & & & & & & & & & & _._._._._._._._._._._._._._.",
"_._._._._._._._._._._._._._._._._._._._._._._._._._.8 p 6.g.r.0.g.6.k 8 _._._._._._._._._._._._._._._._._._._._._._._._._._._._.",
"_._._._._._._._._._._._._._._._._._._._._._._._._._.% < n g.g.g.g.m < % _._._._._._._._._._._._._._._._._._._._._._._._._._._._."
};
