/* XPM */
static char *result[] = {
/* columns rows colors chars-per-pixel */
"64 64 105 2 ",
"   c #29122C",
".  c #2E1730",
"X  c #341D34",
"o  c #372037",
"O  c #382137",
"+  c #372038",
"@  c #3E263C",
"#  c #40263B",
"$  c #42293E",
"%  c #452C41",
"&  c #482F43",
"*  c #4B3245",
"=  c #4F3648",
"-  c #513445",
";  c #513749",
":  c #543B4D",
">  c #5B3E4D",
",  c #5A3F50",
"<  c #5E404E",
"1  c #5D4352",
"2  c #61414E",
"3  c #624655",
"4  c #644857",
"5  c #654A59",
"6  c #6A4E5B",
"7  c #6D515E",
"8  c #72515B",
"9  c #6F5561",
"0  c #725561",
"q  c #755A65",
"w  c #795B66",
"e  c #775E69",
"r  c #7B5F69",
"t  c #7C626C",
"y  c #836067",
"u  c #83646B",
"i  c #896469",
"p  c #846770",
"a  c #836870",
"s  c #8B6D74",
"d  c #8F7077",
"f  c #8C737A",
"g  c #907177",
"h  c #9A7476",
"j  c #94757A",
"k  c #9A7679",
"l  c #97787D",
"z  c #997A7E",
"x  c #A57D7C",
"c  c #A8807E",
"v  c #9D7D81",
"b  c #9E8084",
"n  c #9F8689",
"m  c #A38385",
"M  c #AC8482",
"N  c #AF8986",
"B  c #A28689",
"V  c #A88789",
"C  c #A68C8D",
"Z  c #AB898A",
"A  c #B08987",
"S  c #B38D8A",
"D  c #B6908D",
"F  c #B9928F",
"G  c #A78E90",
"H  c #A88F90",
"J  c #AB9192",
"K  c #B49494",
"L  c #BA9693",
"P  c #BC9996",
"I  c #B59B9A",
"U  c #BD9B99",
"Y  c #C19D97",
"T  c #C29E99",
"R  c #C5A29D",
"E  c #C8A39E",
"W  c #C5A5A1",
"Q  c #CAA6A1",
"!  c #C4A9A5",
"~  c #CDAAA4",
"^  c #C5ACA8",
"/  c #CDAEA9",
"(  c #D0ADA7",
")  c #D1AEA8",
"_  c #CEB2AD",
"`  c #D4B3AC",
"'  c #D9B4AD",
"]  c #D4B7B1",
"[  c #DAB7B0",
"{  c #D4B9B3",
"}  c #DBBBB3",
"|  c #E0BFB6",
" . c #DEC0B7",
".. c #DDC2B9",
"X. c #E2C0B7",
"o. c #E3C5BB",
"O. c #E4C8BE",
"+. c #E8C9BF",
"@. c #E7CBC1",
"#. c #EACEC3",
"$. c #ECD1C5",
"%. c #EFD4C8",
"&. c #F1D6CA",
"*. c #F5DACD",
"=. c None",
/* pixels */
"=.=.=.=.=.=.=.=.=.=.=.=.=.=.=.=.=.=.=.=.=.=.=.=.=.=.=.=.=.=.=.=.=.=.=.=.=.=.=.=.=.=.=.=.=.=.=.=.=.=.=.=.=.=.=.=.=.=.=.=.=.=.=.=.",
"=.=.=.=.=.=.=.=.=.=.=.=.=.=.=.=.=.=.=.=.=.=.=.=.=.=.=.=.=.=.=.=.=.=.=.=.=.=.=.=.=.=.=.=.=.=.=.=.=.=.=.=.=.=.=.=.=.=.=.=.=.=.=.=.",
"=.=.=.=.=.=.=.=.=.=.=.=.=.=.=.=.=.=.=.=.=.=.=.=.=.=.=.=.=.=.=.=.=.=.=.=.=.=.=.=.=.=.=.=.=.=.=.=.=.=.=.=.=.=.=.=.=.=.=.=.=.=.=.=.",
"=.=.=.=.=.=.=.=.=.=.=.=.=.=.=.=.=.=.=.=.=.=.=.=.=.=.=.=.=.=.=.=.=.=.=.=.=.=.=.=.=.=.=.=.=.=.=.=.=.=.=.=.=.=.=.=.=.=.=.=.=.=.=.=.",
"=.=.=.=.=.=.=.=.=.=.=.=.=.=.=.=.=.=.=.=.=.X X X X X X X X X X X X X X X X X X X X X X =.=.=.=.=.=.=.=.=.=.=.=.=.=.=.=.=.=.=.=.=.",
"=.=.=.=.=.=.=.=.=.=.=.=.=.=.=.=.=.=.=.=.@ @ @ @ @ @ @ @ @ @ @ @ @ @ @ @ @ @ @ @ @ @ % @ =.=.=.=.=.=.=.=.=.=.=.=.=.=.=.=.=.=.=.=.",
"=.=.=.=.=.=.=.=.=.=.=.=.=.=.=.=.=.=.=.=.= ; ; : : : : : : : : : : : : : : : : ; ; ; = = =.=.=.=.=.=.=.=.=.=.=.=.=.=.=.=.=.=.=.=.",
"=.=.=.=.=.=.=.=.=.=.=.=.=.=.=.=.=.=.=.: 4 7 9 0 e r r t t t t t t t t t t t r e 0 0 6 4 , =.=.=.=.=.=.=.=.=.=.=.=.=.=.=.=.=.=.=.",
"=.=.=.=.=.=.=.=.=.=.=.=.=.=.=.=.=.X * 4 e s v v n C G G G G G G G G G G H H G n v v p e 3 % X =.=.=.=.=.=.=.=.=.=.=.=.=.=.=.=.=.",
"=.=.=.=.=.=.=.=.=.=.=.=.=.=.=.=.X @ ; 7 d V U W ^ { { { { { { { { { { { { { ] / ! U Z s 7 ; % X =.=.=.=.=.=.=.=.=.=.=.=.=.=.=.=.",
"=.=.=.=.=.=.=.=.=.=.=.=.=.=.=.=.& = 4 r v U ` | O.@.$.$.$.#.$.$.@.$.#.#.#.#.@.@.} ] T v r 3 ; & =.=.=.=.=.=.=.=.=.=.=.=.=.=.=.=.",
"=.=.=.=.=.=.=.=.=.=.=.=.=.=.=.: 3 7 r v K ~ } @.#.%.&.&.&.%.&.&.%.*.%.*.&.&.%.$.@.} ~ K v r 7 3 , =.=.=.=.=.=.=.=.=.=.=.=.=.=.=.",
"=.=.=.=.=.=.=.=.=.=.=.=.=.@ = 5 w d v K W } @.#.%.%.%.&.$.%.&.&.%.&.&.&.&.%.$.$.#.@.} Q K v d w 4 = @ =.=.=.=.=.=.=.=.=.=.=.=.=.",
"=.=.=.=.=.=.=.=.=.=.=.=.X # ; 6 s V T ~ } o.@.#.#.$.%.$.$.$.$.$.$.$.$.$.$.$.$.$.#.@.o.} / U V s 7 = @ X =.=.=.=.=.=.=.=.=.=.=.=.",
"=.=.=.=.=.=.=.=.=.=.=.=.X @ ; 0 j K ( } o.@.$.%.%.$.#.$.$.$.$.$.$.$.$.$.$.$.$.$.%.#.#.| } ( L d 0 ; @ X =.=.=.=.=.=.=.=.=.=.=.=.",
"=.=.=.=.=.=.=.=.=.=.=.=.X @ ; 7 l P ` X.@.$.&.&.%.%.%.%.$.$.$.$.$.#.$.$.%.%.&.&.&.&.%.@.| ` U v 9 ; @ X =.=.=.=.=.=.=.=.=.=.=.=.",
"=.=.=.=.=.=.=.=.=.=.=.=.X @ ; 8 l P ` | #.$.&.*.&.%.%.%.$.$.$.$.$.$.$.$.%.%.&.*.*.&.#.@.| ) P j 9 ; @ X =.=.=.=.=.=.=.=.=.=.=.=.",
"=.=.=.=.=.=.=.=.=.=.=.=.o @ ; 7 l K ( } o.+.#.$.$.#.$.$.$.$.$.$.$.$.$.$.$.$.$.$.#.#.@.@.| / L d 9 = @ X =.=.=.=.=.=.=.=.=.=.=.=.",
"=.=.=.=.=.=.=.=.=.=.=.=.X @ ; 9 j K ~ ` ] ] { { { { { ..O.@.$.$.$.#.@.O...{ { { { { ] ] ` ~ L v 0 ; @ X =.=.=.=.=.=.=.=.=.=.=.=.",
"=.=.=.=.=.=.=.=.=.=.=.=.X @ ; 0 l L W W U K J H J J I ^ { O.$.%.%.$.O.{ ! I J G H H K U W W K d 0 ; # X =.=.=.=.=.=.=.=.=.=.=.=.",
"=.=.=.=.=.=.=.=.=.=.=.=.X @ ; 0 z K T K b s t t e t f n ^ ..$.&.&.$...! n f e e r t s v K T K v 0 ; @ X =.=.=.=.=.=.=.=.=.=.=.=.",
"=.=.=.=.=.=.=.=.=.=.=.=.X @ ; q z L U B a 5 : * = : 9 f I { $.*.&.$.{ I v 7 : * = : 5 a B P L v 0 ; # X =.=.=.=.=.=.=.=.=.=.=.=.",
"=.=.=.=.=.=.=.=.=.=.=.=.X # ; 0 v K L v e ; @ X X @ : t J { $.*.&.$.{ J t : @ . X @ : q v L K v 0 ; @ X =.=.=.=.=.=.=.=.=.=.=.=.",
"=.=.=.=.=.=.=.=.=.=.=.=.o @ ; 0 v L K v 9 & .     . * e G { $.*.*.$.{ G e * X     X & 9 v P L v q ; @ X =.=.=.=.=.=.=.=.=.=.=.=.",
"=.=.=.=.=.=.=.=.=.=.=.=.X @ ; q v L P v 0 & X     X * e G { #.*.*.$.{ G e * X     X & 0 z P P v q ; $ X =.=.=.=.=.=.=.=.=.=.=.=.",
"=.=.=.=.=.=.=.=.=.=.=.=.+ @ ; q v K K v q ; @ X . @ : t J { $.*.*.$.{ J t : + X X @ ; q v K K v 0 = @ X =.=.=.=.=.=.=.=.=.=.=.=.",
"=.=.=.=.=.=.=.=.=.=.=.=.X @ ; 8 g V Z l e 1 ; * * : 7 f I { $.*.*.$.{ I f 5 : * & ; 3 e l Z V g 9 ; $ X =.=.=.=.=.=.=.=.=.=.=.=.",
"=.=.=.=.=.=.=.=.=.=.=.=.=.@ = 6 u s d s u e 0 0 e t f G ^ ..$.*.&.&...^ G v t e 0 q q u s d s y 6 = # =.=.=.=.=.=.=.=.=.=.=.=.=.",
"=.=.=.=.=.=.=.=.=.=.=.=.=.=.=., 4 6 0 r i j v b C H I ^ } @.$.%.%.$.@.{ ^ I J G m v f p r q 6 4 , =.=.=.=.=.=.=.=.=.=.=.=.=.=.=.",
"=.=.=.=.=.=.=.=.=.=.=.=.=.=.=.=.* ; 3 q g Z U W / ] { ..O.#.$.$.%.#.@.@...{ { ^ W U Z g q 3 ; * =.=.=.=.=.=.=.=.=.=.=.=.=.=.=.=.",
"=.=.=.=.=.=.=.=.=.=.=.=.=.=.=.=.% & 1 w v L ~ ] } } o.o.@.@.@.@.@.@.@.@.@.....{ ] ~ L z q > * $ =.=.=.=.=.=.=.=.=.=.=.=.=.=.=.=.",
"=.=.=.=.=.=.=.=.=.=.=.=.=.=.=.* - > 6 u m T ) ' ` ` ] } } ....O.o.....} { ] _ ] ' ) T M i 6 > * $ =.=.=.=.=.=.=.=.=.=.=.=.=.=.=.",
"=.=.=.=.=.=.=.=.=.=.=.=.=.# $ ; 2 8 i k S R ( E R Y R E ~ ` ' } } [ ' ( T Y Y E ~ ( T S h y 8 2 - # X =.=.=.=.=.=.=.=.=.=.=.=.=.",
"=.=.=.=.=.=.=.=.=.=.=.=.O # - > 8 i h c F R E Y F A A F Y ~ ( ` ) / Q Y L A A F T T T Y M h i 8 2 - $ X =.=.=.=.=.=.=.=.=.=.=.=.",
"=.=.=.=.=.=.=.=.=.=.=.=.O @ * 3 y h c F Y R R L S A A S L Y E E Q T T Y S A N S F Y Y Y D v x i 0 1 > ; =.=.=.=.=.=.=.=.=.=.=.=.",
"=.=.=.=.=.=.=.=.=.=.=.=.X @ - 4 y c S F F F L F L L L L F L F F L F K L F L L L Y L F F F D v x g a r 9 5 =.=.=.=.=.=.=.=.=.=.=.",
"=.=.=.=.=.=.=.=.=.=.=.=.O @ = 6 s N L L F S S Y R E ~ R L S M c c c A L E ~ ~ R L S A S F L P L K J n f 9 ; @ =.=.=.=.=.=.=.=.=.",
"=.=.=.=.=.=.=.=.=.=.=.=.X @ ; 7 g D R P F c c Y ~ }  .( P N c x c c N P ~ } { ~ L N M A F Y E ) ] ] W n t : @ X =.=.=.=.=.=.=.=.",
"=.=.=.=.=.=.=.=.=.=.=.=.X @ ; 0 k L R Y S c N P /  . .) R S M x c c S R `  . ./ Y N M A L E ( } o.o._ C t : @ X =.=.=.=.=.=.=.=.",
"=.=.=.=.=.=.=.=.=.=.=.=.X @ ; 0 z Y E R P S D Y /  . .` ~ Y L L L Y R E `  .} ) T F S F Y ( ` | o.X._ C e ; @ X =.=.=.=.=.=.=.=.",
"=.=.=.=.=.=.=.=.=.=.=.=.X @ ; 0 z U ~ ~ R Y P R ( ' [ ] ` ) ` / ) ` _ ` ' { ` ~ R U P R E ( ` ' } } ! b e ; @ X =.=.=.=.=.=.=.=.",
"=.=.=.=.=.=.=.=.=.=.=.=.X @ ; 9 j L W ~ E E E E Q ( ) [ } ..X.o.o... . .' ` / ~ E E R R E Q ~ ( ) / P v 0 ; @ X =.=.=.=.=.=.=.=.",
"=.=.=.=.=.=.=.=.=.=.=.=.o @ = 6 s V L R E E ~ ~ Q ~ ( ] } @.@.@.+.+.o. .' ) ~ E ~ E E R U P U E Q Q L l 0 ; @ + =.=.=.=.=.=.=.=.",
"=.=.=.=.=.=.=.=.=.=.=.=.O @ * , 7 d b S U E ~ ~ ~ Q ~ ' } o.@.@.+.O. . .' ( E ~ ~ ~ R L Z b b Z U W L z 0 ; @ X =.=.=.=.=.=.=.=.",
"=.=.=.=.=.=.=.=.=.=.=.=.O @ % = 1 6 r j Z Y ~ ~ ~ Q ~ ) [ } } | X. .} ` ) ~ E ( ( E U Z f t t j S T P v 0 ; @ + =.=.=.=.=.=.=.=.",
"=.=.=.=.=.=.=.=.=.=.=.=.@ @ @ # % - 3 t m U ~ ~ ( Q ~ ~ ~ ( ) ) ) ( / / ( E ~ / ( ~ P z w 3 3 t v P K v 0 ; @ X =.=.=.=.=.=.=.=.",
"=.=.=.=.=.=.=.=.=.=.=.=.@ @ @ O + @ ; q z L ~ ( ) ( Q R T P L K F L P U R E ~ ) ` ( U l 8 : = 5 s B B g 0 ; @ X =.=.=.=.=.=.=.=.",
"=.=.=.=.=.=.=.=.=.=.=.=.=.@ @ X X O * 7 j P ( ` ) ~ W P V v j g g l c C L R ~ ` [ ` R v 9 = % < 0 p d u 6 ; @ =.=.=.=.=.=.=.=.=.",
"=.=.=.=.=.=.=.=.=.=.=.=.=.=.=.X X @ * 9 l P ( ' ' ( T S j r 9 6 6 0 r d V T ~ | } } ^ n q : $ & , 6 7 6 1 =.=.=.=.=.=.=.=.=.=.=.",
"=.=.=.=.=.=.=.=.=.=.=.=.=.=.=.=.X @ = 9 j K Q ) ) Q U v r 3 ; & & ; 3 r v P ( | @.@.{ J t : @ @ % - = - =.=.=.=.=.=.=.=.=.=.=.=.",
"=.=.=.=.=.=.=.=.=.=.=.=.=.=.=.=.X @ ; 9 s V K P U P V g 9 = @ X X % ; 0 v P ) | @.@.{ J t : @ X @ @ @ @ =.=.=.=.=.=.=.=.=.=.=.=.",
"=.=.=.=.=.=.=.=.=.=.=.=.=.=.=.=.=.@ = 5 y d l v v j d r 4 & X . . X = 9 v R } @.&.@.{ J t : @ X X X X =.=.=.=.=.=.=.=.=.=.=.=.=.",
"=.=.=.=.=.=.=.=.=.=.=.=.=.=.=.=.=.=.=.1 5 7 9 0 7 7 7 5 , =.=.. . X : q B ! o.%.&.#.{ H t : @ X . =.=.=.=.=.=.=.=.=.=.=.=.=.=.=.",
"=.=.=.=.=.=.=.=.=.=.=.=.=.=.=.=.=.=.=.=.; = ; : ; ; ; = =.=.=.=.X @ : e C ] @.&.*.#.{ H t : @ X =.=.=.=.=.=.=.=.=.=.=.=.=.=.=.=.",
"=.=.=.=.=.=.=.=.=.=.=.=.=.=.=.=.=.=.=.=.@ @ @ @ @ % @ @ =.=.=.=.X @ : t H { $.*.*.$.{ H t : @ X =.=.=.=.=.=.=.=.=.=.=.=.=.=.=.=.",
"=.=.=.=.=.=.=.=.=.=.=.=.=.=.=.=.=.=.=.=.=.X X X X X X =.=.=.=.=.X @ : t H { $.*.*.$.{ H t : @ X =.=.=.=.=.=.=.=.=.=.=.=.=.=.=.=.",
"=.=.=.=.=.=.=.=.=.=.=.=.=.=.=.=.=.=.=.=.=.=.=.=.=.=.=.=.=.=.=.=.X @ : t G { $.*.*.$.{ J t : @ X =.=.=.=.=.=.=.=.=.=.=.=.=.=.=.=.",
"=.=.=.=.=.=.=.=.=.=.=.=.=.=.=.=.=.=.=.=.=.=.=.=.=.=.=.=.=.=.=.=.X @ : t H { $.*.*.#.{ G t : @ X =.=.=.=.=.=.=.=.=.=.=.=.=.=.=.=.",
"=.=.=.=.=.=.=.=.=.=.=.=.=.=.=.=.=.=.=.=.=.=.=.=.=.=.=.=.=.=.=.=.X @ : t G { $.*.*.%.{ H t : @ X =.=.=.=.=.=.=.=.=.=.=.=.=.=.=.=.",
"=.=.=.=.=.=.=.=.=.=.=.=.=.=.=.=.=.=.=.=.=.=.=.=.=.=.=.=.=.=.=.=.=.@ : t J { $.*.*.#.{ H t : @ =.=.=.=.=.=.=.=.=.=.=.=.=.=.=.=.=.",
"=.=.=.=.=.=.=.=.=.=.=.=.=.=.=.=.=.=.=.=.=.=.=.=.=.=.=.=.=.=.=.=.=.=.=.=.=.=.=.=.=.=.=.=.=.=.=.=.=.=.=.=.=.=.=.=.=.=.=.=.=.=.=.=.",
"=.=.=.=.=.=.=.=.=.=.=.=.=.=.=.=.=.=.=.=.=.=.=.=.=.=.=.=.=.=.=.=.=.=.=.=.=.=.=.=.=.=.=.=.=.=.=.=.=.=.=.=.=.=.=.=.=.=.=.=.=.=.=.=.",
"=.=.=.=.=.=.=.=.=.=.=.=.=.=.=.=.=.=.=.=.=.=.=.=.=.=.=.=.=.=.=.=.=.=.=.=.=.=.=.=.=.=.=.=.=.=.=.=.=.=.=.=.=.=.=.=.=.=.=.=.=.=.=.=.",
"=.=.=.=.=.=.=.=.=.=.=.=.=.=.=.=.=.=.=.=.=.=.=.=.=.=.=.=.=.=.=.=.=.=.=.=.=.=.=.=.=.=.=.=.=.=.=.=.=.=.=.=.=.=.=.=.=.=.=.=.=.=.=.=."
};
