/* XPM */
static char *result[] = {
/* columns rows colors chars-per-pixel */
"64 64 109 2 ",
"   c #29122C",
".  c #2F1830",
"X  c #341D34",
"o  c #372037",
"O  c #372038",
"+  c #3D253B",
"@  c #40273D",
"#  c #42293E",
"$  c #452D41",
"%  c #482E42",
"&  c #4B3245",
"*  c #4F3548",
"=  c #503749",
"-  c #543B4C",
";  c #5A3E4E",
":  c #5F414F",
">  c #5D4352",
",  c #60414F",
"<  c #624654",
"1  c #634856",
"2  c #6B4B57",
"3  c #654A59",
"4  c #694D5A",
"5  c #6C515E",
"6  c #74535D",
"7  c #79565E",
"8  c #6F5461",
"9  c #705461",
"0  c #745A65",
"q  c #7C5B63",
"w  c #765D68",
"e  c #7A5E69",
"r  c #7C636D",
"t  c #825F65",
"y  c #846066",
"u  c #84636A",
"i  c #89656A",
"p  c #936D6F",
"a  c #806770",
"s  c #876D75",
"d  c #8D6D74",
"f  c #936D70",
"g  c #8C7077",
"h  c #8C7279",
"j  c #927176",
"k  c #9B7476",
"l  c #95767B",
"z  c #97787D",
"x  c #9A797D",
"c  c #A17777",
"v  c #A17877",
"b  c #A47D7C",
"n  c #A7807E",
"m  c #A9807E",
"M  c #9C7E82",
"N  c #9B8184",
"B  c #9E8588",
"V  c #A28183",
"C  c #AB8482",
"Z  c #AF8885",
"A  c #A18689",
"S  c #A68C8E",
"D  c #AB8A8B",
"F  c #B18987",
"G  c #B38D8A",
"H  c #B6918D",
"J  c #B8928E",
"K  c #A88F90",
"L  c #AB9193",
"P  c #B49594",
"I  c #BA9693",
"U  c #BC9996",
"Y  c #B49A99",
"T  c #BD9B99",
"R  c #BFA4A2",
"E  c #C19B97",
"W  c #C29E99",
"Q  c #C5A19D",
"!  c #C8A39E",
"~  c #C3A6A3",
"^  c #CAA6A1",
"/  c #C4A9A6",
"(  c #CDA9A4",
")  c #C7ADA9",
"_  c #CEAEA9",
"`  c #D1ACA7",
"'  c #D1AEA8",
"]  c #CFB2AC",
"[  c #D4B3AC",
"{  c #D8B5AE",
"}  c #D3B7B0",
"|  c #D8B7B0",
" . c #D5BAB3",
".. c #DBBCB4",
"X. c #E0BEB4",
"o. c #DEC0B7",
"O. c #DEC2B9",
"+. c #E0C0B7",
"@. c #E2C4BB",
"#. c #E4C8BF",
"$. c #E7CBC1",
"%. c #E9CEC3",
"&. c #ECD1C6",
"*. c #EFD4C8",
"=. c #F0D3C7",
"-. c #F1D6CA",
";. c #F5DACD",
":. c #F9DED0",
">. c None",
/* pixels */
">.>.>.>.>.>.>.>.>.>.>.>.>.>.>.>.>.>.>.>.>.>.>.>.>.>.>.>.>.>.>.>.>.>.>.>.>.>.>.>.>.>.>.>.>.>.>.>.>.>.>.>.>.>.>.>.>.>.>.>.>.>.>.>.",
">.>.>.>.>.>.>.>.>.>.>.>.>.>.>.>.>.>.>.>.>.>.>.>.>.>.>.>.>.>.>.>.>.>.>.>.>.>.>.>.>.>.>.>.>.>.>.>.>.>.>.>.>.>.>.>.>.>.>.>.>.>.>.>.",
">.>.>.>.>.>.>.>.>.>.>.>.>.>.>.>.>.>.>.>.>.>.>.>.>.>.>.>.>.>.>.>.>.>.>.>.>.>.>.>.>.>.>.>.>.>.>.>.>.>.>.>.>.>.>.>.>.>.>.>.>.>.>.>.",
">.>.>.>.>.>.>.>.>.>.>.>.>.>.>.>.>.>.>.>.>.>.>.>.>.>.>.>.>.>.>.>.>.>.>.>.>.>.>.>.>.>.>.>.>.>.>.>.>.>.>.>.>.>.>.>.>.>.>.>.>.>.>.>.",
">.>.>.>.>.>.>.>.>.>.>.>.>.>.>.>.>.>.>.>.>.>.>.>.>.>.>.>.>.>.>.>.>.>.>.>.>.>.>.>.>.>.>.>.>.>.>.>.>.>.>.>.>.>.>.>.>.>.>.>.>.>.>.>.",
">.>.>.>.>.>.>.>.>.>.>.>.>.>.>.>.>.>.>.>.>.>.>.>.>.>.>.>.>.>.>.>.>.>.>.>.>.>.>.>.>.>.>.>.>.>.>.>.>.>.>.>.>.>.>.>.>.>.>.>.>.>.>.>.",
">.>.>.>.>.>.>.>.>.>.>.>.>.>.>.>.>.>.>.>.>.>.>.>.>.>.>.>.>.>.>.>.>.>.>.>.>.>.>.>.>.>.>.>.>.>.>.>.>.>.>.>.>.>.>.>.>.>.>.>.>.>.>.>.",
">.>.>.>.>.>.>.>.>.>.>.>.>.>.>.>.>.>.>.>.>.>.>.>.>.>.>.>.>.>.>.>.>.>.>.>.>.>.>.>.>.>.>.>.>.>.>.>.>.>.>.>.>.>.>.>.>.>.>.>.>.>.>.>.",
">.>.>.>.>.>.>.>.>.>.>.>.>.>.>.>.>.X X X X X X X O O . O . O O O X X X X X X X X X X X >.>.>.>.>.>.>.>.>.>.>.>.>.>.>.>.>.>.>.>.>.",
">.>.>.>.>.>.>.>.>.>.>.>.>.>.>.>.@ + + @ + + + @ O + O O + + O O + + + # + + $ + + + + @ >.>.>.>.>.>.>.>.>.>.>.>.>.>.>.>.>.>.>.>.",
">.>.>.>.>.>.>.>.>.>.>.>.>.>.>.>.= = = - - - - - > > > - > > > * = = - * = = * = = = = * >.>.>.>.>.>.>.>.>.>.>.>.>.>.>.>.>.>.>.>.",
">.>.>.>.>.>.>.>.>.>.>.>.>.>.>.> 3 4 9 0 w e r r w w r w w w r r 0 8 8 8 9 5 9 5 9 8 5 3 ; >.>.>.>.>.>.>.>.>.>.>.>.>.>.>.>.>.>.>.",
">.>.>.>.>.>.>.>.>.>.>.>.>.+ = 3 e d z M S L K K K S K K K K S L M z z l j l l M z z d e < % X >.>.>.>.>.>.>.>.>.>.>.>.>.>.>.>.>.",
">.>.>.>.>.>.>.>.>.>.>.>.X + = 5 d A U ~ R  .R  . . . . . . .R R Q T I I I P I U U P D g 5 = @ X >.>.>.>.>.>.>.>.>.>.>.>.>.>.>.>.",
">.>.>.>.>.>.>.>.>.>.>.>.X @ = 9 M Y ] O.%.%.&.&.&.&.&.&.&.&.#.O.| [ ` ( ( ( ( ` ( ( U M t < = & >.>.>.>.>.>.>.>.>.>.>.>.>.>.>.>.",
">.>.>.>.>.>.>.>.>.>.>.>.X + = 0 N R O.%.&.*.-.-.-.-.-.*.-.-.&.&.#...| | ' ' ` ' ' ` W D l e 5 < ; >.>.>.>.>.>.>.>.>.>.>.>.>.>.>.",
">.>.>.>.>.>.>.>.>.>.>.>.X + - w A _ #.%.-.*.=.-.&.*.*.*.*.*.*.&.$.#.@.| { ' ` ` ` ` ^ U D M d q 3 * @ >.>.>.>.>.>.>.>.>.>.>.>.>.",
">.>.>.>.>.>.>.>.>.>.>.>.X + - r S ] $.*.*.&.&.&.&.&.&.&.&.*.&.&.%.$.#.+.{ ` ( ( ( ^ ^ ! Q U D d 5 * @ X >.>.>.>.>.>.>.>.>.>.>.>.",
">.>.>.>.>.>.>.>.>.>.>.>.X + - r K  .&.-.-.%.%.&.&.&.&.&.&.&.&.*.=.&.$.O.| ` ^ ^ ^ ( ^ ` ` ^ P l 8 * @ X >.>.>.>.>.>.>.>.>.>.>.>.",
">.>.>.>.>.>.>.>.>.>.>.>.X + - r L ..*.;.-.*.&.&.&.&.&.&.*.*.*.*.-.=.&.#.| ` ( ^ ^ ^ ` ` ' ` I M 8 * @ X >.>.>.>.>.>.>.>.>.>.>.>.",
">.>.>.>.>.>.>.>.>.>.>.>.X + - r L  .*.;.-.&.%.&.&.&.&.&.&.&.-.-.;.-.=.@.| ' ( ^ ^ ( ( ` ' ` U j 8 = + X >.>.>.>.>.>.>.>.>.>.>.>.",
">.>.>.>.>.>.>.>.>.>.>.>.X + - r L  .&.*.-.*.&.&.&.&.&.&.&.&.&.&.&.&.$.+.{ ` ( ^ ( ^ ( ` ` ( I M 8 - @ X >.>.>.>.>.>.>.>.>.>.>.>.",
">.>.>.>.>.>.>.>.>.>.>.>.X + = 0 N R  .#.$.%.%.&.&.&.&.$.O. . . .} } } ] ` ( ^ ^ ( ^ ( ` ` ( P l 8 = + X >.>.>.>.>.>.>.>.>.>.>.>.",
">.>.>.>.>.>.>.>.>.>.>.>.O + * 3 r B Y )  .$.&.*.&.&.#. .R Y L K K L P Y Q ^ ( ` ^ ( ^ ` ` ^ P j 9 * + X >.>.>.>.>.>.>.>.>.>.>.>.",
">.>.>.>.>.>.>.>.>.>.>.>.o + # = > w h S R O.*.-.-.&.O.R S h r w w r M M M Q ^ ( ( ( ( ` ` ^ I M 9 * + X >.>.>.>.>.>.>.>.>.>.>.>.",
">.>.>.>.>.>.>.>.>.>.>.>.+ + # # & - 8 h Y  .&.;.;.&.O.Y h 3 > & * - 3 a M T ^ ` ( ( ( ` ` ( I l 9 - + O >.>.>.>.>.>.>.>.>.>.>.>.",
">.>.>.>.>.>.>.>.>.>.>.>.+ + + o O + - r L  .&.;.;.%. .K r > O O O O = 9 M U ^ ' ` ( ( ` ` ( J l 8 = + X >.>.>.>.>.>.>.>.>.>.>.>.",
">.>.>.>.>.>.>.>.>.>.>.>.+ @ O X . X & w S  .&.;.;.%. .K w & X     X % 5 M P ^ ` ` ( ( ` ` ` E l 9 = @ X >.>.>.>.>.>.>.>.>.>.>.>.",
">.>.>.>.>.>.>.>.>.>.>.>.+ + + X . X & w K  .&.;.:.&. .K w & .     X % 4 d P ! ` ` ( ( ` ' ` U z 8 = + X >.>.>.>.>.>.>.>.>.>.>.>.",
">.>.>.>.>.>.>.>.>.>.>.>.+ + + X O + - r K  .&.;.;.&. .L w > + . X @ * 9 M P ^ ` ` ( ( ( ` ^ P z 8 = + X >.>.>.>.>.>.>.>.>.>.>.>.",
">.>.>.>.>.>.>.>.>.>.>.>.+ + @ $ $ > 8 h Y O.&.;.;.%.O.Y h 3 > & % * 3 u M U ^ ` ` ( ^ ^ W U D g 4 = + X >.>.>.>.>.>.>.>.>.>.>.>.",
">.>.>.>.>.>.>.>.>.>.>.>.o + $ = > w h S R O.&.-.;.&.O.R K h w w 9 0 i M M W ` { ' ( ^ T D M f e 3 = @ >.>.>.>.>.>.>.>.>.>.>.>.>.",
">.>.>.>.>.>.>.>.>.>.>.>.o + = > r n Y ) O.#.#.;.-.*.#.o.R Y D A M M M M ! ^ ` { ' ` ! D j t 5 1 ; >.>.>.>.>.>.>.>.>.>.>.>.>.>.>.",
">.>.>.>.>.>.>.>.>.>.>.>.o + - 8 N R o.#.#.#.-.;.&.&.#.#.O.o.} ) R T U W ^ ^ ^ ` ` ^ U M e < = & >.>.>.>.>.>.>.>.>.>.>.>.>.>.>.>.",
">.>.>.>.>.>.>.>.>.>.>.>.X + - r S ] #.*.-.#.#.#.#.O.@.#.#.&.#.o.[ ^ W ! E M I U P P D h 5 = $ X >.>.>.>.>.>.>.>.>.>.>.>.>.>.>.>.",
">.>.>.>.>.>.>.>.>.>.>.>.X + * r S ] #.*.;.-.#.O.o.} } O.#.*.&.@.{ Q I M M M M M l M h w 3 % X >.>.>.>.>.>.>.>.>.>.>.>.>.>.>.>.>.",
">.>.>.>.>.>.>.>.>.>.>.>.o + = r N R O.#.#.*.#.o.) Q Q ( o.#.&.+.` E M M i 7 5 5 8 8 8 3 ; >.>.>.>.>.>.>.>.>.>.>.>.>.>.>.>.>.>.>.",
">.>.>.>.>.>.>.>.>.>.>.>.o + * 6 n Y } O.#.#.#.[ Q G G Q } @.@.| ! M c y 6 , = * * * * * >.>.>.>.>.>.>.>.>.>.>.>.>.>.>.>.>.>.>.>.",
">.>.>.>.>.>.>.>.>.>.>.>.o + * 5 g P ! } o.o.o.^ H m m J ( | | ` E M k y 9 < - % $ @ + + >.>.>.>.>.>.>.>.>.>.>.>.>.>.>.>.>.>.>.>.",
">.>.>.>.>.>.>.>.>.>.>.>.o + & 2 i C E ! ( ( Q E m n n m U ! ( ! E E M M M a 9 > * O O X >.>.>.>.>.>.>.>.>.>.>.>.>.>.>.>.>.>.>.>.",
">.>.>.>.>.>.>.>.>.>.>.>.+ + & 2 u n G J J U J m b c c b F J I E E G E E P K M r > @ O   >.>.>.>.>.>.>.>.>.>.>.>.>.>.>.>.>.>.>.>.",
">.>.>.>.>.>.>.>.>.>.>.>.+ + & 1 q j m m m m m m b b v b m m F G E E ! ! { ] R M w - + O >.>.>.>.>.>.>.>.>.>.>.>.>.>.>.>.>.>.>.>.",
">.>.>.>.>.>.>.>.>.>.>.>.o + # , 7 p n m m m m G m C C M m m m G E ! ` { @.@.} P s 3 - & >.>.>.>.>.>.>.>.>.>.>.>.>.>.>.>.>.>.>.>.",
">.>.>.>.>.>.>.>.>.>.>.>.o + & , 7 p n m H J I E I E E I F F G J E ( ` { O.#...~ M M r 8 3 >.>.>.>.>.>.>.>.>.>.>.>.>.>.>.>.>.>.>.",
">.>.>.>.>.>.>.>.>.>.>.>.o # # , 7 p n H Q ! ` ] ' ' _ ~ E I I E W ! ` { { X.{ ' R Y S M 5 * + >.>.>.>.>.>.>.>.>.>.>.>.>.>.>.>.>.",
">.>.>.>.>.>.>.>.>.>.>.>.o # = , 7 p n J ( o.@.@.$.X...| ` ^ ! ! ! ( ^ ` ` ` ' {  . ./ M w - + . >.>.>.>.>.>.>.>.>.>.>.>.>.>.>.>.",
">.>.>.>.>.>.>.>.>.>.>.>.o + # < 6 i n G ( o.#.#.$.$.$.X.| ' ` ` ` ` ! ! ! ! ^ { O.@.] K w - @ X >.>.>.>.>.>.>.>.>.>.>.>.>.>.>.>.",
">.>.>.>.>.>.>.>.>.>.>.>.>.# # - < 6 i n W o.#.#.$.$.O.X.....| } ` ` ^ ! E E W ` O.@.] S w - @ O >.>.>.>.>.>.>.>.>.>.>.>.>.>.>.>.",
">.>.>.>.>.>.>.>.>.>.>.>.>.>.>.* - , 6 d K _ ..X...........@.....{ ` ^ W I H I ! ' | / V w - @ X >.>.>.>.>.>.>.>.>.>.>.>.>.>.>.>.",
">.>.>.>.>.>.>.>.>.>.>.>.>.>.>.>.# & > q M T _ [ ' ' ' ....$.$...| ` ! I F C C G W ( U M 9 * + X >.>.>.>.>.>.>.>.>.>.>.>.>.>.>.>.",
">.>.>.>.>.>.>.>.>.>.>.>.>.>.>.>.X + * 8 f D I W ^ ( } ..@.$.$.O.} ^ E G b k k b G H D g 8 * @ X >.>.>.>.>.>.>.>.>.>.>.>.>.>.>.>.",
">.>.>.>.>.>.>.>.>.>.>.>.>.>.>.>.>.O & > 0 d M D T ` ..@.%.&.$...` W G b f t t t d g d r 3 * @ >.>.>.>.>.>.>.>.>.>.>.>.>.>.>.>.>.",
">.>.>.>.>.>.>.>.>.>.>.>.>.>.>.>.>.>.>.- - 8 w M P _ O.%.*.&.$.| ^ I M f t 2 , 2 3 4 5 4 > >.>.>.>.>.>.>.>.>.>.>.>.>.>.>.>.>.>.>.",
">.>.>.>.>.>.>.>.>.>.>.>.>.>.>.>.>.>.>.>.% - > r L } $.*.-.%.@.{ W F c t 2 - % % & = = = >.>.>.>.>.>.>.>.>.>.>.>.>.>.>.>.>.>.>.>.",
">.>.>.>.>.>.>.>.>.>.>.>.>.>.>.>.>.>.>.>.* - 8 h Y  .&.*.*.%...' E M p 7 < % + O + + @ + >.>.>.>.>.>.>.>.>.>.>.>.>.>.>.>.>.>.>.>.",
">.>.>.>.>.>.>.>.>.>.>.>.>.>.>.>.>.>.>.> 8 r h S / ..&.*.%.X. .( E b p 7 ; $ + X X X X >.>.>.>.>.>.>.>.>.>.>.>.>.>.>.>.>.>.>.>.>.",
">.>.>.>.>.>.>.>.>.>.>.>.>.>.>.>.>.+ - 8 h B Y /  .#.%.%.@.{ ` W G b p 6 , # @ X X >.>.>.>.>.>.>.>.>.>.>.>.>.>.>.>.>.>.>.>.>.>.>.",
">.>.>.>.>.>.>.>.>.>.>.>.>.>.>.>.X + - w B ~  .#.$.$.%.#.X.[ ( E G b p 6 , # @ o >.>.>.>.>.>.>.>.>.>.>.>.>.>.>.>.>.>.>.>.>.>.>.>.",
">.>.>.>.>.>.>.>.>.>.>.>.>.>.>.>.X + - r K } %.-.=.&.%.X.| ' ! E G b p t , * @ X >.>.>.>.>.>.>.>.>.>.>.>.>.>.>.>.>.>.>.>.>.>.>.>.",
">.>.>.>.>.>.>.>.>.>.>.>.>.>.>.>.>.@ - r L O.*.:.;.*.%.+.{ ` W E G b p t , # @ >.>.>.>.>.>.>.>.>.>.>.>.>.>.>.>.>.>.>.>.>.>.>.>.>.",
">.>.>.>.>.>.>.>.>.>.>.>.>.>.>.>.>.>.>.>.>.>.>.>.>.>.>.>.>.>.>.>.>.>.>.>.>.>.>.>.>.>.>.>.>.>.>.>.>.>.>.>.>.>.>.>.>.>.>.>.>.>.>.>.",
">.>.>.>.>.>.>.>.>.>.>.>.>.>.>.>.>.>.>.>.>.>.>.>.>.>.>.>.>.>.>.>.>.>.>.>.>.>.>.>.>.>.>.>.>.>.>.>.>.>.>.>.>.>.>.>.>.>.>.>.>.>.>.>.",
">.>.>.>.>.>.>.>.>.>.>.>.>.>.>.>.>.>.>.>.>.>.>.>.>.>.>.>.>.>.>.>.>.>.>.>.>.>.>.>.>.>.>.>.>.>.>.>.>.>.>.>.>.>.>.>.>.>.>.>.>.>.>.>.",
">.>.>.>.>.>.>.>.>.>.>.>.>.>.>.>.>.>.>.>.>.>.>.>.>.>.>.>.>.>.>.>.>.>.>.>.>.>.>.>.>.>.>.>.>.>.>.>.>.>.>.>.>.>.>.>.>.>.>.>.>.>.>.>."
};
