/* XPM */
static char *result[] = {
/* columns rows colors chars-per-pixel */
"64 64 97 2 ",
"   c #29122C",
".  c #341D34",
"X  c #3E263C",
"o  c #40263B",
"O  c #442A3E",
"+  c #482F43",
"@  c #4B3245",
"#  c #4F3548",
"$  c #503344",
"%  c #513749",
"&  c #543B4D",
"*  c #593D4D",
"=  c #5A3F50",
"-  c #5E404E",
";  c #5D4252",
":  c #61414E",
">  c #614655",
",  c #644857",
"<  c #654A59",
"1  c #6A4E5B",
"2  c #6D515E",
"3  c #72525B",
"4  c #6F5562",
"5  c #725561",
"6  c #765A65",
"7  c #795B66",
"8  c #775E69",
"9  c #7B5F69",
"0  c #7C626C",
"q  c #836067",
"w  c #84646B",
"e  c #896469",
"r  c #846770",
"t  c #836870",
"y  c #8C6D74",
"u  c #8C737A",
"i  c #907177",
"p  c #9B7576",
"a  c #94757A",
"s  c #9A7679",
"d  c #97787D",
"f  c #997A7E",
"g  c #A57D7B",
"h  c #A7807E",
"j  c #9D7D81",
"k  c #9E8084",
"l  c #9F8689",
"z  c #A38486",
"x  c #AC8583",
"c  c #AF8986",
"v  c #A1868A",
"b  c #A68C8D",
"n  c #AA898A",
"m  c #B18A87",
"M  c #B38D8A",
"N  c #B9928F",
"B  c #A78E90",
"V  c #A88F90",
"C  c #AB9192",
"Z  c #B49594",
"A  c #B99593",
"S  c #BC9996",
"D  c #B59B9A",
"F  c #BD9C99",
"G  c #C19D97",
"H  c #C29D99",
"J  c #C5A29D",
"K  c #C8A39F",
"L  c #C5A5A2",
"P  c #CAA6A2",
"I  c #C4A9A5",
"U  c #CDAAA5",
"Y  c #C5ACA8",
"T  c #CCAEA9",
"R  c #D0ADA7",
"E  c #D1AEA8",
"W  c #CFB3AE",
"Q  c #D4B3AC",
"!  c #D9B4AC",
"~  c #D4B7B1",
"^  c #D4B9B3",
"/  c #DCBCB3",
"(  c #E0BEB5",
")  c #DEC1B7",
"_  c #DDC2B9",
"`  c #E2C0B7",
"'  c #E3C5BB",
"]  c #E8C7BD",
"[  c #E4C9BF",
"{  c #E8C9BF",
"}  c #E7CBC0",
"|  c #EACEC3",
" . c #ECD1C6",
".. c #EFD4C8",
"X. c #F1D6CA",
"o. c #F5DACC",
"O. c None",
/* pixels */
"O.O.O.O.O.O.O.O.O.O.O.O.O.O.O.O.O.O.O.O.O.O.O.O.O.O.O.O.O.O.O.O.O.O.O.O.O.O.O.O.O.O.O.O.O.O.O.O.O.O.O.O.O.O.O.O.O.O.O.O.O.O.O.O.",
"O.O.O.O.O.O.O.O.O.O.O.O.O.O.O.O.O.O.O.O.O.O.O.O.O.O.O.O.O.O.O.O.O.O.O.O.O.O.O.O.O.O.O.O.O.O.O.O.O.O.O.O.O.O.O.O.O.O.O.O.O.O.O.O.",
"O.O.O.O.O.O.O.O.O.O.O.O.O.O.O.O.O.O.O.O.O.O.O.O.O.O.O.O.O.O.O.O.O.O.O.O.O.O.O.O.O.O.O.O.O.O.O.O.O.O.O.O.O.O.O.O.O.O.O.O.O.O.O.O.",
"O.O.O.O.O.O.O.O.O.O.O.O.O.O.O.O.O.O.O.O.O.O.O.O.O.O.O.O.O.O.O.O.O.O.O.O.O.O.O.O.O.O.O.O.O.O.O.O.O.O.O.O.O.O.O.O.O.O.O.O.O.O.O.O.",
"O.O.O.O.O.O.O.O.O.O.O.O.O.O.O.O.O.O.O.O.O.O.O.O.O.O.O.O.O.O.O.O.O.O.O.O.O.O.O.O.O.O.O.O.O.O.O.O.O.O.O.O.O.O.O.O.O.O.O.O.O.O.O.O.",
"O.O.O.O.O.O.O.O.O.O.O.O.O.O.O.O.O.O.O.O.O.O.O.O.O.O.O.O.O.O.O.O.O.O.O.O.O.O.O.O.O.O.O.O.O.O.O.O.O.O.O.O.O.O.O.O.O.O.O.O.O.O.O.O.",
"O.O.O.O.O.O.O.O.O.O.O.O.O.O.O.O.O.O.O.O.O.O.O.O.O.O.O.O.O.O.O.O.O.O.O.O.O.O.O.O.O.O.O.O.O.O.O.O.O.O.O.O.O.O.O.O.O.O.O.O.O.O.O.O.",
"O.O.O.O.O.O.O.O.O.O.O.O.O.O.O.O.O.O.O.O.O.O.O.O.O.O.O.O.O.O.O.O.O.O.O.O.O.O.O.O.O.O.O.O.O.O.O.O.O.O.O.O.O.O.O.O.O.O.O.O.O.O.O.O.",
"O.O.O.O.O.O.O.O.O.O.O.O.O.O.O.O.O.O.O.O.O.. . . . . . . . . . . . . . . . . . . . . . O.O.O.O.O.O.O.O.O.O.O.O.O.O.O.O.O.O.O.O.O.",
"O.O.O.O.O.O.O.O.O.O.O.O.O.O.O.O.O.O.O.O.X X X X X X X X X X X X X X X X X X X X X X X + O.O.O.O.O.O.O.O.O.O.O.O.O.O.O.O.O.O.O.O.",
"O.O.O.O.O.O.O.O.O.O.O.O.O.O.O.O.O.O.O.O.# # % % % & & ; & & & & & & & & & & & & % % # # O.O.O.O.O.O.O.O.O.O.O.O.O.O.O.O.O.O.O.O.",
"O.O.O.O.O.O.O.O.O.O.O.O.O.O.O.O.O.O.O.= < 2 5 6 8 8 8 0 0 0 0 8 0 9 0 0 0 9 8 6 6 4 1 > = O.O.O.O.O.O.O.O.O.O.O.O.O.O.O.O.O.O.O.",
"O.O.O.O.O.O.O.O.O.O.O.O.O.O.O.O.O.. @ > 7 y j j l B B B B B B B V V V V V V B v j j y 7 > @ . O.O.O.O.O.O.O.O.O.O.O.O.O.O.O.O.O.",
"O.O.O.O.O.O.O.O.O.O.O.O.O.O.O.O.. X % 2 y n D I Y ^ ^ ^ ^ ^ ^ ^ ^ ^ ^ ^ ^ ^ W Y L D n y 2 % o . O.O.O.O.O.O.O.O.O.O.O.O.O.O.O.O.",
"O.O.O.O.O.O.O.O.O.O.O.O.O.O.O.O.+ % > 7 j H W / [ }  . . . . . .|  .|  .| | | } / E H j 9 > % + O.O.O.O.O.O.O.O.O.O.O.O.O.O.O.O.",
"O.O.O.O.O.O.O.O.O.O.O.O.O.O.O.* > 2 0 j Z T / }  . .X.X.X.X.X.X...X.X.o.X.X... .} ( T Z j 9 2 > & O.O.O.O.O.O.O.O.O.O.O.O.O.O.O.",
"O.O.O.O.O.O.O.O.O.O.O.O.O.X # , 7 i j Z I / ' |  . .X.X.X.X. .X............... .| } ^ P Z j y 7 < # X O.O.O.O.O.O.O.O.O.O.O.O.O.",
"O.O.O.O.O.O.O.O.O.O.O.O.. X # 2 y n F T / ' | |  . . . . . . . ... . . . . .|  .| | ( / T F n y 2 % X . O.O.O.O.O.O.O.O.O.O.O.O.",
"O.O.O.O.O.O.O.O.O.O.O.O.X X # 2 a A U / ' | | X. . . . . . . . . . . . . . . .....| | ' / R A a 4 # X . O.O.O.O.O.O.O.O.O.O.O.O.",
"O.O.O.O.O.O.O.O.O.O.O.O.. X # 2 a S Q ` | | X.X.o.X. . . . . . . . . ...........o.X...| ( E G a 2 # + . O.O.O.O.O.O.O.O.O.O.O.O.",
"O.O.O.O.O.O.O.O.O.O.O.O.X X % 2 a S ! ( |  .X.o.o.X.X. . . . . . . . . .....X.o.o.X...} ( Q S a 2 % X . O.O.O.O.O.O.O.O.O.O.O.O.",
"O.O.O.O.O.O.O.O.O.O.O.O.. X % 2 a A R ( ' ] |  . . . . . . . . .|  . . . . . . .|  .} ' / R S a 2 # X X O.O.O.O.O.O.O.O.O.O.O.O.",
"O.O.O.O.O.O.O.O.O.O.O.O.. X % 4 a A I Q ~ ~ ^ ^ ^ ^ ^ ^ _  . . . . .} [ / ^ ^ ^ ^ ^ ~ ~ Q U Z a 5 % X . O.O.O.O.O.O.O.O.O.O.O.O.",
"O.O.O.O.O.O.O.O.O.O.O.O.. X % 3 j A L L F Z C V B C D Y ^ [  .X. . .[ ^ I D C B B C Z F L L A a 2 % X . O.O.O.O.O.O.O.O.O.O.O.O.",
"O.O.O.O.O.O.O.O.O.O.O.O.. X # 5 a Z H Z j y 0 8 8 0 j l Y _  .X.X. ._ I B j 4 4 9 0 y k Z F A j 5 % X . O.O.O.O.O.O.O.O.O.O.O.O.",
"O.O.O.O.O.O.O.O.O.O.O.O.X X # 5 j Z S z r < & # # & > j D ^  .X.o. .^ D j > & # @ % < t z F Z a 5 # X X O.O.O.O.O.O.O.O.O.O.O.O.",
"O.O.O.O.O.O.O.O.O.O.O.O.. o % 6 j Z S j 6 % . . . X & 8 C ^  .o.o. .^ C 0 & X . . X % 5 j A Z j 5 % X . O.O.O.O.O.O.O.O.O.O.O.O.",
"O.O.O.O.O.O.O.O.O.O.O.O.. X % 5 j S S j 5 @ .     . @ 8 B ^  .o.o. .^ B 8 @ .     . @ 4 j S F j 6 % X . O.O.O.O.O.O.O.O.O.O.O.O.",
"O.O.O.O.O.O.O.O.O.O.O.O.. X % 6 j A S j 5 + .     . @ 8 B ^  .o.o. .^ B 8 # .     . + 5 j S S j 5 % X . O.O.O.O.O.O.O.O.O.O.O.O.",
"O.O.O.O.O.O.O.O.O.O.O.O.. X % 5 j Z Z j 6 % X . . X & 0 B ^  .o.o. .^ B 0 & X . . X # 6 j Z A f 6 % o . O.O.O.O.O.O.O.O.O.O.O.O.",
"O.O.O.O.O.O.O.O.O.O.O.O.X X % 5 i n n a 7 = % @ + & 4 u D ^  .o.o. .^ D u < % @ @ % ; 7 a n n i 2 % X X O.O.O.O.O.O.O.O.O.O.O.O.",
"O.O.O.O.O.O.O.O.O.O.O.O.O.X # < 9 y i y w 6 6 5 4 0 j l Y _  .o.X. ._ Y B j 0 8 5 6 7 9 y a y 0 1 # X O.O.O.O.O.O.O.O.O.O.O.O.O.",
"O.O.O.O.O.O.O.O.O.O.O.O.O.O.O.; , 2 6 w t i h z b C D Y _ {  .X.X. .[ ^ Y D C B z j a r 9 6 1 < * O.O.O.O.O.O.O.O.O.O.O.O.O.O.O.",
"O.O.O.O.O.O.O.O.O.O.O.O.O.O.O.O.@ % ; 3 i b D K T W ^ ) _ [  . . . . .[ _ ^ ^ Y L F n i 6 ; % + O.O.O.O.O.O.O.O.O.O.O.O.O.O.O.O.",
"O.O.O.O.O.O.O.O.O.O.O.O.O.O.O.O.O @ - 7 f S U ! ) ) [ [ [ } { { } } } } } _ _ ^ Q U S f 7 - @ O O.O.O.O.O.O.O.O.O.O.O.O.O.O.O.O.",
"O.O.O.O.O.O.O.O.O.O.O.O.O.O.O.O O * 1 w z J Q ! W E ! ^ ) _ ' ' _ [ _ ^ ~ ~ W ^ Q R J x w 1 * @ O O.O.O.O.O.O.O.O.O.O.O.O.O.O.O.",
"O.O.O.O.O.O.O.O.O.O.O.O.O.. X $ : 3 e p M J K K J J J J R Q ! / / ! E R L H G H K R K M p q 3 : % O . O.O.O.O.O.O.O.O.O.O.O.O.O.",
"O.O.O.O.O.O.O.O.O.O.O.O.X X @ * 3 e p x N J K J N m m M J K R Q ! E P G A m m A H K H N x p e 3 : O X X O.O.O.O.O.O.O.O.O.O.O.O.",
"O.O.O.O.O.O.O.O.O.O.O.O.# & ; 3 w p h M A J J G M M h N A J K K K J H G M c c M G G J S M x p w 3 > * # O.O.O.O.O.O.O.O.O.O.O.O.",
"O.O.O.O.O.O.O.O.O.O.O.< 4 0 r a h c M N N N N A N A N A A N N A N A A N N A A A A N N N N M x g a r 8 4 < O.O.O.O.O.O.O.O.O.O.O.",
"O.O.O.O.O.O.O.O.O.X & 4 u l V Z A S G M M M M G J P P J A m h h x x m A J K K J N N M M N G N S Z C l u 4 & X O.O.O.O.O.O.O.O.O.",
"O.O.O.O.O.O.O.O.. X & 8 l I ~ ~ W K J N m h h G U ^ ^ U S m h g g g x G R ^ ) U S h h M N H K E ~ W L l 8 * X . O.O.O.O.O.O.O.O.",
"O.O.O.O.O.O.O.O.. X * 9 B W _ ' ^ R K N M h m G Q ' } ~ J M h h h h M J ~ [ ' Q J M h M A K R / ' _ W b 0 & X . O.O.O.O.O.O.O.O.",
"O.O.O.O.O.O.O.O.. X & 8 b W ' ] ` Q K J N M N K ~ } } / E J S A N A J E ) { [ ~ J N M N J K E ` ] [ W b 8 & X . O.O.O.O.O.O.O.O.",
"O.O.O.O.O.O.O.O.. o & 6 z I / ( / ! U J H G G R / |  .} / ~ E E E Q W ) [  .{ ) U J G G J K Q / ` / I z 6 & X . O.O.O.O.O.O.O.O.",
"O.O.O.O.O.O.O.O.. X % 5 f F R Q E U P P K K K E / }  .} } / } ( ) ' [ [  .{ [ ) Q K J J K U U E ! U F f 5 % X . O.O.O.O.O.O.O.O.",
"O.O.O.O.O.O.O.O.. X % 4 y n A F S A S F J P E ! / } } } | } } } { { { { [ { [ ) ! R K J J D A A F A n y 2 % X . O.O.O.O.O.O.O.O.",
"O.O.O.O.O.O.O.O.O.X % < 9 y a a a s k n A K E ! / / _ ( } } } } { [ [ [ [ ) ) ^ ! R K D n h d d a a y 9 < % X O.O.O.O.O.O.O.O.O.",
"O.O.O.O.O.O.O.O.O.O.O.; < 1 2 2 2 5 w a n H R E ! ! ^ / / / ( / ( / / / ^ ~ ! ! E U H n a 9 5 1 2 2 1 < ; O.O.O.O.O.O.O.O.O.O.O.",
"O.O.O.O.O.O.O.O.O.O.O.O.# % % # + % > 9 j S U E E R E R R R R E E E E E E E E E E U S j w > % # # % % % O.O.O.O.O.O.O.O.O.O.O.O.",
"O.O.O.O.O.O.O.O.O.O.O.O.o o X X . + % 5 j A U E R U P J H F A Z Z A A H K P P E E U A j 5 % X . X X X X O.O.O.O.O.O.O.O.O.O.O.O.",
"O.O.O.O.O.O.O.O.O.O.O.O.O.. .   . . @ 5 a S U E E U P A j j j i y j j n A K R ! E R A a 4 @ X . . . . O.O.O.O.O.O.O.O.O.O.O.O.O.",
"O.O.O.O.O.O.O.O.O.O.O.O.O.O.O.. . X @ 1 a F R ! ! R H n a 9 2 1 < 4 9 i n J R ! ! E S s 3 # X     O.O.O.O.O.O.O.O.O.O.O.O.O.O.O.",
"O.O.O.O.O.O.O.O.O.O.O.O.O.O.O.O.. X # 4 a A P Q E P S j 9 > % + + % > 9 j S P E E U A a 4 % X . O.O.O.O.O.O.O.O.O.O.O.O.O.O.O.O.",
"O.O.O.O.O.O.O.O.O.O.O.O.O.O.O.O.. X % 3 y n A F H A n i 5 % + . . + % 5 i n Z S F A n i 2 % X . O.O.O.O.O.O.O.O.O.O.O.O.O.O.O.O.",
"O.O.O.O.O.O.O.O.O.O.O.O.O.O.O.O.O.X # < 0 y a f j a y 9 > + .     . + > 9 y a j j a y 9 < % X O.O.O.O.O.O.O.O.O.O.O.O.O.O.O.O.O.",
"O.O.O.O.O.O.O.O.O.O.O.O.O.O.O.O.O.O.O.; < 2 5 5 5 5 4 < = O.O.O.O.O.O.= < 1 5 5 5 4 1 < ; O.O.O.O.O.O.O.O.O.O.O.O.O.O.O.O.O.O.O.",
"O.O.O.O.O.O.O.O.O.O.O.O.O.O.O.O.O.O.O.O.# % % % # % # % O.O.O.O.O.O.O.O.# % % % % # % # O.O.O.O.O.O.O.O.O.O.O.O.O.O.O.O.O.O.O.O.",
"O.O.O.O.O.O.O.O.O.O.O.O.O.O.O.O.O.O.O.O.X X X o X X X X O.O.O.O.O.O.O.O.X X X X X X X X O.O.O.O.O.O.O.O.O.O.O.O.O.O.O.O.O.O.O.O.",
"O.O.O.O.O.O.O.O.O.O.O.O.O.O.O.O.O.O.O.O.O.. . . . . . O.O.O.O.O.O.O.O.O.O.. . . X . . O.O.O.O.O.O.O.O.O.O.O.O.O.O.O.O.O.O.O.O.O.",
"O.O.O.O.O.O.O.O.O.O.O.O.O.O.O.O.O.O.O.O.O.O.O.O.O.O.O.O.O.O.O.O.O.O.O.O.O.O.O.O.O.O.O.O.O.O.O.O.O.O.O.O.O.O.O.O.O.O.O.O.O.O.O.O.",
"O.O.O.O.O.O.O.O.O.O.O.O.O.O.O.O.O.O.O.O.O.O.O.O.O.O.O.O.O.O.O.O.O.O.O.O.O.O.O.O.O.O.O.O.O.O.O.O.O.O.O.O.O.O.O.O.O.O.O.O.O.O.O.O.",
"O.O.O.O.O.O.O.O.O.O.O.O.O.O.O.O.O.O.O.O.O.O.O.O.O.O.O.O.O.O.O.O.O.O.O.O.O.O.O.O.O.O.O.O.O.O.O.O.O.O.O.O.O.O.O.O.O.O.O.O.O.O.O.O.",
"O.O.O.O.O.O.O.O.O.O.O.O.O.O.O.O.O.O.O.O.O.O.O.O.O.O.O.O.O.O.O.O.O.O.O.O.O.O.O.O.O.O.O.O.O.O.O.O.O.O.O.O.O.O.O.O.O.O.O.O.O.O.O.O."
};
