/* XPM */
static char *result[] = {
/* columns rows colors chars-per-pixel */
"64 64 98 2 ",
"   c #2C152E",
".  c #2E1831",
"X  c #351D35",
"o  c #372038",
"O  c #3E263C",
"+  c #40273D",
"@  c #42293E",
"#  c #462D41",
"$  c #492F43",
"%  c #4B3244",
"&  c #4F3649",
"*  c #523647",
"=  c #503749",
"-  c #553B4D",
";  c #5A3D4D",
":  c #5F414F",
">  c #5D4353",
",  c #60414F",
"<  c #624554",
"1  c #644856",
"2  c #694954",
"3  c #664B59",
"4  c #6A4D5B",
"5  c #6E525E",
"6  c #73535D",
"7  c #79565E",
"8  c #7B585F",
"9  c #6D5461",
"0  c #705460",
"q  c #755965",
"w  c #7B5B65",
"e  c #775E69",
"r  c #7B5F6A",
"t  c #7B616B",
"y  c #826167",
"u  c #84646C",
"i  c #896469",
"p  c #936D6F",
"a  c #856971",
"s  c #8D6E74",
"d  c #897077",
"f  c #8A7178",
"g  c #907277",
"h  c #9A7374",
"j  c #94757A",
"k  c #9B7678",
"l  c #96797E",
"z  c #9B7A7D",
"x  c #A77F7D",
"c  c #9D7D81",
"v  c #9F8084",
"b  c #9F8589",
"n  c #A28285",
"m  c #AC8583",
"M  c #A38689",
"N  c #A48A8C",
"B  c #AB8A8B",
"V  c #B08986",
"C  c #B48D8A",
"Z  c #B5908E",
"A  c #B8928E",
"S  c #A88F90",
"D  c #AC9292",
"F  c #B39595",
"G  c #BA9593",
"H  c #B79897",
"J  c #BC9995",
"K  c #B69998",
"L  c #BD9C9A",
"P  c #C29B97",
"I  c #C19D9A",
"U  c #C6A29D",
"Y  c #C9A49F",
"T  c #C2A5A2",
"R  c #CAA6A1",
"E  c #C7A8A4",
"W  c #CDAAA4",
"Q  c #CDAEA9",
"!  c #D0ADA7",
"~  c #D1AEA8",
"^  c #CFB2AC",
"/  c #D3B3AC",
"(  c #D8B6AE",
")  c #D2B7B0",
"_  c #D8B7B0",
"`  c #D4B9B2",
"'  c #DCBCB4",
"]  c #E0BFB6",
"[  c #DFC0B7",
"{  c #DFC1B9",
"}  c #E2C4BB",
"|  c #E6C8BE",
" . c #E8C9BF",
".. c #E7CBC1",
"X. c #E9CDC3",
"o. c #EBD0C5",
"O. c #F1D6CA",
"+. c None",
/* pixels */
"+.+.+.+.+.+.+.+.+.+.+.+.+.+.+.+.+.+.+.+.+.+.+.+.+.+.+.+.+.+.+.+.+.+.+.+.+.+.+.+.+.+.+.+.+.+.+.+.+.+.+.+.+.+.+.+.+.+.+.+.+.+.+.+.",
"+.+.+.+.+.+.+.+.+.+.+.+.+.+.+.+.+.+.+.+.+.+.+.+.+.+.+.+.+.+.+.+.+.+.+.+.+.+.+.+.+.+.+.+.+.+.+.+.+.+.+.+.+.+.+.+.+.+.+.+.+.+.+.+.",
"+.+.+.+.+.+.+.+.+.+.+.+.+.+.+.+.+.+.+.+.+.+.+.+.+.+.+.+.+.+.+.+.+.+.+.+.+.+.+.+.+.+.+.+.+.+.+.+.+.+.+.+.+.+.+.+.+.+.+.+.+.+.+.+.",
"+.+.+.+.+.+.+.+.+.+.+.+.+.+.+.+.+.+.+.+.+.+.+.+.+.+.+.+.+.+.+.+.+.+.+.+.+.+.+.+.+.+.+.+.+.+.+.+.+.+.+.+.+.+.+.+.+.+.+.+.+.+.+.+.",
"+.+.+.+.+.+.+.+.+.+.+.+.+.+.+.+.+.+.+.+.+.+.+.+.+.+.+.+.+.+.+.+.+.+.+.+.+.+.+.+.+.+.+.+.+.+.+.+.+.+.+.+.+.+.+.+.+.+.+.+.+.+.+.+.",
"+.+.+.+.+.+.+.+.+.+.+.+.+.+.+.+.+.+.+.+.+.+.+.+.+.+.+.+.+.+.+.+.+.+.+.+.+.+.+.+.+.+.+.+.+.+.+.+.+.+.+.+.+.+.+.+.+.+.+.+.+.+.+.+.",
"+.+.+.+.+.+.+.+.+.+.+.+.+.+.+.+.+.+.+.+.+.+.+.+.+.+.+.+.+.+.+.+.+.+.+.+.+.+.+.+.+.+.+.+.+.+.+.+.+.+.+.+.+.+.+.+.+.+.+.+.+.+.+.+.",
"+.+.+.+.+.+.+.+.+.+.+.+.+.+.+.+.+.+.+.+.+.+.+.+.+.+.+.+.+.+.+.+.+.+.+.+.+.+.+.+.+.+.+.+.+.+.+.+.+.+.+.+.+.+.+.+.+.+.+.+.+.+.+.+.",
"+.+.+.+.+.+.+.+.+.+.+.+.+.+.+.+.+.+.+.+.+.X X X X X X X . X . X X X . X X X X . X X X +.+.+.+.+.+.+.+.+.+.+.+.+.+.+.+.+.+.+.+.+.",
"+.+.+.+.+.+.+.+.+.+.+.+.+.+.+.+.+.+.+.+.+ + O O O O O + + O + O + + O O O + O O O O + + +.+.+.+.+.+.+.+.+.+.+.+.+.+.+.+.+.+.+.+.",
"+.+.+.+.+.+.+.+.+.+.+.+.+.+.+.+.+.+.+.+.& & = - - - - - - - - - - - - - - - - - = - & & +.+.+.+.+.+.+.+.+.+.+.+.+.+.+.+.+.+.+.+.",
"+.+.+.+.+.+.+.+.+.+.+.+.+.+.+.+.+.+.+.- 3 4 0 q e e t t t t t t t t t t t t e e q 9 4 3 ; +.+.+.+.+.+.+.+.+.+.+.+.+.+.+.+.+.+.+.",
"+.+.+.+.+.+.+.+.+.+.+.+.+.+.+.+.+.X % 1 q s c c b N S S S S S S S S S S S S N N c c s w < $ X +.+.+.+.+.+.+.+.+.+.+.+.+.+.+.+.+.",
"+.+.+.+.+.+.+.+.+.+.+.+.+.+.+.+.X + = 5 s B H E ^ ^ ` ` ` ` ` ` ` ` ` ` ` ` ^ E T H B s 5 = O X +.+.+.+.+.+.+.+.+.+.+.+.+.+.+.+.",
"+.+.+.+.+.+.+.+.+.+.+.+.+.+.+.+.$ = < e c I ^ ' ....o.o.o.o.o.o.o.o.o.o.o.o.....' ~ I c t < = $ +.+.+.+.+.+.+.+.+.+.+.+.+.+.+.+.",
"+.+.+.+.+.+.+.+.+.+.+.+.+.+.+.; < 5 t c F ~ ' ..X.O.O.O.O.O.O.O.O.O.O.O.O.O.O.o...] Q F c r 5 < - +.+.+.+.+.+.+.+.+.+.+.+.+.+.+.",
"+.+.+.+.+.+.+.+.+.+.+.+.+.O & 3 w s c F E ' | X.o.o.O.O.O.O.O.O.O.O.O.O.O.O.O.o.X..._ E F c s w 3 & O +.+.+.+.+.+.+.+.+.+.+.+.+.",
"+.+.+.+.+.+.+.+.+.+.+.+.X O = 4 s B I Q _ } X.X.o.o.o.o.o.o.o.o.o.o.o.o.o.o.X.o.X...} ' W I B s 5 = + X +.+.+.+.+.+.+.+.+.+.+.+.",
"+.+.+.+.+.+.+.+.+.+.+.+.o O = 0 j G Q ' } X.X.o.o.o.o.o.o.o.o...o.X.o.o.o.o.o.o.o.o...} ' ~ H j 9 & + X +.+.+.+.+.+.+.+.+.+.+.+.",
"+.+.+.+.+.+.+.+.+.+.+.+.X O = 0 j L ~ ] ..X.X.O.o.o.o.o.o.o.o.o.o.o.o.o.X.o.o.o.o.o.....] ~ P j 0 & + X +.+.+.+.+.+.+.+.+.+.+.+.",
"+.+.+.+.+.+.+.+.+.+.+.+.X O = 9 l J ~ ] } X.X.O.o.o.o.o...o.o.o.o.o.X.o.X.o.o.o.o.o.o...' ~ J j 9 = O X +.+.+.+.+.+.+.+.+.+.+.+.",
"+.+.+.+.+.+.+.+.+.+.+.+.X O = 6 j G ! ' } X.X.o.o.o.o.o.o.o.o.o.o.o.o.o.o.o.o.o.o.o.X.} ' ~ H j 0 = + X +.+.+.+.+.+.+.+.+.+.+.+.",
"+.+.+.+.+.+.+.+.+.+.+.+.X O = 5 j G ! ' } X.o.O.o.o.o.o.o.o.o.o.o.o.o.o.o.o.o.o.o.o...] ' ~ G j 5 = O X +.+.+.+.+.+.+.+.+.+.+.+.",
"+.+.+.+.+.+.+.+.+.+.+.+.X O = 9 j H ! ' } X.o.o.o.o...o.o.o.o...o.o.o.X.o.o.o.o.o.o.X...' ~ G j 0 = O X +.+.+.+.+.+.+.+.+.+.+.+.",
"+.+.+.+.+.+.+.+.+.+.+.+.X + = 6 j G Q ' } ..o.o.o.o.o.o.o.o.o.o.o.X.o.X.o.o.o.o.O.o.....' Q H j 9 = + X +.+.+.+.+.+.+.+.+.+.+.+.",
"+.+.+.+.+.+.+.+.+.+.+.+.X O = 9 j G ! ' ....o.o.o.o.o.o.o.o.o.o.o.o.o.o.o.o.o.o.o.X...} ' W F j 9 & + X +.+.+.+.+.+.+.+.+.+.+.+.",
"+.+.+.+.+.+.+.+.+.+.+.+.X O = 5 j H W ' ] ....X.o.o.o.o.o.o.o.o.o.o.o.o.o.o.o.X.X...} ] ' ! G g 0 = O X +.+.+.+.+.+.+.+.+.+.+.+.",
"+.+.+.+.+.+.+.+.+.+.+.+.X O = 0 j J ~ _ ' ] ] ....o.o.o.o.o.o.o.o.o.o.o.o.o.o.....} ] ' _ ! J c 0 = + X +.+.+.+.+.+.+.+.+.+.+.+.",
"+.+.+.+.+.+.+.+.+.+.+.+.X O = 0 c G ~ ( ( ( ' ] ....o.o.o.O.o.o.o.o.o.o.o.o.o...} ' _ _ ( ~ J l 0 = O X +.+.+.+.+.+.+.+.+.+.+.+.",
"+.+.+.+.+.+.+.+.+.+.+.+.X O = 9 j G W ~ ~ ~ ~ ' ' ..o.o.o.o.o.o.o.o.o.o.o.o...] ' ~ ! ! ! R G j 9 = + X +.+.+.+.+.+.+.+.+.+.+.+.",
"+.+.+.+.+.+.+.+.+.+.+.+.X O = 5 s B G U U R ~ _ ' ....o.......o.....X.X.......' _ ! R R I J B s 4 = O X +.+.+.+.+.+.+.+.+.+.+.+.",
"+.+.+.+.+.+.+.+.+.+.+.+.+.O = 3 r g c B H U ~ ~ ' ' } ' { { } ' } ] { ] } } ' _ ~ Q U J B c g r 3 = O +.+.+.+.+.+.+.+.+.+.+.+.+.",
"+.+.+.+.+.+.+.+.+.+.+.+.+.+.+.> 2 6 t g V P W / / ) [ ( ( ( [ ( _ _ _ _ _ ( / / ( W P B j r 0 1 ; +.+.+.+.+.+.+.+.+.+.+.+.+.+.+.",
"+.+.+.+.+.+.+.+.+.+.+.+.+.+.+.+.$ = < t z P R ! ! W W ! ! ! W ! Q Q ~ ~ ~ ~ ~ ~ ~ W J c r < * $ +.+.+.+.+.+.+.+.+.+.+.+.+.+.+.+.",
"+.+.+.+.+.+.+.+.+.+.+.+.+.+.+.+.o O * 5 g Z U W ! Y Y ! W R Y W W W R W W W W W W I F g 5 * + X +.+.+.+.+.+.+.+.+.+.+.+.+.+.+.+.",
"+.+.+.+.+.+.+.+.+.+.+.+.+.+.+.+.  o @ < a m G U Y Y W W R W W W W R W R W R R R I J m i < @ X   +.+.+.+.+.+.+.+.+.+.+.+.+.+.+.+.",
"+.+.+.+.+.+.+.+.+.+.+.+.+.+.+.+.  . @ > y z C G U Y Y ! W W W W W W W W W R R I J C k w > # X . +.+.+.+.+.+.+.+.+.+.+.+.+.+.+.+.",
"+.+.+.+.+.+.+.+.+.+.+.+.+.+.+.+.o O % < 8 h m A U U Y Y W W W Y W W R R W R Y P A m h y > $ O o +.+.+.+.+.+.+.+.+.+.+.+.+.+.+.+.",
"+.+.+.+.+.+.+.+.+.+.+.+.+.+.+.+.& ; < 6 i k m C G U Y Y U U U Y U U I Y Y I I P C m k u 6 > - = +.+.+.+.+.+.+.+.+.+.+.+.+.+.+.+.",
"+.+.+.+.+.+.+.+.+.+.+.+.+.+.+.> 9 t a f z m V C A A A J G G A A Z P G A P G A C C m m x f a t 9 > +.+.+.+.+.+.+.+.+.+.+.+.+.+.+.",
"+.+.+.+.+.+.+.+.+.+.+.+.+.X % 9 f b D K G G G Z C V m m V m m m c C c C m m V C A A J G H D N f 9 & X +.+.+.+.+.+.+.+.+.+.+.+.+.",
"+.+.+.+.+.+.+.+.+.+.+.+.o O - t b T ) ` ! Y P G V m x x x x x x c x x x x x m V A P R ~ ) ^ T b e - O X +.+.+.+.+.+.+.+.+.+.+.+.",
"+.+.+.+.+.+.+.+.+.+.+.+.% - 4 f K ) { { ' ! U L A V m m m m m m x x V x m m V Z P Y Q _ } } ) F f 9 - & +.+.+.+.+.+.+.+.+.+.+.+.",
"+.+.+.+.+.+.+.+.+.+.+.> 9 t f N T [ { | ' ! Y U P J G J G J J G P P P P J J J P U R ! ' } | ' T b d t 9 > +.+.+.+.+.+.+.+.+.+.+.",
"+.+.+.+.+.+.+.+.+.O - 9 f b D T ^ _ ' _ / W W W Q Q Q / ! ! / ! ! ! ~ ~ / ~ Q Q W W W / ' ' _ ^ T D N f 9 - + +.+.+.+.+.+.+.+.+.",
"+.+.+.+.+.+.+.+.X O - e b T ` ` ( / ! Q W W W / [ { { { } { } } ] ] } ] } } { _ / W W W W ! ~ / ` ) T b e - O X +.+.+.+.+.+.+.+.",
"+.+.+.+.+.+.+.+.X O - t S ^ { [ Q L J I U W ( ( { | |  . .X. . .X. . . .X.| | ' _ / W U I J I Q ' { ^ S t - O X +.+.+.+.+.+.+.+.",
"+.+.+.+.+.+.+.+.X O - t S ^ ' ^ J n n S L ! ' [ { { | | | | | }  . . . .| | } } } _ / L B n M H ^ ' ^ S r - O X +.+.+.+.+.+.+.+.",
"+.+.+.+.+.+.+.+.X O - e M E / L v t a l K ) { } { ' ' ' ' [ ' } [ [ ' ' ' ' ' } ..{ ) K c t u c L Q E M e = + X +.+.+.+.+.+.+.+.",
"+.+.+.+.+.+.+.+.X O = q c J L n t > 3 a D ) } } [ / ! W W Q ! ! ! ! ! Q ! ! ! ' | { ) D t 3 1 t M L L c q = + X +.+.+.+.+.+.+.+.",
"+.+.+.+.+.+.+.+.X O = 0 g B M s 3 & - t N ^ [ [ ( R U U L J G G G G J J P U Y ( ' [ Q b t - & 3 a B B g 0 = + X +.+.+.+.+.+.+.+.",
"+.+.+.+.+.+.+.+.+.O = 4 u s u 0 : @ % 5 l L Q ! Y L A m n l j g g j z n V A P Y Q ^ L c 9 & # ; 0 a s t 4 = O +.+.+.+.+.+.+.+.+.",
"+.+.+.+.+.+.+.+.+.+.+.> 4 4 4 ; @ @ * 2 d V P P J C m k u w 5 5 5 5 q u k m C P P J V d 2 % + % ; 4 4 4 > +.+.+.+.+.+.+.+.+.+.+.",
"+.+.+.+.+.+.+.+.+.+.+.+.& = & # + + % 2 y h m V m x h i 5 : * % % & > 6 i h x m m m k y 2 % + + # & = = +.+.+.+.+.+.+.+.+.+.+.+.",
"+.+.+.+.+.+.+.+.+.+.+.+.O + O o + + @ , 7 i p p h p i 7 : % O o o + % , 7 i p h h p i 7 , % + O O O O O +.+.+.+.+.+.+.+.+.+.+.+.",
"+.+.+.+.+.+.+.+.+.+.+.+.+.X X X o @ @ ; 2 6 7 8 8 7 6 2 * @ o . X X @ * , 6 7 8 8 7 6 2 ; $ o o X X X +.+.+.+.+.+.+.+.+.+.+.+.+.",
"+.+.+.+.+.+.+.+.+.+.+.+.+.+.+.+.+.+.+.* ; ; , , , , : - & +.+.+.+.+.+.& - , , , , ; ; , * +.+.+.+.+.+.+.+.+.+.+.+.+.+.+.+.+.+.+.",
"+.+.+.+.+.+.+.+.+.+.+.+.+.+.+.+.+.+.+.+.$ % $ % $ % $ $ +.+.+.+.+.+.+.+.@ % $ % % % % @ +.+.+.+.+.+.+.+.+.+.+.+.+.+.+.+.+.+.+.+.",
"+.+.+.+.+.+.+.+.+.+.+.+.+.+.+.+.+.+.+.+.+ + + O + + O O +.+.+.+.+.+.+.+.O + + + O O O O +.+.+.+.+.+.+.+.+.+.+.+.+.+.+.+.+.+.+.+.",
"+.+.+.+.+.+.+.+.+.+.+.+.+.+.+.+.+.+.+.+.+.X o o o X o +.+.+.+.+.+.+.+.+.+.o o X o o o +.+.+.+.+.+.+.+.+.+.+.+.+.+.+.+.+.+.+.+.+.",
"+.+.+.+.+.+.+.+.+.+.+.+.+.+.+.+.+.+.+.+.+.+.+.+.+.+.+.+.+.+.+.+.+.+.+.+.+.+.+.+.+.+.+.+.+.+.+.+.+.+.+.+.+.+.+.+.+.+.+.+.+.+.+.+.",
"+.+.+.+.+.+.+.+.+.+.+.+.+.+.+.+.+.+.+.+.+.+.+.+.+.+.+.+.+.+.+.+.+.+.+.+.+.+.+.+.+.+.+.+.+.+.+.+.+.+.+.+.+.+.+.+.+.+.+.+.+.+.+.+.",
"+.+.+.+.+.+.+.+.+.+.+.+.+.+.+.+.+.+.+.+.+.+.+.+.+.+.+.+.+.+.+.+.+.+.+.+.+.+.+.+.+.+.+.+.+.+.+.+.+.+.+.+.+.+.+.+.+.+.+.+.+.+.+.+.",
"+.+.+.+.+.+.+.+.+.+.+.+.+.+.+.+.+.+.+.+.+.+.+.+.+.+.+.+.+.+.+.+.+.+.+.+.+.+.+.+.+.+.+.+.+.+.+.+.+.+.+.+.+.+.+.+.+.+.+.+.+.+.+.+."
};
