/* XPM */
static char *result[] = {
/* columns rows colors chars-per-pixel */
"64 64 105 2 ",
"   c #29122C",
".  c #2E1730",
"X  c #341D34",
"o  c #372037",
"O  c #382137",
"+  c #372038",
"@  c #3E263C",
"#  c #40263B",
"$  c #42293E",
"%  c #452C41",
"&  c #482F43",
"*  c #4B3245",
"=  c #4F3648",
"-  c #513445",
";  c #513749",
":  c #543B4D",
">  c #5B3E4D",
",  c #5A3F50",
"<  c #5E404E",
"1  c #5D4352",
"2  c #61414E",
"3  c #624655",
"4  c #644857",
"5  c #654A59",
"6  c #6A4E5B",
"7  c #6D515E",
"8  c #72515B",
"9  c #6F5561",
"0  c #725561",
"q  c #755A65",
"w  c #795B66",
"e  c #775E69",
"r  c #7B5F69",
"t  c #7C626C",
"y  c #836067",
"u  c #83646B",
"i  c #896469",
"p  c #846770",
"a  c #836870",
"s  c #8B6D74",
"d  c #8F7077",
"f  c #8C737A",
"g  c #907177",
"h  c #9A7476",
"j  c #94757A",
"k  c #9A7679",
"l  c #97787D",
"z  c #997A7E",
"x  c #A57D7C",
"c  c #A8807E",
"v  c #9D7D81",
"b  c #9E8084",
"n  c #9F8689",
"m  c #A38385",
"M  c #AC8482",
"N  c #AF8986",
"B  c #A28689",
"V  c #A88789",
"C  c #A68C8D",
"Z  c #AB898A",
"A  c #B08987",
"S  c #B38D8A",
"D  c #B6908D",
"F  c #B9928F",
"G  c #A78E90",
"H  c #A88F90",
"J  c #AB9192",
"K  c #B49494",
"L  c #BA9693",
"P  c #BC9996",
"I  c #B59B9A",
"U  c #BD9B99",
"Y  c #C19D97",
"T  c #C29E99",
"R  c #C5A29D",
"E  c #C8A39E",
"W  c #C5A5A1",
"Q  c #CAA6A1",
"!  c #C4A9A5",
"~  c #CDAAA4",
"^  c #C5ACA8",
"/  c #CDAEA9",
"(  c #D0ADA7",
")  c #D1AEA8",
"_  c #CEB2AD",
"`  c #D4B3AC",
"'  c #D9B4AD",
"]  c #D4B7B1",
"[  c #DAB7B0",
"{  c #D4B9B3",
"}  c #DBBBB3",
"|  c #E0BFB6",
" . c #DEC0B7",
".. c #DDC2B9",
"X. c #E2C0B7",
"o. c #E3C5BB",
"O. c #E4C8BE",
"+. c #E8C9BF",
"@. c #E7CBC1",
"#. c #EACEC3",
"$. c #ECD1C5",
"%. c #EFD4C8",
"&. c #F1D6CA",
"*. c #F5DACD",
"=. c None",
/* pixels */
"=.=.=.=.=.=.=.=.=.=.=.=.=.=.=.=.=.=.=.=.=.=.=.=.=.=.=.=.=.=.=.=.=.=.=.=.=.=.=.=.=.=.=.=.=.=.=.=.=.=.=.=.=.=.=.=.=.=.=.=.=.=.=.=.",
"=.=.=.=.=.=.=.=.=.=.=.=.=.=.=.=.=.=.=.=.=.=.=.=.=.=.=.=.=.=.=.=.=.=.=.=.=.=.=.=.=.=.=.=.=.=.=.=.=.=.=.=.=.=.=.=.=.=.=.=.=.=.=.=.",
"=.=.=.=.=.=.=.=.=.=.=.=.=.=.=.=.=.=.=.=.=.=.=.=.=.=.=.=.=.=.=.=.=.=.=.=.=.=.=.=.=.=.=.=.=.=.=.=.=.=.=.=.=.=.=.=.=.=.=.=.=.=.=.=.",
"=.=.=.=.=.=.=.=.=.=.=.=.=.=.=.=.=.=.=.=.=.=.=.=.=.=.=.=.=.=.=.=.=.=.=.=.=.=.=.=.=.=.=.=.=.=.=.=.=.=.=.=.=.=.=.=.=.=.=.=.=.=.=.=.",
"=.=.=.=.=.=.=.=.=.=.=.=.=.=.=.=.=.=.=.=.=.X X X X X X . X X X X X X X X X X X X X X X =.=.=.=.=.=.=.=.=.=.=.=.=.=.=.=.=.=.=.=.=.",
"=.=.=.=.=.=.=.=.=.=.=.=.=.=.=.=.=.=.=.=.@ @ @ @ @ @ @ @ @ @ @ @ @ @ @ @ @ @ @ @ @ @ @ % =.=.=.=.=.=.=.=.=.=.=.=.=.=.=.=.=.=.=.=.",
"=.=.=.=.=.=.=.=.=.=.=.=.=.=.=.=.=.=.=.=.= ; ; ; : : , : : : : : : : : : : : : : ; ; = = =.=.=.=.=.=.=.=.=.=.=.=.=.=.=.=.=.=.=.=.",
"=.=.=.=.=.=.=.=.=.=.=.=.=.=.=.=.=.=.=.: 5 7 9 0 q r t t t t t t t t t t t t r q q 9 6 4 , =.=.=.=.=.=.=.=.=.=.=.=.=.=.=.=.=.=.=.",
"=.=.=.=.=.=.=.=.=.=.=.=.=.=.=.=.=.X & 3 r s v v n C G G G G G G G G G G G G G B v v s q 3 & X =.=.=.=.=.=.=.=.=.=.=.=.=.=.=.=.=.",
"=.=.=.=.=.=.=.=.=.=.=.=.=.=.=.=.X # ; 9 s V U Q ^ { { { { { { { { { { { { { _ / ! U Z s 7 ; % X =.=.=.=.=.=.=.=.=.=.=.=.=.=.=.=.",
"=.=.=.=.=.=.=.=.=.=.=.=.=.=.=.=.& ; 3 r v T ) } @.@.$.$.$.#.#.$.$.#.#.$.$.$.@.@.| ) U v w 3 ; & =.=.=.=.=.=.=.=.=.=.=.=.=.=.=.=.",
"=.=.=.=.=.=.=.=.=.=.=.=.=.=.=.: 4 7 r l K / } #.$.%.&.&.&.&.&.&.&.&.&.&.&.%.%.$.@.} / K v t 7 3 , =.=.=.=.=.=.=.=.=.=.=.=.=.=.=.",
"=.=.=.=.=.=.=.=.=.=.=.=.=.@ = 5 r s v K ! } @.#.$.$.%.%.&.&.&.&.&.%.&.&.&.&.$.$.#.@.} ! K v s r 4 = @ =.=.=.=.=.=.=.=.=.=.=.=.=.",
"=.=.=.=.=.=.=.=.=.=.=.=.X # ; 6 s V T / } ..@.$.$.$.$.$.$.$.$.$.$.$.$.$.$.$.$.$.#.@.o.[ / T V s 6 ; @ X =.=.=.=.=.=.=.=.=.=.=.=.",
"=.=.=.=.=.=.=.=.=.=.=.=.X @ ; 0 j L ( } o.@.$.$.%.$.$.$.$.$.#.$.$.#.$.$.$.$.$.$.%.$.@.o.[ / L d 9 ; @ X =.=.=.=.=.=.=.=.=.=.=.=.",
"=.=.=.=.=.=.=.=.=.=.=.=.X @ ; 7 l P ` | #.$.%.*.%.%.%.%.$.$.$.$.$.$.$.$.$.%.&.&.&.&.$.#.| ' P v 9 = $ X =.=.=.=.=.=.=.=.=.=.=.=.",
"=.=.=.=.=.=.=.=.=.=.=.=.X @ ; 8 l P ` | #.$.&.*.&.&.&.%.$.$.$.$.$.$.$.$.&.&.&.&.*.&.$.#.| ) P j 9 ; @ X =.=.=.=.=.=.=.=.=.=.=.=.",
"=.=.=.=.=.=.=.=.=.=.=.=.o @ ; 7 l K ( } o.+.#.$.$.#.#.$.$.$.$.$.$.$.$.$.$.#.$.$.$.$.@.| | ( L j 7 ; @ X =.=.=.=.=.=.=.=.=.=.=.=.",
"=.=.=.=.=.=.=.=.=.=.=.=.X @ ; 9 j K ~ ` ] ] { { { { { ..O.@.$.$.$.$.#.O.} { { { { { { { ' ! K j 0 ; @ X =.=.=.=.=.=.=.=.=.=.=.=.",
"=.=.=.=.=.=.=.=.=.=.=.=.X @ ; 0 l L W W U K J H G J I ! { O.$.$.$.$.O.{ ^ I J G G H K P W Q K v 0 ; # X =.=.=.=.=.=.=.=.=.=.=.=.",
"=.=.=.=.=.=.=.=.=.=.=.=.X @ ; 0 l L T K b s t t t t f n ^ ..$.*.&.$...! G f t e e t s v K T K j 0 ; @ + =.=.=.=.=.=.=.=.=.=.=.=.",
"=.=.=.=.=.=.=.=.=.=.=.=.X @ ; q l K U B a 5 : * * : 9 f I { #.*.*.$.{ I f 7 : * = : 5 p B P L v 0 ; # X =.=.=.=.=.=.=.=.=.=.=.=.",
"=.=.=.=.=.=.=.=.=.=.=.=.X # ; 0 v L L v e ; @ X X @ : t J { $.*.*.$.{ J t : @ . X @ : q v L K v 0 ; @ X =.=.=.=.=.=.=.=.=.=.=.=.",
"=.=.=.=.=.=.=.=.=.=.=.=.o @ ; 0 v P K v 9 & .     X * q G { $.*.*.$.{ G e * X     X & 9 v P L v q ; @ X =.=.=.=.=.=.=.=.=.=.=.=.",
"=.=.=.=.=.=.=.=.=.=.=.=.X @ ; q v L P v 0 & X     X * q G { $.*.*.$.{ G e * X     X & 0 v L P v q ; @ X =.=.=.=.=.=.=.=.=.=.=.=.",
"=.=.=.=.=.=.=.=.=.=.=.=.+ @ ; q v K K v q ; @ X X + , t J { #.*.*.$.{ J t : + X X @ = q v K K v q ; @ o =.=.=.=.=.=.=.=.=.=.=.=.",
"=.=.=.=.=.=.=.=.=.=.=.=.X @ ; 8 g V Z l r 1 = * * : 6 f I { $.*.*.$.{ I f 5 : = * ; 3 e l Z Z g 9 ; @ X =.=.=.=.=.=.=.=.=.=.=.=.",
"=.=.=.=.=.=.=.=.=.=.=.=.=.@ = 6 t s d s t q q 0 e e v G ^ ..$.*.&.$...^ G v t e 0 q q u p g s u 6 = @ =.=.=.=.=.=.=.=.=.=.=.=.=.",
"=.=.=.=.=.=.=.=.=.=.=.=.=.=.=.1 4 6 q r p j v b n J I ^ } @.$.%.%.$.@.{ ^ I G G b v g p r 0 7 4 > =.=.=.=.=.=.=.=.=.=.=.=.=.=.=.",
"=.=.=.=.=.=.=.=.=.=.=.=.=.=.=.=.* ; 1 q d Z P W _ _ { ..O.#.#.$.$.#.#.@...{ { ^ ! P Z d q 3 - * =.=.=.=.=.=.=.=.=.=.=.=.=.=.=.=.",
"=.=.=.=.=.=.=.=.=.=.=.=.=.=.=.=.% & > w z P ~ [ { } ..O.@.@.@.@.#.@.@.@.O...} { ' / P l w < * $ =.=.=.=.=.=.=.=.=.=.=.=.=.=.=.=.",
"=.=.=.=.=.=.=.=.=.=.=.=.=.=.=.$ - > 6 i M T ) ` [ ` { } } ....O.O...} } } ] ] { ' ) T M u 6 > - & =.=.=.=.=.=.=.=.=.=.=.=.=.=.=.",
"=.=.=.=.=.=.=.=.=.=.=.=.=.X # * 2 8 y x S R ( E T Y T R ( ` [ | } [ ' ( R T Y E ~ ~ T S h y 8 2 - & # =.=.=.=.=.=.=.=.=.=.=.=.=.",
"=.=.=.=.=.=.=.=.=.=.=.=.+ # * < 8 i h c L R E Y F S S F T Q ( ) ) / Q T F A A F Y T T Y M h i 8 2 & # X =.=.=.=.=.=.=.=.=.=.=.=.",
"=.=.=.=.=.=.=.=.=.=.=.=.; : 1 9 i h c S L R R L D A N S P T T Q W T T L D A A S F Y Y Y F v h y 3 & # X =.=.=.=.=.=.=.=.=.=.=.=.",
"=.=.=.=.=.=.=.=.=.=.=.1 9 t a d z N S F F F L L L F F L L F F F L F L L F F L L Y F S Y Y A x i 4 - % X =.=.=.=.=.=.=.=.=.=.=.=.",
"=.=.=.=.=.=.=.=.=.@ : 9 f n J K P P L F D A S L E ~ Q R L A M M c c A L R ~ ~ R L S A F L L Z s 6 - @ X =.=.=.=.=.=.=.=.=.=.=.=.",
"=.=.=.=.=.=.=.=.X @ : t n W { ` ) E R F N M N P ~ [ { ( Y A x x c c N P / [ { ~ Y M M S Y T S j 8 ; % X =.=.=.=.=.=.=.=.=.=.=.=.",
"=.=.=.=.=.=.=.=.X @ : t C _ o.o.[ ( R L N M N Y (  . .` T S M v c c S R )  . .) Y A M S Y T K l 0 ; # X =.=.=.=.=.=.=.=.=.=.=.=.",
"=.=.=.=.=.=.=.=.X @ ; t C ) o.o.| ' E R F S D Y (  . .` Q T Y L L Y Y ~ `  . ./ Y F S Y E Q P v 0 ; @ X =.=.=.=.=.=.=.=.=.=.=.=.",
"=.=.=.=.=.=.=.=.X @ ; e b ! } } ' ` ~ E Y P Y R ) ` [ ] ' / ) / ) ` ` ` [ [ ` / R P Y R ~ ~ U l q ; @ X =.=.=.=.=.=.=.=.=.=.=.=.",
"=.=.=.=.=.=.=.=.X @ ; q v P ~ ` ( ~ ~ E E E E E Q ) ) [ } | o.o.o... . .` ` ( ~ E E E E ~ Q L l 0 ; @ + =.=.=.=.=.=.=.=.=.=.=.=.",
"=.=.=.=.=.=.=.=.o @ ; 8 j L Q Q R P L U R E E ~ ~ Q ) ' } @.@.@.+.+... .` ) ( E ~ ~ E E W L B s 5 = @ X =.=.=.=.=.=.=.=.=.=.=.=.",
"=.=.=.=.=.=.=.=.X @ ; 0 l K W U A m m V L R ~ ~ Q Q ~ ' } @.o.@.+.O. . .' ) E ~ ~ ~ E Y S v s 0 1 & @ + =.=.=.=.=.=.=.=.=.=.=.=.",
"=.=.=.=.=.=.=.=.+ @ ; 0 v P R Z j t t f V U Q / ~ Q ~ ) [ [ | |  . . .` ) E E ) ~ ~ R Z l t 6 > * % + + =.=.=.=.=.=.=.=.=.=.=.=.",
"=.=.=.=.=.=.=.=.X @ ; q l K L m t 3 3 e v P ~ ( ~ ~ ~ ~ ~ ( ( ) ) ) / / E / ~ E ( Q P b t 3 = & # % @ @ =.=.=.=.=.=.=.=.=.=.=.=.",
"=.=.=.=.=.=.=.=.X @ ; 9 g Z m s 6 - ; 9 l U ~ ` ) ~ E W U P K K L L P U E E / ) ) ~ L z 8 = @ O + @ @ @ =.=.=.=.=.=.=.=.=.=.=.=.",
"=.=.=.=.=.=.=.=.=.@ = 6 u s s 0 > & = 9 v R ' ' ` ~ R L Z v v d g j c B P E ) ' ` ~ L l 7 = O X X + @ =.=.=.=.=.=.=.=.=.=.=.=.=.",
"=.=.=.=.=.=.=.=.=.=.=.1 6 9 5 , * $ = e n ^ } | [ / T V d r 0 6 6 8 r j Z T ( ' ' ( P l 7 = + X X =.=.=.=.=.=.=.=.=.=.=.=.=.=.=.",
"=.=.=.=.=.=.=.=.=.=.=.=.; = * & @ $ : t H _ o.@.} ) P v t 3 ; & & ; 3 r v P Q ` ) Q L l 9 ; @ + =.=.=.=.=.=.=.=.=.=.=.=.=.=.=.=.",
"=.=.=.=.=.=.=.=.=.=.=.=.@ # @ X X @ : t J { @.#.| ' P v 9 : @ X X @ ; 0 g Z L U T L Z s 7 ; @ X =.=.=.=.=.=.=.=.=.=.=.=.=.=.=.=.",
"=.=.=.=.=.=.=.=.=.=.=.=.=.X X X X @ , t J { $.%.@.{ R v 9 * @ . . X & 5 r d j l l l s r 5 = # =.=.=.=.=.=.=.=.=.=.=.=.=.=.=.=.=.",
"=.=.=.=.=.=.=.=.=.=.=.=.=.=.=.X X @ : t J { $.%.%.| / B q = X . . =.=., 5 7 0 0 0 0 6 5 1 =.=.=.=.=.=.=.=.=.=.=.=.=.=.=.=.=.=.=.",
"=.=.=.=.=.=.=.=.=.=.=.=.=.=.=.=.X @ : t G { #.*.&.#._ C e : @ X =.=.=.=.; ; ; ; ; ; ; ; =.=.=.=.=.=.=.=.=.=.=.=.=.=.=.=.=.=.=.=.",
"=.=.=.=.=.=.=.=.=.=.=.=.=.=.=.=.X @ : r G { $.*.*.$.{ G t : @ X =.=.=.=.@ @ @ # @ # @ @ =.=.=.=.=.=.=.=.=.=.=.=.=.=.=.=.=.=.=.=.",
"=.=.=.=.=.=.=.=.=.=.=.=.=.=.=.=.X @ : t G { $.*.*.%.{ G t : @ X =.=.=.=.=.X + X X X X =.=.=.=.=.=.=.=.=.=.=.=.=.=.=.=.=.=.=.=.=.",
"=.=.=.=.=.=.=.=.=.=.=.=.=.=.=.=.X @ : t G { $.*.*.$.{ H t : @ X =.=.=.=.=.=.=.=.=.=.=.=.=.=.=.=.=.=.=.=.=.=.=.=.=.=.=.=.=.=.=.=.",
"=.=.=.=.=.=.=.=.=.=.=.=.=.=.=.=.X @ : r G { $.*.*.#.{ G t : @ X =.=.=.=.=.=.=.=.=.=.=.=.=.=.=.=.=.=.=.=.=.=.=.=.=.=.=.=.=.=.=.=.",
"=.=.=.=.=.=.=.=.=.=.=.=.=.=.=.=.X @ : t G { $.*.*.%.{ G t ; @ X =.=.=.=.=.=.=.=.=.=.=.=.=.=.=.=.=.=.=.=.=.=.=.=.=.=.=.=.=.=.=.=.",
"=.=.=.=.=.=.=.=.=.=.=.=.=.=.=.=.=.@ , t G { $.*.*.$.{ G t , @ =.=.=.=.=.=.=.=.=.=.=.=.=.=.=.=.=.=.=.=.=.=.=.=.=.=.=.=.=.=.=.=.=.",
"=.=.=.=.=.=.=.=.=.=.=.=.=.=.=.=.=.=.=.=.=.=.=.=.=.=.=.=.=.=.=.=.=.=.=.=.=.=.=.=.=.=.=.=.=.=.=.=.=.=.=.=.=.=.=.=.=.=.=.=.=.=.=.=.",
"=.=.=.=.=.=.=.=.=.=.=.=.=.=.=.=.=.=.=.=.=.=.=.=.=.=.=.=.=.=.=.=.=.=.=.=.=.=.=.=.=.=.=.=.=.=.=.=.=.=.=.=.=.=.=.=.=.=.=.=.=.=.=.=.",
"=.=.=.=.=.=.=.=.=.=.=.=.=.=.=.=.=.=.=.=.=.=.=.=.=.=.=.=.=.=.=.=.=.=.=.=.=.=.=.=.=.=.=.=.=.=.=.=.=.=.=.=.=.=.=.=.=.=.=.=.=.=.=.=.",
"=.=.=.=.=.=.=.=.=.=.=.=.=.=.=.=.=.=.=.=.=.=.=.=.=.=.=.=.=.=.=.=.=.=.=.=.=.=.=.=.=.=.=.=.=.=.=.=.=.=.=.=.=.=.=.=.=.=.=.=.=.=.=.=."
};
