/* XPM */
static char *result[] = {
/* columns rows colors chars-per-pixel */
"64 64 109 2 ",
"   c #29122C",
".  c #2F1830",
"X  c #341D34",
"o  c #372037",
"O  c #372038",
"+  c #3D253B",
"@  c #40273D",
"#  c #42293E",
"$  c #452D41",
"%  c #482E42",
"&  c #4B3245",
"*  c #4F3548",
"=  c #503749",
"-  c #543B4C",
";  c #5A3E4E",
":  c #5F414F",
">  c #5D4352",
",  c #60414F",
"<  c #624654",
"1  c #634856",
"2  c #6B4B57",
"3  c #654A59",
"4  c #694D5A",
"5  c #6C515E",
"6  c #74535D",
"7  c #79565E",
"8  c #6F5461",
"9  c #705461",
"0  c #745A65",
"q  c #7C5B63",
"w  c #765D68",
"e  c #7A5E69",
"r  c #7C636D",
"t  c #825F65",
"y  c #846066",
"u  c #84636A",
"i  c #89656A",
"p  c #936D6F",
"a  c #806770",
"s  c #876D75",
"d  c #8D6D74",
"f  c #936D70",
"g  c #8C7077",
"h  c #8C7279",
"j  c #927176",
"k  c #9B7476",
"l  c #95767B",
"z  c #97787D",
"x  c #9A797D",
"c  c #A17777",
"v  c #A17877",
"b  c #A47D7C",
"n  c #A7807E",
"m  c #A9807E",
"M  c #9C7E82",
"N  c #9B8184",
"B  c #9E8588",
"V  c #A28183",
"C  c #AB8482",
"Z  c #AF8885",
"A  c #A18689",
"S  c #A68C8E",
"D  c #AB8A8B",
"F  c #B18987",
"G  c #B38D8A",
"H  c #B6918D",
"J  c #B8928E",
"K  c #A88F90",
"L  c #AB9193",
"P  c #B49594",
"I  c #BA9693",
"U  c #BC9996",
"Y  c #B49A99",
"T  c #BD9B99",
"R  c #BFA4A2",
"E  c #C19B97",
"W  c #C29E99",
"Q  c #C5A19D",
"!  c #C8A39E",
"~  c #C3A6A3",
"^  c #CAA6A1",
"/  c #C4A9A6",
"(  c #CDA9A4",
")  c #C7ADA9",
"_  c #CEAEA9",
"`  c #D1ACA7",
"'  c #D1AEA8",
"]  c #CFB2AC",
"[  c #D4B3AC",
"{  c #D8B5AE",
"}  c #D3B7B0",
"|  c #D8B7B0",
" . c #D5BAB3",
".. c #DBBCB4",
"X. c #E0BEB4",
"o. c #DEC0B7",
"O. c #DEC2B9",
"+. c #E0C0B7",
"@. c #E2C4BB",
"#. c #E4C8BF",
"$. c #E7CBC1",
"%. c #E9CEC3",
"&. c #ECD1C6",
"*. c #EFD4C8",
"=. c #F0D3C7",
"-. c #F1D6CA",
";. c #F5DACD",
":. c #F9DED0",
">. c None",
/* pixels */
">.>.>.>.>.>.>.>.>.>.>.>.>.>.>.>.>.>.>.>.>.>.>.>.>.>.>.>.>.>.>.>.>.>.>.>.>.>.>.>.>.>.>.>.>.>.>.>.>.>.>.>.>.>.>.>.>.>.>.>.>.>.>.>.",
">.>.>.>.>.>.>.>.>.>.>.>.>.>.>.>.>.>.>.>.>.>.>.>.>.>.>.>.>.>.>.>.>.>.>.>.>.>.>.>.>.>.>.>.>.>.>.>.>.>.>.>.>.>.>.>.>.>.>.>.>.>.>.>.",
">.>.>.>.>.>.>.>.>.>.>.>.>.>.>.>.>.>.>.>.>.>.>.>.>.>.>.>.>.>.>.>.>.>.>.>.>.>.>.>.>.>.>.>.>.>.>.>.>.>.>.>.>.>.>.>.>.>.>.>.>.>.>.>.",
">.>.>.>.>.>.>.>.>.>.>.>.>.>.>.>.>.>.>.>.>.>.>.>.>.>.>.>.>.>.>.>.>.>.>.>.>.>.>.>.>.>.>.>.>.>.>.>.>.>.>.>.>.>.>.>.>.>.>.>.>.>.>.>.",
">.>.>.>.>.>.>.>.>.>.>.>.>.>.>.>.>.>.>.>.>.>.>.>.>.>.>.>.>.>.>.>.>.>.>.>.>.>.>.>.>.>.>.>.>.>.>.>.>.>.>.>.>.>.>.>.>.>.>.>.>.>.>.>.",
">.>.>.>.>.>.>.>.>.>.>.>.>.>.>.>.>.>.>.>.>.>.>.>.>.>.>.>.>.>.>.>.>.>.>.>.>.>.>.>.>.>.>.>.>.>.>.>.>.>.>.>.>.>.>.>.>.>.>.>.>.>.>.>.",
">.>.>.>.>.>.>.>.>.>.>.>.>.>.>.>.>.>.>.>.>.>.>.>.>.>.>.>.>.>.>.>.>.>.>.>.>.>.>.>.>.>.>.>.>.>.>.>.>.>.>.>.>.>.>.>.>.>.>.>.>.>.>.>.",
">.>.>.>.>.>.>.>.>.>.>.>.>.>.>.>.>.>.>.>.>.>.>.>.>.>.>.>.>.>.>.>.>.>.>.>.>.>.>.>.>.>.>.>.>.>.>.>.>.>.>.>.>.>.>.>.>.>.>.>.>.>.>.>.",
">.>.>.>.>.>.>.>.>.>.>.>.>.>.>.>.>.>.>.>.>.O X X O O O X X X X X X X X X X X . X X X X X X X X >.>.>.>.>.>.>.>.>.>.>.>.>.>.>.>.>.",
">.>.>.>.>.>.>.>.>.>.>.>.>.>.>.>.>.>.>.>.+ $ + $ + O @ @ @ @ @ @ @ @ + + + @ + + + + + + @ @ @ @ >.>.>.>.>.>.>.>.>.>.>.>.>.>.>.>.",
">.>.>.>.>.>.>.>.>.>.>.>.>.>.>.>.>.>.>.>.* * * * * = = = * * = - - - - - - - - - - - - - = = * * >.>.>.>.>.>.>.>.>.>.>.>.>.>.>.>.",
">.>.>.>.>.>.>.>.>.>.>.>.>.>.>.>.>.>.>.- 3 5 8 8 9 9 5 9 5 9 9 0 w w r r r r r r r r w 0 0 9 5 3 > >.>.>.>.>.>.>.>.>.>.>.>.>.>.>.",
">.>.>.>.>.>.>.>.>.>.>.>.>.>.>.>.>.O & 1 y M M M M M M d M M M M B S S K K K K K L K S A M M d 0 3 = + >.>.>.>.>.>.>.>.>.>.>.>.>.",
">.>.>.>.>.>.>.>.>.>.>.>.>.>.>.>.O @ - 5 M M M U I P P H P U M ^ ) ]  . . . .}  . . .] ) ~ U D d 4 = + X >.>.>.>.>.>.>.>.>.>.>.>.",
">.>.>.>.>.>.>.>.>.>.>.>.>.>.>.>.% * > u M J ( ` ` ^ ^ ^ ( ` [ | @.$.%.&.&.%.&.&.%.&.$.$...' T M 9 = $ X >.>.>.>.>.>.>.>.>.>.>.>.",
">.>.>.>.>.>.>.>.>.>.>.>.>.>.>.; 1 4 u M M W ` ' ` ` ` { { | +.#.%.&.-.;.-.-.*.;.-.-.*.&.%.X.~ M 0 = + X >.>.>.>.>.>.>.>.>.>.>.>.",
">.>.>.>.>.>.>.>.>.>.>.>.>.+ * 3 e d M D T ^ ( ` ( ` ` { | O.#.$.&.&.*.-.-.*.-.-.-.-.&.*.&.#.) B w = @ X >.>.>.>.>.>.>.>.>.>.>.>.",
">.>.>.>.>.>.>.>.>.>.>.>.X + = 5 d D I Q ^ ^ ^ ( ( ( ` { +.#.$.%.&.&.&.&.&.&.&.&.&.&.&.*.&.$. .K e - + X >.>.>.>.>.>.>.>.>.>.>.>.",
">.>.>.>.>.>.>.>.>.>.>.>.o + = 9 l I ^ ` ` ( ( ^ ( ( ' { +.$.&.*.&.&.&.&.&.&.&.&.&.&.&.-.-.&. .L r - @ X >.>.>.>.>.>.>.>.>.>.>.>.",
">.>.>.>.>.>.>.>.>.>.>.>.X + = 9 z U ` ' ` ( ( ^ ( ( ' | @.&.-.-.-.-.-.&.&.&.$.&.&.&.&.-.;.*. .L r - @ . >.>.>.>.>.>.>.>.>.>.>.>.",
">.>.>.>.>.>.>.>.>.>.>.>.X + = 9 l E ` ' ` ( ^ ^ ^ ( ' | #.&.-.-.-.-.-.*.&.&.&.&.&.%.&.-.;.-. .L r ; + X >.>.>.>.>.>.>.>.>.>.>.>.",
">.>.>.>.>.>.>.>.>.>.>.>.o + = 9 l I ^ ` ` ( ( ^ ^ ( ` { O.#.&.&.&.&.&.$.&.&.&.&.&.&.&.*.-.$. .K r - + X >.>.>.>.>.>.>.>.>.>.>.>.",
">.>.>.>.>.>.>.>.>.>.>.>.X + = 5 l I ^ ` ` ( ( ^ ^ ( ( ' ] }  . . .O.O. .#.$.&.&.&.&.&.$.#.O.R B 0 = + X >.>.>.>.>.>.>.>.>.>.>.>.",
">.>.>.>.>.>.>.>.>.>.>.>.o + = 9 l I ^ ` ` ( ( ( ( ^ ^ ~ Y L L K S L Y R  .#.&.*.*.&.#. .R Y B r 3 * + X >.>.>.>.>.>.>.>.>.>.>.>.",
">.>.>.>.>.>.>.>.>.>.>.>.o + = 9 M P ^ ' ` ^ ( ( ( ( Q G M M 0 w w r h B R O.&.-.-.&.O.R L M w > = $ + O >.>.>.>.>.>.>.>.>.>.>.>.",
">.>.>.>.>.>.>.>.>.>.>.>.X + = 9 j I ^ ' ` ^ ( ` ` ^ T M u 4 * & $ > 8 h Y O.&.;.-.&. .Y M 3 - $ # @ + + >.>.>.>.>.>.>.>.>.>.>.>.",
">.>.>.>.>.>.>.>.>.>.>.>.X + = 8 M I ^ ' ` ( ^ ` ` ^ U M 9 = O X X + > r K  .&.;.;.&. .K w > O O O + + + >.>.>.>.>.>.>.>.>.>.>.>.",
">.>.>.>.>.>.>.>.>.>.>.>.X + = 8 j U ` ' ` ( ( ` ` ! G M 4 % X     . $ w K  .&.;.;.&. .K 0 $ O . X + @ @ >.>.>.>.>.>.>.>.>.>.>.>.",
">.>.>.>.>.>.>.>.>.>.>.>.X + = 6 M I ` ' ` ( ( ` ` ^ U M 4 $ X     . * w K R -.:.;.&. .S w * X . X + + + >.>.>.>.>.>.>.>.>.>.>.>.",
">.>.>.>.>.>.>.>.>.>.>.>.X + = 8 M I ( ` ` ( ( ` ' ^ E M 9 * @ X O O > r K O.&.;.;.&. .K r - @ O X + + + >.>.>.>.>.>.>.>.>.>.>.>.",
">.>.>.>.>.>.>.>.>.>.>.>.o + = 5 s M E ! ! ^ ( ` ` ( T M u > * & $ - 8 h Y  .&.;.;.&. .Y M 3 - % $ @ + + >.>.>.>.>.>.>.>.>.>.>.>.",
">.>.>.>.>.>.>.>.>.>.>.>.>.+ = 3 0 d M D E ! ` ' ' ` Q M M e 9 9 w r h L R O.&.;.-.&.#.R S h w > * $ + X >.>.>.>.>.>.>.>.>.>.>.>.",
">.>.>.>.>.>.>.>.>.>.>.>.>.>.>.; 1 5 e l D Q ' ' ' ` ^ U D M M M B K Y R O.$.&.-.-.#.#.@.] Y N r 3 $ O o >.>.>.>.>.>.>.>.>.>.>.>.",
">.>.>.>.>.>.>.>.>.>.>.>.>.>.>.>.% = < e M U ( ( ` ( ^ W T T T W R R  .O.$.%.&.&.-.-.#.#.@.o.R n 0 > + X >.>.>.>.>.>.>.>.>.>.>.>.",
">.>.>.>.>.>.>.>.>.>.>.>.>.>.>.>.X $ = 5 d D P U U I I W W W ^ { $.#.&.$.#.#.#.#.#.#.-.#.*.#.o.S 0 > + X >.>.>.>.>.>.>.>.>.>.>.>.",
">.>.>.>.>.>.>.>.>.>.>.>.>.>.>.>.>.X % 1 e j l M l l x M D I Q { $.*.*.#.O.O.R O.#.#.-.-.#.#.] S w > + X >.>.>.>.>.>.>.>.>.>.>.>.",
">.>.>.>.>.>.>.>.>.>.>.>.>.>.>.>.>.>.>.; 3 8 8 8 5 5 0 t f C I ` @.#.#.O.) Q Q ( o.#.#.-.#.o./ n 0 > + X >.>.>.>.>.>.>.>.>.>.>.>.",
">.>.>.>.>.>.>.>.>.>.>.>.>.>.>.>.>.>.>.>.& * * * * = ; 6 i k G W | @.#.} R K H T ] o.#.#.@.] Y h 5 $ + X >.>.>.>.>.>.>.>.>.>.>.>.",
">.>.>.>.>.>.>.>.>.>.>.>.>.>.>.>.>.>.>.>.+ + @ $ & = < 9 i c C E ' o.o.! J n m J ^ o.o.o.o.! P n 5 $ + X >.>.>.>.>.>.>.>.>.>.>.>.",
">.>.>.>.>.>.>.>.>.>.>.>.>.>.>.>.>.>.>.>.. X + & > 0 r j b M G E ! ! ! I Z b b Z I ! ( ( ! J m i 3 > + X >.>.>.>.>.>.>.>.>.>.>.>.",
">.>.>.>.>.>.>.>.>.>.>.>.>.>.>.>.>.>.>.>.. X $ > r M L Y P P I E I E J Z n k v n m H J J J m m y 1 & + o >.>.>.>.>.>.>.>.>.>.>.>.",
">.>.>.>.>.>.>.>.>.>.>.>.>.>.>.>.>.>.>.>.X @ = 0 M R ]  .` ~ W I H m m n n n v n n m m m m n n 7 < * + o >.>.>.>.>.>.>.>.>.>.>.>.",
">.>.>.>.>.>.>.>.>.>.>.>.>.>.>.>.>.>.>.>.& - 8 s Y ] $.@...` ! I J m n n n n m m m m m m m n p 7 : # + o >.>.>.>.>.>.>.>.>.>.>.>.",
">.>.>.>.>.>.>.>.>.>.>.>.>.>.>.>.>.>.>.> 8 r h S ~ ..X.X.| ' ^ E J Z Z G H E E E Q I I J m n p 7 , = + + >.>.>.>.>.>.>.>.>.>.>.>.",
">.>.>.>.>.>.>.>.>.>.>.>.>.>.>.>.>.@ = 8 h S Y R ' | ..| ' ( ^ W E I I Q ! _ [ [ [ [ ! E H n p 7 , = + o >.>.>.>.>.>.>.>.>.>.>.>.",
">.>.>.>.>.>.>.>.>.>.>.>.>.>.>.>.X @ - r B R }  .| ' ` ` ` ( ( ^ ! ! ! ` | o.#.#.@.@.o.( J n p 6 , # # o >.>.>.>.>.>.>.>.>.>.>.>.",
">.>.>.>.>.>.>.>.>.>.>.>.>.>.>.>.X + - r S ] O.O.| ^ ! ^ ^ ^ ( ( ( ` [ | o.@.#.#.#.#.@.( H n r 6 : = + o >.>.>.>.>.>.>.>.>.>.>.>.",
">.>.>.>.>.>.>.>.>.>.>.>.>.>.>.>.X + = e S [ #...' W E E W ( ` ` } { | o.o.o.@.#.#.#.o.E n i 7 < - # + >.>.>.>.>.>.>.>.>.>.>.>.>.",
">.>.>.>.>.>.>.>.>.>.>.>.>.>.>.>.X + - 0 A ^ | [ W J J E E ^ ` { ....@.....| | ..+...` K g 6 : = # >.>.>.>.>.>.>.>.>.>.>.>.>.>.>.",
">.>.>.>.>.>.>.>.>.>.>.>.>.>.>.>.X + = 0 M T ^ W J Z b Z E W ` | @.@.#.+.| [ [ [ [ ` T x e : & # >.>.>.>.>.>.>.>.>.>.>.>.>.>.>.>.",
">.>.>.>.>.>.>.>.>.>.>.>.>.>.>.>.X + * 8 d D H D b k c b G E ( { @.#.$.#...[ ( ^ Q U D d 5 * + o >.>.>.>.>.>.>.>.>.>.>.>.>.>.>.>.",
">.>.>.>.>.>.>.>.>.>.>.>.>.>.>.>.>.+ * 4 e d g d t t t f b H E ` ..#.%.%.#.| ) T D x d 0 > & + >.>.>.>.>.>.>.>.>.>.>.>.>.>.>.>.>.",
">.>.>.>.>.>.>.>.>.>.>.>.>.>.>.>.>.>.>.> 4 4 4 4 < < 2 t p b J ^ ..#.&.&.%.O.] Y z r 3 : - >.>.>.>.>.>.>.>.>.>.>.>.>.>.>.>.>.>.>.",
">.>.>.>.>.>.>.>.>.>.>.>.>.>.>.>.>.>.>.>.* = = & % % - 2 t k F E [ @.&.-.*.$.} L s 3 = $ >.>.>.>.>.>.>.>.>.>.>.>.>.>.>.>.>.>.>.>.",
">.>.>.>.>.>.>.>.>.>.>.>.>.>.>.>.>.>.>.>.+ + + + @ # % , q p M E ` o.$.=.*.&.O.Y h 8 > & >.>.>.>.>.>.>.>.>.>.>.>.>.>.>.>.>.>.>.>.",
">.>.>.>.>.>.>.>.>.>.>.>.>.>.>.>.>.>.>.>.>.X X X X X % , 6 p b E ^ { @.%.&.%.O.R B s r 5 > >.>.>.>.>.>.>.>.>.>.>.>.>.>.>.>.>.>.>.",
">.>.>.>.>.>.>.>.>.>.>.>.>.>.>.>.>.>.>.>.>.>.>.X X + # ; 7 p b J Q ` | @.%.%.#. ./ Y B h 8 > + >.>.>.>.>.>.>.>.>.>.>.>.>.>.>.>.>.",
">.>.>.>.>.>.>.>.>.>.>.>.>.>.>.>.>.>.>.>.>.>.>.>.o @ & , 7 p b G E ^ [ o.@.%.%.%.O.o.R B w = + X >.>.>.>.>.>.>.>.>.>.>.>.>.>.>.>.",
">.>.>.>.>.>.>.>.>.>.>.>.>.>.>.>.>.>.>.>.>.>.>.>.o @ & , 7 p b G U ! ` | O.$.&.*.-.%.| L r = O X >.>.>.>.>.>.>.>.>.>.>.>.>.>.>.>.",
">.>.>.>.>.>.>.>.>.>.>.>.>.>.>.>.>.>.>.>.>.>.>.>.>.+ & , 7 p b G J ! ( | @.%.&.;.:.-.o.Y r > + >.>.>.>.>.>.>.>.>.>.>.>.>.>.>.>.>.",
">.>.>.>.>.>.>.>.>.>.>.>.>.>.>.>.>.>.>.>.>.>.>.>.>.>.>.>.>.>.>.>.>.>.>.>.>.>.>.>.>.>.>.>.>.>.>.>.>.>.>.>.>.>.>.>.>.>.>.>.>.>.>.>.",
">.>.>.>.>.>.>.>.>.>.>.>.>.>.>.>.>.>.>.>.>.>.>.>.>.>.>.>.>.>.>.>.>.>.>.>.>.>.>.>.>.>.>.>.>.>.>.>.>.>.>.>.>.>.>.>.>.>.>.>.>.>.>.>.",
">.>.>.>.>.>.>.>.>.>.>.>.>.>.>.>.>.>.>.>.>.>.>.>.>.>.>.>.>.>.>.>.>.>.>.>.>.>.>.>.>.>.>.>.>.>.>.>.>.>.>.>.>.>.>.>.>.>.>.>.>.>.>.>.",
">.>.>.>.>.>.>.>.>.>.>.>.>.>.>.>.>.>.>.>.>.>.>.>.>.>.>.>.>.>.>.>.>.>.>.>.>.>.>.>.>.>.>.>.>.>.>.>.>.>.>.>.>.>.>.>.>.>.>.>.>.>.>.>."
};
