/* XPM */
static char *result[] = {
/* columns rows colors chars-per-pixel */
"64 64 116 2 ",
"   c #2A132D",
".  c #2F1831",
"X  c #341D34",
"o  c #372037",
"O  c #382037",
"+  c #372038",
"@  c #3D253B",
"#  c #40273D",
"$  c #42293E",
"%  c #452D41",
"&  c #482F42",
"*  c #4B3245",
"=  c #4F3548",
"-  c #513647",
";  c #503749",
":  c #543B4D",
">  c #5A3D4E",
",  c #5F414F",
"<  c #5D4353",
"1  c #60414F",
"2  c #614553",
"3  c #644856",
"4  c #6B4B57",
"5  c #644A59",
"6  c #6A4E5B",
"7  c #6C515E",
"8  c #74535D",
"9  c #79575E",
"0  c #6F5461",
"q  c #715461",
"w  c #745A65",
"e  c #7B5A62",
"r  c #765E69",
"t  c #7A5E69",
"y  c #7C626D",
"u  c #815E64",
"i  c #846066",
"p  c #83636B",
"a  c #8A656A",
"s  c #8C686C",
"d  c #936C6E",
"f  c #806770",
"g  c #876D75",
"h  c #8C6E75",
"j  c #956E70",
"k  c #8E7076",
"l  c #8C7279",
"z  c #947174",
"x  c #9C7575",
"c  c #95767B",
"v  c #9B7778",
"b  c #97787D",
"n  c #9A7A7D",
"m  c #A17777",
"M  c #A17877",
"N  c #A57C7B",
"B  c #AA7F7C",
"V  c #A7807E",
"C  c #A9807E",
"Z  c #9C7E82",
"A  c #9C8185",
"S  c #9E8589",
"D  c #A18184",
"F  c #AB8482",
"G  c #AF8885",
"H  c #A28689",
"J  c #A68B8E",
"K  c #AB8A8B",
"L  c #B18A87",
"P  c #B48E8B",
"I  c #B6918D",
"U  c #B8938E",
"Y  c #A88F90",
"T  c #AB9192",
"R  c #B39594",
"E  c #B99693",
"W  c #B29897",
"Q  c #BC9996",
"!  c #B49A99",
"~  c #BD9C99",
"^  c #BEA29F",
"/  c #BFA4A1",
"(  c #C19C97",
")  c #C29F9A",
"_  c #C4A29D",
"`  c #C8A39E",
"'  c #C3A5A2",
"]  c #CAA6A2",
"[  c #C4A9A6",
"{  c #CDA9A4",
"}  c #C7ADA9",
"|  c #CDAEA9",
" . c #D1ACA7",
".. c #D1AEA8",
"X. c #CFB3AD",
"o. c #D4B3AC",
"O. c #D8B5AE",
"+. c #D3B7B0",
"@. c #D8B7B0",
"#. c #D5BAB3",
"$. c #DBBBB3",
"%. c #E0BFB6",
"&. c #DFC0B7",
"*. c #DDC2B9",
"=. c #E1C0B7",
"-. c #E2C5BB",
";. c #E5C9BF",
":. c #E8C9BF",
">. c #E6CBC0",
",. c #E9CDC3",
"<. c #ECD1C6",
"1. c #EFD4C8",
"2. c #F0D3C7",
"3. c #F1D6CA",
"4. c #F5DACD",
"5. c None",
/* pixels */
"5.5.5.5.5.5.5.5.5.5.5.5.5.5.5.5.5.5.5.5.5.5.5.5.5.5.5.5.5.5.5.5.5.5.5.5.5.5.5.5.5.5.5.5.5.5.5.5.5.5.5.5.5.5.5.5.5.5.5.5.5.5.5.5.",
"5.5.5.5.5.5.5.5.5.5.5.5.5.5.5.5.5.5.5.5.5.5.5.5.5.5.5.5.5.5.5.5.5.5.5.5.5.5.5.5.5.5.5.5.5.5.5.5.5.5.5.5.5.5.5.5.5.5.5.5.5.5.5.5.",
"5.5.5.5.5.5.5.5.5.5.5.5.5.5.5.5.5.5.5.5.5.5.5.5.5.5.5.5.5.5.5.5.5.5.5.5.5.5.5.5.5.5.5.5.5.5.5.5.5.5.5.5.5.5.5.5.5.5.5.5.5.5.5.5.",
"5.5.5.5.5.5.5.5.5.5.5.5.5.5.5.5.5.5.5.5.5.5.5.5.5.5.5.5.5.5.5.5.5.5.5.5.5.5.5.5.5.5.5.5.5.5.5.5.5.5.5.5.5.5.5.5.5.5.5.5.5.5.5.5.",
"5.5.5.5.5.5.5.5.5.5.5.5.5.5.5.5.5.5.5.5.5.X X X X X X X X X X X X X X X X X X X X X X X X X X 5.5.5.5.5.5.5.5.5.5.5.5.5.5.5.5.5.",
"5.5.5.5.5.5.5.5.5.5.5.5.5.5.5.5.5.5.5.5.# # # # @ % # @ @ @ @ @ @ @ # @ @ @ # @ # # @ @ @ @ % @ 5.5.5.5.5.5.5.5.5.5.5.5.5.5.5.5.",
"5.5.5.5.5.5.5.5.5.5.5.5.5.5.5.5.5.5.5.5.= = = = = ; ; ; ; ; ; ; : : : : : : : : : : : : ; ; ; = 5.5.5.5.5.5.5.5.5.5.5.5.5.5.5.5.",
"5.5.5.5.5.5.5.5.5.5.5.5.5.5.5.5.5.5.5.> 5 7 7 6 q 0 0 0 q q q w r r y y y y y y y y t w w q 7 5 < 5.5.5.5.5.5.5.5.5.5.5.5.5.5.5.",
"5.5.5.5.5.5.5.5.5.5.5.5.5.5.5.5.5.+ * 5 t h Z Z Z Z Z Z h Z Z Z S J Y Y Y Y Y Y Y Y J S Z Z g e 5 = @ 5.5.5.5.5.5.5.5.5.5.5.5.5.",
"5.5.5.5.5.5.5.5.5.5.5.5.5.5.5.5.+ # ; 7 Z Z E Q I E K E E E ! ' } X.#.#.#.+.#.#.#.#.+.} ] ~ K g 6 = % X 5.5.5.5.5.5.5.5.5.5.5.5.",
"5.5.5.5.5.5.5.5.5.5.5.5.5.5.5.5.& = 2 i Z Q ]  .] ] ] ] ] { o.@.%.>.,.<.<.<.<.<.<.<.>.>.%...Q Z q ; @ X 5.5.5.5.5.5.5.5.5.5.5.5.",
"5.5.5.5.5.5.5.5.5.5.5.5.5.5.5.> 5 7 u Z Z ] .... . ...O.O.@.=.-.,.1.3.3.3.3.3.3.3.3.<.,.,.$.' Z w : @ X 5.5.5.5.5.5.5.5.5.5.5.5.",
"5.5.5.5.5.5.5.5.5.5.5.5.5.@ ; 5 i Z Z Z Q ]  . . . ...O.$.=.;.>.<.1.1.1.3.1.1.1.3.1.1.2.<.>.} H r ; @ X 5.5.5.5.5.5.5.5.5.5.5.5.",
"5.5.5.5.5.5.5.5.5.5.5.5.X @ ; 7 Z Z E ~ ] ] ] { ] {  .O.%.-.,.,.<.<.<.<.<.1.<.<.<.<.<.3.<.>.X.Y t : @ X 5.5.5.5.5.5.5.5.5.5.5.5.",
"5.5.5.5.5.5.5.5.5.5.5.5.X @ ; 0 Z Z ]  .{ { { ] ] ]  .@.*.,.<.<.<.<.<.<.<.<.<.<.<.<.<.3.3.<.+.Y y : @ X 5.5.5.5.5.5.5.5.5.5.5.5.",
"5.5.5.5.5.5.5.5.5.5.5.5.X @ = 8 Z Q  ... .{ { ] ] { ..@.-.<.3.3.3.1.1.1.<.<.<.,.,.<.<.3.4.2.$.T y : @ X 5.5.5.5.5.5.5.5.5.5.5.5.",
"5.5.5.5.5.5.5.5.5.5.5.5.o @ ; 8 b Q { ....{ { ] ] { ..@.;.<.3.4.3.1.3.1.<.<.<.<.<.<.<.4.4.1.*.T y : % X 5.5.5.5.5.5.5.5.5.5.5.5.",
"5.5.5.5.5.5.5.5.5.5.5.5.X @ ; q b R {  . . .{ { ] ] ..O.=.:.,.<.<.<.<.<.<.<.<.<.<.<.<.3.3.>.#.Y y : @ X 5.5.5.5.5.5.5.5.5.5.5.5.",
"5.5.5.5.5.5.5.5.5.5.5.5.o @ ; q c R {  . .{ ] { ] { { ..X.+.#.#.#.#.#.*.;.>.<.<.<.<.>.>.;.#./ S w = # X 5.5.5.5.5.5.5.5.5.5.5.5.",
"5.5.5.5.5.5.5.5.5.5.5.5.X @ ; q c E ] .. .{ ` { { { ] ~ ! R T Y Y T ! / #.;.<.<.<.<.>.*./ W S y < = @ X 5.5.5.5.5.5.5.5.5.5.5.5.",
"5.5.5.5.5.5.5.5.5.5.5.5.X @ = q c U ]  .{ { ] { { { ) R Z g y t r y l J / *.<.4.3.<.*./ S g r < : % @ + 5.5.5.5.5.5.5.5.5.5.5.5.",
"5.5.5.5.5.5.5.5.5.5.5.5.X @ ; q c ( ]  . .{ {  . .] Q Z f 5 : * = : 0 l ! #.<.4.4.<.#.! Z 0 : % $ $ @ + 5.5.5.5.5.5.5.5.5.5.5.5.",
"5.5.5.5.5.5.5.5.5.5.5.5.o @ ; 0 c E ]  . . .]  . .] I Z q = @ X + @ : y Y #.<.4.4.<.#.T y : @ + + @ @ @ 5.5.5.5.5.5.5.5.5.5.5.5.",
"5.5.5.5.5.5.5.5.5.5.5.5.X @ ; q b Q  . . .{ {  . .` R Z 6 & .     . * r Y #.<.4.4.<.#.Y r * X . X @ @ @ 5.5.5.5.5.5.5.5.5.5.5.5.",
"5.5.5.5.5.5.5.5.5.5.5.5.+ @ ; q b E  .....{ {  . .] Q c 6 & X     . * r J #.<.4.4.<.+.Y r * + . X @ @ @ 5.5.5.5.5.5.5.5.5.5.5.5.",
"5.5.5.5.5.5.5.5.5.5.5.5.X @ ; q b E ]  . .] ]  . .] E Z q = @ X + + < y T #.<.4.4.<.#.T y : @ + + + @ @ 5.5.5.5.5.5.5.5.5.5.5.5.",
"5.5.5.5.5.5.5.5.5.5.5.5.X @ ; 7 h K Q ) ` ]  . ...] E Z w 2 ; * % : 0 l ! #.<.3.4.<.#.! Z 5 = % % # @ @ 5.5.5.5.5.5.5.5.5.5.5.5.",
"5.5.5.5.5.5.5.5.5.5.5.5.5.@ = 5 t z Z K Q `  ..... ._ K Z p w q r y l S / *.<.4.4.<.*.} S Z w < ; % @ + 5.5.5.5.5.5.5.5.5.5.5.5.",
"5.5.5.5.5.5.5.5.5.5.5.5.5.5.5.> 2 7 t c K _  .o.O. .` ( K Z Z Z S Y ! / *.>.<.1.1.<.>.#.} ! S y 5 * @ X 5.5.5.5.5.5.5.5.5.5.5.5.",
"5.5.5.5.5.5.5.5.5.5.5.5.5.5.5.5.* ; 2 t Z Q ]  . .] ` _ ~ ~ ~ _ / #.#.*.>.<.<.<.<.<.>.>.>.#./ Z w : @ X 5.5.5.5.5.5.5.5.5.5.5.5.",
"5.5.5.5.5.5.5.5.5.5.5.5.5.5.5.5.X % ; 7 h K Q Q ( I E E ( ` { ..*.<.<.>.>.*.*.>.>.<.,.1.1.>.X.J y : # X 5.5.5.5.5.5.5.5.5.5.5.5.",
"5.5.5.5.5.5.5.5.5.5.5.5.5.5.5.5.5.X & 5 t k c c z Z Z Z Z ( ` O.*.<.<.>.*.#.#.#.-.,.<.1.1.>.X.J r : @ X 5.5.5.5.5.5.5.5.5.5.5.5.",
"5.5.5.5.5.5.5.5.5.5.5.5.5.5.5.5.5.5.5.> 5 0 0 0 6 6 e p x Z (  .*.<.<.&..._ _ ` &.-.:.1.:.*.^ V w = + X 5.5.5.5.5.5.5.5.5.5.5.5.",
"5.5.5.5.5.5.5.5.5.5.5.5.5.5.5.5.5.5.5.5.= = = = ; : > 7 u m G ) #.*.-.+._ P P _ X.&.:.:.-.O.^ V 7 , @ X 5.5.5.5.5.5.5.5.5.5.5.5.",
"5.5.5.5.5.5.5.5.5.5.5.5.5.5.5.5.5.5.5.5.+ @ @ % * : 2 q s m G ( X.#.$.` U C C U { &.&.&.o.` U k 7 = @ o 5.5.5.5.5.5.5.5.5.5.5.5.",
"5.5.5.5.5.5.5.5.5.5.5.5.5.5.5.5.5.5.5.5.. X @ * < w f j N Z L E / [ ` Q G v V G E _ {  .` Q C h 5 = @ o 5.5.5.5.5.5.5.5.5.5.5.5.",
"5.5.5.5.5.5.5.5.5.5.5.5.5.5.5.5.5.5.5.5.. X % < y Z Y W R E E ( E E U L V M M V P R U Q U G V a 5 * @ O 5.5.5.5.5.5.5.5.5.5.5.5.",
"5.5.5.5.5.5.5.5.5.5.5.5.5.5.5.5.5.5.5.5.X @ ; r Z / X.+...` ) E U L C C V M M M C C C C C V j e < * @ o 5.5.5.5.5.5.5.5.5.5.5.5.",
"5.5.5.5.5.5.5.5.5.5.5.5.5.5.5.5.5.5.5.5.* : 7 g T +.-.*.$. .` ( P C C C C C C C C C C C V V d e < - $ o 5.5.5.5.5.5.5.5.5.5.5.5.",
"5.5.5.5.5.5.5.5.5.5.5.5.5.5.5.5.5.5.5.< 0 t l J ' #.-.-.@. .] _ ( _ E E ( Q Q ^ Q Q U P C V d 9 1 $ @ O 5.5.5.5.5.5.5.5.5.5.5.5.",
"5.5.5.5.5.5.5.5.5.5.5.5.5.5.5.5.5.# : w l J W / ..+.@.O... .{ {  .{  .| X.o.X...o.| { ( P V d 9 , * @ o 5.5.5.5.5.5.5.5.5.5.5.5.",
"5.5.5.5.5.5.5.5.5.5.5.5.5.5.5.5.X # : r S / +.#.+..... .] {  ...&.&.-.*.-.*.-.-.-.&.&.{ R V d 9 , * @ o 5.5.5.5.5.5.5.5.5.5.5.5.",
"5.5.5.5.5.5.5.5.5.5.5.5.5.5.5.5.X @ : y J X.*.-.@... .]  . ...$.&.;.;.:.:.:.:.:.;.*.&.` I V a 7 , $ @ @ 5.5.5.5.5.5.5.5.5.5.5.5.",
"5.5.5.5.5.5.5.5.5.5.5.5.5.5.5.5.X @ : r J +.-.-.@. .] { ..o.$.$.&.*.-.-.-.-.-.-.;.&.&.~ V a 9 < > * @ 5.5.5.5.5.5.5.5.5.5.5.5.5.",
"5.5.5.5.5.5.5.5.5.5.5.5.5.5.5.5.X # : w D [ $.%.o. .] ..#.$.$.$.&.@.&.o.O.O.@.&.&.&./ Y g 8 < , $ 5.5.5.5.5.5.5.5.5.5.5.5.5.5.5.",
"5.5.5.5.5.5.5.5.5.5.5.5.5.5.5.5.X # ; q Z Q  . . .{  .@.$.>.>.$.&.o. . . .| ....| { W V y < = @ 5.5.5.5.5.5.5.5.5.5.5.5.5.5.5.5.",
"5.5.5.5.5.5.5.5.5.5.5.5.5.5.5.5.X # ; 7 h K Q ) ] | ..$.>.>.>.>.@.o.|  .|  ... .o. .Q V 7 = + X 5.5.5.5.5.5.5.5.5.5.5.5.5.5.5.5.",
"5.5.5.5.5.5.5.5.5.5.5.5.5.5.5.5.5.# ; 2 e s Z Y ~ | $.-.,.,.,.>.&.&.&.O.&.@.&.&.&.@._ V 8 , + X 5.5.5.5.5.5.5.5.5.5.5.5.5.5.5.5.",
"5.5.5.5.5.5.5.5.5.5.5.5.5.5.5.5.5.5.5.: < 6 t Z T X.-.,.<.<.<.<.>.;.;.-.;.;.-.:.,.*.} H r ; O X 5.5.5.5.5.5.5.5.5.5.5.5.5.5.5.5.",
"5.5.5.5.5.5.5.5.5.5.5.5.5.5.5.5.5.5.5.5.& ; < g T +.>.1.1.<.,.,.,.:.:.;.;.>.:.<.<.;.o.J y : @ X 5.5.5.5.5.5.5.5.5.5.5.5.5.5.5.5.",
"5.5.5.5.5.5.5.5.5.5.5.5.5.5.5.5.5.5.5.5.= : 0 l ! #.,.1.<.>.>.-.*.#.+.+.+.+.#.*.-.*.} H r ; @ X 5.5.5.5.5.5.5.5.5.5.5.5.5.5.5.5.",
"5.5.5.5.5.5.5.5.5.5.5.5.5.5.5.5.5.5.5.< 7 w g J [ *.,.1.,.>.$.X.^ W T Y T T W ^ { } ^ n 0 ; O X 5.5.5.5.5.5.5.5.5.5.5.5.5.5.5.5.",
"5.5.5.5.5.5.5.5.5.5.5.5.5.5.5.5.5.@ : 0 g S W [ #.>.,.,.>.%...Q A l y y y y g b K I K k 4 * @ X 5.5.5.5.5.5.5.5.5.5.5.5.5.5.5.5.",
"5.5.5.5.5.5.5.5.5.5.5.5.5.5.5.5.X @ : r S [ #.-.>.<.,.-.%...) Z y 5 : = = , < w s N v i 3 - @ O 5.5.5.5.5.5.5.5.5.5.5.5.5.5.5.5.",
"5.5.5.5.5.5.5.5.5.5.5.5.5.5.5.5.X @ : y Y +.,.3.<.>.-.#.| ( K h 7 ; @ o O @ * 1 i j j i 4 > * $ 5.5.5.5.5.5.5.5.5.5.5.5.5.5.5.5.",
"5.5.5.5.5.5.5.5.5.5.5.5.5.5.5.5.X # : y T #.2.3.<.-.+.[ R Z h w < % o   . O $ , 9 s j a 9 4 1 > > 5.5.5.5.5.5.5.5.5.5.5.5.5.5.5.",
"5.5.5.5.5.5.5.5.5.5.5.5.5.5.5.5.X @ : y T #.2.2.>.$.{ Y c y 7 < : 5.5.. . o $ 1 9 d x j d u 9 4 > * @ 5.5.5.5.5.5.5.5.5.5.5.5.5.",
"5.5.5.5.5.5.5.5.5.5.5.5.5.5.5.5.X @ : y Y #.>.,.%.+.) Z y 2 ; * 5.5.5.5.o @ * 2 9 d m m x d a 9 , * @ o 5.5.5.5.5.5.5.5.5.5.5.5.",
"5.5.5.5.5.5.5.5.5.5.5.5.5.5.5.5.X @ : y T +.>.>.%...E c 8 ; # o 5.5.5.5.O @ & 1 e d M B B m d 9 , * @ @ 5.5.5.5.5.5.5.5.5.5.5.5.",
"5.5.5.5.5.5.5.5.5.5.5.5.5.5.5.5.5.% : y Y #.>.>.%. .R j 6 & X 5.5.5.5.5.5.@ * 1 9 d M C B N j 9 2 $ @ 5.5.5.5.5.5.5.5.5.5.5.5.5.",
"5.5.5.5.5.5.5.5.5.5.5.5.5.5.5.5.5.5.5.5.5.5.5.5.5.5.5.5.5.5.5.5.5.5.5.5.5.5.5.5.5.5.5.5.5.5.5.5.5.5.5.5.5.5.5.5.5.5.5.5.5.5.5.5.",
"5.5.5.5.5.5.5.5.5.5.5.5.5.5.5.5.5.5.5.5.5.5.5.5.5.5.5.5.5.5.5.5.5.5.5.5.5.5.5.5.5.5.5.5.5.5.5.5.5.5.5.5.5.5.5.5.5.5.5.5.5.5.5.5.",
"5.5.5.5.5.5.5.5.5.5.5.5.5.5.5.5.5.5.5.5.5.5.5.5.5.5.5.5.5.5.5.5.5.5.5.5.5.5.5.5.5.5.5.5.5.5.5.5.5.5.5.5.5.5.5.5.5.5.5.5.5.5.5.5.",
"5.5.5.5.5.5.5.5.5.5.5.5.5.5.5.5.5.5.5.5.5.5.5.5.5.5.5.5.5.5.5.5.5.5.5.5.5.5.5.5.5.5.5.5.5.5.5.5.5.5.5.5.5.5.5.5.5.5.5.5.5.5.5.5."
};
