/* XPM */
static char *result[] = {
/* columns rows colors chars-per-pixel */
"64 64 102 2 ",
"   c #2C152E",
".  c #341D34",
"X  c #382037",
"o  c #372038",
"O  c #3E263C",
"+  c #40273D",
"@  c #42293E",
"#  c #462D41",
"$  c #482F43",
"%  c #4B3245",
"&  c #4E3649",
"*  c #523546",
"=  c #503749",
"-  c #543B4D",
";  c #5A3E4D",
":  c #5F414F",
">  c #5D4353",
",  c #60414F",
"<  c #624654",
"1  c #644857",
"2  c #694954",
"3  c #664B59",
"4  c #6A4D5B",
"5  c #6D525E",
"6  c #72535D",
"7  c #79565E",
"8  c #7B585F",
"9  c #6D5461",
"0  c #705460",
"q  c #755965",
"w  c #7B5B65",
"e  c #775E69",
"r  c #7A5F69",
"t  c #7B616B",
"y  c #836167",
"u  c #83646C",
"i  c #896469",
"p  c #936D6F",
"a  c #856971",
"s  c #8C6D74",
"d  c #897077",
"f  c #8A7178",
"g  c #917277",
"h  c #9A7374",
"j  c #95757A",
"k  c #9C7778",
"l  c #96797E",
"z  c #9C7A7D",
"x  c #A77F7D",
"c  c #9D7D81",
"v  c #A07E81",
"b  c #9F8084",
"n  c #9F8589",
"m  c #A28285",
"M  c #AC8483",
"N  c #A38689",
"B  c #AC8788",
"V  c #A48A8D",
"C  c #AA8A8B",
"Z  c #B08986",
"A  c #B48D89",
"S  c #B5908E",
"D  c #B8928E",
"F  c #A88F90",
"G  c #AB9192",
"H  c #B29595",
"J  c #BA9593",
"K  c #B79897",
"L  c #BC9995",
"P  c #B59A99",
"I  c #BD9C99",
"U  c #C29B97",
"Y  c #C19E9A",
"T  c #C6A29D",
"R  c #C9A49F",
"E  c #C2A6A2",
"W  c #CAA6A1",
"Q  c #C6A8A5",
"!  c #CDA9A4",
"~  c #C6ACA8",
"^  c #CDAEA8",
"/  c #D0ADA7",
"(  c #D1AEA8",
")  c #CFB2AC",
"_  c #D3B3AC",
"`  c #D8B6AE",
"'  c #D2B7B0",
"]  c #D8B7B0",
"[  c #D4B9B2",
"{  c #DCBBB3",
"}  c #E0BFB6",
"|  c #DFC0B7",
" . c #DFC1B9",
".. c #E2C4BB",
"X. c #E6C8BE",
"o. c #E8C9BF",
"O. c #E7CBC1",
"+. c #E9CDC3",
"@. c #EBD0C5",
"#. c #F1D6CA",
"$. c #F5DACD",
"%. c None",
/* pixels */
"%.%.%.%.%.%.%.%.%.%.%.%.%.%.%.%.%.%.%.%.%.%.%.%.%.%.%.%.%.%.%.%.%.%.%.%.%.%.%.%.%.%.%.%.%.%.%.%.%.%.%.%.%.%.%.%.%.%.%.%.%.%.%.%.",
"%.%.%.%.%.%.%.%.%.%.%.%.%.%.%.%.%.%.%.%.%.%.%.%.%.%.%.%.%.%.%.%.%.%.%.%.%.%.%.%.%.%.%.%.%.%.%.%.%.%.%.%.%.%.%.%.%.%.%.%.%.%.%.%.",
"%.%.%.%.%.%.%.%.%.%.%.%.%.%.%.%.%.%.%.%.%.%.%.%.%.%.%.%.%.%.%.%.%.%.%.%.%.%.%.%.%.%.%.%.%.%.%.%.%.%.%.%.%.%.%.%.%.%.%.%.%.%.%.%.",
"%.%.%.%.%.%.%.%.%.%.%.%.%.%.%.%.%.%.%.%.%.%.%.%.%.%.%.%.%.%.%.%.%.%.%.%.%.%.%.%.%.%.%.%.%.%.%.%.%.%.%.%.%.%.%.%.%.%.%.%.%.%.%.%.",
"%.%.%.%.%.%.%.%.%.%.%.%.%.%.%.%.%.%.%.%.%.. . . . . . . . . . . . . . . . . . . . . . %.%.%.%.%.%.%.%.%.%.%.%.%.%.%.%.%.%.%.%.%.",
"%.%.%.%.%.%.%.%.%.%.%.%.%.%.%.%.%.%.%.%.O + + + O O O O O O O O + O O O O O O + + + + + %.%.%.%.%.%.%.%.%.%.%.%.%.%.%.%.%.%.%.%.",
"%.%.%.%.%.%.%.%.%.%.%.%.%.%.%.%.%.%.%.%.& & = = - - - ; - - - - - - - - - - - = = = = & %.%.%.%.%.%.%.%.%.%.%.%.%.%.%.%.%.%.%.%.",
"%.%.%.%.%.%.%.%.%.%.%.%.%.%.%.%.%.%.%.- 1 5 5 q e e e t e t t t t t t t t t e e q 9 5 3 - %.%.%.%.%.%.%.%.%.%.%.%.%.%.%.%.%.%.%.",
"%.%.%.%.%.%.%.%.%.%.%.%.%.%.%.%.%.. $ < w s c c n V F G F F F F F F F F F F V N c c s q > $ . %.%.%.%.%.%.%.%.%.%.%.%.%.%.%.%.%.",
"%.%.%.%.%.%.%.%.%.%.%.%.%.%.%.%.. # = 5 s C I Q ~ ' [ [ [ [ [ [ [ [ [ [ [ ' ' ^ Q K C s 5 & # . %.%.%.%.%.%.%.%.%.%.%.%.%.%.%.%.",
"%.%.%.%.%.%.%.%.%.%.%.%.%.%.%.%.$ = < r c I ( { O.O.+.@.@.+.@.+.@.@.+.@.@.@.O.O.} ( I c q 1 & $ %.%.%.%.%.%.%.%.%.%.%.%.%.%.%.%.",
"%.%.%.%.%.%.%.%.%.%.%.%.%.%.%.; < 5 t c H ^ { +.@.@.#.#.$.#.#.#.#.#.#.#.#.#.@.@.O.{ ^ H c u 5 1 - %.%.%.%.%.%.%.%.%.%.%.%.%.%.%.",
"%.%.%.%.%.%.%.%.%.%.%.%.%.O & 1 w s v H Q ] O.+.@.@.#.#.#.#.#.#.#.#.#.#.#.#.@.#.+.O.{ Q H v g r 1 & O %.%.%.%.%.%.%.%.%.%.%.%.%.",
"%.%.%.%.%.%.%.%.%.%.%.%.. O = 4 s C I ^ { ..+.@.@.@.@.@.@.@.@.@.@.@.@.@.@.@.@.@.+.O.} { ( Y v s 9 = O . %.%.%.%.%.%.%.%.%.%.%.%.",
"%.%.%.%.%.%.%.%.%.%.%.%.. O = 0 j J ! { ..O.@.@.@.@.@.@.+.@.@.+.@.+.@.@.+.@.+.@.@.@.+.} { ! J g 0 = O . %.%.%.%.%.%.%.%.%.%.%.%.",
"%.%.%.%.%.%.%.%.%.%.%.%.. O = 0 j U ( } O.+.@.@.@.@.@.@.@.@.@.@.@.@.@.@.@.@.@.@.@.@.+.O.} _ I c 0 = + . %.%.%.%.%.%.%.%.%.%.%.%.",
"%.%.%.%.%.%.%.%.%.%.%.%.. O = 5 l L _ } X.+.@.@.@.@.@.@.@.@.@.@.@.@.@.@.@.@.@.@.@.@.O.O.} ) J j 9 = O . %.%.%.%.%.%.%.%.%.%.%.%.",
"%.%.%.%.%.%.%.%.%.%.%.%.. O = 9 j J / { ..o.@.@.@.@.+.@.@.+.@.+.@.@.@.@.@.@.@.@.@.+.O.O.{ ( J g 6 = O . %.%.%.%.%.%.%.%.%.%.%.%.",
"%.%.%.%.%.%.%.%.%.%.%.%.o O = 6 j K ^ { ..+.@.@.@.@.@.@.@.+.@.@.+.@.@.@.@.@.@.@.@.@.O.} { ( J c 9 & O . %.%.%.%.%.%.%.%.%.%.%.%.",
"%.%.%.%.%.%.%.%.%.%.%.%.. O = 5 j J / { X.+.@.#.@.@.@.@.@.@.@.@.@.@.@.@.@.@.@.@.#.@.O.O.} ! H j 6 - O . %.%.%.%.%.%.%.%.%.%.%.%.",
"%.%.%.%.%.%.%.%.%.%.%.%.. O = 0 j J / { ..+.+.@.@.@.@.+.+.@.@.@.@.@.@.@.@.@.@.@.@.@.+.O.{ ( J j 9 = O . %.%.%.%.%.%.%.%.%.%.%.%.",
"%.%.%.%.%.%.%.%.%.%.%.%.. O = 9 j J / { ..o.@.@.@.@.@.@.@.@.@.@.+.@.@.+.@.+.@.@.@.@.+.} { ( J j 9 = O . %.%.%.%.%.%.%.%.%.%.%.%.",
"%.%.%.%.%.%.%.%.%.%.%.%.. O = 6 j J / ] ..X.+.+.@.@.@.@.@.@.@.@.@.@.@.@.@.@.+.O.@.@.O.} { ! J j 6 = O . %.%.%.%.%.%.%.%.%.%.%.%.",
"%.%.%.%.%.%.%.%.%.%.%.%.o O = 0 j I / { { { ..X.O.@.@.@.@.@.@.#.@.@.@.@.@.@.@.O.O.} } { { ( L j 0 = O . %.%.%.%.%.%.%.%.%.%.%.%.",
"%.%.%.%.%.%.%.%.%.%.%.%.. + = 0 j I ( ` ] ] ] } O.+.@.@.@.@.@.@.@.@.@.@.@.@.@.O.} { ] ] ] ( I l 0 & # . %.%.%.%.%.%.%.%.%.%.%.%.",
"%.%.%.%.%.%.%.%.%.%.%.%.. O = 9 j J W ( ( ( ( { ..O.@.@.@.@.@.@.@.@.@.@.@.@.O. .{ ( ! ( / ! J j 9 & O . %.%.%.%.%.%.%.%.%.%.%.%.",
"%.%.%.%.%.%.%.%.%.%.%.%.. O = 9 s C L Y R W / ] { O.+.+.O.O.O.+.O.@.O.@.@.O.O.{ ] ( W W Y L C s 4 = O . %.%.%.%.%.%.%.%.%.%.%.%.",
"%.%.%.%.%.%.%.%.%.%.%.%.%.O = 1 r g v C J R ! _ { { } } ..} } { {  .{  .{ } { { ( ^ T J B c g r 1 = O %.%.%.%.%.%.%.%.%.%.%.%.%.",
"%.%.%.%.%.%.%.%.%.%.%.%.%.%.%.; 1 0 u g C Y ! _ ] ] _ ] ] ] ] ] ] ] ] ] { ] ] _ _ ! U B j t 9 1 ; %.%.%.%.%.%.%.%.%.%.%.%.%.%.%.",
"%.%.%.%.%.%.%.%.%.%.%.%.%.%.%.%.$ = 1 r c L ! ( ( ! ( ( ( ( ( ( ( ( ! ( ^ ( ( ( ( W U c r < = % %.%.%.%.%.%.%.%.%.%.%.%.%.%.%.%.",
"%.%.%.%.%.%.%.%.%.%.%.%.%.%.%.%.. O = 4 g S Y ! ! ! W ! ! ! W ! ! W ! ! ! ! ! ! ! R H g 4 = O . %.%.%.%.%.%.%.%.%.%.%.%.%.%.%.%.",
"%.%.%.%.%.%.%.%.%.%.%.%.%.%.%.%.  . # < u B L Y W W ! ! ! W ! W W ! W W ! W W R Y J M i < $ .   %.%.%.%.%.%.%.%.%.%.%.%.%.%.%.%.",
"%.%.%.%.%.%.%.%.%.%.%.%.%.%.%.%.  X @ : y k A J T R / / / / R / ^ W ! ! ! ! R Y L A k y : @ .   %.%.%.%.%.%.%.%.%.%.%.%.%.%.%.%.",
"%.%.%.%.%.%.%.%.%.%.%.%.%.%.%.%.X O % < 8 h M D U T R R R R ! R ! W ! ! ! R R U S M h w , % O o %.%.%.%.%.%.%.%.%.%.%.%.%.%.%.%.",
"%.%.%.%.%.%.%.%.%.%.%.%.%.%.%.%.& - < 6 i k M A J T T T R R T T R Y T U R T U U A M k i 6 < - & %.%.%.%.%.%.%.%.%.%.%.%.%.%.%.%.",
"%.%.%.%.%.%.%.%.%.%.%.%.%.%.%.> 5 t a f z M A A D D J D J J J D J J J U J D D D A Z M z g a t 9 > %.%.%.%.%.%.%.%.%.%.%.%.%.%.%.",
"%.%.%.%.%.%.%.%.%.%.%.%.%.. % 9 f n H P L J D A A Z Z Z M M M Z Z Z Z v v A A A D D J J P G n f 9 % . %.%.%.%.%.%.%.%.%.%.%.%.%.",
"%.%.%.%.%.%.%.%.%.%.%.%.. O - t n E ' ' / T T D A x x x x x x x x x x x v x x A J U R ) ) ' ~ n t > O . %.%.%.%.%.%.%.%.%.%.%.%.",
"%.%.%.%.%.%.%.%.%.%.%.%.% - 4 d H '  ...{ / T J D Z x M M M M M x Z x x x x v U L R ^ { ....' H a 9 - % %.%.%.%.%.%.%.%.%.%.%.%.",
"%.%.%.%.%.%.%.%.%.%.%.> 9 t f V E | ....{ / R T T U J J J L L L U U U U U U U U T W / { ....{ T n f t 9 > %.%.%.%.%.%.%.%.%.%.%.",
"%.%.%.%.%.%.%.%.%.O - 9 f n H E ^ [ | ] _ / ! ! ^ ^ _ ) / ( ) ( ! / / / ^ ( ) ^ ! ! ! _ ] } ] ) E H n f 9 = O %.%.%.%.%.%.%.%.%.",
"%.%.%.%.%.%.%.%.. O - e n E ' [ ' ( ^ ! R / / _ { { .. ..... ...} ..........{ { _ / ! ! ^ / ( ` [ [ E n t - O . %.%.%.%.%.%.%.%.",
"%.%.%.%.%.%.%.%.. O ; t F )  .{ ^ T L Y R ! ( { ....X.O.X.X.O.O.o.o.o.o.O.X.X.} ] _ ! R I I I ^ {  .) V t - O . %.%.%.%.%.%.%.%.",
"%.%.%.%.%.%.%.%.. O = r V _  .) K m b C Y ( ] { { ....X.........X.X.X.o.X.X.......] _ I C b N P ) | _ V t - O . %.%.%.%.%.%.%.%.",
"%.%.%.%.%.%.%.%.. O - e N Q _ I b t t l H ) | ..} ] ] ] ] ] { { { { { { { { } } ....' P l u a b I ^ Q N e - O . %.%.%.%.%.%.%.%.",
"%.%.%.%.%.%.%.%.. O = q c L L m t 3 3 t G ' ....{ _ ( ( ( ( ^ ^ / / / ( ^ _ _ { ....' G a 3 > t N I L c q = O . %.%.%.%.%.%.%.%.",
"%.%.%.%.%.%.%.%.. O = 6 j C N s 4 = > t F [ X.X.} _ ( ( ( ( ~ Q T L L L U Y W _ { | ^ V t : % > s N C g 9 = O o %.%.%.%.%.%.%.%.",
"%.%.%.%.%.%.%.%.%.O & 4 t s a 5 ; # & t F ' @.@.X.] ] ] { ] ~ E C b l c B J U W ( ( I l 5 % # : 6 a s u 5 & O %.%.%.%.%.%.%.%.%.",
"%.%.%.%.%.%.%.%.%.%.%.> 5 5 1 ; $ @ - t G [ +.@.O. . .X.O. .' P l t w i h M A U U L B p 4 % + % ; 1 5 4 > %.%.%.%.%.%.%.%.%.%.%.",
"%.%.%.%.%.%.%.%.%.%.%.%.& & & # O + - t G [ +.#.@.+.O.+.@.O.' F a 3 : 2 y h x M M M k y < % + + # & = & %.%.%.%.%.%.%.%.%.%.%.%.",
"%.%.%.%.%.%.%.%.%.%.%.%.O O O o . O - t G [ @.$.#.@.+.O.O.[ E n t ; * , 6 i p h h p i 7 < $ + X O O O O %.%.%.%.%.%.%.%.%.%.%.%.",
"%.%.%.%.%.%.%.%.%.%.%.%.%.. . . . O - t F [ @.#.$.@.O.[ ~ P n d 9 % @ @ , 6 8 8 8 7 6 2 ; $ O . . . . %.%.%.%.%.%.%.%.%.%.%.%.%.",
"%.%.%.%.%.%.%.%.%.%.%.%.%.%.%.. . O - t F [ @.$.$.@. .~ V c e 9 > %.%.% ; : : , , , , ; = %.%.%.%.%.%.%.%.%.%.%.%.%.%.%.%.%.%.%.",
"%.%.%.%.%.%.%.%.%.%.%.%.%.%.%.%.. O - t F [ @.$.$.@.[ P t 3 > % %.%.%.%.@ % @ % @ % @ @ %.%.%.%.%.%.%.%.%.%.%.%.%.%.%.%.%.%.%.%.",
"%.%.%.%.%.%.%.%.%.%.%.%.%.%.%.%.. O - t F [ @.$.$.@.[ F t > o . %.%.%.%.O O O O O @ @ @ %.%.%.%.%.%.%.%.%.%.%.%.%.%.%.%.%.%.%.%.",
"%.%.%.%.%.%.%.%.%.%.%.%.%.%.%.%.. O - t F [ @.$.$.@.' V t - o   %.%.%.%.%.o X o X X X %.%.%.%.%.%.%.%.%.%.%.%.%.%.%.%.%.%.%.%.%.",
"%.%.%.%.%.%.%.%.%.%.%.%.%.%.%.%.. O - t F [ @.$.$.@.[ V t & X   %.%.%.%.%.%.%.%.%.%.%.%.%.%.%.%.%.%.%.%.%.%.%.%.%.%.%.%.%.%.%.%.",
"%.%.%.%.%.%.%.%.%.%.%.%.%.%.%.%.. O - t F [ @.$.$.@.[ F t ; O . %.%.%.%.%.%.%.%.%.%.%.%.%.%.%.%.%.%.%.%.%.%.%.%.%.%.%.%.%.%.%.%.",
"%.%.%.%.%.%.%.%.%.%.%.%.%.%.%.%.. O - t F [ +.$.$.@.[ F t - O . %.%.%.%.%.%.%.%.%.%.%.%.%.%.%.%.%.%.%.%.%.%.%.%.%.%.%.%.%.%.%.%.",
"%.%.%.%.%.%.%.%.%.%.%.%.%.%.%.%.%.O - t F [ @.$.$.@.' F t - O %.%.%.%.%.%.%.%.%.%.%.%.%.%.%.%.%.%.%.%.%.%.%.%.%.%.%.%.%.%.%.%.%.",
"%.%.%.%.%.%.%.%.%.%.%.%.%.%.%.%.%.%.%.%.%.%.%.%.%.%.%.%.%.%.%.%.%.%.%.%.%.%.%.%.%.%.%.%.%.%.%.%.%.%.%.%.%.%.%.%.%.%.%.%.%.%.%.%.",
"%.%.%.%.%.%.%.%.%.%.%.%.%.%.%.%.%.%.%.%.%.%.%.%.%.%.%.%.%.%.%.%.%.%.%.%.%.%.%.%.%.%.%.%.%.%.%.%.%.%.%.%.%.%.%.%.%.%.%.%.%.%.%.%.",
"%.%.%.%.%.%.%.%.%.%.%.%.%.%.%.%.%.%.%.%.%.%.%.%.%.%.%.%.%.%.%.%.%.%.%.%.%.%.%.%.%.%.%.%.%.%.%.%.%.%.%.%.%.%.%.%.%.%.%.%.%.%.%.%.",
"%.%.%.%.%.%.%.%.%.%.%.%.%.%.%.%.%.%.%.%.%.%.%.%.%.%.%.%.%.%.%.%.%.%.%.%.%.%.%.%.%.%.%.%.%.%.%.%.%.%.%.%.%.%.%.%.%.%.%.%.%.%.%.%."
};
