/* XPM */
static char *result[] = {
/* columns rows colors chars-per-pixel */
"64 64 107 2 ",
"   c #29122C",
".  c #2F1830",
"X  c #341D34",
"o  c #372037",
"O  c #372038",
"+  c #3D253B",
"@  c #40273D",
"#  c #42293E",
"$  c #452D41",
"%  c #492F42",
"&  c #4B3245",
"*  c #4F3548",
"=  c #503749",
"-  c #543B4C",
";  c #593D4E",
":  c #5F404F",
">  c #5D4352",
",  c #60414F",
"<  c #624554",
"1  c #644957",
"2  c #684854",
"3  c #654A59",
"4  c #6B4E5B",
"5  c #6C515E",
"6  c #73535D",
"7  c #79565E",
"8  c #6F5461",
"9  c #705461",
"0  c #745A65",
"q  c #7C5B63",
"w  c #765D68",
"e  c #7B5E69",
"r  c #7C626C",
"t  c #855F64",
"y  c #866167",
"u  c #84636A",
"i  c #89656A",
"p  c #936C6E",
"a  c #806770",
"s  c #856B73",
"d  c #8D6D74",
"f  c #966F71",
"g  c #8D7076",
"h  c #8C727A",
"j  c #947175",
"k  c #9B7475",
"l  c #95767B",
"z  c #97787D",
"x  c #9A797C",
"c  c #A17776",
"v  c #A27877",
"b  c #A47C7B",
"n  c #A7807E",
"m  c #A9807E",
"M  c #9C7E82",
"N  c #9B8184",
"B  c #9E8589",
"V  c #A28184",
"C  c #AB8482",
"Z  c #AF8885",
"A  c #A28689",
"S  c #A68C8E",
"D  c #AC8A8B",
"F  c #B18987",
"G  c #B48D8A",
"H  c #B6918E",
"J  c #B9928F",
"K  c #A88F90",
"L  c #AB9192",
"P  c #B49493",
"I  c #BA9693",
"U  c #BC9996",
"Y  c #B49A99",
"T  c #BD9B99",
"R  c #BFA4A2",
"E  c #C09B96",
"W  c #C29E9A",
"Q  c #C5A19D",
"!  c #C8A39E",
"~  c #C3A6A2",
"^  c #CAA6A1",
"/  c #C4A9A6",
"(  c #CDA9A4",
")  c #C7ADA9",
"_  c #CEAEA9",
"`  c #D1ACA7",
"'  c #D1AEA8",
"]  c #CFB2AC",
"[  c #D4B3AC",
"{  c #D8B5AE",
"}  c #D3B7B0",
"|  c #D8B7B0",
" . c #D4BAB3",
".. c #DBBCB4",
"X. c #E0BEB4",
"o. c #DFC0B7",
"O. c #DEC1B9",
"+. c #E2C4BB",
"@. c #E5C9BF",
"#. c #E7CBC1",
"$. c #EACEC3",
"%. c #ECD1C6",
"&. c #EFD4C8",
"*. c #F0D3C7",
"=. c #F1D6CA",
"-. c #F4D9CC",
";. c None",
/* pixels */
";.;.;.;.;.;.;.;.;.;.;.;.;.;.;.;.;.;.;.;.;.;.;.;.;.;.;.;.;.;.;.;.;.;.;.;.;.;.;.;.;.;.;.;.;.;.;.;.;.;.;.;.;.;.;.;.;.;.;.;.;.;.;.;.",
";.;.;.;.;.;.;.;.;.;.;.;.;.;.;.;.;.;.;.;.;.;.;.;.;.;.;.;.;.;.;.;.;.;.;.;.;.;.;.;.;.;.;.;.;.;.;.;.;.;.;.;.;.;.;.;.;.;.;.;.;.;.;.;.",
";.;.;.;.;.;.;.;.;.;.;.;.;.;.;.;.;.;.;.;.;.;.;.;.;.;.;.;.;.;.;.;.;.;.;.;.;.;.;.;.;.;.;.;.;.;.;.;.;.;.;.;.;.;.;.;.;.;.;.;.;.;.;.;.",
";.;.;.;.;.;.;.;.;.;.;.;.;.;.;.;.;.;.;.;.;.;.;.;.;.;.;.;.;.;.;.;.;.;.;.;.;.;.;.;.;.;.;.;.;.;.;.;.;.;.;.;.;.;.;.;.;.;.;.;.;.;.;.;.",
";.;.;.;.;.;.;.;.;.;.;.;.;.;.;.;.;.;.;.;.;.;.;.;.;.;.;.;.;.;.;.;.;.;.;.;.;.;.;.;.;.;.;.;.;.;.;.;.;.;.;.;.;.;.;.;.;.;.;.;.;.;.;.;.",
";.;.;.;.;.;.;.;.;.;.;.;.;.;.;.;.;.;.;.;.;.;.;.;.;.;.;.;.;.;.;.;.;.;.;.;.;.;.;.;.;.;.;.;.;.;.;.;.;.;.;.;.;.;.;.;.;.;.;.;.;.;.;.;.",
";.;.;.;.;.;.;.;.;.;.;.;.;.;.;.;.;.;.;.;.;.;.;.;.;.;.;.;.;.;.;.;.;.;.;.;.;.;.;.;.;.;.;.;.;.;.;.;.;.;.;.;.;.;.;.;.;.;.;.;.;.;.;.;.",
";.;.;.;.;.;.;.;.;.;.;.;.;.;.;.;.;.;.;.;.;.;.;.;.;.;.;.;.;.;.;.;.;.;.;.;.;.;.;.;.;.;.;.;.;.;.;.;.;.;.;.;.;.;.;.;.;.;.;.;.;.;.;.;.",
";.;.;.;.;.;.;.;.;.;.;.;.;.;.;.;.;.;.;.;.;.O X X X X X X X X X X X X X . X X . X X X X X X X X ;.;.;.;.;.;.;.;.;.;.;.;.;.;.;.;.;.",
";.;.;.;.;.;.;.;.;.;.;.;.;.;.;.;.;.;.;.;.# # @ @ @ + @ @ @ @ @ @ # @ + @ + @ @ + + + + + @ @ @ @ ;.;.;.;.;.;.;.;.;.;.;.;.;.;.;.;.",
";.;.;.;.;.;.;.;.;.;.;.;.;.;.;.;.;.;.;.;.* * * * * * * * * * * = - - - - - - - - - - - - = = = * ;.;.;.;.;.;.;.;.;.;.;.;.;.;.;.;.",
";.;.;.;.;.;.;.;.;.;.;.;.;.;.;.;.;.;.;.- 3 5 8 8 8 8 9 9 9 8 9 9 w r r r r r r r r r w 0 0 9 5 3 > ;.;.;.;.;.;.;.;.;.;.;.;.;.;.;.",
";.;.;.;.;.;.;.;.;.;.;.;.;.;.;.;.;.O & 3 y M M M M M M M M M M M B S K K K K K K L K S M M M j e 3 * + ;.;.;.;.;.;.;.;.;.;.;.;.;.",
";.;.;.;.;.;.;.;.;.;.;.;.;.;.;.;.O @ - 5 M M M U I P E M P I P T ) ]  . . . . . . . .] ) / T M d 5 = @ X ;.;.;.;.;.;.;.;.;.;.;.;.",
";.;.;.;.;.;.;.;.;.;.;.;.;.;.;.;.% = < y M J ^ ( ` ^ ^ ^ ( ` [ | ..#.%.%.%.%.%.%.%.%.#.#...' T M 9 = @ X ;.;.;.;.;.;.;.;.;.;.;.;.",
";.;.;.;.;.;.;.;.;.;.;.;.;.;.;.; > 5 u M M T ` { ` ` ` { { ..X.@.%.&.=.=.&.=.&.=.=.=.&.%.$.X./ M 0 * @ X ;.;.;.;.;.;.;.;.;.;.;.;.",
";.;.;.;.;.;.;.;.;.;.;.;.;.+ * 3 e d M D T ^ ( ` ` ` ` { ..O.@.#.%.%.&.=.&.=.=.=.=.=.%.=.%.@.) B w - @ X ;.;.;.;.;.;.;.;.;.;.;.;.",
";.;.;.;.;.;.;.;.;.;.;.;.X + = 5 d D I Q ^ ^ ( ( ^ ( ` { ..@.#.$.%.%.%.%.%.%.%.%.%.%.%.&.%.#. .S e - + X ;.;.;.;.;.;.;.;.;.;.;.;.",
";.;.;.;.;.;.;.;.;.;.;.;.o + = 8 l I ^ ` ` ( ^ ^ ( ( ` | O.#.%.*.%.%.%.%.%.%.%.#.%.%.%.=.=.%. .K r - + X ;.;.;.;.;.;.;.;.;.;.;.;.",
";.;.;.;.;.;.;.;.;.;.;.;.X + = 9 z U ` ' ` ( ( ^ ( ( ' | +.%.=.=.=.=.&.&.%.%.%.%.%.%.%.=.-.&.O.L r - + X ;.;.;.;.;.;.;.;.;.;.;.;.",
";.;.;.;.;.;.;.;.;.;.;.;.X + = 9 l E ` ' ` ( ( ^ ^ ` ` | @.%.=.-.=.=.=.&.%.%.%.%.%.$.%.=.-.=. .L r ; @ X ;.;.;.;.;.;.;.;.;.;.;.;.",
";.;.;.;.;.;.;.;.;.;.;.;.X + = 8 l I ( ` ` ( ( ^ ^ ^ ` | O.@.%.%.%.%.#.%.%.%.%.%.%.%.%.&.=.#. .K r - @ X ;.;.;.;.;.;.;.;.;.;.;.;.",
";.;.;.;.;.;.;.;.;.;.;.;.X + = 9 l I ^ ` ` ( ( ^ ^ ( ( ` ] }  .}  . . .O.@.#.%.%.%.%.%.#.@.O.R B 0 - + X ;.;.;.;.;.;.;.;.;.;.;.;.",
";.;.;.;.;.;.;.;.;.;.;.;.o @ = 9 l I ^ ` ( ( ( ( ( ^ ^ R Y P L K L L Y R  .@.%.&.&.%.@. .R Y B r 3 & + X ;.;.;.;.;.;.;.;.;.;.;.;.",
";.;.;.;.;.;.;.;.;.;.;.;.o + = 9 l I ( ` ` ( ( ( ` ( W G M M 0 w w r h B R O.%.=.=.%.O.R K M w > - $ @ X ;.;.;.;.;.;.;.;.;.;.;.;.",
";.;.;.;.;.;.;.;.;.;.;.;.X + = 9 l I ^ ` ( ( ^ ( ` ^ T M a 3 * & & > 8 h Y O.%.=.-.%. .Y M 3 - $ @ @ + + ;.;.;.;.;.;.;.;.;.;.;.;.",
";.;.;.;.;.;.;.;.;.;.;.;.X + = 8 M I ( ` ` ( ( ` ` ^ E M 9 = O X X + > r L  .%.-.-.%. .L w - + O X + + + ;.;.;.;.;.;.;.;.;.;.;.;.",
";.;.;.;.;.;.;.;.;.;.;.;.X + = 8 l U ` ' ` ( ( ` ` Q G M 4 % X     . $ w K  .&.-.-.%.} S w $ O . X + @ @ ;.;.;.;.;.;.;.;.;.;.;.;.",
";.;.;.;.;.;.;.;.;.;.;.;.X + = 6 M P ` ' ' ( ( ` ` ^ I M 4 $ X     X & w K  .%.-.-.%. .K w * X . X + + + ;.;.;.;.;.;.;.;.;.;.;.;.",
";.;.;.;.;.;.;.;.;.;.;.;.X + = 8 l P ^ ` ` ( ( ` ` ^ E M 9 * @ X X O > a K  .%.-.-.%. .K r - @ O O + + + ;.;.;.;.;.;.;.;.;.;.;.;.",
";.;.;.;.;.;.;.;.;.;.;.;.o + = 5 d D I Q ! ^ ( ` ` ^ T M u > * & $ > 8 h Y  .%.=.-.%. .Y M 3 - $ @ @ + + ;.;.;.;.;.;.;.;.;.;.;.;.",
";.;.;.;.;.;.;.;.;.;.;.;.;.+ = 3 e d M D U ! ` ' { ` Q M M e 9 9 w w h L R O.%.-.-.%.@.R S h w > - $ + X ;.;.;.;.;.;.;.;.;.;.;.;.",
";.;.;.;.;.;.;.;.;.;.;.;.;.;.;.; 1 5 e l D Q ` ' ' ` ^ T D V M N B K Y R O.@.%.=.-.@.@.o.) Y B r 3 $ O o ;.;.;.;.;.;.;.;.;.;.;.;.",
";.;.;.;.;.;.;.;.;.;.;.;.;.;.;.;.% = < e M I ( ` ` ( ^ W T U T Q R R  .O.#.%.%.%.=.@.@.&.O.o.R n 0 > + o ;.;.;.;.;.;.;.;.;.;.;.;.",
";.;.;.;.;.;.;.;.;.;.;.;.;.;.;.;.X $ = 5 g D P T I U I E T Q ^ [ #.#.#.#.@.O.@.@.@.&.@.&.&.@.] S 8 > + X ;.;.;.;.;.;.;.;.;.;.;.;.",
";.;.;.;.;.;.;.;.;.;.;.;.;.;.;.;.;.X % 1 e g h M l l x M Z I ! [ @.&.&.#.O. . . .@.@.=.=.&.@.] S w > + X ;.;.;.;.;.;.;.;.;.;.;.;.",
";.;.;.;.;.;.;.;.;.;.;.;.;.;.;.;.;.;.;.; > 8 8 8 4 5 0 u k C I ( +.@.@.o.) Q Q ( o.@.@.=.@.o.R n 0 > + o ;.;.;.;.;.;.;.;.;.;.;.;.",
";.;.;.;.;.;.;.;.;.;.;.;.;.;.;.;.;.;.;.;.* * - * * = , 4 u c F Q | +.@.{ R L H T ] o.@.@.+.} Y n 8 & + X ;.;.;.;.;.;.;.;.;.;.;.;.",
";.;.;.;.;.;.;.;.;.;.;.;.;.;.;.;.;.;.;.;.+ + @ $ & - < 9 i k C E ' o.../ H m m H ^ o.o.o.| ! Y g 3 $ + X ;.;.;.;.;.;.;.;.;.;.;.;.",
";.;.;.;.;.;.;.;.;.;.;.;.;.;.;.;.;.;.;.;.. X + & > 0 r f x C F E ! ! ! U Z b b Z I ! ( ( ! U m i 3 > + o ;.;.;.;.;.;.;.;.;.;.;.;.",
";.;.;.;.;.;.;.;.;.;.;.;.;.;.;.;.;.;.;.;.. X $ > r M K Y P P I E U U H m n k c n m H J I J m n u 1 * + o ;.;.;.;.;.;.;.;.;.;.;.;.",
";.;.;.;.;.;.;.;.;.;.;.;.;.;.;.;.;.;.;.;.X @ = 0 M R ]  ._ ^ W I G Z m m n n c n m m m m m n n 7 < & + o ;.;.;.;.;.;.;.;.;.;.;.;.",
";.;.;.;.;.;.;.;.;.;.;.;.;.;.;.;.;.;.;.;.& - 8 s P } +.+.| ' Q I H m m m m m m m m m m m m n p 7 : # + o ;.;.;.;.;.;.;.;.;.;.;.;.",
";.;.;.;.;.;.;.;.;.;.;.;.;.;.;.;.;.;.;.> 8 r h S ~ ..+.+...' ^ E J G Z G H U E E E E I J m n p 7 , * + + ;.;.;.;.;.;.;.;.;.;.;.;.",
";.;.;.;.;.;.;.;.;.;.;.;.;.;.;.;.;.+ - 8 h S Y R ' | ..| { ` ^ W U U U Q ! ' [ [ [ [ ! E H n p 7 , * @ o ;.;.;.;.;.;.;.;.;.;.;.;.",
";.;.;.;.;.;.;.;.;.;.;.;.;.;.;.;.X + - w B R  . .| ' ` ( ( ( ^ ^ ! ! ! ' [ o.@.@.+.+.o.( J n p 7 , # @ o ;.;.;.;.;.;.;.;.;.;.;.;.",
";.;.;.;.;.;.;.;.;.;.;.;.;.;.;.;.X + - r K ] O.O.{ ^ ! ^ ^ ^ ( ( ! ' [ | o.@.@.@.@.@.+.( H n u 6 : * + o ;.;.;.;.;.;.;.;.;.;.;.;.",
";.;.;.;.;.;.;.;.;.;.;.;.;.;.;.;.X + - w K [ +...` W E E W ! ^ _ { | | o.o.O.@.@.@.@.o.E n i 6 < ; # + ;.;.;.;.;.;.;.;.;.;.;.;.;.",
";.;.;.;.;.;.;.;.;.;.;.;.;.;.;.;.X + - w A ^ { { ! J J J E ! ( { ......+.......X.+..._ K d 6 , - # ;.;.;.;.;.;.;.;.;.;.;.;.;.;.;.",
";.;.;.;.;.;.;.;.;.;.;.;.;.;.;.;.X + - 9 M T ^ W J C C F I Q ` | ..#.#.X...{ ' ' ' ` T M q > & # ;.;.;.;.;.;.;.;.;.;.;.;.;.;.;.;.",
";.;.;.;.;.;.;.;.;.;.;.;.;.;.;.;.X + = 5 d D G D b k c M I ^ { ..#.#.@.X.| ^ Q W W I S d 5 = + X ;.;.;.;.;.;.;.;.;.;.;.;.;.;.;.;.",
";.;.;.;.;.;.;.;.;.;.;.;.;.;.;.;.;.+ * 4 r d g s u t i v P ^ ..+.$.$.#..._ W G D M x d q 1 & O ;.;.;.;.;.;.;.;.;.;.;.;.;.;.;.;.;.",
";.;.;.;.;.;.;.;.;.;.;.;.;.;.;.;.;.;.;.> 3 5 5 3 < < 6 d P _ O.$.%.$.#.| ! J C j i 0 4 1 ; ;.;.;.;.;.;.;.;.;.;.;.;.;.;.;.;.;.;.;.",
";.;.;.;.;.;.;.;.;.;.;.;.;.;.;.;.;.;.;.;.* = = & % % < a L } #.&.=.%.#.' W Z k t 4 , = % ;.;.;.;.;.;.;.;.;.;.;.;.;.;.;.;.;.;.;.;.",
";.;.;.;.;.;.;.;.;.;.;.;.;.;.;.;.;.;.;.;.+ + + O X @ ; r L } %.-.-.%...[ E C p t 2 - % % ;.;.;.;.;.;.;.;.;.;.;.;.;.;.;.;.;.;.;.;.",
";.;.;.;.;.;.;.;.;.;.;.;.;.;.;.;.;.;.;.;.;.X X . X O - r K  .%.-.-.%.O.[ E b f t 6 2 : - * ;.;.;.;.;.;.;.;.;.;.;.;.;.;.;.;.;.;.;.",
";.;.;.;.;.;.;.;.;.;.;.;.;.;.;.;.;.;.;.;.;.;.;.X . + - r L } %.-.-.$.+._ U m k p y t 6 2 ; # @ ;.;.;.;.;.;.;.;.;.;.;.;.;.;.;.;.;.",
";.;.;.;.;.;.;.;.;.;.;.;.;.;.;.;.;.;.;.;.;.;.;.;.. + - r K } %.-.-.%.+.' U m c k f p y 6 2 # @ o ;.;.;.;.;.;.;.;.;.;.;.;.;.;.;.;.",
";.;.;.;.;.;.;.;.;.;.;.;.;.;.;.;.;.;.;.;.;.;.;.;.o + - r K } %.-.&.$.O.] U m v v v c f 7 , # # @ ;.;.;.;.;.;.;.;.;.;.;.;.;.;.;.;.",
";.;.;.;.;.;.;.;.;.;.;.;.;.;.;.;.;.;.;.;.;.;.;.;.;.+ - r K } %.-.-.%.+.] U m v v n b f y 2 # # ;.;.;.;.;.;.;.;.;.;.;.;.;.;.;.;.;.",
";.;.;.;.;.;.;.;.;.;.;.;.;.;.;.;.;.;.;.;.;.;.;.;.;.;.;.;.;.;.;.;.;.;.;.;.;.;.;.;.;.;.;.;.;.;.;.;.;.;.;.;.;.;.;.;.;.;.;.;.;.;.;.;.",
";.;.;.;.;.;.;.;.;.;.;.;.;.;.;.;.;.;.;.;.;.;.;.;.;.;.;.;.;.;.;.;.;.;.;.;.;.;.;.;.;.;.;.;.;.;.;.;.;.;.;.;.;.;.;.;.;.;.;.;.;.;.;.;.",
";.;.;.;.;.;.;.;.;.;.;.;.;.;.;.;.;.;.;.;.;.;.;.;.;.;.;.;.;.;.;.;.;.;.;.;.;.;.;.;.;.;.;.;.;.;.;.;.;.;.;.;.;.;.;.;.;.;.;.;.;.;.;.;.",
";.;.;.;.;.;.;.;.;.;.;.;.;.;.;.;.;.;.;.;.;.;.;.;.;.;.;.;.;.;.;.;.;.;.;.;.;.;.;.;.;.;.;.;.;.;.;.;.;.;.;.;.;.;.;.;.;.;.;.;.;.;.;.;."
};
