/* XPM */
static char *result[] = {
/* columns rows colors chars-per-pixel */
"64 64 116 2 ",
"   c #2A132D",
".  c #2F1830",
"X  c #341D34",
"o  c #372037",
"O  c #372038",
"+  c #3D263B",
"@  c #41273D",
"#  c #42293F",
"$  c #452D41",
"%  c #492F42",
"&  c #4B3144",
"*  c #4E3548",
"=  c #543647",
"-  c #503749",
";  c #543B4D",
":  c #5A3E4E",
">  c #593F50",
",  c #5F404F",
"<  c #5D4353",
"1  c #60414F",
"2  c #624553",
"3  c #644856",
"4  c #694A55",
"5  c #644A58",
"6  c #6B4E5B",
"7  c #6C515E",
"8  c #74535D",
"9  c #79565E",
"0  c #6F5461",
"q  c #715461",
"w  c #745A65",
"e  c #7C5961",
"r  c #775E69",
"t  c #7A5F69",
"y  c #7C636D",
"u  c #805D63",
"i  c #866166",
"p  c #886367",
"a  c #84636A",
"s  c #896569",
"d  c #8C6A6F",
"f  c #936C6E",
"g  c #816770",
"h  c #846A73",
"j  c #8D6E75",
"k  c #966F70",
"l  c #8D7076",
"z  c #8C737A",
"x  c #947277",
"c  c #9B7475",
"v  c #95767B",
"b  c #987478",
"n  c #97787D",
"m  c #9B797D",
"M  c #A17776",
"N  c #A17877",
"B  c #A57C7B",
"V  c #A87E7B",
"C  c #A7807E",
"Z  c #AA817E",
"A  c #9C7E82",
"S  c #9B8184",
"D  c #9E8588",
"F  c #A28285",
"G  c #AB8482",
"H  c #AF8885",
"J  c #A28689",
"K  c #A68C8E",
"L  c #AB8A8B",
"P  c #B18A87",
"I  c #B48E8B",
"U  c #B7918D",
"Y  c #B8928E",
"T  c #A78E90",
"R  c #A88F90",
"E  c #AB9193",
"W  c #B49493",
"Q  c #BA9693",
"!  c #BC9995",
"~  c #B59A9A",
"^  c #BC9B99",
"/  c #BAA09E",
"(  c #BFA4A2",
")  c #C09C97",
"_  c #C39E9A",
"`  c #C4A29D",
"'  c #C8A49F",
"]  c #C3A6A3",
"[  c #CAA6A2",
"{  c #C4A9A6",
"}  c #CDA9A4",
"|  c #C7ADA9",
" . c #CDAFA9",
".. c #D1ACA7",
"X. c #D1AEA8",
"o. c #CEB2AC",
"O. c #D3B2AB",
"+. c #D9B6AF",
"@. c #D3B7B1",
"#. c #D8B7B0",
"$. c #D4BAB3",
"%. c #DBBBB3",
"&. c #DEC0B7",
"*. c #DDC2B9",
"=. c #E2C5BB",
"-. c #E5C9BF",
";. c #E7CBC1",
":. c #EACEC3",
">. c #ECD1C6",
",. c #EFD4C8",
"<. c #F0D3C7",
"1. c #F1D6CA",
"2. c #F5DACD",
"3. c #FADFD1",
"4. c #FDE1D3",
"5. c None",
/* pixels */
"5.5.5.5.5.5.5.5.5.5.5.5.5.5.5.5.5.5.5.5.5.5.5.5.5.5.5.5.5.5.5.5.5.5.5.5.5.5.5.5.5.5.5.5.5.5.5.5.5.5.5.5.5.5.5.5.5.5.5.5.5.5.5.5.",
"5.5.5.5.5.5.5.5.5.5.5.5.5.5.5.5.5.5.5.5.5.5.5.5.5.5.5.5.5.5.5.5.5.5.5.5.5.5.5.5.5.5.5.5.5.5.5.5.5.5.5.5.5.5.5.5.5.5.5.5.5.5.5.5.",
"5.5.5.5.5.5.5.5.5.5.5.5.5.5.5.5.5.5.5.5.5.5.5.5.5.5.5.5.5.5.5.5.5.5.5.5.5.5.5.5.5.5.5.5.5.5.5.5.5.5.5.5.5.5.5.5.5.5.5.5.5.5.5.5.",
"5.5.5.5.5.5.5.5.5.5.5.5.5.5.5.5.5.5.5.5.5.5.5.5.5.5.5.5.5.5.5.5.5.5.5.5.5.5.5.5.5.5.5.5.5.5.5.5.5.5.5.5.5.5.5.5.5.5.5.5.5.5.5.5.",
"5.5.5.5.5.5.5.5.5.5.5.5.5.5.5.5.5.5.5.5.5.O X O X X X X X X X X X X X X X X X . X X X X X X X 5.5.5.5.5.5.5.5.5.5.5.5.5.5.5.5.5.",
"5.5.5.5.5.5.5.5.5.5.5.5.5.5.5.5.5.5.5.5.@ @ + @ @ $ + + + $ + + + + + @ @ @ + @ @ @ + + @ + + $ 5.5.5.5.5.5.5.5.5.5.5.5.5.5.5.5.",
"5.5.5.5.5.5.5.5.5.5.5.5.5.5.5.5.5.5.5.5.* * * * - - * - * - - - - ; ; ; ; ; ; ; ; ; ; - ; - - * 5.5.5.5.5.5.5.5.5.5.5.5.5.5.5.5.",
"5.5.5.5.5.5.5.5.5.5.5.5.5.5.5.5.5.5.5.> 5 7 7 5 0 0 0 0 7 q q w w y y y y y y y y y t r w 0 7 5 < 5.5.5.5.5.5.5.5.5.5.5.5.5.5.5.",
"5.5.5.5.5.5.5.5.5.5.5.5.5.5.5.5.5.O * 5 t A A A A A A A A A A A D T T R T R R T R T T J A A j u 5 * @ 5.5.5.5.5.5.5.5.5.5.5.5.5.",
"5.5.5.5.5.5.5.5.5.5.5.5.5.5.5.5.O @ - 7 A A Q ! Y _ A Q A W ^ ' | o.$.$.$.$.$.$.$.$.o. .[ ^ A l 7 * @ X 5.5.5.5.5.5.5.5.5.5.5.5.",
"5.5.5.5.5.5.5.5.5.5.5.5.5.5.5.5.$ * 2 u A Q [ ..[ [ } } ..X.X.#.*.;.:.:.>.:.:.>.:.:.;.;.&.X.^ A 0 * @ X 5.5.5.5.5.5.5.5.5.5.5.5.",
"5.5.5.5.5.5.5.5.5.5.5.5.5.5.5.: 5 7 a A A _ ..X.....X.X.+.%.&.-.:.,.1.2.1.1.1.1.1.1.,.>.;.&.] A w ; @ X 5.5.5.5.5.5.5.5.5.5.5.5.",
"5.5.5.5.5.5.5.5.5.5.5.5.5.+ - 5 a A A A Q [ ..........+.%.=.-.;.>.,.,.,.1.,.1.1.1.1.,.,.>.=. .A r ; + X 5.5.5.5.5.5.5.5.5.5.5.5.",
"5.5.5.5.5.5.5.5.5.5.5.5.X + - 7 A A Y _ [ [ [ } ..} ..+.%.-.;.:.>.:.,.:.>.,.>.>.,.>.>.,.1.;.@.K r ; + X 5.5.5.5.5.5.5.5.5.5.5.5.",
"5.5.5.5.5.5.5.5.5.5.5.5.X + - 0 A A [ ....[ [ [ } } ..+.*.;.>.,.>.>.,.:.:.>.>.>.:.>.,.1.1.:.@.R y ; + X 5.5.5.5.5.5.5.5.5.5.5.5.",
"5.5.5.5.5.5.5.5.5.5.5.5.X + * 8 A ! ..X.....} [ [ } ..+.=.>.1.1.1.1.,.,.,.:.>.:.>.:.>.1.2.1.%.E y ; + X 5.5.5.5.5.5.5.5.5.5.5.5.",
"5.5.5.5.5.5.5.5.5.5.5.5.X + - 0 n ! ..X.X.} [ [ [ [ ..#.-.>.1.2.1.,.1.,.>.>.>.>.>.>.>.1.2.,.*.E y > + X 5.5.5.5.5.5.5.5.5.5.5.5.",
"5.5.5.5.5.5.5.5.5.5.5.5.o + - q v Q [ ....} } [ [ } ..#.*.;.>.>.>.>.>.>.>.>.>.>.>.>.>.,.1.;.$.T y ; + X 5.5.5.5.5.5.5.5.5.5.5.5.",
"5.5.5.5.5.5.5.5.5.5.5.5.X + - q v ~ [ X...} } } [ } } ..O.@.@.@.$.$.$.*.*.>.>.>.>.>.>.;.-.$.( D 0 ; + X 5.5.5.5.5.5.5.5.5.5.5.5.",
"5.5.5.5.5.5.5.5.5.5.5.5.X + - q v Q [ ..} } } } } } [ _ ~ W E T T T / ( $.*.>.,.>.>.-.*.( ~ D y 5 * + X 5.5.5.5.5.5.5.5.5.5.5.5.",
"5.5.5.5.5.5.5.5.5.5.5.5.X + * q b Y } ....} } } } } _ W A A a r r r z T ( *.>.2.1.>.*.( D h r < - $ + X 5.5.5.5.5.5.5.5.5.5.5.5.",
"5.5.5.5.5.5.5.5.5.5.5.5.X + - q b ) } ....[ } } ..[ ^ A w 5 ; & * < 5 z ~ $.>.2.2.>.$.~ A 0 ; $ # # + + 5.5.5.5.5.5.5.5.5.5.5.5.",
"5.5.5.5.5.5.5.5.5.5.5.5.o + * q v Q } ....} } ....[ W A 7 * + X O O < y T $.>.2.2.>.$.E y ; + O X + + + 5.5.5.5.5.5.5.5.5.5.5.5.",
"5.5.5.5.5.5.5.5.5.5.5.5.o + - q A ! } ....} } ..} ' W A 6 $ .     O $ r T $.>.3.2.>.$.T r & O . X + + + 5.5.5.5.5.5.5.5.5.5.5.5.",
"5.5.5.5.5.5.5.5.5.5.5.5.X # - q v ! ..X.X.} [ } X.[ Q A 6 % X     . $ r T $.>.2.2.,.@.T r * O . X X + + 5.5.5.5.5.5.5.5.5.5.5.5.",
"5.5.5.5.5.5.5.5.5.5.5.5.X + * 0 v W [ ....} } ..X.[ W b q * + X O O < y T $.>.2.2.:.@.E y ; + O X + + + 5.5.5.5.5.5.5.5.5.5.5.5.",
"5.5.5.5.5.5.5.5.5.5.5.5.X + - 7 j L ! ` ' [ } X...} ! A t < = & & < 5 z ~ $.>.2.2.:.$.~ A 5 * $ $ $ + + 5.5.5.5.5.5.5.5.5.5.5.5.",
"5.5.5.5.5.5.5.5.5.5.5.5.5.+ * 5 t j A L ! [ ..X.X...` L A a w q w r z T ( *.>.2.2.,.*.| D A w < * $ + + 5.5.5.5.5.5.5.5.5.5.5.5.",
"5.5.5.5.5.5.5.5.5.5.5.5.5.5.5.> 2 7 t v L ` ..X.+...' ) A A A A D T / ( *.;.>.1.1.>.-.$.| ~ D y 5 * + X 5.5.5.5.5.5.5.5.5.5.5.5.",
"5.5.5.5.5.5.5.5.5.5.5.5.5.5.5.5.% = 2 t A Q [ ..} } ' _ _ _ ^ ` ( @.$.*.-.:.>.>.>.>.;.;.-.$.( A w - @ X 5.5.5.5.5.5.5.5.5.5.5.5.",
"5.5.5.5.5.5.5.5.5.5.5.5.5.5.5.5.X $ - 7 l L Q Q ) Q Q ) _ ' [ X.*.:.:.;.;.*.-.-.;.:.:.>.,.;.o.K y ; + X 5.5.5.5.5.5.5.5.5.5.5.5.",
"5.5.5.5.5.5.5.5.5.5.5.5.5.5.5.5.5.X & 5 t l A v A j A A A _ ' +.-.>.>.;.*.@.$.$.=.:.,.,.,.;.o.T r ; + X 5.5.5.5.5.5.5.5.5.5.5.5.",
"5.5.5.5.5.5.5.5.5.5.5.5.5.5.5.5.5.5.5.< 5 0 0 0 7 7 w a c Z Y } *.:.>.*.X.` ` } &.-.-.1.-.=.' D w ; + o 5.5.5.5.5.5.5.5.5.5.5.5.",
"5.5.5.5.5.5.5.5.5.5.5.5.5.5.5.5.5.5.5.5.* * * * * - , 7 p N P ` $.*.=.O.` I I / O.*.-.-.=.O./ n 8 - + o 5.5.5.5.5.5.5.5.5.5.5.5.",
"5.5.5.5.5.5.5.5.5.5.5.5.5.5.5.5.5.5.5.5.+ + + $ & ; 2 8 s c P )  .%.#.[ Y Z Z U ' &.&.&.+.' U v 7 * + o 5.5.5.5.5.5.5.5.5.5.5.5.",
"5.5.5.5.5.5.5.5.5.5.5.5.5.5.5.5.5.5.5.5.. . + & < 0 y z m G I ) ] [ [ Q H B C Z ! ` } } ' ! Z d 4 & + o 5.5.5.5.5.5.5.5.5.5.5.5.",
"5.5.5.5.5.5.5.5.5.5.5.5.5.5.5.5.5.5.5.5.  X # < y S E W Q Q Q Q ! Q Y H C N N C P U Q ! Y P C p 3 & + o 5.5.5.5.5.5.5.5.5.5.5.5.",
"5.5.5.5.5.5.5.5.5.5.5.5.5.5.5.5.5.5.5.5.X O ; w S ( o.@.X.' ` Y Y H Z Z B N N B Z Z Z Z Z C k e 2 & + o 5.5.5.5.5.5.5.5.5.5.5.5.",
"5.5.5.5.5.5.5.5.5.5.5.5.5.5.5.5.5.5.5.5.& < 6 z W @.*.=.%...' ! Y H Z Z Z Z Z H Z Z Z Z Z C f 9 , * @ o 5.5.5.5.5.5.5.5.5.5.5.5.",
"5.5.5.5.5.5.5.5.5.5.5.5.5.5.5.5.5.5.5.< 7 y z K ] $.=.=.+.X.' ` ! ! Q ! ! ! ! ! ! ! ! U Z c f 9 , # + o 5.5.5.5.5.5.5.5.5.5.5.5.",
"5.5.5.5.5.5.5.5.5.5.5.5.5.5.5.5.5.+ - 0 z K ~ ( X.+.#.#.O...} } .. .X. .O.O.X.O.O. .' ` U Z f 8 , & + O 5.5.5.5.5.5.5.5.5.5.5.5.",
"5.5.5.5.5.5.5.5.5.5.5.5.5.5.5.5.X # ; r D ( @.#.+.O.X.} } } ..O.#.&.=.=.=.=.*.-.=.*.&.} ! Z f 9 , & + O 5.5.5.5.5.5.5.5.5.5.5.5.",
"5.5.5.5.5.5.5.5.5.5.5.5.5.5.5.5.X + ; y K o.*.*.+.' ' ` ' ..O.#.&.=.-.-.-.-.-.-.-.=.&.} ! Z f 9 , & + o 5.5.5.5.5.5.5.5.5.5.5.5.",
"5.5.5.5.5.5.5.5.5.5.5.5.5.5.5.5.X + ; y K O.=.*.} ) ) ` } O.#.&.&.=.=.=.=.=.-.=.-.&.&.} ! Z k 9 1 # @ O 5.5.5.5.5.5.5.5.5.5.5.5.",
"5.5.5.5.5.5.5.5.5.5.5.5.5.5.5.5.X + - r F } +.O.' U U ` } #.&.&.&.#.+.+.#.#.#.#.&.O.O.' Y Z k 9 1 & @ o 5.5.5.5.5.5.5.5.5.5.5.5.",
"5.5.5.5.5.5.5.5.5.5.5.5.5.5.5.5.X # - q m ^ ' ` Y Z P ! X.&.=.=.#.O.X.X...O...X.O...' / U Z f 8 1 & + o 5.5.5.5.5.5.5.5.5.5.5.5.",
"5.5.5.5.5.5.5.5.5.5.5.5.5.5.5.5.X + - 7 l J U I Z C Z ! X.*.-.-.&.O.O.X.......O.O.} ' ! Z c s 8 , & + o 5.5.5.5.5.5.5.5.5.5.5.5.",
"5.5.5.5.5.5.5.5.5.5.5.5.5.5.5.5.5.+ = 3 y j v b c m Z ! O.-.>.>.=.&.#.#.#.&.#.&.&.O.} Y C s 9 4 ; & + 5.5.5.5.5.5.5.5.5.5.5.5.5.",
"5.5.5.5.5.5.5.5.5.5.5.5.5.5.5.5.5.5.5.> 3 6 q u s c G ) O.-.>.>.>.-.=.-.-.-.-.*.-.*.o.E z 8 < ; # 5.5.5.5.5.5.5.5.5.5.5.5.5.5.5.",
"5.5.5.5.5.5.5.5.5.5.5.5.5.5.5.5.5.5.5.5.* = : 4 u k Z ) O.=.>.>.>.;.-.;.-.;.;.:.>.;.O.E g < & + 5.5.5.5.5.5.5.5.5.5.5.5.5.5.5.5.",
"5.5.5.5.5.5.5.5.5.5.5.5.5.5.5.5.5.5.5.5.$ & : 4 e f Z Q } #.*.*.$.$.@.@.@.@.*.*.;.;.@.R y ; + X 5.5.5.5.5.5.5.5.5.5.5.5.5.5.5.5.",
"5.5.5.5.5.5.5.5.5.5.5.5.5.5.5.5.5.5.5.% = : 2 8 p c V U ` } } ] / W E R R E / | *.-.@.K y - O   5.5.5.5.5.5.5.5.5.5.5.5.5.5.5.5.",
"5.5.5.5.5.5.5.5.5.5.5.5.5.5.5.5.5.@ % : 4 8 u p f c V H U Y Y L n h y y r y z E o.*.@.R r * X   5.5.5.5.5.5.5.5.5.5.5.5.5.5.5.5.",
"5.5.5.5.5.5.5.5.5.5.5.5.5.5.5.5.X @ & 1 8 p f k c N N V G Z N d q < < * & < 0 z / @.$.E y < + . 5.5.5.5.5.5.5.5.5.5.5.5.5.5.5.5.",
"5.5.5.5.5.5.5.5.5.5.5.5.5.5.5.5.X @ & 1 9 f N B N N N M c f s 9 , * O o O + < y E @.$./ z 0 < * 5.5.5.5.5.5.5.5.5.5.5.5.5.5.5.5.",
"5.5.5.5.5.5.5.5.5.5.5.5.5.5.5.5.X @ & 2 9 k N V V N c f p e 8 2 = + .     O ; y E @.*.o.E z y 0 4 5.5.5.5.5.5.5.5.5.5.5.5.5.5.5.",
"5.5.5.5.5.5.5.5.5.5.5.5.5.5.5.5.o + & 1 e f B V V N k p 9 4 1 ; & 5.5.  . O ; y E @.-.*.o.~ D z 0 ; + 5.5.5.5.5.5.5.5.5.5.5.5.5.",
"5.5.5.5.5.5.5.5.5.5.5.5.5.5.5.5.o + & 1 e f N B V N k i 4 = & # 5.5.5.5.X O ; y R @.;.>.;.$.( D y ; + X 5.5.5.5.5.5.5.5.5.5.5.5.",
"5.5.5.5.5.5.5.5.5.5.5.5.5.5.5.5.o + & 1 e f N V V c f 9 1 & + O 5.5.5.5.X + ; y E @.>.2.2.:.@.T y ; + X 5.5.5.5.5.5.5.5.5.5.5.5.",
"5.5.5.5.5.5.5.5.5.5.5.5.5.5.5.5.5.+ & 2 e f N V V N f 9 , # O 5.5.5.5.5.5.+ ; y T @.>.4.4.2.*.E y ; # 5.5.5.5.5.5.5.5.5.5.5.5.5.",
"5.5.5.5.5.5.5.5.5.5.5.5.5.5.5.5.5.5.5.5.5.5.5.5.5.5.5.5.5.5.5.5.5.5.5.5.5.5.5.5.5.5.5.5.5.5.5.5.5.5.5.5.5.5.5.5.5.5.5.5.5.5.5.5.",
"5.5.5.5.5.5.5.5.5.5.5.5.5.5.5.5.5.5.5.5.5.5.5.5.5.5.5.5.5.5.5.5.5.5.5.5.5.5.5.5.5.5.5.5.5.5.5.5.5.5.5.5.5.5.5.5.5.5.5.5.5.5.5.5.",
"5.5.5.5.5.5.5.5.5.5.5.5.5.5.5.5.5.5.5.5.5.5.5.5.5.5.5.5.5.5.5.5.5.5.5.5.5.5.5.5.5.5.5.5.5.5.5.5.5.5.5.5.5.5.5.5.5.5.5.5.5.5.5.5.",
"5.5.5.5.5.5.5.5.5.5.5.5.5.5.5.5.5.5.5.5.5.5.5.5.5.5.5.5.5.5.5.5.5.5.5.5.5.5.5.5.5.5.5.5.5.5.5.5.5.5.5.5.5.5.5.5.5.5.5.5.5.5.5.5."
};
