/* XPM */
static char *result[] = {
/* columns rows colors chars-per-pixel */
"64 64 102 2 ",
"   c #2C152E",
".  c #341D34",
"X  c #382037",
"o  c #372038",
"O  c #3E263C",
"+  c #40273D",
"@  c #42293E",
"#  c #462D41",
"$  c #482F43",
"%  c #4B3245",
"&  c #4E3649",
"*  c #523546",
"=  c #503749",
"-  c #543B4D",
";  c #5A3E4D",
":  c #5F414F",
">  c #5D4353",
",  c #60414F",
"<  c #624654",
"1  c #644857",
"2  c #694954",
"3  c #664B59",
"4  c #6A4D5B",
"5  c #6D525E",
"6  c #72535D",
"7  c #79565E",
"8  c #7B585F",
"9  c #6D5461",
"0  c #705460",
"q  c #755965",
"w  c #7B5B65",
"e  c #775E69",
"r  c #7A5F69",
"t  c #7B616B",
"y  c #836167",
"u  c #83646C",
"i  c #896469",
"p  c #936D6F",
"a  c #856971",
"s  c #8C6D74",
"d  c #897077",
"f  c #8A7178",
"g  c #917277",
"h  c #9A7374",
"j  c #95757A",
"k  c #9C7778",
"l  c #96797E",
"z  c #9C7A7D",
"x  c #A77F7D",
"c  c #9D7D81",
"v  c #A07E81",
"b  c #9F8084",
"n  c #9F8589",
"m  c #A28285",
"M  c #AC8483",
"N  c #A38689",
"B  c #AC8788",
"V  c #A48A8D",
"C  c #AA8A8B",
"Z  c #B08986",
"A  c #B48D89",
"S  c #B5908E",
"D  c #B8928E",
"F  c #A88F90",
"G  c #AB9192",
"H  c #B29595",
"J  c #BA9593",
"K  c #B79897",
"L  c #BC9995",
"P  c #B59A99",
"I  c #BD9C99",
"U  c #C29B97",
"Y  c #C19E9A",
"T  c #C6A29D",
"R  c #C9A49F",
"E  c #C2A6A2",
"W  c #CAA6A1",
"Q  c #C6A8A5",
"!  c #CDA9A4",
"~  c #C6ACA8",
"^  c #CDAEA8",
"/  c #D0ADA7",
"(  c #D1AEA8",
")  c #CFB2AC",
"_  c #D3B3AC",
"`  c #D8B6AE",
"'  c #D2B7B0",
"]  c #D8B7B0",
"[  c #D4B9B2",
"{  c #DCBBB3",
"}  c #E0BFB6",
"|  c #DFC0B7",
" . c #DFC1B9",
".. c #E2C4BB",
"X. c #E6C8BE",
"o. c #E8C9BF",
"O. c #E7CBC1",
"+. c #E9CDC3",
"@. c #EBD0C5",
"#. c #F1D6CA",
"$. c #F5DACD",
"%. c None",
/* pixels */
"%.%.%.%.%.%.%.%.%.%.%.%.%.%.%.%.%.%.%.%.%.%.%.%.%.%.%.%.%.%.%.%.%.%.%.%.%.%.%.%.%.%.%.%.%.%.%.%.%.%.%.%.%.%.%.%.%.%.%.%.%.%.%.%.",
"%.%.%.%.%.%.%.%.%.%.%.%.%.%.%.%.%.%.%.%.%.%.%.%.%.%.%.%.%.%.%.%.%.%.%.%.%.%.%.%.%.%.%.%.%.%.%.%.%.%.%.%.%.%.%.%.%.%.%.%.%.%.%.%.",
"%.%.%.%.%.%.%.%.%.%.%.%.%.%.%.%.%.%.%.%.%.%.%.%.%.%.%.%.%.%.%.%.%.%.%.%.%.%.%.%.%.%.%.%.%.%.%.%.%.%.%.%.%.%.%.%.%.%.%.%.%.%.%.%.",
"%.%.%.%.%.%.%.%.%.%.%.%.%.%.%.%.%.%.%.%.%.%.%.%.%.%.%.%.%.%.%.%.%.%.%.%.%.%.%.%.%.%.%.%.%.%.%.%.%.%.%.%.%.%.%.%.%.%.%.%.%.%.%.%.",
"%.%.%.%.%.%.%.%.%.%.%.%.%.%.%.%.%.%.%.%.%.. . . . . . . . . . . . . . . . . . . . . . %.%.%.%.%.%.%.%.%.%.%.%.%.%.%.%.%.%.%.%.%.",
"%.%.%.%.%.%.%.%.%.%.%.%.%.%.%.%.%.%.%.%.O + + + O O O O O O O O + O O O O O O + + + + + %.%.%.%.%.%.%.%.%.%.%.%.%.%.%.%.%.%.%.%.",
"%.%.%.%.%.%.%.%.%.%.%.%.%.%.%.%.%.%.%.%.& & = = - - - ; - - - - - - - - - - - = = = = & %.%.%.%.%.%.%.%.%.%.%.%.%.%.%.%.%.%.%.%.",
"%.%.%.%.%.%.%.%.%.%.%.%.%.%.%.%.%.%.%.- 1 5 5 q e e e t e t t t t t t t t t e e q 9 5 3 - %.%.%.%.%.%.%.%.%.%.%.%.%.%.%.%.%.%.%.",
"%.%.%.%.%.%.%.%.%.%.%.%.%.%.%.%.%.. $ < w s c c n V F G F F F F F F F F F F V N c c s q > $ . %.%.%.%.%.%.%.%.%.%.%.%.%.%.%.%.%.",
"%.%.%.%.%.%.%.%.%.%.%.%.%.%.%.%.. # = 5 s C I Q ~ ' [ [ [ [ [ [ [ [ [ [ [ ' ' ^ Q K C s 5 & # . %.%.%.%.%.%.%.%.%.%.%.%.%.%.%.%.",
"%.%.%.%.%.%.%.%.%.%.%.%.%.%.%.%.$ = < r c I ( { O.O.+.@.@.+.@.+.@.@.+.@.@.@.O.O.} ( I c q 1 & $ %.%.%.%.%.%.%.%.%.%.%.%.%.%.%.%.",
"%.%.%.%.%.%.%.%.%.%.%.%.%.%.%.; < 5 t c H ^ { +.@.@.#.#.$.#.#.#.#.#.#.#.#.#.@.@.O.{ ^ H c u 5 1 - %.%.%.%.%.%.%.%.%.%.%.%.%.%.%.",
"%.%.%.%.%.%.%.%.%.%.%.%.%.O & 1 w s v H Q ] O.+.@.@.#.#.#.#.#.#.#.#.#.#.#.#.@.#.+.O.{ Q H v g r 1 & O %.%.%.%.%.%.%.%.%.%.%.%.%.",
"%.%.%.%.%.%.%.%.%.%.%.%.. O = 4 s C I ^ { ..+.@.@.@.@.@.@.@.@.@.@.@.@.@.@.@.@.@.+.O.} { ( Y v s 9 = O . %.%.%.%.%.%.%.%.%.%.%.%.",
"%.%.%.%.%.%.%.%.%.%.%.%.. O = 0 j J ! { ..O.@.@.@.@.@.@.+.@.@.+.@.+.@.@.+.@.+.@.@.@.+.} { ! J g 0 = O . %.%.%.%.%.%.%.%.%.%.%.%.",
"%.%.%.%.%.%.%.%.%.%.%.%.. O = 0 j U ( } O.+.@.@.@.@.@.@.@.@.@.@.@.@.@.@.@.@.@.@.@.@.+.O.} _ I c 0 = + . %.%.%.%.%.%.%.%.%.%.%.%.",
"%.%.%.%.%.%.%.%.%.%.%.%.. O = 5 l L _ } X.+.@.@.@.@.@.@.@.@.@.@.@.@.@.@.@.@.@.@.@.@.O.O.} ) J j 9 = O . %.%.%.%.%.%.%.%.%.%.%.%.",
"%.%.%.%.%.%.%.%.%.%.%.%.. O = 9 j J / { ..o.@.@.@.@.+.@.@.+.@.+.@.@.@.@.@.@.@.@.@.+.O.O.{ ( J g 6 = O . %.%.%.%.%.%.%.%.%.%.%.%.",
"%.%.%.%.%.%.%.%.%.%.%.%.o O = 6 j K ^ { ..+.@.@.@.@.@.@.@.+.@.@.+.@.@.@.@.@.@.@.@.@.O.} { ( J c 9 & O . %.%.%.%.%.%.%.%.%.%.%.%.",
"%.%.%.%.%.%.%.%.%.%.%.%.. O = 5 j J / { X.+.@.#.@.@.@.@.@.@.@.@.@.@.@.@.@.@.@.@.#.@.O.O.} ! H j 6 - O . %.%.%.%.%.%.%.%.%.%.%.%.",
"%.%.%.%.%.%.%.%.%.%.%.%.. O = 0 j J / { ..+.+.@.@.@.@.+.+.@.@.@.@.@.@.@.@.@.@.@.@.@.+.O.{ ( J j 9 = O . %.%.%.%.%.%.%.%.%.%.%.%.",
"%.%.%.%.%.%.%.%.%.%.%.%.. O = 9 j J / { ..o.@.@.@.@.@.@.@.@.@.@.+.@.@.+.@.+.@.@.@.@.+.} { ( J j 9 = O . %.%.%.%.%.%.%.%.%.%.%.%.",
"%.%.%.%.%.%.%.%.%.%.%.%.. O = 6 j J / ] ..X.+.+.@.@.@.@.@.@.@.@.@.@.@.@.@.@.+.O.@.@.O.} { ! J j 6 = O . %.%.%.%.%.%.%.%.%.%.%.%.",
"%.%.%.%.%.%.%.%.%.%.%.%.o O = 0 j I / { { { ..X.O.@.@.@.@.@.@.#.@.@.@.@.@.@.@.O.O.} } { { ( L j 0 = O . %.%.%.%.%.%.%.%.%.%.%.%.",
"%.%.%.%.%.%.%.%.%.%.%.%.. + = 0 j I ( ` ] ] ] } O.+.@.@.@.@.@.@.@.@.@.@.@.@.@.O.} { ] ] ] ( I l 0 & # . %.%.%.%.%.%.%.%.%.%.%.%.",
"%.%.%.%.%.%.%.%.%.%.%.%.. O = 9 j J W ( ( ( ( { ..O.@.@.@.@.@.@.@.@.@.@.@.@.O. .{ ( ! ( / ! J j 9 & O . %.%.%.%.%.%.%.%.%.%.%.%.",
"%.%.%.%.%.%.%.%.%.%.%.%.. O = 9 s C L Y R W / ] { O.+.+.O.O.O.+.O.@.O.@.@.O.O.{ ] ( W W Y L C s 4 = O . %.%.%.%.%.%.%.%.%.%.%.%.",
"%.%.%.%.%.%.%.%.%.%.%.%.%.O = 1 r g v C J R ! _ { { } } ..} } { {  .{  .{ } { { ( ^ T J B c g r 1 = O %.%.%.%.%.%.%.%.%.%.%.%.%.",
"%.%.%.%.%.%.%.%.%.%.%.%.%.%.%.; 1 0 u g C Y ! _ ] ] _ ] ] ] ] ] ] ] ] ] { ] ] _ _ ! U B j t 9 1 ; %.%.%.%.%.%.%.%.%.%.%.%.%.%.%.",
"%.%.%.%.%.%.%.%.%.%.%.%.%.%.%.%.$ = 1 r c L ! ( ( ! ( ( ( ( ( ( ( ( ! ( ^ ( ( ( ( W U c r < = % %.%.%.%.%.%.%.%.%.%.%.%.%.%.%.%.",
"%.%.%.%.%.%.%.%.%.%.%.%.%.%.%.%.. O = 4 g S Y ! ! ! W ! ! ! W ! ! W ! ! ! ! ! ! ! R H g 4 = O . %.%.%.%.%.%.%.%.%.%.%.%.%.%.%.%.",
"%.%.%.%.%.%.%.%.%.%.%.%.%.%.%.%.  . # < u B L Y W W ! ! ! W ! W W ! W W ! W W R Y J M i < $ .   %.%.%.%.%.%.%.%.%.%.%.%.%.%.%.%.",
"%.%.%.%.%.%.%.%.%.%.%.%.%.%.%.%.  X @ : y k Z J T R ! / / R ! ! ^ W ! ! ! ! R Y L A k y ; @ .   %.%.%.%.%.%.%.%.%.%.%.%.%.%.%.%.",
"%.%.%.%.%.%.%.%.%.%.%.%.%.%.%.%.o O % , 8 h M D U R R R ! / R R ! W ! ! ! R R U S M h w , % O o %.%.%.%.%.%.%.%.%.%.%.%.%.%.%.%.",
"%.%.%.%.%.%.%.%.%.%.%.%.%.%.%.%.& : < 6 i k M D J T T R R T R T R Y T U R T U U S M k i 7 < ; % %.%.%.%.%.%.%.%.%.%.%.%.%.%.%.%.",
"%.%.%.%.%.%.%.%.%.%.%.%.%.%.%.> 5 t a f z M M D D A J J D J J D J J J U J D D D A B M z g a t 9 > %.%.%.%.%.%.%.%.%.%.%.%.%.%.%.",
"%.%.%.%.%.%.%.%.%.%.%.%.%.o % 9 d n G P L J D S A Z Z M M M M Z Z Z Z v v A A A A J J J P G V f 9 % . %.%.%.%.%.%.%.%.%.%.%.%.%.",
"%.%.%.%.%.%.%.%.%.%.%.%.. O - t n E ' [ ^ R T D A M x x x x x x x x x x v x x A J U R ( _ ' E n t > O . %.%.%.%.%.%.%.%.%.%.%.%.",
"%.%.%.%.%.%.%.%.%.%.%.%.% - 5 f H '  ...{ / T L D Z M x M M M M x Z x x x x v U U T / ] ....[ H a 9 > $ %.%.%.%.%.%.%.%.%.%.%.%.",
"%.%.%.%.%.%.%.%.%.%.%.> 5 t f N E | ....{ / R T U U D U J L J L U U U U U U U U T W _ ] ..X.] E n f e 9 > %.%.%.%.%.%.%.%.%.%.%.",
"%.%.%.%.%.%.%.%.%.O = 9 f N H E ) [ { { _ / R / ^ ^ _ ^ ) / ) ^ ! / / / ) / ^ ^ ! ! / _ ] } ] ) E H n f 9 = O %.%.%.%.%.%.%.%.%.",
"%.%.%.%.%.%.%.%.. O ; e n E [ [ ] ^ ^ ^ ! ! / _ { { .......... .} ..........| { _ ! ! ! ! / _ _ [ ' E n t ; O . %.%.%.%.%.%.%.%.",
"%.%.%.%.%.%.%.%.. O - t F )  .{ ^ Y L Y R ! _ ` { X.X.+.o.O.o.X.X.X.o.o.X.X.....] _ ! T I I Y ^ {  .) F t - O . %.%.%.%.%.%.%.%.",
"%.%.%.%.%.%.%.%.. + = t V )  .) K m b C I / ] ......X.X.X.X.X.X.X.....X.....| ..| ] ^ I C m m P )  ._ V e - O . %.%.%.%.%.%.%.%.",
"%.%.%.%.%.%.%.%.. O = e N ~ ) L b a t b P _ ......{ { { { { { ] ] ] ] ` ] ] ] { ..{ _ H l t t b I ^ Q N e = + . %.%.%.%.%.%.%.%.",
"%.%.%.%.%.%.%.%.. O = q b L I m t > 3 t G ' ..X.{ _ / / ( / / ^ / / _ / / / _ { X.X.' G a 4 1 t n I L c q = O . %.%.%.%.%.%.%.%.",
"%.%.%.%.%.%.%.%.o O = 6 g C N s 3 & : q V ~ | | _ W T I I I I T R ! / / / / _ ..X.o.[ F t > % 3 s N C g 9 = O o %.%.%.%.%.%.%.%.",
"%.%.%.%.%.%.%.%.%.O = 4 t s a 5 : # & 5 l Y / / W U S B x l b C T ) ] { ] ] { ..o.+.[ F t & # - 6 a s u 5 & O %.%.%.%.%.%.%.%.%.",
"%.%.%.%.%.%.%.%.%.%.%.> 5 5 1 : % + % 4 p B L U J A M h y q u l P '  .O... . .O.@.+.[ G t - # $ ; 1 5 4 > %.%.%.%.%.%.%.%.%.%.%.",
"%.%.%.%.%.%.%.%.%.%.%.%.& & % # + + % < y k M M M x h y 4 : 3 a G ' O.@.@.+.+.@.#.@.[ G t - O O # % = = %.%.%.%.%.%.%.%.%.%.%.%.",
"%.%.%.%.%.%.%.%.%.%.%.%.O O O O X + $ < 7 i p h h p i 6 ; % - t n E [ X.O.+.@.#.$.+.[ G t - O . X O O O %.%.%.%.%.%.%.%.%.%.%.%.",
"%.%.%.%.%.%.%.%.%.%.%.%.%.o . . . O $ ; 2 6 7 8 8 7 7 , * @ & 5 f V P ~ [ O.@.$.#.@.[ G t - O . . . . %.%.%.%.%.%.%.%.%.%.%.%.%.",
"%.%.%.%.%.%.%.%.%.%.%.%.%.%.%.%.%.%.%.* ; : ; < , , , - @ %.%.< 9 e c n ~  .@.#.$.@.[ F t - O . . %.%.%.%.%.%.%.%.%.%.%.%.%.%.%.",
"%.%.%.%.%.%.%.%.%.%.%.%.%.%.%.%.%.%.%.%.$ $ $ % @ @ % @ %.%.%.%.% - 9 t P [ @.$.$.@.[ F t - O . %.%.%.%.%.%.%.%.%.%.%.%.%.%.%.%.",
"%.%.%.%.%.%.%.%.%.%.%.%.%.%.%.%.%.%.%.%.+ O O O @ + O O %.%.%.%.o + > t F [ @.$.$.@.[ F t - O   %.%.%.%.%.%.%.%.%.%.%.%.%.%.%.%.",
"%.%.%.%.%.%.%.%.%.%.%.%.%.%.%.%.%.%.%.%.%.. o o O X X %.%.%.%.%.  o & e V [ @.$.$.+.[ F t - O . %.%.%.%.%.%.%.%.%.%.%.%.%.%.%.%.",
"%.%.%.%.%.%.%.%.%.%.%.%.%.%.%.%.%.%.%.%.%.%.%.%.%.%.%.%.%.%.%.%.  o - t V [ @.$.$.@.[ F t - O . %.%.%.%.%.%.%.%.%.%.%.%.%.%.%.%.",
"%.%.%.%.%.%.%.%.%.%.%.%.%.%.%.%.%.%.%.%.%.%.%.%.%.%.%.%.%.%.%.%.. O - t F [ @.$.$.@.[ G t ; O . %.%.%.%.%.%.%.%.%.%.%.%.%.%.%.%.",
"%.%.%.%.%.%.%.%.%.%.%.%.%.%.%.%.%.%.%.%.%.%.%.%.%.%.%.%.%.%.%.%.. O - t F [ @.$.$.@.[ F t - O . %.%.%.%.%.%.%.%.%.%.%.%.%.%.%.%.",
"%.%.%.%.%.%.%.%.%.%.%.%.%.%.%.%.%.%.%.%.%.%.%.%.%.%.%.%.%.%.%.%.%.O - t F [ @.$.$.+.[ F t - O %.%.%.%.%.%.%.%.%.%.%.%.%.%.%.%.%.",
"%.%.%.%.%.%.%.%.%.%.%.%.%.%.%.%.%.%.%.%.%.%.%.%.%.%.%.%.%.%.%.%.%.%.%.%.%.%.%.%.%.%.%.%.%.%.%.%.%.%.%.%.%.%.%.%.%.%.%.%.%.%.%.%.",
"%.%.%.%.%.%.%.%.%.%.%.%.%.%.%.%.%.%.%.%.%.%.%.%.%.%.%.%.%.%.%.%.%.%.%.%.%.%.%.%.%.%.%.%.%.%.%.%.%.%.%.%.%.%.%.%.%.%.%.%.%.%.%.%.",
"%.%.%.%.%.%.%.%.%.%.%.%.%.%.%.%.%.%.%.%.%.%.%.%.%.%.%.%.%.%.%.%.%.%.%.%.%.%.%.%.%.%.%.%.%.%.%.%.%.%.%.%.%.%.%.%.%.%.%.%.%.%.%.%.",
"%.%.%.%.%.%.%.%.%.%.%.%.%.%.%.%.%.%.%.%.%.%.%.%.%.%.%.%.%.%.%.%.%.%.%.%.%.%.%.%.%.%.%.%.%.%.%.%.%.%.%.%.%.%.%.%.%.%.%.%.%.%.%.%."
};
