/* XPM */
static char *result[] = {
/* columns rows colors chars-per-pixel */
"64 64 116 2 ",
"   c #2A132D",
".  c #2F1831",
"X  c #341D34",
"o  c #372037",
"O  c #382037",
"+  c #372038",
"@  c #3D253B",
"#  c #40273D",
"$  c #42293E",
"%  c #452D41",
"&  c #482F42",
"*  c #4B3245",
"=  c #4F3548",
"-  c #513647",
";  c #503749",
":  c #543B4D",
">  c #5A3D4E",
",  c #5F414F",
"<  c #5D4353",
"1  c #60414F",
"2  c #614553",
"3  c #644856",
"4  c #6B4B57",
"5  c #644A59",
"6  c #6A4E5B",
"7  c #6C515E",
"8  c #74535D",
"9  c #79575E",
"0  c #6F5461",
"q  c #715461",
"w  c #745A65",
"e  c #7B5A62",
"r  c #765E69",
"t  c #7A5E69",
"y  c #7C626D",
"u  c #815E64",
"i  c #846066",
"p  c #83636B",
"a  c #8A656A",
"s  c #8C686C",
"d  c #936C6E",
"f  c #806770",
"g  c #876D75",
"h  c #8C6E75",
"j  c #956E70",
"k  c #8E7076",
"l  c #8C7279",
"z  c #947174",
"x  c #9C7575",
"c  c #95767B",
"v  c #9B7778",
"b  c #97787D",
"n  c #9A7A7D",
"m  c #A17777",
"M  c #A17877",
"N  c #A57C7B",
"B  c #AA7F7C",
"V  c #A7807E",
"C  c #A9807E",
"Z  c #9C7E82",
"A  c #9C8185",
"S  c #9E8589",
"D  c #A18184",
"F  c #AB8482",
"G  c #AF8885",
"H  c #A28689",
"J  c #A68B8E",
"K  c #AB8A8B",
"L  c #B18A87",
"P  c #B48E8B",
"I  c #B6918D",
"U  c #B8938E",
"Y  c #A88F90",
"T  c #AB9192",
"R  c #B39594",
"E  c #B99693",
"W  c #B29897",
"Q  c #BC9996",
"!  c #B49A99",
"~  c #BD9C99",
"^  c #BEA29F",
"/  c #BFA4A1",
"(  c #C19C97",
")  c #C29F9A",
"_  c #C4A29D",
"`  c #C8A39E",
"'  c #C3A5A2",
"]  c #CAA6A2",
"[  c #C4A9A6",
"{  c #CDA9A4",
"}  c #C7ADA9",
"|  c #CDAEA9",
" . c #D1ACA7",
".. c #D1AEA8",
"X. c #CFB3AD",
"o. c #D4B3AC",
"O. c #D8B5AE",
"+. c #D3B7B0",
"@. c #D8B7B0",
"#. c #D5BAB3",
"$. c #DBBBB3",
"%. c #E0BFB6",
"&. c #DFC0B7",
"*. c #DDC2B9",
"=. c #E1C0B7",
"-. c #E2C5BB",
";. c #E5C9BF",
":. c #E8C9BF",
">. c #E6CBC0",
",. c #E9CDC3",
"<. c #ECD1C6",
"1. c #EFD4C8",
"2. c #F0D3C7",
"3. c #F1D6CA",
"4. c #F5DACD",
"5. c None",
/* pixels */
"5.5.5.5.5.5.5.5.5.5.5.5.5.5.5.5.5.5.5.5.5.5.5.5.5.5.5.5.5.5.5.5.5.5.5.5.5.5.5.5.5.5.5.5.5.5.5.5.5.5.5.5.5.5.5.5.5.5.5.5.5.5.5.5.",
"5.5.5.5.5.5.5.5.5.5.5.5.5.5.5.5.5.5.5.5.5.5.5.5.5.5.5.5.5.5.5.5.5.5.5.5.5.5.5.5.5.5.5.5.5.5.5.5.5.5.5.5.5.5.5.5.5.5.5.5.5.5.5.5.",
"5.5.5.5.5.5.5.5.5.5.5.5.5.5.5.5.5.5.5.5.5.5.5.5.5.5.5.5.5.5.5.5.5.5.5.5.5.5.5.5.5.5.5.5.5.5.5.5.5.5.5.5.5.5.5.5.5.5.5.5.5.5.5.5.",
"5.5.5.5.5.5.5.5.5.5.5.5.5.5.5.5.5.5.5.5.5.5.5.5.5.5.5.5.5.5.5.5.5.5.5.5.5.5.5.5.5.5.5.5.5.5.5.5.5.5.5.5.5.5.5.5.5.5.5.5.5.5.5.5.",
"5.5.5.5.5.5.5.5.5.5.5.5.5.5.5.5.5.X X X X X X X X X X X . X X X X X X X X X + X X X X 5.5.5.5.5.5.5.5.5.5.5.5.5.5.5.5.5.5.5.5.5.",
"5.5.5.5.5.5.5.5.5.5.5.5.5.5.5.5.@ @ @ % @ @ @ @ @ @ @ @ @ @ @ @ @ @ # @ @ @ # @ @ @ % @ 5.5.5.5.5.5.5.5.5.5.5.5.5.5.5.5.5.5.5.5.",
"5.5.5.5.5.5.5.5.5.5.5.5.5.5.5.5.= ; ; ; : : > : : : > : : : : : : ; ; ; = ; : = ; ; ; ; 5.5.5.5.5.5.5.5.5.5.5.5.5.5.5.5.5.5.5.5.",
"5.5.5.5.5.5.5.5.5.5.5.5.5.5.5.< 5 7 q w r r t y y y y y y y y r w q q 7 0 0 q 0 0 0 7 6 > 5.5.5.5.5.5.5.5.5.5.5.5.5.5.5.5.5.5.5.",
"5.5.5.5.5.5.5.5.5.5.5.5.5.@ ; 5 t h b Z H J Y Y Y T Y J Y Y Y Y Z b c c c c c c Z c h t 2 * X 5.5.5.5.5.5.5.5.5.5.5.5.5.5.5.5.5.",
"5.5.5.5.5.5.5.5.5.5.5.5.X @ ; 7 h H ~ ' | +.#.#.#.*./ *.#.*./ / _ ~ E R E E E Q E E K h 7 ; # X 5.5.5.5.5.5.5.5.5.5.5.5.5.5.5.5.",
"5.5.5.5.5.5.5.5.5.5.5.5.X @ ; q Z ! X.*.-.,.,.<.<.<.<.<.<.<.>.*.$...| { { ] { {  .] E Z w < ; * 5.5.5.5.5.5.5.5.5.5.5.5.5.5.5.5.",
"5.5.5.5.5.5.5.5.5.5.5.5.X @ ; w A / *.>.,.2.3.3.3.3.3.3.3.3.<.<.-.%.@.O.o... . ... ._ K Z u 7 2 > 5.5.5.5.5.5.5.5.5.5.5.5.5.5.5.",
"5.5.5.5.5.5.5.5.5.5.5.5.X @ : r J / ,.<.<.3.<.3.3.3.3.3.1.3.<.<.,.-.%.$.@... . . . .` E K Z Z w 5 = @ 5.5.5.5.5.5.5.5.5.5.5.5.5.",
"5.5.5.5.5.5.5.5.5.5.5.5.X # : t W / ,.3.3.<.<.<.<.<.<.<.<.<.<.<.,.,.>.$.@. .{ { { ] ] ` _ Q Z h 7 = @ X 5.5.5.5.5.5.5.5.5.5.5.5.",
"5.5.5.5.5.5.5.5.5.5.5.5.X @ : y T #.<.3.3.<.<.>.<.<.<.<.<.<.<.<.1.,.,.-.@. .{ { ] { {  . .] E z 0 = @ X 5.5.5.5.5.5.5.5.5.5.5.5.",
"5.5.5.5.5.5.5.5.5.5.5.5.X @ > y T #.<.4.4.<.<.<.<.<.<.<.1.1.3.3.3.3.,.-.@...] ] ] { {  ... .( Z q : @ + 5.5.5.5.5.5.5.5.5.5.5.5.",
"5.5.5.5.5.5.5.5.5.5.5.5.X @ : y T *.3.4.3.1.<.<.<.<.<.<.<.3.3.3.4.3.<.-.%...] ] ] ] ]  ... .E c q ; @ X 5.5.5.5.5.5.5.5.5.5.5.5.",
"5.5.5.5.5.5.5.5.5.5.5.5.X @ : y Y +.,.1.3.<.<.,.<.<.<.<.<.<.<.<.<.,.>.%.O...] ] ] ]  . . .{ E c q = @ X 5.5.5.5.5.5.5.5.5.5.5.5.",
"5.5.5.5.5.5.5.5.5.5.5.5.X @ : w A / #.;.>.,.<.<.<.<.,.>.*.#.#.#.#.#.+.o. . . .]  .] { ]  .{ E c q = @ X 5.5.5.5.5.5.5.5.5.5.5.5.",
"5.5.5.5.5.5.5.5.5.5.5.5.X @ = 5 y S W } #.;.<.<.<.<.;.#./ ! T Y Y Y R ! ^ ` ] ]  .] {  . .] R c q : @ + 5.5.5.5.5.5.5.5.5.5.5.5.",
"5.5.5.5.5.5.5.5.5.5.5.5.+ @ % : < 0 l J / *.<.3.3.<.*./ Y l y r r y Z Z K _ ]  . .] {  ...] E c q = @ X 5.5.5.5.5.5.5.5.5.5.5.5.",
"5.5.5.5.5.5.5.5.5.5.5.5.@ @ @ @ % < 5 l / #.<.4.4.<.#.! l 5 < = = : 5 w Z ( ]  . .{ {  ...] E Z q ; # X 5.5.5.5.5.5.5.5.5.5.5.5.",
"5.5.5.5.5.5.5.5.5.5.5.5.@ @ @ + + # < y Y #.<.4.4.<.#.T r < @ . X @ = 0 Z U ]  . .{ {  ...] E c q ; @ X 5.5.5.5.5.5.5.5.5.5.5.5.",
"5.5.5.5.5.5.5.5.5.5.5.5.@ @ @ X . + * r J #.<.4.4.,.#.Y r % .     X % 6 c E ]  . .{ ]  ...{ E c 0 ; @ X 5.5.5.5.5.5.5.5.5.5.5.5.",
"5.5.5.5.5.5.5.5.5.5.5.5.@ @ + X . X = r Y / 3.4.4.<.*.J r * X     . & 6 Z R `  . .]  . ... .Q Z q ; @ + 5.5.5.5.5.5.5.5.5.5.5.5.",
"5.5.5.5.5.5.5.5.5.5.5.5.@ @ @ + + @ < y Y *.<.4.4.3.#.Y r < @ X X @ ; 7 Z I ]  . .] ]  . .] E c 0 ; # X 5.5.5.5.5.5.5.5.5.5.5.5.",
"5.5.5.5.5.5.5.5.5.5.5.5.@ @ # # % < 5 Z ! *.,.4.4.<.*.W l 5 < % & ; 2 t Z ( ] .. . .] ] ) Q K h 7 ; @ X 5.5.5.5.5.5.5.5.5.5.5.5.",
"5.5.5.5.5.5.5.5.5.5.5.5.+ @ % : < y y S / *.<.4.4.<.*./ S Z r w 0 w y Z K _  .....{ ] Q P Z h t 5 = @ 5.5.5.5.5.5.5.5.5.5.5.5.5.",
"5.5.5.5.5.5.5.5.5.5.5.5.X @ * 5 y S W / *.;.<.1.3.<.;.*./ W Y S Z Z Z Z Q ]  ...o. .) K c y 7 2 > 5.5.5.5.5.5.5.5.5.5.5.5.5.5.5.",
"5.5.5.5.5.5.5.5.5.5.5.5.X # : w S / *.;.>.>.<.<.<.<.>.;.*.#.#./ ` ) ` ( _ ] {  . .] Q Z t 2 ; * 5.5.5.5.5.5.5.5.5.5.5.5.5.5.5.5.",
"5.5.5.5.5.5.5.5.5.5.5.5.X @ : r J X.>.<.<.<.<.,.;.*.;.;.,.,.;.*.O.] ` ( E E E Q Q E K h 7 ; # o 5.5.5.5.5.5.5.5.5.5.5.5.5.5.5.5.",
"5.5.5.5.5.5.5.5.5.5.5.5.X @ > t J X.;.1.1.<.,.*.#.#.#.*.,.<.<.;.o.` ( Z Z h Z Z b b k t 3 & X 5.5.5.5.5.5.5.5.5.5.5.5.5.5.5.5.5.",
"5.5.5.5.5.5.5.5.5.5.5.5.o @ : w V ' &.:.1.:.;.&.{ _ _ X.*.:.:.&.{ E Z x u 9 7 7 0 0 0 5 : 5.5.5.5.5.5.5.5.5.5.5.5.5.5.5.5.5.5.5.",
"5.5.5.5.5.5.5.5.5.5.5.5.X @ = 8 V Q o.&.:.;.-.o.( P P _ o.;.;.O.] Z m a 8 1 ; = = = = = 5.5.5.5.5.5.5.5.5.5.5.5.5.5.5.5.5.5.5.5.",
"5.5.5.5.5.5.5.5.5.5.5.5.o @ - 7 g T ` &.&.&.&.` U C C U { &.&.| ) Z B a q 2 : * % @ @ @ 5.5.5.5.5.5.5.5.5.5.5.5.5.5.5.5.5.5.5.5.",
"5.5.5.5.5.5.5.5.5.5.5.5.o @ = 4 g C Q ` { { ] ~ C V V C U _ ` _ ( P Z B k f q < * @ X . 5.5.5.5.5.5.5.5.5.5.5.5.5.5.5.5.5.5.5.5.",
"5.5.5.5.5.5.5.5.5.5.5.5.O @ $ 4 a V C U ( Q U C V x x V L U U Q E E Q R R Y Z y < $ X   5.5.5.5.5.5.5.5.5.5.5.5.5.5.5.5.5.5.5.5.",
"5.5.5.5.5.5.5.5.5.5.5.5.O @ - 1 e x V C C P C C V V V V C C G U E ) ] ..O.+./ Z w : @ X 5.5.5.5.5.5.5.5.5.5.5.5.5.5.5.5.5.5.5.5.",
"5.5.5.5.5.5.5.5.5.5.5.5.O # * 1 e j V V C C C C C C V C C C L P ( ` ..@.-.-.+.T y 0 : = 5.5.5.5.5.5.5.5.5.5.5.5.5.5.5.5.5.5.5.5.",
"5.5.5.5.5.5.5.5.5.5.5.5.@ $ $ 1 9 j V C C U ~ Q ( Q Q U Q U Q _ _ ] ..@.=.-.#./ S Z y w < 5.5.5.5.5.5.5.5.5.5.5.5.5.5.5.5.5.5.5.",
"5.5.5.5.5.5.5.5.5.5.5.5.@ @ * 1 9 j V U ~ ` | o.o.X...| | .. .{ ] ]  . .O.O.+.| ' ! H Z 0 : # 5.5.5.5.5.5.5.5.5.5.5.5.5.5.5.5.5.",
"5.5.5.5.5.5.5.5.5.5.5.5.o @ $ 1 9 j V U { &.&.-.-.-.-.-.*.-.*.@.o. . .]  . ...O.#.+./ Z r : # X 5.5.5.5.5.5.5.5.5.5.5.5.5.5.5.5.",
"5.5.5.5.5.5.5.5.5.5.5.5.o @ * > 8 a V Y _ &.;.:.,.>.:.:.:.;.;.*.@.o. .] { { ..@.*.-.X.J t : @ X 5.5.5.5.5.5.5.5.5.5.5.5.5.5.5.5.",
"5.5.5.5.5.5.5.5.5.5.5.5.5.@ * : 2 9 a V ~ &.-.;.-.-.-.-.-.-.*.&.$.@.O.o.{ { ..O.-.>.X.H r : @ X 5.5.5.5.5.5.5.5.5.5.5.5.5.5.5.5.",
"5.5.5.5.5.5.5.5.5.5.5.5.5.5.5.- , 3 7 g J ' &.&.$.@.@.@.@.+.$.$.%.%.$.@...{ { o.$.$.] Z w : @ X 5.5.5.5.5.5.5.5.5.5.5.5.5.5.5.5.",
"5.5.5.5.5.5.5.5.5.5.5.5.5.5.5.5.@ $ < r V ^ { { o. ... . . .o.$.%.>.>.$.O...{  ... .Q Z q ; % X 5.5.5.5.5.5.5.5.5.5.5.5.5.5.5.5.",
"5.5.5.5.5.5.5.5.5.5.5.5.5.5.5.5.X @ , 7 v ^ | o.o... . . .o.o.$.-.>.>.-.$.O.| ] _ Q Z k 0 ; # X 5.5.5.5.5.5.5.5.5.5.5.5.5.5.5.5.",
"5.5.5.5.5.5.5.5.5.5.5.5.5.5.5.5.X O = 7 V _ O.&.$.$.$.$.O.$.$.-.>.,.<.>.-.@.| ~ K Z Z q 2 = @ 5.5.5.5.5.5.5.5.5.5.5.5.5.5.5.5.5.",
"5.5.5.5.5.5.5.5.5.5.5.5.5.5.5.5.. @ = w S } -.:.:.;.-.;.;.-.;.,.,.<.<.<.,.%.X.W Z t 5 < : 5.5.5.5.5.5.5.5.5.5.5.5.5.5.5.5.5.5.5.",
"5.5.5.5.5.5.5.5.5.5.5.5.5.5.5.5.X @ : y J X.;.<.<.;.;.:.>.>.>.>.,.,.<.<.<.>.#.T f 5 : % 5.5.5.5.5.5.5.5.5.5.5.5.5.5.5.5.5.5.5.5.",
"5.5.5.5.5.5.5.5.5.5.5.5.5.5.5.5.X @ ; y H } &.-.*.$.+.+.+.+.#.&.-.>.>.<.3.,.#.! l 7 : = 5.5.5.5.5.5.5.5.5.5.5.5.5.5.5.5.5.5.5.5.",
"5.5.5.5.5.5.5.5.5.5.5.5.5.5.5.5.X @ ; q n ^ } { ^ W T Y J T W ^ X.$.>.<.3.,.*.[ H g r 0 < 5.5.5.5.5.5.5.5.5.5.5.5.5.5.5.5.5.5.5.",
"5.5.5.5.5.5.5.5.5.5.5.5.5.5.5.5.X O = 4 h K I G n g y y y y l A ! | $.,.,.,.>.#.[ W S g 0 ; @ 5.5.5.5.5.5.5.5.5.5.5.5.5.5.5.5.5.",
"5.5.5.5.5.5.5.5.5.5.5.5.5.5.5.5.O $ * 3 i v v d w < : = = : 5 f Z _ ..%.>.>.,.>.;.#./ S y : @ X 5.5.5.5.5.5.5.5.5.5.5.5.5.5.5.5.",
"5.5.5.5.5.5.5.5.5.5.5.5.5.5.5.5.$ * > 4 i j d u 3 * $ o o @ = 7 h K ) | #.-.>.1.1.<.#.Y y : @ X 5.5.5.5.5.5.5.5.5.5.5.5.5.5.5.5.",
"5.5.5.5.5.5.5.5.5.5.5.5.5.5.5.- > 1 4 e a d s 9 , $ O .   X % 2 e h Z T ' #.-.<.3.1.#.T y : @ X 5.5.5.5.5.5.5.5.5.5.5.5.5.5.5.5.",
"5.5.5.5.5.5.5.5.5.5.5.5.5.@ * > 4 9 u a j x d 9 > % X X . 5.5.: 2 7 y Z Y ] $.>.2.<.#.Y y > @ X 5.5.5.5.5.5.5.5.5.5.5.5.5.5.5.5.",
"5.5.5.5.5.5.5.5.5.5.5.5.+ @ * , 8 a d m m m d u 2 * @ + 5.5.5.5.& ; 2 t Z ( O.%.,.>.#.Y y : @ X 5.5.5.5.5.5.5.5.5.5.5.5.5.5.5.5.",
"5.5.5.5.5.5.5.5.5.5.5.5.O @ * , 9 d m B N m d 9 2 & # X 5.5.5.5.X % ; 0 c E ..%.,.>.#.T y : # X 5.5.5.5.5.5.5.5.5.5.5.5.5.5.5.5.",
"5.5.5.5.5.5.5.5.5.5.5.5.5.@ * 1 u j B C B m j 9 1 & # 5.5.5.5.5.5.X & 6 h R  .%.>.>.#.T y : # 5.5.5.5.5.5.5.5.5.5.5.5.5.5.5.5.5.",
"5.5.5.5.5.5.5.5.5.5.5.5.5.5.5.5.5.5.5.5.5.5.5.5.5.5.5.5.5.5.5.5.5.5.5.5.5.5.5.5.5.5.5.5.5.5.5.5.5.5.5.5.5.5.5.5.5.5.5.5.5.5.5.5.",
"5.5.5.5.5.5.5.5.5.5.5.5.5.5.5.5.5.5.5.5.5.5.5.5.5.5.5.5.5.5.5.5.5.5.5.5.5.5.5.5.5.5.5.5.5.5.5.5.5.5.5.5.5.5.5.5.5.5.5.5.5.5.5.5.",
"5.5.5.5.5.5.5.5.5.5.5.5.5.5.5.5.5.5.5.5.5.5.5.5.5.5.5.5.5.5.5.5.5.5.5.5.5.5.5.5.5.5.5.5.5.5.5.5.5.5.5.5.5.5.5.5.5.5.5.5.5.5.5.5.",
"5.5.5.5.5.5.5.5.5.5.5.5.5.5.5.5.5.5.5.5.5.5.5.5.5.5.5.5.5.5.5.5.5.5.5.5.5.5.5.5.5.5.5.5.5.5.5.5.5.5.5.5.5.5.5.5.5.5.5.5.5.5.5.5."
};
