/* XPM */
static char *result[] = {
/* columns rows colors chars-per-pixel */
"64 64 102 2 ",
"   c #2C152E",
".  c #2E1831",
"X  c #341D35",
"o  c #382037",
"O  c #372038",
"+  c #3E263C",
"@  c #40273D",
"#  c #42293E",
"$  c #462D41",
"%  c #492F43",
"&  c #4B3144",
"*  c #4F3649",
"=  c #523647",
"-  c #503749",
";  c #543B4D",
":  c #5A3D4D",
">  c #5A3F50",
",  c #5F414F",
"<  c #5E4453",
"1  c #60414F",
"2  c #624554",
"3  c #644856",
"4  c #694954",
"5  c #654A59",
"6  c #6A4D5B",
"7  c #6E525E",
"8  c #73535D",
"9  c #79565E",
"0  c #7B585F",
"q  c #6E5461",
"w  c #705460",
"e  c #755A65",
"r  c #7A5B65",
"t  c #775E69",
"y  c #7B5F6A",
"u  c #7C616B",
"i  c #805E66",
"p  c #826167",
"a  c #84646C",
"s  c #896469",
"d  c #936D6F",
"f  c #856971",
"g  c #8D6E74",
"h  c #897077",
"j  c #8A7179",
"k  c #917277",
"l  c #9A7374",
"z  c #94757A",
"x  c #9B7678",
"c  c #96797E",
"v  c #9C7A7D",
"b  c #A77F7D",
"n  c #9D7D81",
"m  c #9E8184",
"M  c #9F8689",
"N  c #A28285",
"B  c #AC8583",
"V  c #A38689",
"C  c #A48A8D",
"Z  c #AB8A8B",
"A  c #B08986",
"S  c #B48D8A",
"D  c #B5908E",
"F  c #B8928E",
"G  c #A88F90",
"H  c #AC9292",
"J  c #B39594",
"K  c #BA9593",
"L  c #B79897",
"P  c #BC9995",
"I  c #B59998",
"U  c #BD9C9A",
"Y  c #BFA4A2",
"T  c #C29B97",
"R  c #C19D9A",
"E  c #C6A29D",
"W  c #C9A49F",
"Q  c #C2A6A3",
"!  c #CAA6A1",
"~  c #C7A8A4",
"^  c #CDAAA4",
"/  c #CDAEA8",
"(  c #D0ADA7",
")  c #D1AEA8",
"_  c #CFB2AC",
"`  c #D3B3AC",
"'  c #D8B6AE",
"]  c #D2B7B0",
"[  c #D8B7B0",
"{  c #D4B9B2",
"}  c #DCBCB4",
"|  c #E0BFB6",
" . c #DFC0B7",
".. c #DFC1B9",
"X. c #E2C4BB",
"o. c #E6C8BE",
"O. c #E8C9BF",
"+. c #E7CBC1",
"@. c #E9CDC3",
"#. c #EBD0C5",
"$. c #F1D6CA",
"%. c None",
/* pixels */
"%.%.%.%.%.%.%.%.%.%.%.%.%.%.%.%.%.%.%.%.%.%.%.%.%.%.%.%.%.%.%.%.%.%.%.%.%.%.%.%.%.%.%.%.%.%.%.%.%.%.%.%.%.%.%.%.%.%.%.%.%.%.%.%.",
"%.%.%.%.%.%.%.%.%.%.%.%.%.%.%.%.%.%.%.%.%.%.%.%.%.%.%.%.%.%.%.%.%.%.%.%.%.%.%.%.%.%.%.%.%.%.%.%.%.%.%.%.%.%.%.%.%.%.%.%.%.%.%.%.",
"%.%.%.%.%.%.%.%.%.%.%.%.%.%.%.%.%.%.%.%.%.%.%.%.%.%.%.%.%.%.%.%.%.%.%.%.%.%.%.%.%.%.%.%.%.%.%.%.%.%.%.%.%.%.%.%.%.%.%.%.%.%.%.%.",
"%.%.%.%.%.%.%.%.%.%.%.%.%.%.%.%.%.%.%.%.%.%.%.%.%.%.%.%.%.%.%.%.%.%.%.%.%.%.%.%.%.%.%.%.%.%.%.%.%.%.%.%.%.%.%.%.%.%.%.%.%.%.%.%.",
"%.%.%.%.%.%.%.%.%.%.%.%.%.%.%.%.%.%.%.%.%.%.%.%.%.%.%.%.%.%.%.%.%.%.%.%.%.%.%.%.%.%.%.%.%.%.%.%.%.%.%.%.%.%.%.%.%.%.%.%.%.%.%.%.",
"%.%.%.%.%.%.%.%.%.%.%.%.%.%.%.%.%.%.%.%.%.%.%.%.%.%.%.%.%.%.%.%.%.%.%.%.%.%.%.%.%.%.%.%.%.%.%.%.%.%.%.%.%.%.%.%.%.%.%.%.%.%.%.%.",
"%.%.%.%.%.%.%.%.%.%.%.%.%.%.%.%.%.%.%.%.%.%.%.%.%.%.%.%.%.%.%.%.%.%.%.%.%.%.%.%.%.%.%.%.%.%.%.%.%.%.%.%.%.%.%.%.%.%.%.%.%.%.%.%.",
"%.%.%.%.%.%.%.%.%.%.%.%.%.%.%.%.%.%.%.%.%.%.%.%.%.%.%.%.%.%.%.%.%.%.%.%.%.%.%.%.%.%.%.%.%.%.%.%.%.%.%.%.%.%.%.%.%.%.%.%.%.%.%.%.",
"%.%.%.%.%.%.%.%.%.%.%.%.%.%.%.%.%.%.%.%.%.X X X X X X X . X X . X X . X X X X X X X X %.%.%.%.%.%.%.%.%.%.%.%.%.%.%.%.%.%.%.%.%.",
"%.%.%.%.%.%.%.%.%.%.%.%.%.%.%.%.%.%.%.%.+ $ + $ + + + + @ + + + @ @ + + + @ + + + + + @ %.%.%.%.%.%.%.%.%.%.%.%.%.%.%.%.%.%.%.%.",
"%.%.%.%.%.%.%.%.%.%.%.%.%.%.%.%.%.%.%.%.* * - - ; ; ; > ; ; ; ; ; ; ; ; ; ; ; - ; - * * %.%.%.%.%.%.%.%.%.%.%.%.%.%.%.%.%.%.%.%.",
"%.%.%.%.%.%.%.%.%.%.%.%.%.%.%.%.%.%.%.; 3 6 q e t t u u u u u u u u u u u u y t e q 6 3 > %.%.%.%.%.%.%.%.%.%.%.%.%.%.%.%.%.%.%.",
"%.%.%.%.%.%.%.%.%.%.%.%.%.%.%.%.%.X & < e g n n M C G G G G G G G G G G G G C C n n g r 3 $ X %.%.%.%.%.%.%.%.%.%.%.%.%.%.%.%.%.",
"%.%.%.%.%.%.%.%.%.%.%.%.%.%.%.%.X @ ; 7 g Z L ~ / ] { { { { { { { { { { { { _ ~ Q I Z g 6 ; $ X %.%.%.%.%.%.%.%.%.%.%.%.%.%.%.%.",
"%.%.%.%.%.%.%.%.%.%.%.%.%.%.%.%.& - < y n R _ } X.+.#.#.#.@.#.@.#.#.#.#.#.#.+.+.} ) R n u 3 * $ %.%.%.%.%.%.%.%.%.%.%.%.%.%.%.%.",
"%.%.%.%.%.%.%.%.%.%.%.%.%.%.%.; < 7 u n J / } +.#.$.$.$.$.$.$.$.$.$.$.$.$.$.$.#.+.| / J n y 6 3 > %.%.%.%.%.%.%.%.%.%.%.%.%.%.%.",
"%.%.%.%.%.%.%.%.%.%.%.%.%.+ * 3 t g n J ~ } X.@.@.#.$.$.$.$.$.$.$.$.$.#.$.$.#.#.+.+.} ! J n j r 3 * + %.%.%.%.%.%.%.%.%.%.%.%.%.",
"%.%.%.%.%.%.%.%.%.%.%.%.o + * 7 g Z R / } X.@.@.#.#.#.#.#.#.#.#.#.#.#.#.#.#.#.#.@.+.X.} ^ U Z g 6 - @ X %.%.%.%.%.%.%.%.%.%.%.%.",
"%.%.%.%.%.%.%.%.%.%.%.%.X + * 8 z L ( } X.@.@.#.#.#.#.#.#.#.#.#.#.#.#.#.#.#.#.#.#.#.+.| } ) K z q - + X %.%.%.%.%.%.%.%.%.%.%.%.",
"%.%.%.%.%.%.%.%.%.%.%.%.o + * 7 z P ) | +.@.#.#.#.#.#.#.#.#.#.#.#.#.#.#.#.#.#.#.#.#.+.+.| ` K z w * @ X %.%.%.%.%.%.%.%.%.%.%.%.",
"%.%.%.%.%.%.%.%.%.%.%.%.o + - 7 z P ) | o.@.@.$.#.#.#.#.#.#.#.#.#.#.#.#.#.@.#.#.$.#.@.+.| ) P n q - + X %.%.%.%.%.%.%.%.%.%.%.%.",
"%.%.%.%.%.%.%.%.%.%.%.%.o + - w z K ( } X.@.@.@.#.#.#.@.#.@.#.#.#.#.#.@.#.#.#.#.#.#.+.X.} ) K z q - + X %.%.%.%.%.%.%.%.%.%.%.%.",
"%.%.%.%.%.%.%.%.%.%.%.%.X + - 7 z L ( } X.@.#.#.#.#.#.#.#.#.#.#.#.+.#.#.#.#.#.#.#.#.+.X.} ) K z 8 - + X %.%.%.%.%.%.%.%.%.%.%.%.",
"%.%.%.%.%.%.%.%.%.%.%.%.X + - 7 z L ( | X.@.#.$.#.#.#.#.#.@.@.#.#.#.#.#.#.#.#.#.#.#.+.+.} / K z q - + X %.%.%.%.%.%.%.%.%.%.%.%.",
"%.%.%.%.%.%.%.%.%.%.%.%.X + - w z K ) } X.+.#.#.#.#.#.#.#.#.#.#.#.#.#.@.#.#.@.#.#.#.@.+.[ ) K z w - @ X %.%.%.%.%.%.%.%.%.%.%.%.",
"%.%.%.%.%.%.%.%.%.%.%.%.o + - 7 z K ) } X.+.#.#.#.#.#.#.#.#.#.#.#.#.#.#.#.#.#.#.#.@.@.X.} ) K z q - + X %.%.%.%.%.%.%.%.%.%.%.%.",
"%.%.%.%.%.%.%.%.%.%.%.%.X + - 7 z K ^ } X.+.+.@.#.#.#.#.#.#.#.#.#.#.#.#.#.#.#.@.@.+.+.| [ ) L z w - + X %.%.%.%.%.%.%.%.%.%.%.%.",
"%.%.%.%.%.%.%.%.%.%.%.%.X + - w c P ) [ } } X.+.@.@.#.#.#.#.#.#.#.#.#.#.#.#.#.+.+.X.} } [ ) P c w - @ X %.%.%.%.%.%.%.%.%.%.%.%.",
"%.%.%.%.%.%.%.%.%.%.%.%.X @ - w c P ) ' ' ' [ | +.@.#.#.#.#.#.#.#.#.#.#.#.#.#.+.} } [ [ ' ( P c w - + X %.%.%.%.%.%.%.%.%.%.%.%.",
"%.%.%.%.%.%.%.%.%.%.%.%.X + - 7 z K ! ) ) ) ` } | +.#.@.#.#.#.#.#.#.#.#.#.#.+.X.} ` ) ) ( ! L z q - + X %.%.%.%.%.%.%.%.%.%.%.%.",
"%.%.%.%.%.%.%.%.%.%.%.%.o + - 7 g Z P E E ! ) [ } +.+.+.@.+.+.+.+.+.+.+.+.+.X.} [ ^ ! ! R P Z g 7 - + X %.%.%.%.%.%.%.%.%.%.%.%.",
"%.%.%.%.%.%.%.%.%.%.%.%.%.+ * 5 y k n Z K E ^ ` } } } +.X.X.} X...X.....X.X.} } ` ^ E P A n k y 5 - @ %.%.%.%.%.%.%.%.%.%.%.%.%.",
"%.%.%.%.%.%.%.%.%.%.%.%.%.%.%.< 5 7 u k A E ^ ` ' ' ' ' `  .' ' [ [ [ [ [ [ [ ` ` ^ R Z z u 8 3 > %.%.%.%.%.%.%.%.%.%.%.%.%.%.%.",
"%.%.%.%.%.%.%.%.%.%.%.%.%.%.%.%.& = 2 u v K ^ ( _ ( ( _ ( ( ( ( ^ ) ) ) ^ ) ) ) ( ^ P v y 2 - $ %.%.%.%.%.%.%.%.%.%.%.%.%.%.%.%.",
"%.%.%.%.%.%.%.%.%.%.%.%.%.%.%.%.X + = 7 k D E ^ W W ( W ^ W ^ ^ ^ ! ^ ^ ^ ^ ^ ^ ! E F k 7 - @ X %.%.%.%.%.%.%.%.%.%.%.%.%.%.%.%.",
"%.%.%.%.%.%.%.%.%.%.%.%.%.%.%.%.  X # 2 f B K E W W W ^ ^ ^ W ^ ^ ^ ^ ! ^ ^ W W E P B s 3 # X X X %.%.%.%.%.%.%.%.%.%.%.%.%.%.%.",
"%.%.%.%.%.%.%.%.%.%.%.%.%.%.%.%.  X @ , p x S P W W W ( ^ ^ ^ ^ ^ ^ ^ ^ ^ ^ W E K S x i < $ O . X O + %.%.%.%.%.%.%.%.%.%.%.%.%.",
"%.%.%.%.%.%.%.%.%.%.%.%.%.%.%.%.o + & 2 0 l B F E E W ^ ( W W ^ ^ ! ^ ^ ^ W E T D B l i 2 & + O O + + + %.%.%.%.%.%.%.%.%.%.%.%.",
"%.%.%.%.%.%.%.%.%.%.%.%.%.%.%.%.* , 2 8 s x B S F E W W E E E E R E E E E E R K D B x a 8 < - & $ + + O %.%.%.%.%.%.%.%.%.%.%.%.",
"%.%.%.%.%.%.%.%.%.%.%.%.%.%.%.< q u a j v B A S F F K K K K K K F T F K K K F F S S B v z f t 5 * $ X X %.%.%.%.%.%.%.%.%.%.%.%.",
"%.%.%.%.%.%.%.%.%.%.%.%.%.X & q j M H I L K F F S A B A B A B B n T b n B B A S D F K P I H m u < $ O . %.%.%.%.%.%.%.%.%.%.%.%.",
"%.%.%.%.%.%.%.%.%.%.%.%.X # ; u M Y ] { _ W R F A B b b b b b b n b b b b b B S F T W ) ] _ Q m t ; + X %.%.%.%.%.%.%.%.%.%.%.%.",
"%.%.%.%.%.%.%.%.%.%.%.%.& ; q j I ] ..X.[ / W P F A B B B B B B b b A b B B A F P W ) } X.X.] H j q < & %.%.%.%.%.%.%.%.%.%.%.%.",
"%.%.%.%.%.%.%.%.%.%.%.< q u h M Y  ...X.[ ` ! E T P K P F P F P T T T T K P P T E ! ) [ X.O.} Q C j u q < %.%.%.%.%.%.%.%.%.%.%.",
"%.%.%.%.%.%.%.%.%.+ - q j M I Q / } } } ' ( ! ^ ~ _ ( ` / _ ) / ( ( ( ) ) ` ) / ^ ^ / ` [ | } _ Y I M j q - # %.%.%.%.%.%.%.%.%.",
"%.%.%.%.%.%.%.%.X + > t M Y ] { ` ( ( / ^ ^ ( `  .......X.X.X.X.X.| X.X.X.X. .{ ` / ^ ! ^ ( ` ` { ] Q M u ; + X %.%.%.%.%.%.%.%.",
"%.%.%.%.%.%.%.%.X + ; u G _ ..} / R U U W ^ ` ' ..o.O.O.O.O.O.O.O.O.O.O.O.O.X...[ ` ^ E T P E / } ..] G u ; + X %.%.%.%.%.%.%.%.",
"%.%.%.%.%.%.%.%.X + ; y C _ } ` I N N Z U ) } | ....o.o.o.O.O.O.O.O.O.O.X.O.X.X.X.[ ) E Z N N I _ } _ G t ; + X %.%.%.%.%.%.%.%.",
"%.%.%.%.%.%.%.%.X + ; t V ~ ) U v u f c I ] X.X.X.} } } } } | } }  .} } } } } X.X...] I n u a v U _ ~ V r - @ X %.%.%.%.%.%.%.%.",
"%.%.%.%.%.%.%.%.X + - e n P U V u 3 5 f H ] X.X.} ` ) ^ ( / ( ( ( ( ( / ^ ( ` } O...] H u 3 3 u M U P n e - + X %.%.%.%.%.%.%.%.",
"%.%.%.%.%.%.%.%.X + - w k Z V g 5 * ; u C _  . .` ^ E T P P K J K P P P T E W '  . ./ M u ; * 6 f Z Z k w - + X %.%.%.%.%.%.%.%.",
"%.%.%.%.%.%.%.%.%.@ * 6 i g f w , # & 7 c U / / W P F A N v z k k z v N A F T W ) / Y n q & $ : w f g u 6 - + %.%.%.%.%.%.%.%.%.",
"%.%.%.%.%.%.%.%.%.%.%.< 6 6 6 > # # = 5 h A T T T S B x s r 7 7 7 q e s l B S T T P A h 6 & @ & > 6 6 6 < %.%.%.%.%.%.%.%.%.%.%.",
"%.%.%.%.%.%.%.%.%.%.%.%.- - * $ @ @ & 4 p l B B B b l p 7 , - & & * > 8 s l b B B B x p 2 & @ @ % & - - %.%.%.%.%.%.%.%.%.%.%.%.",
"%.%.%.%.%.%.%.%.%.%.%.%.+ $ + X + @ # 1 9 s d l l d s 9 , & + o o @ & < 8 s d l d d s 0 1 % @ O + + + @ %.%.%.%.%.%.%.%.%.%.%.%.",
"%.%.%.%.%.%.%.%.%.%.%.%.%.X X X o # # : 4 8 9 0 0 0 8 4 ; @ o . X X # = 4 8 0 0 0 9 8 4 : & + X X X X %.%.%.%.%.%.%.%.%.%.%.%.%.",
"%.%.%.%.%.%.%.%.%.%.%.%.%.%.%.%.%.%.%.= : : : 1 1 1 : : * %.%.%.%.%.%.& : : 1 1 1 1 : : = %.%.%.%.%.%.%.%.%.%.%.%.%.%.%.%.%.%.%.",
"%.%.%.%.%.%.%.%.%.%.%.%.%.%.%.%.%.%.%.%.% & & & & % & % %.%.%.%.%.%.%.%.% & % & & & & & %.%.%.%.%.%.%.%.%.%.%.%.%.%.%.%.%.%.%.%.",
"%.%.%.%.%.%.%.%.%.%.%.%.%.%.%.%.%.%.%.%.@ + + + + @ + + %.%.%.%.%.%.%.%.+ + + @ + + + + %.%.%.%.%.%.%.%.%.%.%.%.%.%.%.%.%.%.%.%.",
"%.%.%.%.%.%.%.%.%.%.%.%.%.%.%.%.%.%.%.%.%.o o o o X O %.%.%.%.%.%.%.%.%.%.o o X O O O %.%.%.%.%.%.%.%.%.%.%.%.%.%.%.%.%.%.%.%.%.",
"%.%.%.%.%.%.%.%.%.%.%.%.%.%.%.%.%.%.%.%.%.%.%.%.%.%.%.%.%.%.%.%.%.%.%.%.%.%.%.%.%.%.%.%.%.%.%.%.%.%.%.%.%.%.%.%.%.%.%.%.%.%.%.%.",
"%.%.%.%.%.%.%.%.%.%.%.%.%.%.%.%.%.%.%.%.%.%.%.%.%.%.%.%.%.%.%.%.%.%.%.%.%.%.%.%.%.%.%.%.%.%.%.%.%.%.%.%.%.%.%.%.%.%.%.%.%.%.%.%.",
"%.%.%.%.%.%.%.%.%.%.%.%.%.%.%.%.%.%.%.%.%.%.%.%.%.%.%.%.%.%.%.%.%.%.%.%.%.%.%.%.%.%.%.%.%.%.%.%.%.%.%.%.%.%.%.%.%.%.%.%.%.%.%.%.",
"%.%.%.%.%.%.%.%.%.%.%.%.%.%.%.%.%.%.%.%.%.%.%.%.%.%.%.%.%.%.%.%.%.%.%.%.%.%.%.%.%.%.%.%.%.%.%.%.%.%.%.%.%.%.%.%.%.%.%.%.%.%.%.%."
};
