/* XPM */
static char *result[] = {
/* columns rows colors chars-per-pixel */
"64 64 116 2 ",
"   c #2A132D",
".  c #2F1830",
"X  c #341D34",
"o  c #372037",
"O  c #372038",
"+  c #3D263B",
"@  c #41273D",
"#  c #42293F",
"$  c #452D41",
"%  c #492F42",
"&  c #4B3144",
"*  c #4E3548",
"=  c #543647",
"-  c #503749",
";  c #543B4D",
":  c #5A3E4E",
">  c #593F50",
",  c #5F404F",
"<  c #5D4353",
"1  c #60414F",
"2  c #624553",
"3  c #644856",
"4  c #694A55",
"5  c #644A58",
"6  c #6B4E5B",
"7  c #6C515E",
"8  c #74535D",
"9  c #79565E",
"0  c #6F5461",
"q  c #715461",
"w  c #745A65",
"e  c #7C5961",
"r  c #775E69",
"t  c #7A5F69",
"y  c #7C636D",
"u  c #805D63",
"i  c #866166",
"p  c #886367",
"a  c #84636A",
"s  c #896569",
"d  c #8C6A6F",
"f  c #936C6E",
"g  c #816770",
"h  c #846A73",
"j  c #8D6E75",
"k  c #966F70",
"l  c #8D7076",
"z  c #8C737A",
"x  c #947277",
"c  c #9B7475",
"v  c #95767B",
"b  c #987478",
"n  c #97787D",
"m  c #9B797D",
"M  c #A17776",
"N  c #A17877",
"B  c #A57C7B",
"V  c #A87E7B",
"C  c #A7807E",
"Z  c #AA817E",
"A  c #9C7E82",
"S  c #9B8184",
"D  c #9E8588",
"F  c #A28285",
"G  c #AB8482",
"H  c #AF8885",
"J  c #A28689",
"K  c #A68C8E",
"L  c #AB8A8B",
"P  c #B18A87",
"I  c #B48E8B",
"U  c #B7918D",
"Y  c #B8928E",
"T  c #A78E90",
"R  c #A88F90",
"E  c #AB9193",
"W  c #B49493",
"Q  c #BA9693",
"!  c #BC9995",
"~  c #B59A9A",
"^  c #BC9B99",
"/  c #BAA09E",
"(  c #BFA4A2",
")  c #C09C97",
"_  c #C39E9A",
"`  c #C4A29D",
"'  c #C8A49F",
"]  c #C3A6A3",
"[  c #CAA6A2",
"{  c #C4A9A6",
"}  c #CDA9A4",
"|  c #C7ADA9",
" . c #CDAFA9",
".. c #D1ACA7",
"X. c #D1AEA8",
"o. c #CEB2AC",
"O. c #D3B2AB",
"+. c #D9B6AF",
"@. c #D3B7B1",
"#. c #D8B7B0",
"$. c #D4BAB3",
"%. c #DBBBB3",
"&. c #DEC0B7",
"*. c #DDC2B9",
"=. c #E2C5BB",
"-. c #E5C9BF",
";. c #E7CBC1",
":. c #EACEC3",
">. c #ECD1C6",
",. c #EFD4C8",
"<. c #F0D3C7",
"1. c #F1D6CA",
"2. c #F5DACD",
"3. c #FADFD1",
"4. c #FDE1D3",
"5. c None",
/* pixels */
"5.5.5.5.5.5.5.5.5.5.5.5.5.5.5.5.5.5.5.5.5.5.5.5.5.5.5.5.5.5.5.5.5.5.5.5.5.5.5.5.5.5.5.5.5.5.5.5.5.5.5.5.5.5.5.5.5.5.5.5.5.5.5.5.",
"5.5.5.5.5.5.5.5.5.5.5.5.5.5.5.5.5.5.5.5.5.5.5.5.5.5.5.5.5.5.5.5.5.5.5.5.5.5.5.5.5.5.5.5.5.5.5.5.5.5.5.5.5.5.5.5.5.5.5.5.5.5.5.5.",
"5.5.5.5.5.5.5.5.5.5.5.5.5.5.5.5.5.5.5.5.5.5.5.5.5.5.5.5.5.5.5.5.5.5.5.5.5.5.5.5.5.5.5.5.5.5.5.5.5.5.5.5.5.5.5.5.5.5.5.5.5.5.5.5.",
"5.5.5.5.5.5.5.5.5.5.5.5.5.5.5.5.5.5.5.5.5.5.5.5.5.5.5.5.5.5.5.5.5.5.5.5.5.5.5.5.5.5.5.5.5.5.5.5.5.5.5.5.5.5.5.5.5.5.5.5.5.5.5.5.",
"5.5.5.5.5.5.5.5.5.5.5.5.5.5.5.5.5.X X X X . . . X X X X X . X X X X X X X X O X X X X 5.5.5.5.5.5.5.5.5.5.5.5.5.5.5.5.5.5.5.5.5.",
"5.5.5.5.5.5.5.5.5.5.5.5.5.5.5.5.X $ $ @ @ + $ + + + + + + + + + + + @ + + + # + @ @ @ + 5.5.5.5.5.5.5.5.5.5.5.5.5.5.5.5.5.5.5.5.",
"5.5.5.5.5.5.5.5.5.5.5.5.5.5.5.5.* - - - ; ; > > > ; ; ; > ; ; ; ; - - - - * * ; - * - ; 5.5.5.5.5.5.5.5.5.5.5.5.5.5.5.5.5.5.5.5.",
"5.5.5.5.5.5.5.5.5.5.5.5.5.5.5.< 5 7 q w r r y t t y y y y r y r w q 7 q 7 0 0 0 q 0 7 5 > 5.5.5.5.5.5.5.5.5.5.5.5.5.5.5.5.5.5.5.",
"5.5.5.5.5.5.5.5.5.5.5.5.5.+ - 5 r j v A J T T R T T T T E T T D A n v v b v v A A b j t 2 % O 5.5.5.5.5.5.5.5.5.5.5.5.5.5.5.5.5.",
"5.5.5.5.5.5.5.5.5.5.5.5.X + - 7 j L Q {  .@.$.$.$.$.$.$.$.$.o.| ] ^ Q W Q Q Q Q Q W L j 7 * @ X 5.5.5.5.5.5.5.5.5.5.5.5.5.5.5.5.",
"5.5.5.5.5.5.5.5.5.5.5.5.X + - q A Q O.%.=.;.:.>.>.:.:.>.>.:.:.*.%.X...} } [ } } ..[ Q A w < * % 5.5.5.5.5.5.5.5.5.5.5.5.5.5.5.5.",
"5.5.5.5.5.5.5.5.5.5.5.5.X + - w A [ &.;.>.<.1.1.2.,.2.,.2.,.>.:.=.&.#.+.O.X...X.X...` L A a 7 5 > 5.5.5.5.5.5.5.5.5.5.5.5.5.5.5.",
"5.5.5.5.5.5.5.5.5.5.5.5.X @ ; r D  .;.>.>.,.,.,.,.,.,.,.1.1.>.>.:.=.&.%.+.X...X.....' ! L A x u 5 * + 5.5.5.5.5.5.5.5.5.5.5.5.5.",
"5.5.5.5.5.5.5.5.5.5.5.5.X + ; t T @.;.>.,.>.>.>.>.>.>.>.>.>.>.>.:.:.;.%.#...} [ ..[ [ ' ` ! A h 7 - + X 5.5.5.5.5.5.5.5.5.5.5.5.",
"5.5.5.5.5.5.5.5.5.5.5.5.X + ; y E $.>.1.,.>.>.>.>.>.>.>.>.>.>.>.<.:.;.=.#...} [ [ [ ......[ Q A 0 * + X 5.5.5.5.5.5.5.5.5.5.5.5.",
"5.5.5.5.5.5.5.5.5.5.5.5.X + ; y E $.,.2.2.>.:.>.>.>.>.,.>.1.1.1.1.1.>.=.#.X.} [ [ [ [ X.X...! A q * $ X 5.5.5.5.5.5.5.5.5.5.5.5.",
"5.5.5.5.5.5.5.5.5.5.5.5.X + ; y E *.,.2.2.>.>.>.>.:.>.>.,.,.1.1.2.1.>.-.#.X.} } [ ..[ ..X.[ Q A 0 - + X 5.5.5.5.5.5.5.5.5.5.5.5.",
"5.5.5.5.5.5.5.5.5.5.5.5.X + ; y T $.:.,.,.>.>.>.>.>.>.>.>.:.:.:.:.:.;.*.#.X.[ [ [ [ [ ..X.[ W x q - + X 5.5.5.5.5.5.5.5.5.5.5.5.",
"5.5.5.5.5.5.5.5.5.5.5.5.X + ; w S ( $.-.;.;.>.>.>.>.>.;.*.*.$.$.$.$.#.o.X...[ [ [ [ ....X.[ W A 0 * + X 5.5.5.5.5.5.5.5.5.5.5.5.",
"5.5.5.5.5.5.5.5.5.5.5.5.X + & 5 y D ~ | $.-.>.,.>.>.-.$.( ~ E T R E E ~ ` ' [ } [ ..[ ......Q v q * $ X 5.5.5.5.5.5.5.5.5.5.5.5.",
"5.5.5.5.5.5.5.5.5.5.5.5.O + $ * < r z T ( *.>.1.,.>.*.( T z y r t y h A L ` [ ....[ ......} Q x q * + X 5.5.5.5.5.5.5.5.5.5.5.5.",
"5.5.5.5.5.5.5.5.5.5.5.5.+ + + $ $ * 0 z ( $.>.2.2.>.$.~ z 0 ; & * ; 5 g A ! } ....[ [ ....[ Q A q - + X 5.5.5.5.5.5.5.5.5.5.5.5.",
"5.5.5.5.5.5.5.5.5.5.5.5.+ + + O O + ; y E $.>.2.2.>.$.E y ; + X X + * q A Q [ ....[ [ ..X.} W v q - + X 5.5.5.5.5.5.5.5.5.5.5.5.",
"5.5.5.5.5.5.5.5.5.5.5.5.+ + + X . O & r T @.>.2.2.:.@.T r & .     X % 7 b Q [ X...[ ....X...Q v 0 - + X 5.5.5.5.5.5.5.5.5.5.5.5.",
"5.5.5.5.5.5.5.5.5.5.5.5.+ + O X . X & y T $.>.2.2.>.$.T r * .     . % 7 A W ' ....} } ..X...! A q * + O 5.5.5.5.5.5.5.5.5.5.5.5.",
"5.5.5.5.5.5.5.5.5.5.5.5.+ + + O O + ; y E $.>.2.2.>.$.E y ; + X X + * 0 A I [ ....} [ ....[ Q v 0 ; + X 5.5.5.5.5.5.5.5.5.5.5.5.",
"5.5.5.5.5.5.5.5.5.5.5.5.+ + + # $ - 0 z / $.>.2.2.>.$.~ z 6 ; & % * 3 w A ^ } X...} [ [ _ ! L j 6 - + X 5.5.5.5.5.5.5.5.5.5.5.5.",
"5.5.5.5.5.5.5.5.5.5.5.5.O + $ - < w z K ( *.>.1.2.>.-.( T z y w 0 w a A L _ ..X.X.} [ ^ I A j r 5 * @ 5.5.5.5.5.5.5.5.5.5.5.5.5.",
"5.5.5.5.5.5.5.5.5.5.5.5.X + * 5 y K ~ ( *.-.>.1.1.>.;.$.( ~ R J A A A A ^ [ ..X.O..._ L x t 7 3 : 5.5.5.5.5.5.5.5.5.5.5.5.5.5.5.",
"5.5.5.5.5.5.5.5.5.5.5.5.X @ - w S ( $.-.;.:.>.>.>.>.;.-.-.$.o.| ' _ ' ! ' ' } ....[ ! A t 3 * & 5.5.5.5.5.5.5.5.5.5.5.5.5.5.5.5.",
"5.5.5.5.5.5.5.5.5.5.5.5.X + ; t T o.;.>.>.>.>.:.-.*.-.;.:.>.-.*.+.' ' ) ) Y ) Q ! Q L j 7 - @ O 5.5.5.5.5.5.5.5.5.5.5.5.5.5.5.5.",
"5.5.5.5.5.5.5.5.5.5.5.5.X + ; y K o.-.,.1.>.:.*.$.$.@.*.;.>.>.*.O.' ) A A A j A v n l t 5 & X 5.5.5.5.5.5.5.5.5.5.5.5.5.5.5.5.5.",
"5.5.5.5.5.5.5.5.5.5.5.5.X + * y C [ &.-.1.-.-.&.} ` '  .=.-.-.&...) A M p 9 6 7 0 0 0 5 > 5.5.5.5.5.5.5.5.5.5.5.5.5.5.5.5.5.5.5.",
"5.5.5.5.5.5.5.5.5.5.5.5.o + - 7 C ! O.&.-.-.=.O.^ I I ` &.=.=.#.' A M p 8 , = * * * * * 5.5.5.5.5.5.5.5.5.5.5.5.5.5.5.5.5.5.5.5.",
"5.5.5.5.5.5.5.5.5.5.5.5.o + * 8 l E ' &.&.&.&.' Y Z Z Y ' &.&..._ ) M s q 2 ; % $ + + + 5.5.5.5.5.5.5.5.5.5.5.5.5.5.5.5.5.5.5.5.",
"5.5.5.5.5.5.5.5.5.5.5.5.o + * 8 h Z ! ' } } [ ^ Z C C Z Y ` ' ' ) A A M A g 0 < & + X . 5.5.5.5.5.5.5.5.5.5.5.5.5.5.5.5.5.5.5.5.",
"5.5.5.5.5.5.5.5.5.5.5.5.o + # 4 p C H U ! ! U Z Z c C C P Y Q ! Q Q Q Q E R A y < # X   5.5.5.5.5.5.5.5.5.5.5.5.5.5.5.5.5.5.5.5.",
"5.5.5.5.5.5.5.5.5.5.5.5.o + # 4 e c C Z Z Z Z Z C C C c Z Z Z Y Q _ [ X.O.o.( A w ; + X 5.5.5.5.5.5.5.5.5.5.5.5.5.5.5.5.5.5.5.5.",
"5.5.5.5.5.5.5.5.5.5.5.5.+ + # 2 9 f C C Z Z Z Z Z Z Z Z Z Z Z I ^ ' ..#.=.=.@.E h 6 ; * 5.5.5.5.5.5.5.5.5.5.5.5.5.5.5.5.5.5.5.5.",
"5.5.5.5.5.5.5.5.5.5.5.5.+ # # , 9 d C Z U Y ^ ! ! ! ! Y Q Q ` / ' ' X.#.=.=.$.{ T z y w < 5.5.5.5.5.5.5.5.5.5.5.5.5.5.5.5.5.5.5.",
"5.5.5.5.5.5.5.5.5.5.5.5.+ + * , 9 f Z I ! '  .O.O.X.O.X.X.X.....} } ..X.+.+.+...' Q L l 0 ; + 5.5.5.5.5.5.5.5.5.5.5.5.5.5.5.5.5.",
"5.5.5.5.5.5.5.5.5.5.5.5.o + # , 9 f Z ! } &.&.=.=.=.=.=.*.*.&.%.X.X.} } ......+.+.+.{ A r ; + X 5.5.5.5.5.5.5.5.5.5.5.5.5.5.5.5.",
"5.5.5.5.5.5.5.5.5.5.5.5.o + & , 9 f Z ! } &.-.-.:.-.-.-.-.-.-.&.%.X...[ ' ' ....&.=.@.T y ; @ X 5.5.5.5.5.5.5.5.5.5.5.5.5.5.5.5.",
"5.5.5.5.5.5.5.5.5.5.5.5.o + & < 9 k Z ! } &.=.-.=.=.=.=.-.=.*.&.%.#.X.} _ ) _ ..%.&.o.T r ; + X 5.5.5.5.5.5.5.5.5.5.5.5.5.5.5.5.",
"5.5.5.5.5.5.5.5.5.5.5.5.o + # , 9 k Z U ' O.&.&.#.#.#.#.+.#.#.%.&.&.%.} ^ Y ) _ O.#.{ A t ; @ X 5.5.5.5.5.5.5.5.5.5.5.5.5.5.5.5.",
"5.5.5.5.5.5.5.5.5.5.5.5.o o , , 9 f C I ) [ } } O...X.....O.O.%.=.-.*..._ A Z ) _ [ ! A q - @ X 5.5.5.5.5.5.5.5.5.5.5.5.5.5.5.5.",
"5.5.5.5.5.5.5.5.5.5.5.5.o + # , 8 p C C ! ' } O.O...X.....X.O.%.-.;.=.X.) A A A I U L j q - @ X 5.5.5.5.5.5.5.5.5.5.5.5.5.5.5.5.",
"5.5.5.5.5.5.5.5.5.5.5.5.5.+ # , 3 9 p C Y [ O.&.%.%.%.%.#.%.=.=.:.:.-.X.) A V M b b j t 5 * @ 5.5.5.5.5.5.5.5.5.5.5.5.5.5.5.5.5.",
"5.5.5.5.5.5.5.5.5.5.5.5.5.5.5.& - < 0 l E O.*.=.-.=.-.=.-.=.-.>.>.>.-.O.) Z c s e w 6 5 > 5.5.5.5.5.5.5.5.5.5.5.5.5.5.5.5.5.5.5.",
"5.5.5.5.5.5.5.5.5.5.5.5.5.5.5.5.+ & < h E O.;.>.:.;.-.-.-.-.-.>.>.>.=.X.) Z k u 6 : - & 5.5.5.5.5.5.5.5.5.5.5.5.5.5.5.5.5.5.5.5.",
"5.5.5.5.5.5.5.5.5.5.5.5.5.5.5.5.X + ; y T @.:.;.-.$.$.@.@.$.$.&.*.=.#...) V k u 4 : & # 5.5.5.5.5.5.5.5.5.5.5.5.5.5.5.5.5.5.5.5.",
"5.5.5.5.5.5.5.5.5.5.5.5.5.5.5.5.  X * r T @.;.*.o.^ E R T E E / ] } ..) U V k u 8 1 : = = 5.5.5.5.5.5.5.5.5.5.5.5.5.5.5.5.5.5.5.",
"5.5.5.5.5.5.5.5.5.5.5.5.5.5.5.5.  O * r T $.*.| E z y y y y h n L Y Q U H V c f p u 8 2 : % + 5.5.5.5.5.5.5.5.5.5.5.5.5.5.5.5.5.",
"5.5.5.5.5.5.5.5.5.5.5.5.5.5.5.5.. + < y E $.$.( z 7 - * * - < w d m Z Z V M M c c f p 8 , % + X 5.5.5.5.5.5.5.5.5.5.5.5.5.5.5.5.",
"5.5.5.5.5.5.5.5.5.5.5.5.5.5.5.5.* < 0 z ( $.$.E y < + o O + & < 9 s k c M M M N V M f u 2 % @ O 5.5.5.5.5.5.5.5.5.5.5.5.5.5.5.5.",
"5.5.5.5.5.5.5.5.5.5.5.5.5.5.5.3 0 y z E | *.$.E y ; O     X + - 2 8 9 p f M M V V N k 9 2 & + O 5.5.5.5.5.5.5.5.5.5.5.5.5.5.5.5.",
"5.5.5.5.5.5.5.5.5.5.5.5.5.+ ; 0 z K ~ o.*.-.@.T y - O     5.5.& = 1 2 9 p k N Z V B k e > % @ X 5.5.5.5.5.5.5.5.5.5.5.5.5.5.5.5.",
"5.5.5.5.5.5.5.5.5.5.5.5.X + ; y D ( $.;.>.;.$.T y ; + X 5.5.5.5.# # : 4 u k M V V N k e 2 % @ O 5.5.5.5.5.5.5.5.5.5.5.5.5.5.5.5.",
"5.5.5.5.5.5.5.5.5.5.5.5.X + ; y E @.:.2.2.:.$.T y ; + X 5.5.5.5.+ + # 4 9 f M V B N k e 1 % @ X 5.5.5.5.5.5.5.5.5.5.5.5.5.5.5.5.",
"5.5.5.5.5.5.5.5.5.5.5.5.5.+ ; y E %.2.4.4.>.$.T y ; @ 5.5.5.5.5.5.+ # 1 9 f M V V b k e 1 % @ 5.5.5.5.5.5.5.5.5.5.5.5.5.5.5.5.5.",
"5.5.5.5.5.5.5.5.5.5.5.5.5.5.5.5.5.5.5.5.5.5.5.5.5.5.5.5.5.5.5.5.5.5.5.5.5.5.5.5.5.5.5.5.5.5.5.5.5.5.5.5.5.5.5.5.5.5.5.5.5.5.5.5.",
"5.5.5.5.5.5.5.5.5.5.5.5.5.5.5.5.5.5.5.5.5.5.5.5.5.5.5.5.5.5.5.5.5.5.5.5.5.5.5.5.5.5.5.5.5.5.5.5.5.5.5.5.5.5.5.5.5.5.5.5.5.5.5.5.",
"5.5.5.5.5.5.5.5.5.5.5.5.5.5.5.5.5.5.5.5.5.5.5.5.5.5.5.5.5.5.5.5.5.5.5.5.5.5.5.5.5.5.5.5.5.5.5.5.5.5.5.5.5.5.5.5.5.5.5.5.5.5.5.5.",
"5.5.5.5.5.5.5.5.5.5.5.5.5.5.5.5.5.5.5.5.5.5.5.5.5.5.5.5.5.5.5.5.5.5.5.5.5.5.5.5.5.5.5.5.5.5.5.5.5.5.5.5.5.5.5.5.5.5.5.5.5.5.5.5."
};
