/* XPM */
static char *result[] = {
/* columns rows colors chars-per-pixel */
"64 64 107 2 ",
"   c #29122C",
".  c #2F1830",
"X  c #341D34",
"o  c #372037",
"O  c #372038",
"+  c #3D253B",
"@  c #40273D",
"#  c #42293E",
"$  c #452D41",
"%  c #492F42",
"&  c #4B3245",
"*  c #4F3548",
"=  c #503749",
"-  c #543B4C",
";  c #593D4E",
":  c #5F404F",
">  c #5D4352",
",  c #60414F",
"<  c #624554",
"1  c #644957",
"2  c #684854",
"3  c #654A59",
"4  c #6B4E5B",
"5  c #6C515E",
"6  c #73535D",
"7  c #79565E",
"8  c #6F5461",
"9  c #705461",
"0  c #745A65",
"q  c #7C5B63",
"w  c #765D68",
"e  c #7B5E69",
"r  c #7C626C",
"t  c #855F64",
"y  c #866167",
"u  c #84636A",
"i  c #89656A",
"p  c #936C6E",
"a  c #806770",
"s  c #856B73",
"d  c #8D6D74",
"f  c #966F71",
"g  c #8D7076",
"h  c #8C727A",
"j  c #947175",
"k  c #9B7475",
"l  c #95767B",
"z  c #97787D",
"x  c #9A797C",
"c  c #A17776",
"v  c #A27877",
"b  c #A47C7B",
"n  c #A7807E",
"m  c #A9807E",
"M  c #9C7E82",
"N  c #9B8184",
"B  c #9E8589",
"V  c #A28184",
"C  c #AB8482",
"Z  c #AF8885",
"A  c #A28689",
"S  c #A68C8E",
"D  c #AC8A8B",
"F  c #B18987",
"G  c #B48D8A",
"H  c #B6918E",
"J  c #B9928F",
"K  c #A88F90",
"L  c #AB9192",
"P  c #B49493",
"I  c #BA9693",
"U  c #BC9996",
"Y  c #B49A99",
"T  c #BD9B99",
"R  c #BFA4A2",
"E  c #C09B96",
"W  c #C29E9A",
"Q  c #C5A19D",
"!  c #C8A39E",
"~  c #C3A6A2",
"^  c #CAA6A1",
"/  c #C4A9A6",
"(  c #CDA9A4",
")  c #C7ADA9",
"_  c #CEAEA9",
"`  c #D1ACA7",
"'  c #D1AEA8",
"]  c #CFB2AC",
"[  c #D4B3AC",
"{  c #D8B5AE",
"}  c #D3B7B0",
"|  c #D8B7B0",
" . c #D4BAB3",
".. c #DBBCB4",
"X. c #E0BEB4",
"o. c #DFC0B7",
"O. c #DEC1B9",
"+. c #E2C4BB",
"@. c #E5C9BF",
"#. c #E7CBC1",
"$. c #EACEC3",
"%. c #ECD1C6",
"&. c #EFD4C8",
"*. c #F0D3C7",
"=. c #F1D6CA",
"-. c #F4D9CC",
";. c None",
/* pixels */
";.;.;.;.;.;.;.;.;.;.;.;.;.;.;.;.;.;.;.;.;.;.;.;.;.;.;.;.;.;.;.;.;.;.;.;.;.;.;.;.;.;.;.;.;.;.;.;.;.;.;.;.;.;.;.;.;.;.;.;.;.;.;.;.",
";.;.;.;.;.;.;.;.;.;.;.;.;.;.;.;.;.;.;.;.;.;.;.;.;.;.;.;.;.;.;.;.;.;.;.;.;.;.;.;.;.;.;.;.;.;.;.;.;.;.;.;.;.;.;.;.;.;.;.;.;.;.;.;.",
";.;.;.;.;.;.;.;.;.;.;.;.;.;.;.;.;.;.;.;.;.;.;.;.;.;.;.;.;.;.;.;.;.;.;.;.;.;.;.;.;.;.;.;.;.;.;.;.;.;.;.;.;.;.;.;.;.;.;.;.;.;.;.;.",
";.;.;.;.;.;.;.;.;.;.;.;.;.;.;.;.;.;.;.;.;.;.;.;.;.;.;.;.;.;.;.;.;.;.;.;.;.;.;.;.;.;.;.;.;.;.;.;.;.;.;.;.;.;.;.;.;.;.;.;.;.;.;.;.",
";.;.;.;.;.;.;.;.;.;.;.;.;.;.;.;.;.;.;.;.;.;.;.;.;.;.;.;.;.;.;.;.;.;.;.;.;.;.;.;.;.;.;.;.;.;.;.;.;.;.;.;.;.;.;.;.;.;.;.;.;.;.;.;.",
";.;.;.;.;.;.;.;.;.;.;.;.;.;.;.;.;.;.;.;.;.;.;.;.;.;.;.;.;.;.;.;.;.;.;.;.;.;.;.;.;.;.;.;.;.;.;.;.;.;.;.;.;.;.;.;.;.;.;.;.;.;.;.;.",
";.;.;.;.;.;.;.;.;.;.;.;.;.;.;.;.;.;.;.;.;.;.;.;.;.;.;.;.;.;.;.;.;.;.;.;.;.;.;.;.;.;.;.;.;.;.;.;.;.;.;.;.;.;.;.;.;.;.;.;.;.;.;.;.",
";.;.;.;.;.;.;.;.;.;.;.;.;.;.;.;.;.;.;.;.;.;.;.;.;.;.;.;.;.;.;.;.;.;.;.;.;.;.;.;.;.;.;.;.;.;.;.;.;.;.;.;.;.;.;.;.;.;.;.;.;.;.;.;.",
";.;.;.;.;.;.;.;.;.;.;.;.;.;.;.;.;.X X X X X X X . O . O O O O . X X X O X X X X X X X ;.;.;.;.;.;.;.;.;.;.;.;.;.;.;.;.;.;.;.;.;.",
";.;.;.;.;.;.;.;.;.;.;.;.;.;.;.;.+ + + $ + + + + + + + O O + O O + + + + @ + $ X $ + $ + ;.;.;.;.;.;.;.;.;.;.;.;.;.;.;.;.;.;.;.;.",
";.;.;.;.;.;.;.;.;.;.;.;.;.;.;.;.= = = = - - - - > - > - > - > > = = - * = = = = = = * * ;.;.;.;.;.;.;.;.;.;.;.;.;.;.;.;.;.;.;.;.",
";.;.;.;.;.;.;.;.;.;.;.;.;.;.;.> 3 5 9 0 0 w r r r w r r w w r r 0 9 8 8 9 5 9 5 8 8 4 1 ; ;.;.;.;.;.;.;.;.;.;.;.;.;.;.;.;.;.;.;.",
";.;.;.;.;.;.;.;.;.;.;.;.;.+ = 3 w d l M S L K K L K K K K K B L M M l l l l M l M j g e < % X ;.;.;.;.;.;.;.;.;.;.;.;.;.;.;.;.;.",
";.;.;.;.;.;.;.;.;.;.;.;.X + = 5 d S U ^ R R  . . . . . . . .R R R T I P P I I E U P D g 5 = $ X ;.;.;.;.;.;.;.;.;.;.;.;.;.;.;.;.",
";.;.;.;.;.;.;.;.;.;.;.;.X + = 9 M Y ] O.$.%.$.%.%.$.$.%.%.%.#.O.| ' ' ( ^ ( ( ( ` ^ T M e < = % ;.;.;.;.;.;.;.;.;.;.;.;.;.;.;.;.",
";.;.;.;.;.;.;.;.;.;.;.;.X + = 0 N /  .#.&.&.=.-.=.=.=.=.=.=.&.%.+.X...| ' ' ' ' ' ` W D l e 5 < ; ;.;.;.;.;.;.;.;.;.;.;.;.;.;.;.",
";.;.;.;.;.;.;.;.;.;.;.;.X + - w A _ +.&.&.&.*.=.%.&.&.&.&.=.%.%.#.@.O...{ ` ` ` ` ` ^ U D M d q 3 * + ;.;.;.;.;.;.;.;.;.;.;.;.;.",
";.;.;.;.;.;.;.;.;.;.;.;.X + - r S ] #.&.&.$.%.%.%.%.%.%.%.%.%.%.$.#.@...{ ` ( ^ ^ ^ ^ ! ! T M s 5 * + X ;.;.;.;.;.;.;.;.;.;.;.;.",
";.;.;.;.;.;.;.;.;.;.;.;.X + - r K  .%.-.&.%.%.%.%.%.%.%.%.%.%.%.*.%.#.+.| ` ( ^ ^ ( ^ ` ` ( J M 8 * + X ;.;.;.;.;.;.;.;.;.;.;.;.",
";.;.;.;.;.;.;.;.;.;.;.;.X + - r L ..&.-.-.&.$.%.%.%.%.%.&.&.&.-.=.=.%.+...` ( ^ ^ ( ` ` ' ` I M 9 - + O ;.;.;.;.;.;.;.;.;.;.;.;.",
";.;.;.;.;.;.;.;.;.;.;.;.X + - r L  .&.-.-.%.$.%.%.%.%.%.&.&.=.-.-.-.%.+.| ` ( ( ^ ^ ( ` ' ` E l 9 = + X ;.;.;.;.;.;.;.;.;.;.;.;.",
";.;.;.;.;.;.;.;.;.;.;.;.X @ - r L  .%.&.&.%.%.%.%.%.%.%.%.%.%.%.%.$.#.O.| ` ( ^ ^ ` ( ` ` ( P M 9 * + O ;.;.;.;.;.;.;.;.;.;.;.;.",
";.;.;.;.;.;.;.;.;.;.;.;.X + = 0 N R  .@.#.#.$.%.%.%.%.#. . . . . . .{ [ ` ( ( ^ ( ^ ( ` ` ^ P l 9 = + X ;.;.;.;.;.;.;.;.;.;.;.;.",
";.;.;.;.;.;.;.;.;.;.;.;.O + * 3 r B Y )  .#.%.&.&.%.@. .R Y L K K L P Y W ^ ( ^ ` ( ^ ` ` ( P g 9 * + X ;.;.;.;.;.;.;.;.;.;.;.;.",
";.;.;.;.;.;.;.;.;.;.;.;.X + $ = > w M B R @.%.=.=.%.O.R S h r w w r M M M Q ^ ( ( ( ( ` ` ! P M 9 * + X ;.;.;.;.;.;.;.;.;.;.;.;.",
";.;.;.;.;.;.;.;.;.;.;.;.+ + @ # & - 3 M Y  .%.-.-.%. .Y h 3 > $ * - 3 a M T ^ ` ` ( ( ( ` ( P M 9 - + X ;.;.;.;.;.;.;.;.;.;.;.;.",
";.;.;.;.;.;.;.;.;.;.;.;.+ + + X O + = r K  .&.-.-.%. .L r > + . X O = 9 M T ^ ` ` ( ( ( ` ( E k 8 = + O ;.;.;.;.;.;.;.;.;.;.;.;.",
";.;.;.;.;.;.;.;.;.;.;.;.+ + + X . X & w K  .%.-.-.%. .K w * .     X % 5 M I ^ ` ' ( ( ' ' ` I k 9 = + O ;.;.;.;.;.;.;.;.;.;.;.;.",
";.;.;.;.;.;.;.;.;.;.;.;.@ + + X . X * w K  .%.-.-.&. .L w * O     X % 4 M P ^ ` ` ( ( ' ' ` U z 8 = + X ;.;.;.;.;.;.;.;.;.;.;.;.",
";.;.;.;.;.;.;.;.;.;.;.;.+ + + X O + - r K  .%.-.-.%. .L w > O O X @ = 9 M M ^ ` ` ( ( ( ` ^ I l 8 = + X ;.;.;.;.;.;.;.;.;.;.;.;.",
";.;.;.;.;.;.;.;.;.;.;.;.+ + @ $ $ = 5 h Y  .&.-.-.%. .Y h 3 > $ % = 3 u M E ( ` ` ( ^ ^ W U D d 5 = + o ;.;.;.;.;.;.;.;.;.;.;.;.",
";.;.;.;.;.;.;.;.;.;.;.;.X + $ - 3 w h K R O.%.-.-.&.O.R K h w w 9 0 u M M Q ` ' ' ( ^ T D M d e 3 = + ;.;.;.;.;.;.;.;.;.;.;.;.;.",
";.;.;.;.;.;.;.;.;.;.;.;.o + = > r B Y ) o.@.@.-.=.&.O.o.R Y L A M M M M Q ^ ` { { ` W D j e 8 < ; ;.;.;.;.;.;.;.;.;.;.;.;.;.;.;.",
";.;.;.;.;.;.;.;.;.;.;.;.o O > 8 N R o.O.@.@.&.-.%.%.$.@.O.o.[ ! Q T U Q ^ ^ ^ ` ` ^ U M e < = & ;.;.;.;.;.;.;.;.;.;.;.;.;.;.;.;.",
";.;.;.;.;.;.;.;.;.;.;.;.. + = r S ] @.&.=.%.@.@.@.O.+.@.$.$.@.+.[ ^ Q Q E M I U P P D h 9 = @ X ;.;.;.;.;.;.;.;.;.;.;.;.;.;.;.;.",
";.;.;.;.;.;.;.;.;.;.;.;.o + = r S ] @.&.&.&.@.+.o.} } O.@.&.@.+.[ Q I M M M M M l M h w 3 % X ;.;.;.;.;.;.;.;.;.;.;.;.;.;.;.;.;.",
";.;.;.;.;.;.;.;.;.;.;.;.X + = r B R o.@.&.@.@.o.) Q Q _ O.%.@.+.` E M M i 7 5 5 8 8 8 3 ; ;.;.;.;.;.;.;.;.;.;.;.;.;.;.;.;.;.;.;.",
";.;.;.;.;.;.;.;.;.;.;.;.o + = 6 n Y [ +.@.@.@.} W G G W [ +.@.| ! M k y 6 , = * * * * * ;.;.;.;.;.;.;.;.;.;.;.;.;.;.;.;.;.;.;.;.",
";.;.;.;.;.;.;.;.;.;.;.;.o + = 5 g H ! { o.o.o.^ H n m J (  ...` E M f y 4 - = & $ @ + + ;.;.;.;.;.;.;.;.;.;.;.;.;.;.;.;.;.;.;.;.",
";.;.;.;.;.;.;.;.;.;.;.;.o + * 2 s Z U ! ( ^ Q U m n n Z U ! ^ ! E J M M M M 9 < * O O X ;.;.;.;.;.;.;.;.;.;.;.;.;.;.;.;.;.;.;.;.",
";.;.;.;.;.;.;.;.;.;.;.;.+ + * 1 u n G J J U J F b v v m F H J U E E J E P K M r > # O   ;.;.;.;.;.;.;.;.;.;.;.;.;.;.;.;.;.;.;.;.",
";.;.;.;.;.;.;.;.;.;.;.;.o + * , q f m m m m m n b b v b n m F H E E ! ^ } } R M 0 - + O ;.;.;.;.;.;.;.;.;.;.;.;.;.;.;.;.;.;.;.;.",
";.;.;.;.;.;.;.;.;.;.;.;.o + & , 7 p n m m m m m C C C m n m C G E ! ` { O.+.} P s 3 - * ;.;.;.;.;.;.;.;.;.;.;.;.;.;.;.;.;.;.;.;.",
";.;.;.;.;.;.;.;.;.;.;.;.o + & , 7 p b m G J U Q U U I H F F F J E ^ ' { +.+.../ M M r 8 3 ;.;.;.;.;.;.;.;.;.;.;.;.;.;.;.;.;.;.;.",
";.;.;.;.;.;.;.;.;.;.;.;.+ # # , 7 f n J Q ! _ [ ' ' _ ^ E U I E ! ! ( { { X.{ ` / Y S M 5 * @ ;.;.;.;.;.;.;.;.;.;.;.;.;.;.;.;.;.",
";.;.;.;.;.;.;.;.;.;.;.;.o # # , 7 p n J ( o.o.+.@.+...| ` ( W ! ! ^ ^ ( ` ` ' {  .} / M w - O X ;.;.;.;.;.;.;.;.;.;.;.;.;.;.;.;.",
";.;.;.;.;.;.;.;.;.;.;.;.o # # 2 6 i n L ( o.@.@.$.#.@.+.| [ ' ( ` ^ ^ ! ! ! ^ { O.+.] K w - @ X ;.;.;.;.;.;.;.;.;.;.;.;.;.;.;.;.",
";.;.;.;.;.;.;.;.;.;.;.;.;.+ # = 2 6 i n W o.@.@.#.+.+.X.....| [ ` ` ! ! E E W ` O.O.] S w - @ O ;.;.;.;.;.;.;.;.;.;.;.;.;.;.;.;.",
";.;.;.;.;.;.;.;.;.;.;.;.;.;.;.* = , 6 d D _ ..+.X.......+.X.....[ ` W E J J J ! ' | ^ A 0 - @ X ;.;.;.;.;.;.;.;.;.;.;.;.;.;.;.;.",
";.;.;.;.;.;.;.;.;.;.;.;.;.;.;.;.# & > e M T _ ' ' ' [ ..+.+.@...| ` ! I F C C P W ^ T M 0 - + X ;.;.;.;.;.;.;.;.;.;.;.;.;.;.;.;.",
";.;.;.;.;.;.;.;.;.;.;.;.;.;.;.;.X + = 5 f D I W W W ( [ +.@.@.@.X.' ^ P C k j b D H D g 8 * + X ;.;.;.;.;.;.;.;.;.;.;.;.;.;.;.;.",
";.;.;.;.;.;.;.;.;.;.;.;.;.;.;.;.;.+ & 1 w d z V D H W ` ..@.$.$.+...( P x i t t d j d e 3 * + ;.;.;.;.;.;.;.;.;.;.;.;.;.;.;.;.;.",
";.;.;.;.;.;.;.;.;.;.;.;.;.;.;.;.;.;.;.; < 5 7 y f C P ! | @.$.%.$.+.' P g 9 < < 1 4 4 3 > ;.;.;.;.;.;.;.;.;.;.;.;.;.;.;.;.;.;.;.",
";.;.;.;.;.;.;.;.;.;.;.;.;.;.;.;.;.;.;.;.& = : 4 t k F W [ +.%.*.*.$.} K s > & % % = = = ;.;.;.;.;.;.;.;.;.;.;.;.;.;.;.;.;.;.;.;.",
";.;.;.;.;.;.;.;.;.;.;.;.;.;.;.;.;.;.;.;.# & - 2 q f C T [ +.%.-.-.$.} K r - + X + + + @ ;.;.;.;.;.;.;.;.;.;.;.;.;.;.;.;.;.;.;.;.",
";.;.;.;.;.;.;.;.;.;.;.;.;.;.;.;.;.;.;.& - , 2 6 t f C U ' +.$.-.-.&. .L r = + X . X X ;.;.;.;.;.;.;.;.;.;.;.;.;.;.;.;.;.;.;.;.;.",
";.;.;.;.;.;.;.;.;.;.;.;.;.;.;.;.;.@ % ; 2 6 t y p k m U _ O.$.-.-.$. .K r - O X X ;.;.;.;.;.;.;.;.;.;.;.;.;.;.;.;.;.;.;.;.;.;.;.",
";.;.;.;.;.;.;.;.;.;.;.;.;.;.;.;.X + & : 6 y f f f v C I ] @.$.-.-.$.} K r - + X ;.;.;.;.;.;.;.;.;.;.;.;.;.;.;.;.;.;.;.;.;.;.;.;.",
";.;.;.;.;.;.;.;.;.;.;.;.;.;.;.;.o @ & , 7 p v v v v C U _ +.%.-.-.%.} K r - + . ;.;.;.;.;.;.;.;.;.;.;.;.;.;.;.;.;.;.;.;.;.;.;.;.",
";.;.;.;.;.;.;.;.;.;.;.;.;.;.;.;.;.@ & < t p v b v v C I ] +.%.-.-.%.} K r - + ;.;.;.;.;.;.;.;.;.;.;.;.;.;.;.;.;.;.;.;.;.;.;.;.;.",
";.;.;.;.;.;.;.;.;.;.;.;.;.;.;.;.;.;.;.;.;.;.;.;.;.;.;.;.;.;.;.;.;.;.;.;.;.;.;.;.;.;.;.;.;.;.;.;.;.;.;.;.;.;.;.;.;.;.;.;.;.;.;.;.",
";.;.;.;.;.;.;.;.;.;.;.;.;.;.;.;.;.;.;.;.;.;.;.;.;.;.;.;.;.;.;.;.;.;.;.;.;.;.;.;.;.;.;.;.;.;.;.;.;.;.;.;.;.;.;.;.;.;.;.;.;.;.;.;.",
";.;.;.;.;.;.;.;.;.;.;.;.;.;.;.;.;.;.;.;.;.;.;.;.;.;.;.;.;.;.;.;.;.;.;.;.;.;.;.;.;.;.;.;.;.;.;.;.;.;.;.;.;.;.;.;.;.;.;.;.;.;.;.;.",
";.;.;.;.;.;.;.;.;.;.;.;.;.;.;.;.;.;.;.;.;.;.;.;.;.;.;.;.;.;.;.;.;.;.;.;.;.;.;.;.;.;.;.;.;.;.;.;.;.;.;.;.;.;.;.;.;.;.;.;.;.;.;.;."
};
